  0
SECTION
  2
HEADER
  9
$ACADVER
  1
AC1014
  9
$ACADMAINTVER
 70
     9
  9
$DWGCODEPAGE
  3
ANSI_1252
  9
$INSBASE
 10
0.0
 20
0.0
 30
0.0
  9
$EXTMIN
 10
-54.2271
 20
-27.3845
 30
0.0
  9
$EXTMAX
 10
23.1197
 20
92.8155
 30
0.0
  9
$LIMMIN
 10
0.0
 20
0.0
  9
$LIMMAX
 10
12.0
 20
9.0
  9
$ORTHOMODE
 70
     0
  9
$REGENMODE
 70
     1
  9
$FILLMODE
 70
     1
  9
$QTEXTMODE
 70
     0
  9
$MIRRTEXT
 70
     1
  9
$DRAGMODE
 70
     2
  9
$LTSCALE
 40
1.0
  9
$OSMODE
 70
    37
  9
$ATTMODE
 70
     1
  9
$TEXTSIZE
 40
0.2
  9
$TRACEWID
 40
0.05
  9
$TEXTSTYLE
  7
STANDARD
  9
$CLAYER
  8
0
  9
$CELTYPE
  6
BYLAYER
  9
$CECOLOR
 62
   256
  9
$CELTSCALE
 40
1.0
  9
$DELOBJ
 70
     1
  9
$DISPSILH
 70
     0
  9
$DIMSCALE
 40
1.0
  9
$DIMASZ
 40
0.18
  9
$DIMEXO
 40
0.0625
  9
$DIMDLI
 40
0.38
  9
$DIMRND
 40
0.0
  9
$DIMDLE
 40
0.0
  9
$DIMEXE
 40
0.18
  9
$DIMTP
 40
0.0
  9
$DIMTM
 40
0.0
  9
$DIMTXT
 40
0.18
  9
$DIMCEN
 40
0.09
  9
$DIMTSZ
 40
0.0
  9
$DIMTOL
 70
     0
  9
$DIMLIM
 70
     0
  9
$DIMTIH
 70
     1
  9
$DIMTOH
 70
     1
  9
$DIMSE1
 70
     0
  9
$DIMSE2
 70
     0
  9
$DIMTAD
 70
     0
  9
$DIMZIN
 70
     0
  9
$DIMBLK
  1

  9
$DIMASO
 70
     1
  9
$DIMSHO
 70
     1
  9
$DIMPOST
  1

  9
$DIMAPOST
  1

  9
$DIMALT
 70
     0
  9
$DIMALTD
 70
     2
  9
$DIMALTF
 40
25.4
  9
$DIMLFAC
 40
1.0
  9
$DIMTOFL
 70
     0
  9
$DIMTVP
 40
0.0
  9
$DIMTIX
 70
     0
  9
$DIMSOXD
 70
     0
  9
$DIMSAH
 70
     0
  9
$DIMBLK1
  1

  9
$DIMBLK2
  1

  9
$DIMSTYLE
  2
STANDARD
  9
$DIMCLRD
 70
     0
  9
$DIMCLRE
 70
     0
  9
$DIMCLRT
 70
     0
  9
$DIMTFAC
 40
1.0
  9
$DIMGAP
 40
0.09
  9
$DIMJUST
 70
     0
  9
$DIMSD1
 70
     0
  9
$DIMSD2
 70
     0
  9
$DIMTOLJ
 70
     1
  9
$DIMTZIN
 70
     0
  9
$DIMALTZ
 70
     0
  9
$DIMALTTZ
 70
     0
  9
$DIMFIT
 70
     3
  9
$DIMUPT
 70
     0
  9
$DIMUNIT
 70
     2
  9
$DIMDEC
 70
     4
  9
$DIMTDEC
 70
     4
  9
$DIMALTU
 70
     2
  9
$DIMALTTD
 70
     2
  9
$DIMTXSTY
  7
STANDARD
  9
$DIMAUNIT
 70
     0
  9
$LUNITS
 70
     2
  9
$LUPREC
 70
     4
  9
$SKETCHINC
 40
0.1
  9
$FILLETRAD
 40
0.5
  9
$AUNITS
 70
     0
  9
$AUPREC
 70
     0
  9
$MENU
  1
.
  9
$ELEVATION
 40
0.0
  9
$PELEVATION
 40
0.0
  9
$THICKNESS
 40
0.0
  9
$LIMCHECK
 70
     0
  9
$CHAMFERA
 40
0.5
  9
$CHAMFERB
 40
0.5
  9
$CHAMFERC
 40
1.0
  9
$CHAMFERD
 40
0.0
  9
$SKPOLY
 70
     0
  9
$TDCREATE
 40
2457398.736450486
  9
$TDUPDATE
 40
2457398.736450498
  9
$TDINDWG
 40
0.0000000116
  9
$TDUSRTIMER
 40
0.0000000116
  9
$USRTIMER
 70
     1
  9
$ANGBASE
 50
0.0
  9
$ANGDIR
 70
     0
  9
$PDMODE
 70
     0
  9
$PDSIZE
 40
0.0
  9
$PLINEWID
 40
0.0
  9
$COORDS
 70
     1
  9
$SPLFRAME
 70
     0
  9
$SPLINETYPE
 70
     6
  9
$SPLINESEGS
 70
     8
  9
$ATTDIA
 70
     0
  9
$ATTREQ
 70
     1
  9
$HANDLING
 70
     1
  9
$HANDSEED
  5
AF
  9
$SURFTAB1
 70
     6
  9
$SURFTAB2
 70
     6
  9
$SURFTYPE
 70
     6
  9
$SURFU
 70
     6
  9
$SURFV
 70
     6
  9
$UCSNAME
  2

  9
$UCSORG
 10
0.0
 20
0.0
 30
0.0
  9
$UCSXDIR
 10
1.0
 20
0.0
 30
0.0
  9
$UCSYDIR
 10
0.0
 20
1.0
 30
0.0
  9
$PUCSNAME
  2

  9
$PUCSORG
 10
0.0
 20
0.0
 30
0.0
  9
$PUCSXDIR
 10
1.0
 20
0.0
 30
0.0
  9
$PUCSYDIR
 10
0.0
 20
1.0
 30
0.0
  9
$USERI1
 70
     0
  9
$USERI2
 70
     0
  9
$USERI3
 70
     0
  9
$USERI4
 70
     0
  9
$USERI5
 70
     0
  9
$USERR1
 40
0.0
  9
$USERR2
 40
0.0
  9
$USERR3
 40
0.0
  9
$USERR4
 40
0.0
  9
$USERR5
 40
0.0
  9
$WORLDVIEW
 70
     1
  9
$SHADEDGE
 70
     3
  9
$SHADEDIF
 70
    70
  9
$TILEMODE
 70
     1
  9
$MAXACTVP
 70
    64
  9
$PINSBASE
 10
0.0
 20
0.0
 30
0.0
  9
$PLIMCHECK
 70
     0
  9
$PEXTMIN
 10
1.000000000000000E+20
 20
1.000000000000000E+20
 30
1.000000000000000E+20
  9
$PEXTMAX
 10
-1.000000000000000E+20
 20
-1.000000000000000E+20
 30
-1.000000000000000E+20
  9
$PLIMMIN
 10
0.0
 20
0.0
  9
$PLIMMAX
 10
12.0
 20
9.0
  9
$UNITMODE
 70
     0
  9
$VISRETAIN
 70
     1
  9
$PLINEGEN
 70
     0
  9
$PSLTSCALE
 70
     1
  9
$TREEDEPTH
 70
  3020
  9
$PICKSTYLE
 70
     1
  9
$CMLSTYLE
  2
STANDARD
  9
$CMLJUST
 70
     0
  9
$CMLSCALE
 40
1.0
  9
$PROXYGRAPHICS
 70
     1
  9
$MEASUREMENT
 70
     0
  0
ENDSEC
  0
SECTION
  2
CLASSES
  0
CLASS
  1
ACDBDICTIONARYWDFLT
  2
AcDbDictionaryWithDefault
  3
ObjectDBX Classes
 90
        0
280
     0
281
     0
  0
CLASS
  1
VISUALSTYLE
  2
AcDbVisualStyle
  3
ObjectDBX Classes
 90
     4095
280
     0
281
     0
  0
CLASS
  1
MATERIAL
  2
AcDbMaterial
  3
ObjectDBX Classes
 90
     1153
280
     0
281
     0
  0
CLASS
  1
IMAGEDEF
  2
AcDbRasterImageDef
  3
ISM
 90
        0
280
     0
281
     0
  0
CLASS
  1
IMAGE
  2
AcDbRasterImage
  3
ISM
 90
      127
280
     0
281
     1
  0
CLASS
  1
IMAGEDEF_REACTOR
  2
AcDbRasterImageDefReactor
  3
ISM
 90
        1
280
     0
281
     0
  0
CLASS
  1
DICTIONARYVAR
  2
AcDbDictionaryVar
  3
ObjectDBX Classes
 90
        0
280
     0
281
     0
  0
CLASS
  1
XRECORD
  2
AcDbXrecord
  3
AutoCAD 2000
 90
        0
280
     0
281
     0
  0
CLASS
  1
LWPOLYLINE
  2
AcDbPolyline
  3
AutoCAD 2000
 90
        0
280
     0
281
     1
  0
CLASS
  1
HATCH
  2
AcDbHatch
  3
AutoCAD 2000
 90
        0
280
     0
281
     1
  0
CLASS
  1
ACDBPLACEHOLDER
  2
AcDbPlaceHolder
  3
ObjectDBX Classes
 90
        0
280
     0
281
     0
  0
CLASS
  1
LAYOUT
  2
AcDbLayout
  3
ObjectDBX Classes
 90
        0
280
     0
281
     0
  0
ENDSEC
  0
SECTION
  2
TABLES
  0
TABLE
  2
VPORT
  5
8
330
0
100
AcDbSymbolTable
 70
     1
  0
VPORT
  5
29
330
8
100
AcDbSymbolTableRecord
100
AcDbViewportTableRecord
  2
*ACTIVE
 70
     0
 10
0.0
 20
0.0
 11
1.0
 21
1.0
 12
10.42990654205607
 22
4.5
 13
0.0
 23
0.0
 14
0.5
 24
0.5
 15
0.5
 25
0.5
 16
0.0
 26
0.0
 36
1.0
 17
0.0
 27
0.0
 37
0.0
 40
9.0
 41
1.972972972850329
 42
50.0
 43
0.0
 44
0.0
 50
0.0
 51
0.0
 71
     0
 72
   100
 73
     1
 74
     3
 75
     0
 76
     0
 77
     0
 78
     0
  0
ENDTAB
  0
TABLE
  2
LTYPE
  5
5
330
0
100
AcDbSymbolTable
 70
     1
  0
LTYPE
  5
14
330
5
100
AcDbSymbolTableRecord
100
AcDbLinetypeTableRecord
  2
BYBLOCK
 70
     0
  3

 72
    65
 73
     0
 40
0.0
  0
LTYPE
  5
15
330
5
100
AcDbSymbolTableRecord
100
AcDbLinetypeTableRecord
  2
BYLAYER
 70
     0
  3

 72
    65
 73
     0
 40
0.0
  0
LTYPE
  5
16
330
5
100
AcDbSymbolTableRecord
100
AcDbLinetypeTableRecord
  2
CONTINUOUS
 70
     0
  3
Solid line
 72
    65
 73
     0
 40
0.0
  0
ENDTAB
  0
TABLE
  2
LAYER
  5
2
330
0
100
AcDbSymbolTable
 70
     2
  0
LAYER
  5
10
330
2
100
AcDbSymbolTableRecord
100
AcDbLayerTableRecord
  2
0
 70
     0
 62
     7
  6
CONTINUOUS
  0
LAYER
  5
40
330
2
100
AcDbSymbolTableRecord
100
AcDbLayerTableRecord
  2
LAYER_1
 70
     0
 62
     7
  6
CONTINUOUS
  0
ENDTAB
  0
TABLE
  2
STYLE
  5
3
330
0
100
AcDbSymbolTable
 70
     1
  0
STYLE
  5
11
330
3
100
AcDbSymbolTableRecord
100
AcDbTextStyleTableRecord
  2
STANDARD
 70
     0
 40
0.0
 41
1.0
 50
0.0
 71
     0
 42
0.2
  3
txt
  4

  0
ENDTAB
  0
TABLE
  2
VIEW
  5
6
330
0
100
AcDbSymbolTable
 70
     0
  0
ENDTAB
  0
TABLE
  2
UCS
  5
7
330
0
100
AcDbSymbolTable
 70
     0
  0
ENDTAB
  0
TABLE
  2
APPID
  5
9
330
0
100
AcDbSymbolTable
 70
     2
  0
APPID
  5
12
330
9
100
AcDbSymbolTableRecord
100
AcDbRegAppTableRecord
  2
ACAD
 70
     0
  0
APPID
  5
3F
330
9
100
AcDbSymbolTableRecord
100
AcDbRegAppTableRecord
  2
ODA
 70
     0
  0
ENDTAB
  0
TABLE
  2
DIMSTYLE
  5
A
330
0
100
AcDbSymbolTable
 70
     1
  0
DIMSTYLE
105
27
330
A
100
AcDbSymbolTableRecord
100
AcDbDimStyleTableRecord
  2
STANDARD
 70
     0
  3

  4

  5

  6

  7

 40
1.0
 41
0.18
 42
0.0625
 43
0.38
 44
0.18
 45
0.0
 46
0.0
 47
0.0
 48
0.0
140
0.18
141
0.09
142
0.0
143
25.4
144
1.0
145
0.0
146
1.0
147
0.09
 71
     0
 72
     0
 73
     1
 74
     1
 75
     0
 76
     0
 77
     0
 78
     0
170
     0
171
     2
172
     0
173
     0
174
     0
175
     0
176
     0
177
     0
178
     0
270
     2
271
     4
272
     4
273
     2
274
     2
340
11
275
     0
280
     0
281
     0
282
     0
283
     1
284
     0
285
     0
286
     0
287
     3
288
     0
  0
ENDTAB
  0
TABLE
  2
BLOCK_RECORD
  5
1
330
0
100
AcDbSymbolTable
 70
     1
  0
BLOCK_RECORD
  5
1F
330
1
100
AcDbSymbolTableRecord
100
AcDbBlockTableRecord
  2
*MODEL_SPACE
  0
BLOCK_RECORD
  5
1B
330
1
100
AcDbSymbolTableRecord
100
AcDbBlockTableRecord
  2
*PAPER_SPACE
  0
ENDTAB
  0
ENDSEC
  0
SECTION
  2
BLOCKS
  0
BLOCK
  5
20
330
1F
100
AcDbEntity
  8
0
100
AcDbBlockBegin
  2
*MODEL_SPACE
 70
     0
 10
0.0
 20
0.0
 30
0.0
  3
*MODEL_SPACE
  1

  0
ENDBLK
  5
21
330
1F
100
AcDbEntity
  8
0
100
AcDbBlockEnd
  0
BLOCK
  5
1C
330
1B
100
AcDbEntity
 67
     1
  8
0
100
AcDbBlockBegin
  2
*PAPER_SPACE
 70
     0
 10
0.0
 20
0.0
 30
0.0
  3
*PAPER_SPACE
  1

  0
ENDBLK
  5
1D
330
1B
100
AcDbEntity
 67
     1
  8
0
100
AcDbBlockEnd
  0
ENDSEC
  0
SECTION
  2
ENTITIES
  0
SPLINE
  5
41
330
1F
100
AcDbEntity
  8
LAYER_1
 62
   250
100
AcDbSpline
210
0.0
220
0.0
230
1.0
 70
    11
 71
     3
 72
    36
 73
    32
 74
     0
 42
0.0000000001
 43
0.0000000001
 40
0.0
 40
0.0
 40
0.0
 40
0.0
 40
0.1111111111111111
 40
0.1111111111111111
 40
0.1111111111111111
 40
0.1111111111111111
 40
0.2222222222222222
 40
0.2222222222222222
 40
0.2222222222222222
 40
0.2222222222222222
 40
0.3333333333333333
 40
0.3333333333333333
 40
0.3333333333333333
 40
0.3333333333333333
 40
0.4444444444444444
 40
0.4444444444444444
 40
0.4444444444444444
 40
0.4444444444444444
 40
0.5555555555555556
 40
0.5555555555555556
 40
0.5555555555555556
 40
0.5555555555555556
 40
0.6666666666666666
 40
0.6666666666666666
 40
0.6666666666666666
 40
0.6666666666666666
 40
0.7777777777777778
 40
0.7777777777777778
 40
0.7777777777777778
 40
0.7777777777777778
 40
1.0
 40
1.0
 40
1.0
 40
1.0
 10
-51.8457
 20
92.7155
 30
0.0
 10
-51.8457
 20
92.7155
 30
0.0
 10
-21.4085
 20
92.7155
 30
0.0
 10
-21.4085
 20
92.7155
 30
0.0
 10
-21.4085
 20
92.7155
 30
0.0
 10
-20.1538
 20
92.7155
 30
0.0
 10
-19.1271
 20
91.6889
 30
0.0
 10
-19.1271
 20
90.4341
 30
0.0
 10
-19.1271
 20
90.4341
 30
0.0
 10
-19.1271
 20
90.4341
 30
0.0
 10
-19.1271
 20
-25.0031
 30
0.0
 10
-19.1271
 20
-25.0031
 30
0.0
 10
-19.1271
 20
-25.0031
 30
0.0
 10
-19.1271
 20
-26.2579
 30
0.0
 10
-20.1538
 20
-27.2845
 30
0.0
 10
-21.4085
 20
-27.2845
 30
0.0
 10
-21.4085
 20
-27.2845
 30
0.0
 10
-21.4085
 20
-27.2845
 30
0.0
 10
-51.8457
 20
-27.2845
 30
0.0
 10
-51.8457
 20
-27.2845
 30
0.0
 10
-51.8457
 20
-27.2845
 30
0.0
 10
-53.1005
 20
-27.2845
 30
0.0
 10
-54.1271
 20
-26.2579
 30
0.0
 10
-54.1271
 20
-25.0031
 30
0.0
 10
-54.1271
 20
-25.0031
 30
0.0
 10
-54.1271
 20
-25.0031
 30
0.0
 10
-54.1271
 20
90.4341
 30
0.0
 10
-54.1271
 20
90.4341
 30
0.0
 10
-54.1271
 20
90.4341
 30
0.0
 10
-54.1271
 20
91.6889
 30
0.0
 10
-53.1005
 20
92.7155
 30
0.0
 10
-51.8457
 20
92.7155
 30
0.0
  0
LWPOLYLINE
  5
42
330
1F
100
AcDbEntity
  8
LAYER_1
 62
   250
100
AcDbPolyline
 90
        5
 70
     1
 43
0.0
 10
-39.1271
 20
26.6155
 10
-24.1271
 20
26.6155
 10
-24.1271
 20
36.6155
 10
-39.1271
 20
36.6155
 10
-39.1271
 20
26.6155
  0
SPLINE
  5
43
330
1F
100
AcDbEntity
  8
LAYER_1
 62
     7
100
AcDbSpline
210
0.0
220
0.0
230
1.0
 70
    11
 71
     3
 72
    20
 73
    16
 74
     0
 42
0.0000000001
 43
0.0000000001
 40
0.0
 40
0.0
 40
0.0
 40
0.0
 40
0.2
 40
0.2
 40
0.2
 40
0.2
 40
0.4
 40
0.4
 40
0.4
 40
0.4
 40
0.6
 40
0.6
 40
0.6
 40
0.6
 40
1.0
 40
1.0
 40
1.0
 40
1.0
 10
-47.9936
 20
46.4395
 30
0.0
 10
-48.8911
 20
46.4395
 30
0.0
 10
-49.6186
 20
45.712
 30
0.0
 10
-49.6186
 20
44.8145
 30
0.0
 10
-49.6186
 20
44.8145
 30
0.0
 10
-49.6186
 20
43.917
 30
0.0
 10
-48.8911
 20
43.1895
 30
0.0
 10
-47.9936
 20
43.1895
 30
0.0
 10
-47.9936
 20
43.1895
 30
0.0
 10
-47.0961
 20
43.1895
 30
0.0
 10
-46.3686
 20
43.917
 30
0.0
 10
-46.3686
 20
44.8145
 30
0.0
 10
-46.3686
 20
44.8145
 30
0.0
 10
-46.3686
 20
45.712
 30
0.0
 10
-47.0961
 20
46.4395
 30
0.0
 10
-47.9936
 20
46.4395
 30
0.0
  0
SPLINE
  5
44
330
1F
100
AcDbEntity
  8
LAYER_1
 62
     7
100
AcDbSpline
210
0.0
220
0.0
230
1.0
 70
    11
 71
     3
 72
    20
 73
    16
 74
     0
 42
0.0000000001
 43
0.0000000001
 40
0.0
 40
0.0
 40
0.0
 40
0.0
 40
0.2
 40
0.2
 40
0.2
 40
0.2
 40
0.4
 40
0.4
 40
0.4
 40
0.4
 40
0.6
 40
0.6
 40
0.6
 40
0.6
 40
1.0
 40
1.0
 40
1.0
 40
1.0
 10
-47.9936
 20
88.3495
 30
0.0
 10
-48.8911
 20
88.3495
 30
0.0
 10
-49.6186
 20
87.622
 30
0.0
 10
-49.6186
 20
86.7245
 30
0.0
 10
-49.6186
 20
86.7245
 30
0.0
 10
-49.6186
 20
85.827
 30
0.0
 10
-48.8911
 20
85.0995
 30
0.0
 10
-47.9936
 20
85.0995
 30
0.0
 10
-47.9936
 20
85.0995
 30
0.0
 10
-47.0961
 20
85.0995
 30
0.0
 10
-46.3686
 20
85.827
 30
0.0
 10
-46.3686
 20
86.7245
 30
0.0
 10
-46.3686
 20
86.7245
 30
0.0
 10
-46.3686
 20
87.622
 30
0.0
 10
-47.0961
 20
88.3495
 30
0.0
 10
-47.9936
 20
88.3495
 30
0.0
  0
SPLINE
  5
45
330
1F
100
AcDbEntity
  8
LAYER_1
 62
     7
100
AcDbSpline
210
0.0
220
0.0
230
1.0
 70
    11
 71
     3
 72
    20
 73
    16
 74
     0
 42
0.0000000001
 43
0.0000000001
 40
0.0
 40
0.0
 40
0.0
 40
0.0
 40
0.2
 40
0.2
 40
0.2
 40
0.2
 40
0.4
 40
0.4
 40
0.4
 40
0.4
 40
0.6
 40
0.6
 40
0.6
 40
0.6
 40
1.0
 40
1.0
 40
1.0
 40
1.0
 10
-25.1336
 20
46.4395
 30
0.0
 10
-26.0311
 20
46.4395
 30
0.0
 10
-26.7586
 20
45.712
 30
0.0
 10
-26.7586
 20
44.8145
 30
0.0
 10
-26.7586
 20
44.8145
 30
0.0
 10
-26.7586
 20
43.917
 30
0.0
 10
-26.0311
 20
43.1895
 30
0.0
 10
-25.1336
 20
43.1895
 30
0.0
 10
-25.1336
 20
43.1895
 30
0.0
 10
-24.2361
 20
43.1895
 30
0.0
 10
-23.5086
 20
43.917
 30
0.0
 10
-23.5086
 20
44.8145
 30
0.0
 10
-23.5086
 20
44.8145
 30
0.0
 10
-23.5086
 20
45.712
 30
0.0
 10
-24.2361
 20
46.4395
 30
0.0
 10
-25.1336
 20
46.4395
 30
0.0
  0
SPLINE
  5
46
330
1F
100
AcDbEntity
  8
LAYER_1
 62
     7
100
AcDbSpline
210
0.0
220
0.0
230
1.0
 70
    11
 71
     3
 72
    20
 73
    16
 74
     0
 42
0.0000000001
 43
0.0000000001
 40
0.0
 40
0.0
 40
0.0
 40
0.0
 40
0.2
 40
0.2
 40
0.2
 40
0.2
 40
0.4
 40
0.4
 40
0.4
 40
0.4
 40
0.6
 40
0.6
 40
0.6
 40
0.6
 40
1.0
 40
1.0
 40
1.0
 40
1.0
 10
-25.1336
 20
88.3495
 30
0.0
 10
-26.0311
 20
88.3495
 30
0.0
 10
-26.7586
 20
87.622
 30
0.0
 10
-26.7586
 20
86.7245
 30
0.0
 10
-26.7586
 20
86.7245
 30
0.0
 10
-26.7586
 20
85.827
 30
0.0
 10
-26.0311
 20
85.0995
 30
0.0
 10
-25.1336
 20
85.0995
 30
0.0
 10
-25.1336
 20
85.0995
 30
0.0
 10
-24.2361
 20
85.0995
 30
0.0
 10
-23.5086
 20
85.827
 30
0.0
 10
-23.5086
 20
86.7245
 30
0.0
 10
-23.5086
 20
86.7245
 30
0.0
 10
-23.5086
 20
87.622
 30
0.0
 10
-24.2361
 20
88.3495
 30
0.0
 10
-25.1336
 20
88.3495
 30
0.0
  0
ELLIPSE
  5
47
330
1F
100
AcDbEntity
  8
LAYER_1
 62
   250
100
AcDbEllipse
 10
-47.9936
 20
86.7245
 30
0.0
 11
0.0
 21
1.5
 31
0.0
210
0.0
220
0.0
230
1.0
 40
1.0
 41
0.0
 42
6.283185307179586
  0
ELLIPSE
  5
48
330
1F
100
AcDbEntity
  8
LAYER_1
 62
   250
100
AcDbEllipse
 10
-25.1336
 20
86.7245
 30
0.0
 11
0.0
 21
1.5
 31
0.0
210
0.0
220
0.0
230
1.0
 40
1.0
 41
0.0
 42
6.283185307179586
  0
ELLIPSE
  5
49
330
1F
100
AcDbEntity
  8
LAYER_1
 62
   250
100
AcDbEllipse
 10
-47.9936
 20
44.8145
 30
0.0
 11
0.0
 21
1.5
 31
0.0
210
0.0
220
0.0
230
1.0
 40
1.0
 41
0.0
 42
6.283185307179586
  0
ELLIPSE
  5
4A
330
1F
100
AcDbEntity
  8
LAYER_1
 62
   250
100
AcDbEllipse
 10
-25.1336
 20
44.8145
 30
0.0
 11
0.0
 21
1.5
 31
0.0
210
0.0
220
0.0
230
1.0
 40
1.0
 41
0.0
 42
6.283185307179586
  0
SPLINE
  5
4B
330
1F
100
AcDbEntity
  8
LAYER_1
 62
     7
100
AcDbSpline
210
0.0
220
0.0
230
1.0
 70
    11
 71
     3
 72
    20
 73
    16
 74
     0
 42
0.0000000001
 43
0.0000000001
 40
0.0
 40
0.0
 40
0.0
 40
0.0
 40
0.2
 40
0.2
 40
0.2
 40
0.2
 40
0.4
 40
0.4
 40
0.4
 40
0.4
 40
0.6
 40
0.6
 40
0.6
 40
0.6
 40
1.0
 40
1.0
 40
1.0
 40
1.0
 10
-3.9807
 20
45.9103
 30
0.0
 10
-4.8782
 20
45.9103
 30
0.0
 10
-5.6057
 20
45.1828
 30
0.0
 10
-5.6057
 20
44.2853
 30
0.0
 10
-5.6057
 20
44.2853
 30
0.0
 10
-5.6057
 20
43.3878
 30
0.0
 10
-4.8782
 20
42.6603
 30
0.0
 10
-3.9807
 20
42.6603
 30
0.0
 10
-3.9807
 20
42.6603
 30
0.0
 10
-3.0832
 20
42.6603
 30
0.0
 10
-2.3557
 20
43.3878
 30
0.0
 10
-2.3557
 20
44.2853
 30
0.0
 10
-2.3557
 20
44.2853
 30
0.0
 10
-2.3557
 20
45.1828
 30
0.0
 10
-3.0832
 20
45.9103
 30
0.0
 10
-3.9807
 20
45.9103
 30
0.0
  0
SPLINE
  5
4C
330
1F
100
AcDbEntity
  8
LAYER_1
 62
     7
100
AcDbSpline
210
0.0
220
0.0
230
1.0
 70
    11
 71
     3
 72
    20
 73
    16
 74
     0
 42
0.0000000001
 43
0.0000000001
 40
0.0
 40
0.0
 40
0.0
 40
0.0
 40
0.2
 40
0.2
 40
0.2
 40
0.2
 40
0.4
 40
0.4
 40
0.4
 40
0.4
 40
0.6
 40
0.6
 40
0.6
 40
0.6
 40
1.0
 40
1.0
 40
1.0
 40
1.0
 10
-3.9807
 20
87.8203
 30
0.0
 10
-4.8782
 20
87.8203
 30
0.0
 10
-5.6057
 20
87.0928
 30
0.0
 10
-5.6057
 20
86.1953
 30
0.0
 10
-5.6057
 20
86.1953
 30
0.0
 10
-5.6057
 20
85.2978
 30
0.0
 10
-4.8782
 20
84.5703
 30
0.0
 10
-3.9807
 20
84.5703
 30
0.0
 10
-3.9807
 20
84.5703
 30
0.0
 10
-3.0832
 20
84.5703
 30
0.0
 10
-2.3557
 20
85.2978
 30
0.0
 10
-2.3557
 20
86.1953
 30
0.0
 10
-2.3557
 20
86.1953
 30
0.0
 10
-2.3557
 20
87.0928
 30
0.0
 10
-3.0832
 20
87.8203
 30
0.0
 10
-3.9807
 20
87.8203
 30
0.0
  0
SPLINE
  5
4D
330
1F
100
AcDbEntity
  8
LAYER_1
 62
     7
100
AcDbSpline
210
0.0
220
0.0
230
1.0
 70
    11
 71
     3
 72
    20
 73
    16
 74
     0
 42
0.0000000001
 43
0.0000000001
 40
0.0
 40
0.0
 40
0.0
 40
0.0
 40
0.2
 40
0.2
 40
0.2
 40
0.2
 40
0.4
 40
0.4
 40
0.4
 40
0.4
 40
0.6
 40
0.6
 40
0.6
 40
0.6
 40
1.0
 40
1.0
 40
1.0
 40
1.0
 10
18.8793
 20
45.9103
 30
0.0
 10
17.9818
 20
45.9103
 30
0.0
 10
17.2543
 20
45.1828
 30
0.0
 10
17.2543
 20
44.2853
 30
0.0
 10
17.2543
 20
44.2853
 30
0.0
 10
17.2543
 20
43.3878
 30
0.0
 10
17.9818
 20
42.6603
 30
0.0
 10
18.8793
 20
42.6603
 30
0.0
 10
18.8793
 20
42.6603
 30
0.0
 10
19.7768
 20
42.6603
 30
0.0
 10
20.5043
 20
43.3878
 30
0.0
 10
20.5043
 20
44.2853
 30
0.0
 10
20.5043
 20
44.2853
 30
0.0
 10
20.5043
 20
45.1828
 30
0.0
 10
19.7768
 20
45.9103
 30
0.0
 10
18.8793
 20
45.9103
 30
0.0
  0
SPLINE
  5
4E
330
1F
100
AcDbEntity
  8
LAYER_1
 62
     7
100
AcDbSpline
210
0.0
220
0.0
230
1.0
 70
    11
 71
     3
 72
    20
 73
    16
 74
     0
 42
0.0000000001
 43
0.0000000001
 40
0.0
 40
0.0
 40
0.0
 40
0.0
 40
0.2
 40
0.2
 40
0.2
 40
0.2
 40
0.4
 40
0.4
 40
0.4
 40
0.4
 40
0.6
 40
0.6
 40
0.6
 40
0.6
 40
1.0
 40
1.0
 40
1.0
 40
1.0
 10
18.8793
 20
87.8203
 30
0.0
 10
17.9818
 20
87.8203
 30
0.0
 10
17.2543
 20
87.0928
 30
0.0
 10
17.2543
 20
86.1953
 30
0.0
 10
17.2543
 20
86.1953
 30
0.0
 10
17.2543
 20
85.2978
 30
0.0
 10
17.9818
 20
84.5703
 30
0.0
 10
18.8793
 20
84.5703
 30
0.0
 10
18.8793
 20
84.5703
 30
0.0
 10
19.7768
 20
84.5703
 30
0.0
 10
20.5043
 20
85.2978
 30
0.0
 10
20.5043
 20
86.1953
 30
0.0
 10
20.5043
 20
86.1953
 30
0.0
 10
20.5043
 20
87.0928
 30
0.0
 10
19.7768
 20
87.8203
 30
0.0
 10
18.8793
 20
87.8203
 30
0.0
  0
SPLINE
  5
4F
330
1F
100
AcDbEntity
  8
LAYER_1
 62
   242
100
AcDbSpline
210
0.0
220
0.0
230
1.0
 70
    24
 71
     3
 72
     8
 73
     4
 74
     0
 42
0.0000000001
 43
0.0000000001
 40
0.0
 40
0.0
 40
0.0
 40
0.0
 40
1.0
 40
1.0
 40
1.0
 40
1.0
 10
-4.9967
 20
90.3863
 30
0.0
 10
-4.9967
 20
90.3863
 30
0.0
 10
-3.7267
 20
90.3863
 30
0.0
 10
-3.7267
 20
90.3863
 30
0.0
  0
SPLINE
  5
50
330
1F
100
AcDbEntity
  8
LAYER_1
 62
   242
100
AcDbSpline
210
0.0
220
0.0
230
1.0
 70
    27
 71
     3
 72
    12
 73
     8
 74
     0
 42
0.0000000001
 43
0.0000000001
 40
0.0
 40
0.0
 40
0.0
 40
0.0
 40
0.3333333333333333
 40
0.3333333333333333
 40
0.3333333333333333
 40
0.3333333333333333
 40
1.0
 40
1.0
 40
1.0
 40
1.0
 10
-4.9967
 20
90.3863
 30
0.0
 10
-4.9967
 20
90.3863
 30
0.0
 10
-4.9967
 20
90.3863
 30
0.0
 10
-4.9967
 20
90.3863
 30
0.0
 10
-4.9967
 20
90.3863
 30
0.0
 10
-4.9967
 20
90.3863
 30
0.0
 10
-4.9967
 20
90.3863
 30
0.0
 10
-4.9967
 20
90.3863
 30
0.0
  0
SPLINE
  5
51
330
1F
100
AcDbEntity
  8
LAYER_1
 62
   242
100
AcDbSpline
210
0.0
220
0.0
230
1.0
 70
    24
 71
     3
 72
     8
 73
     4
 74
     0
 42
0.0000000001
 43
0.0000000001
 40
0.0
 40
0.0
 40
0.0
 40
0.0
 40
1.0
 40
1.0
 40
1.0
 40
1.0
 10
-4.9967
 20
90.3863
 30
0.0
 10
-4.9967
 20
90.3863
 30
0.0
 10
-3.7267
 20
90.3863
 30
0.0
 10
-3.7267
 20
90.3863
 30
0.0
  0
SPLINE
  5
52
330
1F
100
AcDbEntity
  8
LAYER_1
 62
   242
100
AcDbSpline
210
0.0
220
0.0
230
1.0
 70
    27
 71
     3
 72
    12
 73
     8
 74
     0
 42
0.0000000001
 43
0.0000000001
 40
0.0
 40
0.0
 40
0.0
 40
0.0
 40
0.3333333333333333
 40
0.3333333333333333
 40
0.3333333333333333
 40
0.3333333333333333
 40
1.0
 40
1.0
 40
1.0
 40
1.0
 10
-4.9967
 20
90.3863
 30
0.0
 10
-4.9967
 20
90.3863
 30
0.0
 10
-4.9967
 20
90.3863
 30
0.0
 10
-4.9967
 20
90.3863
 30
0.0
 10
-4.9967
 20
90.3863
 30
0.0
 10
-4.9967
 20
90.3863
 30
0.0
 10
-4.9967
 20
90.3863
 30
0.0
 10
-4.9967
 20
90.3863
 30
0.0
  0
IMAGE
  5
55
330
1F
100
AcDbEntity
  8
LAYER_1
 62
   242
 92
      140
310
8C0000000100000084000000060000000500000050FC1873D77220C000917EFB3A7C55400000000000000000666A4EAD200214C000917EFB3A7C55400000000000000000666A4EAD200214C0C7029BC2AC985640000000000000000050FC1873D77220C0C7029BC2AC985640000000000000000050FC1873D77220C000917E
310
FB3A7C55400000000000000000
100
AcDbRasterImage
 90
        0
 10
-8.2243
 20
85.9411
 30
0.0
 11
0.01388888888888889
 21
0.0
 31
0.0
 12
0.0
 22
0.01388888888888889
 32
0.0
 13
232.0
 23
320.0
340
54
 70
     3
280
     1
281
    50
282
    50
283
     0
360
56
 71
     1
 91
        2
 14
-8.2243
 24
85.9411
 14
-4.9967
 24
90.3863
  0
SPLINE
  5
57
330
1F
100
AcDbEntity
  8
LAYER_1
 62
   242
100
AcDbSpline
210
0.0
220
0.0
230
1.0
 70
     8
 71
     3
 72
    12
 73
     8
 74
     0
 42
0.0000000001
 43
0.0000000001
 40
0.0
 40
0.0
 40
0.0
 40
0.0
 40
0.3333333333333333
 40
0.3333333333333333
 40
0.3333333333333333
 40
0.3333333333333333
 40
1.0
 40
1.0
 40
1.0
 40
1.0
 10
-4.9967
 20
90.3863
 30
0.0
 10
-6.8591
 20
90.0763
 30
0.0
 10
-8.2243
 20
88.4645
 30
0.0
 10
-8.2243
 20
86.5763
 30
0.0
 10
-8.2243
 20
86.5763
 30
0.0
 10
-8.2243
 20
86.3636
 30
0.0
 10
-8.2069
 20
86.1505
 30
0.0
 10
-8.172
 20
85.9411
 30
0.0
  0
SPLINE
  5
58
330
1F
100
AcDbEntity
  8
LAYER_1
 62
   242
100
AcDbSpline
210
0.0
220
0.0
230
1.0
 70
    27
 71
     3
 72
    12
 73
     8
 74
     0
 42
0.0000000001
 43
0.0000000001
 40
0.0
 40
0.0
 40
0.0
 40
0.0
 40
0.3333333333333333
 40
0.3333333333333333
 40
0.3333333333333333
 40
0.3333333333333333
 40
1.0
 40
1.0
 40
1.0
 40
1.0
 10
-4.9967
 20
90.3863
 30
0.0
 10
-4.9967
 20
90.3863
 30
0.0
 10
-4.9967
 20
90.3863
 30
0.0
 10
-4.9967
 20
90.3863
 30
0.0
 10
-4.9967
 20
90.3863
 30
0.0
 10
-4.9967
 20
90.3863
 30
0.0
 10
-4.9967
 20
90.3863
 30
0.0
 10
-4.9967
 20
90.3863
 30
0.0
  0
SPLINE
  5
59
330
1F
100
AcDbEntity
  8
LAYER_1
 62
   242
100
AcDbSpline
210
0.0
220
0.0
230
1.0
 70
     8
 71
     3
 72
    12
 73
     8
 74
     0
 42
0.0000000001
 43
0.0000000001
 40
0.0
 40
0.0
 40
0.0
 40
0.0
 40
0.3333333333333333
 40
0.3333333333333333
 40
0.3333333333333333
 40
0.3333333333333333
 40
1.0
 40
1.0
 40
1.0
 40
1.0
 10
-4.9967
 20
90.3863
 30
0.0
 10
-6.8591
 20
90.0763
 30
0.0
 10
-8.2243
 20
88.4645
 30
0.0
 10
-8.2243
 20
86.5763
 30
0.0
 10
-8.2243
 20
86.5763
 30
0.0
 10
-8.2243
 20
86.3636
 30
0.0
 10
-8.2069
 20
86.1505
 30
0.0
 10
-8.172
 20
85.9411
 30
0.0
  0
SPLINE
  5
5A
330
1F
100
AcDbEntity
  8
LAYER_1
 62
   242
100
AcDbSpline
210
0.0
220
0.0
230
1.0
 70
    27
 71
     3
 72
    12
 73
     8
 74
     0
 42
0.0000000001
 43
0.0000000001
 40
0.0
 40
0.0
 40
0.0
 40
0.0
 40
0.3333333333333333
 40
0.3333333333333333
 40
0.3333333333333333
 40
0.3333333333333333
 40
1.0
 40
1.0
 40
1.0
 40
1.0
 10
-4.9967
 20
90.3863
 30
0.0
 10
-4.9967
 20
90.3863
 30
0.0
 10
-4.9967
 20
90.3863
 30
0.0
 10
-4.9967
 20
90.3863
 30
0.0
 10
-4.9967
 20
90.3863
 30
0.0
 10
-4.9967
 20
90.3863
 30
0.0
 10
-4.9967
 20
90.3863
 30
0.0
 10
-4.9967
 20
90.3863
 30
0.0
  0
IMAGE
  5
5C
330
1F
100
AcDbEntity
  8
LAYER_1
 62
   242
 92
      140
310
8C00000001000000840000000600000005000000C3D32B6519223340D42B6519E2A455400000000000000000A60CBA4852F03640D42B6519E2A455400000000000000000A60CBA4852F036400DBA4852709856400000000000000000C3D32B65192233400DBA4852709856400000000000000000C3D32B6519223340D42B65
310
19E2A455400000000000000000
100
AcDbRasterImage
 90
        0
 10
19.1332
 20
86.5763
 30
0.0
 11
0.01388888888888889
 21
0.0
 31
0.0
 12
0.0
 22
0.01388888888888889
 32
0.0
 13
274.0
 23
274.0
340
5B
 70
     3
280
     1
281
    50
282
    50
283
     0
360
5D
 71
     1
 91
        2
 14
19.1332
 24
86.5763
 14
22.9433
 24
90.3863
  0
SPLINE
  5
5E
330
1F
100
AcDbEntity
  8
LAYER_1
 62
   242
100
AcDbSpline
210
0.0
220
0.0
230
1.0
 70
     8
 71
     3
 72
     8
 73
     4
 74
     0
 42
0.0000000001
 43
0.0000000001
 40
0.0
 40
0.0
 40
0.0
 40
0.0
 40
1.0
 40
1.0
 40
1.0
 40
1.0
 10
22.9433
 20
86.5763
 30
0.0
 10
22.9432
 20
88.6801
 30
0.0
 10
21.237
 20
90.3863
 30
0.0
 10
19.1332
 20
90.3863
 30
0.0
  0
SPLINE
  5
5F
330
1F
100
AcDbEntity
  8
LAYER_1
 62
   242
100
AcDbSpline
210
0.0
220
0.0
230
1.0
 70
    27
 71
     3
 72
    12
 73
     8
 74
     0
 42
0.0000000001
 43
0.0000000001
 40
0.0
 40
0.0
 40
0.0
 40
0.0
 40
0.3333333333333333
 40
0.3333333333333333
 40
0.3333333333333333
 40
0.3333333333333333
 40
1.0
 40
1.0
 40
1.0
 40
1.0
 10
22.9433
 20
86.5763
 30
0.0
 10
22.9433
 20
86.5763
 30
0.0
 10
22.9433
 20
86.5763
 30
0.0
 10
22.9433
 20
86.5763
 30
0.0
 10
22.9433
 20
86.5763
 30
0.0
 10
22.9433
 20
86.5763
 30
0.0
 10
22.9433
 20
86.5763
 30
0.0
 10
22.9433
 20
86.5763
 30
0.0
  0
SPLINE
  5
60
330
1F
100
AcDbEntity
  8
LAYER_1
 62
   242
100
AcDbSpline
210
0.0
220
0.0
230
1.0
 70
     8
 71
     3
 72
     8
 73
     4
 74
     0
 42
0.0000000001
 43
0.0000000001
 40
0.0
 40
0.0
 40
0.0
 40
0.0
 40
1.0
 40
1.0
 40
1.0
 40
1.0
 10
22.9433
 20
86.5763
 30
0.0
 10
22.9432
 20
88.6801
 30
0.0
 10
21.237
 20
90.3863
 30
0.0
 10
19.1332
 20
90.3863
 30
0.0
  0
SPLINE
  5
61
330
1F
100
AcDbEntity
  8
LAYER_1
 62
   242
100
AcDbSpline
210
0.0
220
0.0
230
1.0
 70
    27
 71
     3
 72
    12
 73
     8
 74
     0
 42
0.0000000001
 43
0.0000000001
 40
0.0
 40
0.0
 40
0.0
 40
0.0
 40
0.3333333333333333
 40
0.3333333333333333
 40
0.3333333333333333
 40
0.3333333333333333
 40
1.0
 40
1.0
 40
1.0
 40
1.0
 10
22.9433
 20
86.5763
 30
0.0
 10
22.9433
 20
86.5763
 30
0.0
 10
22.9433
 20
86.5763
 30
0.0
 10
22.9433
 20
86.5763
 30
0.0
 10
22.9433
 20
86.5763
 30
0.0
 10
22.9433
 20
86.5763
 30
0.0
 10
22.9433
 20
86.5763
 30
0.0
 10
22.9433
 20
86.5763
 30
0.0
  0
IMAGE
  5
63
330
1F
100
AcDbEntity
  8
LAYER_1
 62
   242
 92
      140
310
8C0000000100000084000000060000000500000005A3923A01DD3140742497FF901644400000000000000000216A0457C8EE3640742497FF901644400000000000000000216A0457C8EE36403B96B3C602034640000000000000000005A3923A01DD31403B96B3C602034640000000000000000005A3923A01DD3140742497
310
FF901644400000000000000000
100
AcDbRasterImage
 90
        0
 10
17.8633
 20
40.1763
 30
0.0
 11
0.01388888888888889
 21
0.0
 31
0.0
 12
0.0
 22
0.01388888888888889
 32
0.0
 13
365.0
 23
277.0
340
62
 70
     3
280
     1
281
    50
282
    50
283
     0
360
64
 71
     1
 91
        2
 14
17.8633
 24
40.1763
 14
22.9433
 24
44.0316
  0
SPLINE
  5
65
330
1F
100
AcDbEntity
  8
LAYER_1
 62
   242
100
AcDbSpline
210
0.0
220
0.0
230
1.0
 70
     8
 71
     3
 72
    12
 73
     8
 74
     0
 42
0.0000000001
 43
0.0000000001
 40
0.0
 40
0.0
 40
0.0
 40
0.0
 40
0.3333333333333333
 40
0.3333333333333333
 40
0.3333333333333333
 40
0.3333333333333333
 40
1.0
 40
1.0
 40
1.0
 40
1.0
 10
17.8633
 20
40.2213
 30
0.0
 10
18.0734
 20
40.1916
 30
0.0
 10
18.2861
 20
40.1763
 30
0.0
 10
18.4982
 20
40.1763
 30
0.0
 10
18.4982
 20
40.1763
 30
0.0
 10
20.7326
 20
40.1763
 30
0.0
 10
22.6276
 20
41.8197
 30
0.0
 10
22.9433
 20
44.0316
 30
0.0
  0
SPLINE
  5
66
330
1F
100
AcDbEntity
  8
LAYER_1
 62
   242
100
AcDbSpline
210
0.0
220
0.0
230
1.0
 70
    27
 71
     3
 72
    12
 73
     8
 74
     0
 42
0.0000000001
 43
0.0000000001
 40
0.0
 40
0.0
 40
0.0
 40
0.0
 40
0.3333333333333333
 40
0.3333333333333333
 40
0.3333333333333333
 40
0.3333333333333333
 40
1.0
 40
1.0
 40
1.0
 40
1.0
 10
17.8633
 20
40.2213
 30
0.0
 10
17.8633
 20
40.2213
 30
0.0
 10
17.8633
 20
40.2213
 30
0.0
 10
17.8633
 20
40.2213
 30
0.0
 10
17.8633
 20
40.2213
 30
0.0
 10
17.8633
 20
40.2213
 30
0.0
 10
17.8633
 20
40.2213
 30
0.0
 10
17.8633
 20
40.2213
 30
0.0
  0
SPLINE
  5
67
330
1F
100
AcDbEntity
  8
LAYER_1
 62
   242
100
AcDbSpline
210
0.0
220
0.0
230
1.0
 70
     8
 71
     3
 72
    12
 73
     8
 74
     0
 42
0.0000000001
 43
0.0000000001
 40
0.0
 40
0.0
 40
0.0
 40
0.0
 40
0.3333333333333333
 40
0.3333333333333333
 40
0.3333333333333333
 40
0.3333333333333333
 40
1.0
 40
1.0
 40
1.0
 40
1.0
 10
17.8633
 20
40.2213
 30
0.0
 10
18.0734
 20
40.1916
 30
0.0
 10
18.2861
 20
40.1763
 30
0.0
 10
18.4982
 20
40.1763
 30
0.0
 10
18.4982
 20
40.1763
 30
0.0
 10
20.7326
 20
40.1763
 30
0.0
 10
22.6276
 20
41.8197
 30
0.0
 10
22.9433
 20
44.0316
 30
0.0
  0
SPLINE
  5
68
330
1F
100
AcDbEntity
  8
LAYER_1
 62
   242
100
AcDbSpline
210
0.0
220
0.0
230
1.0
 70
    27
 71
     3
 72
    12
 73
     8
 74
     0
 42
0.0000000001
 43
0.0000000001
 40
0.0
 40
0.0
 40
0.0
 40
0.0
 40
0.3333333333333333
 40
0.3333333333333333
 40
0.3333333333333333
 40
0.3333333333333333
 40
1.0
 40
1.0
 40
1.0
 40
1.0
 10
17.8633
 20
40.2213
 30
0.0
 10
17.8633
 20
40.2213
 30
0.0
 10
17.8633
 20
40.2213
 30
0.0
 10
17.8633
 20
40.2213
 30
0.0
 10
17.8633
 20
40.2213
 30
0.0
 10
17.8633
 20
40.2213
 30
0.0
 10
17.8633
 20
40.2213
 30
0.0
 10
17.8633
 20
40.2213
 30
0.0
  0
IMAGE
  5
6A
330
1F
100
AcDbEntity
  8
LAYER_1
 62
   242
 92
      140
310
8C00000001000000840000000600000005000000AC8BDB68006F20C06A4DF38E531C444000000000000000001F89D398727A11C06A4DF38E531C444000000000000000001F89D398727A11C0F8302C1D37A546400000000000000000AC8BDB68006F20C0F8302C1D37A546400000000000000000AC8BDB68006F20C06A4DF3
310
8E531C44400000000000000000
100
AcDbRasterImage
 90
        0
 10
-8.2168
 20
40.2213
 30
0.0
 11
0.01388888888888889
 21
0.0
 31
0.0
 12
0.0
 22
0.01388888888888889
 32
0.0
 13
277.0
 23
365.0
340
69
 70
     3
280
     1
281
    50
282
    50
283
     0
360
6B
 71
     1
 91
        2
 14
-8.2168
 24
40.2213
 14
-4.361499999999999
 24
45.3013
  0
SPLINE
  5
6C
330
1F
100
AcDbEntity
  8
LAYER_1
 62
   242
100
AcDbSpline
210
0.0
220
0.0
230
1.0
 70
     8
 71
     3
 72
    12
 73
     8
 74
     0
 42
0.0000000001
 43
0.0000000001
 40
0.0
 40
0.0
 40
0.0
 40
0.0
 40
0.3333333333333333
 40
0.3333333333333333
 40
0.3333333333333333
 40
0.3333333333333333
 40
1.0
 40
1.0
 40
1.0
 40
1.0
 10
-8.1717
 20
45.3013
 30
0.0
 10
-8.2015
 20
45.0912
 30
0.0
 10
-8.2168
 20
44.8785
 30
0.0
 10
-8.2168
 20
44.6664
 30
0.0
 10
-8.2168
 20
44.6664
 30
0.0
 10
-8.2168
 20
42.432
 30
0.0
 10
-6.5734
 20
40.537
 30
0.0
 10
-4.3615
 20
40.2213
 30
0.0
  0
SPLINE
  5
6D
330
1F
100
AcDbEntity
  8
LAYER_1
 62
   242
100
AcDbSpline
210
0.0
220
0.0
230
1.0
 70
    27
 71
     3
 72
    12
 73
     8
 74
     0
 42
0.0000000001
 43
0.0000000001
 40
0.0
 40
0.0
 40
0.0
 40
0.0
 40
0.3333333333333333
 40
0.3333333333333333
 40
0.3333333333333333
 40
0.3333333333333333
 40
1.0
 40
1.0
 40
1.0
 40
1.0
 10
-8.1717
 20
45.3013
 30
0.0
 10
-8.1717
 20
45.3013
 30
0.0
 10
-8.1717
 20
45.3013
 30
0.0
 10
-8.1717
 20
45.3013
 30
0.0
 10
-8.1717
 20
45.3013
 30
0.0
 10
-8.1717
 20
45.3013
 30
0.0
 10
-8.1717
 20
45.3013
 30
0.0
 10
-8.1717
 20
45.3013
 30
0.0
  0
SPLINE
  5
6E
330
1F
100
AcDbEntity
  8
LAYER_1
 62
   242
100
AcDbSpline
210
0.0
220
0.0
230
1.0
 70
     8
 71
     3
 72
    12
 73
     8
 74
     0
 42
0.0000000001
 43
0.0000000001
 40
0.0
 40
0.0
 40
0.0
 40
0.0
 40
0.3333333333333333
 40
0.3333333333333333
 40
0.3333333333333333
 40
0.3333333333333333
 40
1.0
 40
1.0
 40
1.0
 40
1.0
 10
-8.1717
 20
45.3013
 30
0.0
 10
-8.2015
 20
45.0912
 30
0.0
 10
-8.2168
 20
44.8785
 30
0.0
 10
-8.2168
 20
44.6664
 30
0.0
 10
-8.2168
 20
44.6664
 30
0.0
 10
-8.2168
 20
42.432
 30
0.0
 10
-6.5734
 20
40.537
 30
0.0
 10
-4.3615
 20
40.2213
 30
0.0
  0
SPLINE
  5
6F
330
1F
100
AcDbEntity
  8
LAYER_1
 62
   242
100
AcDbSpline
210
0.0
220
0.0
230
1.0
 70
    27
 71
     3
 72
    12
 73
     8
 74
     0
 42
0.0000000001
 43
0.0000000001
 40
0.0
 40
0.0
 40
0.0
 40
0.0
 40
0.3333333333333333
 40
0.3333333333333333
 40
0.3333333333333333
 40
0.3333333333333333
 40
1.0
 40
1.0
 40
1.0
 40
1.0
 10
-8.1717
 20
45.3013
 30
0.0
 10
-8.1717
 20
45.3013
 30
0.0
 10
-8.1717
 20
45.3013
 30
0.0
 10
-8.1717
 20
45.3013
 30
0.0
 10
-8.1717
 20
45.3013
 30
0.0
 10
-8.1717
 20
45.3013
 30
0.0
 10
-8.1717
 20
45.3013
 30
0.0
 10
-8.1717
 20
45.3013
 30
0.0
  0
SPLINE
  5
70
330
1F
100
AcDbEntity
  8
LAYER_1
 62
   242
100
AcDbSpline
210
0.0
220
0.0
230
1.0
 70
    24
 71
     3
 72
     8
 73
     4
 74
     0
 42
0.0000000001
 43
0.0000000001
 40
0.0
 40
0.0
 40
0.0
 40
0.0
 40
1.0
 40
1.0
 40
1.0
 40
1.0
 10
19.1333
 20
40.2213
 30
0.0
 10
19.1333
 20
40.2213
 30
0.0
 10
-4.3617
 20
40.2213
 30
0.0
 10
-4.3617
 20
40.2213
 30
0.0
  0
SPLINE
  5
71
330
1F
100
AcDbEntity
  8
LAYER_1
 62
   242
100
AcDbSpline
210
0.0
220
0.0
230
1.0
 70
    27
 71
     3
 72
    12
 73
     8
 74
     0
 42
0.0000000001
 43
0.0000000001
 40
0.0
 40
0.0
 40
0.0
 40
0.0
 40
0.3333333333333333
 40
0.3333333333333333
 40
0.3333333333333333
 40
0.3333333333333333
 40
1.0
 40
1.0
 40
1.0
 40
1.0
 10
19.1333
 20
40.2213
 30
0.0
 10
19.1333
 20
40.2213
 30
0.0
 10
19.1333
 20
40.2213
 30
0.0
 10
19.1333
 20
40.2213
 30
0.0
 10
19.1333
 20
40.2213
 30
0.0
 10
19.1333
 20
40.2213
 30
0.0
 10
19.1333
 20
40.2213
 30
0.0
 10
19.1333
 20
40.2213
 30
0.0
  0
SPLINE
  5
72
330
1F
100
AcDbEntity
  8
LAYER_1
 62
   242
100
AcDbSpline
210
0.0
220
0.0
230
1.0
 70
    24
 71
     3
 72
     8
 73
     4
 74
     0
 42
0.0000000001
 43
0.0000000001
 40
0.0
 40
0.0
 40
0.0
 40
0.0
 40
1.0
 40
1.0
 40
1.0
 40
1.0
 10
19.1333
 20
40.2213
 30
0.0
 10
19.1333
 20
40.2213
 30
0.0
 10
-4.3617
 20
40.2213
 30
0.0
 10
-4.3617
 20
40.2213
 30
0.0
  0
SPLINE
  5
73
330
1F
100
AcDbEntity
  8
LAYER_1
 62
   242
100
AcDbSpline
210
0.0
220
0.0
230
1.0
 70
    27
 71
     3
 72
    12
 73
     8
 74
     0
 42
0.0000000001
 43
0.0000000001
 40
0.0
 40
0.0
 40
0.0
 40
0.0
 40
0.3333333333333333
 40
0.3333333333333333
 40
0.3333333333333333
 40
0.3333333333333333
 40
1.0
 40
1.0
 40
1.0
 40
1.0
 10
19.1333
 20
40.2213
 30
0.0
 10
19.1333
 20
40.2213
 30
0.0
 10
19.1333
 20
40.2213
 30
0.0
 10
19.1333
 20
40.2213
 30
0.0
 10
19.1333
 20
40.2213
 30
0.0
 10
19.1333
 20
40.2213
 30
0.0
 10
19.1333
 20
40.2213
 30
0.0
 10
19.1333
 20
40.2213
 30
0.0
  0
SPLINE
  5
74
330
1F
100
AcDbEntity
  8
LAYER_1
 62
   242
100
AcDbSpline
210
0.0
220
0.0
230
1.0
 70
    24
 71
     3
 72
     8
 73
     4
 74
     0
 42
0.0000000001
 43
0.0000000001
 40
0.0
 40
0.0
 40
0.0
 40
0.0
 40
1.0
 40
1.0
 40
1.0
 40
1.0
 10
19.7683
 20
90.3863
 30
0.0
 10
19.7683
 20
90.3863
 30
0.0
 10
-4.3617
 20
90.3863
 30
0.0
 10
-4.3617
 20
90.3863
 30
0.0
  0
SPLINE
  5
75
330
1F
100
AcDbEntity
  8
LAYER_1
 62
   242
100
AcDbSpline
210
0.0
220
0.0
230
1.0
 70
    27
 71
     3
 72
    12
 73
     8
 74
     0
 42
0.0000000001
 43
0.0000000001
 40
0.0
 40
0.0
 40
0.0
 40
0.0
 40
0.3333333333333333
 40
0.3333333333333333
 40
0.3333333333333333
 40
0.3333333333333333
 40
1.0
 40
1.0
 40
1.0
 40
1.0
 10
19.7683
 20
90.3863
 30
0.0
 10
19.7683
 20
90.3863
 30
0.0
 10
19.7683
 20
90.3863
 30
0.0
 10
19.7683
 20
90.3863
 30
0.0
 10
19.7683
 20
90.3863
 30
0.0
 10
19.7683
 20
90.3863
 30
0.0
 10
19.7683
 20
90.3863
 30
0.0
 10
19.7683
 20
90.3863
 30
0.0
  0
SPLINE
  5
76
330
1F
100
AcDbEntity
  8
LAYER_1
 62
   242
100
AcDbSpline
210
0.0
220
0.0
230
1.0
 70
    24
 71
     3
 72
     8
 73
     4
 74
     0
 42
0.0000000001
 43
0.0000000001
 40
0.0
 40
0.0
 40
0.0
 40
0.0
 40
1.0
 40
1.0
 40
1.0
 40
1.0
 10
19.7683
 20
90.3863
 30
0.0
 10
19.7683
 20
90.3863
 30
0.0
 10
-4.3617
 20
90.3863
 30
0.0
 10
-4.3617
 20
90.3863
 30
0.0
  0
SPLINE
  5
77
330
1F
100
AcDbEntity
  8
LAYER_1
 62
   242
100
AcDbSpline
210
0.0
220
0.0
230
1.0
 70
    27
 71
     3
 72
    12
 73
     8
 74
     0
 42
0.0000000001
 43
0.0000000001
 40
0.0
 40
0.0
 40
0.0
 40
0.0
 40
0.3333333333333333
 40
0.3333333333333333
 40
0.3333333333333333
 40
0.3333333333333333
 40
1.0
 40
1.0
 40
1.0
 40
1.0
 10
19.7683
 20
90.3863
 30
0.0
 10
19.7683
 20
90.3863
 30
0.0
 10
19.7683
 20
90.3863
 30
0.0
 10
19.7683
 20
90.3863
 30
0.0
 10
19.7683
 20
90.3863
 30
0.0
 10
19.7683
 20
90.3863
 30
0.0
 10
19.7683
 20
90.3863
 30
0.0
 10
19.7683
 20
90.3863
 30
0.0
  0
SPLINE
  5
78
330
1F
100
AcDbEntity
  8
LAYER_1
 62
   242
100
AcDbSpline
210
0.0
220
0.0
230
1.0
 70
    24
 71
     3
 72
     8
 73
     4
 74
     0
 42
0.0000000001
 43
0.0000000001
 40
0.0
 40
0.0
 40
0.0
 40
0.0
 40
1.0
 40
1.0
 40
1.0
 40
1.0
 10
22.9433
 20
44.0313
 30
0.0
 10
22.9433
 20
44.0313
 30
0.0
 10
22.9433
 20
86.5763
 30
0.0
 10
22.9433
 20
86.5763
 30
0.0
  0
SPLINE
  5
79
330
1F
100
AcDbEntity
  8
LAYER_1
 62
   242
100
AcDbSpline
210
0.0
220
0.0
230
1.0
 70
    27
 71
     3
 72
    12
 73
     8
 74
     0
 42
0.0000000001
 43
0.0000000001
 40
0.0
 40
0.0
 40
0.0
 40
0.0
 40
0.3333333333333333
 40
0.3333333333333333
 40
0.3333333333333333
 40
0.3333333333333333
 40
1.0
 40
1.0
 40
1.0
 40
1.0
 10
22.9433
 20
44.0313
 30
0.0
 10
22.9433
 20
44.0313
 30
0.0
 10
22.9433
 20
44.0313
 30
0.0
 10
22.9433
 20
44.0313
 30
0.0
 10
22.9433
 20
44.0313
 30
0.0
 10
22.9433
 20
44.0313
 30
0.0
 10
22.9433
 20
44.0313
 30
0.0
 10
22.9433
 20
44.0313
 30
0.0
  0
SPLINE
  5
7A
330
1F
100
AcDbEntity
  8
LAYER_1
 62
   242
100
AcDbSpline
210
0.0
220
0.0
230
1.0
 70
    24
 71
     3
 72
     8
 73
     4
 74
     0
 42
0.0000000001
 43
0.0000000001
 40
0.0
 40
0.0
 40
0.0
 40
0.0
 40
1.0
 40
1.0
 40
1.0
 40
1.0
 10
22.9433
 20
44.0313
 30
0.0
 10
22.9433
 20
44.0313
 30
0.0
 10
22.9433
 20
86.5763
 30
0.0
 10
22.9433
 20
86.5763
 30
0.0
  0
SPLINE
  5
7B
330
1F
100
AcDbEntity
  8
LAYER_1
 62
   242
100
AcDbSpline
210
0.0
220
0.0
230
1.0
 70
    27
 71
     3
 72
    12
 73
     8
 74
     0
 42
0.0000000001
 43
0.0000000001
 40
0.0
 40
0.0
 40
0.0
 40
0.0
 40
0.3333333333333333
 40
0.3333333333333333
 40
0.3333333333333333
 40
0.3333333333333333
 40
1.0
 40
1.0
 40
1.0
 40
1.0
 10
22.9433
 20
44.0313
 30
0.0
 10
22.9433
 20
44.0313
 30
0.0
 10
22.9433
 20
44.0313
 30
0.0
 10
22.9433
 20
44.0313
 30
0.0
 10
22.9433
 20
44.0313
 30
0.0
 10
22.9433
 20
44.0313
 30
0.0
 10
22.9433
 20
44.0313
 30
0.0
 10
22.9433
 20
44.0313
 30
0.0
  0
SPLINE
  5
7C
330
1F
100
AcDbEntity
  8
LAYER_1
 62
   242
100
AcDbSpline
210
0.0
220
0.0
230
1.0
 70
    24
 71
     3
 72
     8
 73
     4
 74
     0
 42
0.0000000001
 43
0.0000000001
 40
0.0
 40
0.0
 40
0.0
 40
0.0
 40
1.0
 40
1.0
 40
1.0
 40
1.0
 10
-8.1717
 20
44.0313
 30
0.0
 10
-8.1717
 20
44.0313
 30
0.0
 10
-8.1717
 20
85.9413
 30
0.0
 10
-8.1717
 20
85.9413
 30
0.0
  0
SPLINE
  5
7D
330
1F
100
AcDbEntity
  8
LAYER_1
 62
   242
100
AcDbSpline
210
0.0
220
0.0
230
1.0
 70
    27
 71
     3
 72
    12
 73
     8
 74
     0
 42
0.0000000001
 43
0.0000000001
 40
0.0
 40
0.0
 40
0.0
 40
0.0
 40
0.3333333333333333
 40
0.3333333333333333
 40
0.3333333333333333
 40
0.3333333333333333
 40
1.0
 40
1.0
 40
1.0
 40
1.0
 10
-8.1717
 20
44.0313
 30
0.0
 10
-8.1717
 20
44.0313
 30
0.0
 10
-8.1717
 20
44.0313
 30
0.0
 10
-8.1717
 20
44.0313
 30
0.0
 10
-8.1717
 20
44.0313
 30
0.0
 10
-8.1717
 20
44.0313
 30
0.0
 10
-8.1717
 20
44.0313
 30
0.0
 10
-8.1717
 20
44.0313
 30
0.0
  0
SPLINE
  5
7E
330
1F
100
AcDbEntity
  8
LAYER_1
 62
   242
100
AcDbSpline
210
0.0
220
0.0
230
1.0
 70
    24
 71
     3
 72
     8
 73
     4
 74
     0
 42
0.0000000001
 43
0.0000000001
 40
0.0
 40
0.0
 40
0.0
 40
0.0
 40
1.0
 40
1.0
 40
1.0
 40
1.0
 10
-8.1717
 20
44.0313
 30
0.0
 10
-8.1717
 20
44.0313
 30
0.0
 10
-8.1717
 20
85.9413
 30
0.0
 10
-8.1717
 20
85.9413
 30
0.0
  0
SPLINE
  5
7F
330
1F
100
AcDbEntity
  8
LAYER_1
 62
   242
100
AcDbSpline
210
0.0
220
0.0
230
1.0
 70
    27
 71
     3
 72
    12
 73
     8
 74
     0
 42
0.0000000001
 43
0.0000000001
 40
0.0
 40
0.0
 40
0.0
 40
0.0
 40
0.3333333333333333
 40
0.3333333333333333
 40
0.3333333333333333
 40
0.3333333333333333
 40
1.0
 40
1.0
 40
1.0
 40
1.0
 10
-8.1717
 20
44.0313
 30
0.0
 10
-8.1717
 20
44.0313
 30
0.0
 10
-8.1717
 20
44.0313
 30
0.0
 10
-8.1717
 20
44.0313
 30
0.0
 10
-8.1717
 20
44.0313
 30
0.0
 10
-8.1717
 20
44.0313
 30
0.0
 10
-8.1717
 20
44.0313
 30
0.0
 10
-8.1717
 20
44.0313
 30
0.0
  0
ELLIPSE
  5
80
330
1F
100
AcDbEntity
  8
LAYER_1
 62
   242
100
AcDbEllipse
 10
-3.9807
 20
86.1953
 30
0.0
 11
0.0
 21
1.5
 31
0.0
210
0.0
220
0.0
230
1.0
 40
1.0
 41
0.0
 42
6.283185307179586
  0
ELLIPSE
  5
81
330
1F
100
AcDbEntity
  8
LAYER_1
 62
   242
100
AcDbEllipse
 10
18.8793
 20
86.1953
 30
0.0
 11
0.0
 21
1.5
 31
0.0
210
0.0
220
0.0
230
1.0
 40
1.0
 41
0.0
 42
6.283185307179586
  0
ELLIPSE
  5
82
330
1F
100
AcDbEntity
  8
LAYER_1
 62
   242
100
AcDbEllipse
 10
-3.9807
 20
44.2853
 30
0.0
 11
0.0
 21
1.5
 31
0.0
210
0.0
220
0.0
230
1.0
 40
1.0
 41
0.0
 42
6.283185307179586
  0
ELLIPSE
  5
83
330
1F
100
AcDbEntity
  8
LAYER_1
 62
   242
100
AcDbEllipse
 10
18.8793
 20
44.2853
 30
0.0
 11
0.0
 21
1.5
 31
0.0
210
0.0
220
0.0
230
1.0
 40
1.0
 41
0.0
 42
6.283185307179586
  0
ENDSEC
  0
SECTION
  2
OBJECTS
  0
DICTIONARY
  5
C
330
0
100
AcDbDictionary
  3
ACAD_GROUP
350
D
  3
ACAD_IMAGE_DICT
350
53
  3
ACAD_LAYOUT
350
1A
  3
ACAD_MATERIAL
350
3B
  3
ACAD_MLEADERSTYLE
350
A6
  3
ACAD_MLINESTYLE
350
17
  3
ACAD_PLOTSETTINGS
350
19
  3
ACAD_VISUALSTYLE
350
2A
  3
ACDBHEADERROUNDTRIPXREC
350
84
  3
ACDBVARIABLEDICTIONARY
350
A4
  0
IMAGEDEF_REACTOR
  5
56
330
55
100
AcDbRasterImageDefReactor
 90
        2
330
55
  0
IMAGEDEF_REACTOR
  5
5D
330
5C
100
AcDbRasterImageDefReactor
 90
        2
330
5C
  0
IMAGEDEF_REACTOR
  5
64
330
63
100
AcDbRasterImageDefReactor
 90
        2
330
63
  0
IMAGEDEF_REACTOR
  5
6B
330
6A
100
AcDbRasterImageDefReactor
 90
        2
330
6A
  0
DICTIONARY
  5
D
102
{ACAD_REACTORS
330
C
102
}
330
C
100
AcDbDictionary
  0
DICTIONARY
  5
53
102
{ACAD_REACTORS
330
C
102
}
330
C
100
AcDbDictionary
  3
IMAGE_#1
350
54
  3
IMAGE_#2
350
5B
  3
IMAGE_#3
350
62
  3
IMAGE_#4
350
69
  0
DICTIONARY
  5
1A
102
{ACAD_REACTORS
330
C
102
}
330
C
100
AcDbDictionary
  0
DICTIONARY
  5
3B
102
{ACAD_REACTORS
330
C
102
}
330
C
100
AcDbDictionary
  3
BYBLOCK
350
3D
  3
BYLAYER
350
3C
  3
GLOBAL
350
3E
  0
DICTIONARY
  5
A6
102
{ACAD_REACTORS
330
C
102
}
330
C
100
AcDbDictionary
  0
DICTIONARY
  5
17
102
{ACAD_REACTORS
330
C
102
}
330
C
100
AcDbDictionary
  3
STANDARD
350
18
  0
DICTIONARY
  5
19
102
{ACAD_REACTORS
330
C
102
}
330
C
100
AcDbDictionary
  0
DICTIONARY
  5
2A
102
{ACAD_REACTORS
330
C
102
}
330
C
100
AcDbDictionary
  3
2DWIREFRAME
350
2F
  3
3D_HIDDEN
350
31
  3
3DWIREFRAME
350
30
  3
BASIC
350
32
  3
BRIGHTEN
350
36
  3
COLORCHANGE
350
3A
  3
CONCEPTUAL
350
34
  3
DIM
350
35
  3
FACEPATTERN
350
39
  3
FLAT
350
2B
  3
FLATWITHEDGES
350
2C
  3
GOURAUD
350
2D
  3
GOURAUDWITHEDGES
350
2E
  3
LINEPATTERN
350
38
  3
REALISTIC
350
33
  3
THICKEN
350
37
  0
DICTIONARY
  5
84
102
{ACAD_REACTORS
330
C
102
}
330
C
100
AcDbDictionary
  3
CEPSNTYPE
350
8D
  3
DIMSTYLEDATA
350
A3
  3
FINGERPRINTGUID
350
8E
  3
HYPERLINKBASE
350
87
  3
INSUNITS
350
8C
  3
LAYOUTDICT
350
89
  3
LWETCUNION
350
8B
  3
PLOTSETDICT
350
8A
  3
PSVPSCALE
350
90
  3
PUCSBASE
350
93
  3
PUCSORGBACK
350
99
  3
PUCSORGBOTTOM
350
95
  3
PUCSORGFRONT
350
98
  3
PUCSORGLEFT
350
96
  3
PUCSORGRIGHT
350
97
  3
PUCSORGTOP
350
94
  3
PUCSORTHOREF
350
91
  3
PUCSORTHOVIEW
350
92
  3
STYLESHEET
350
88
  3
TSTACKALIGN
350
85
  3
TSTACKSIZE
350
86
  3
UCSBASE
350
9C
  3
UCSORGBACK
350
A2
  3
UCSORGBOTTOM
350
9E
  3
UCSORGFRONT
350
A1
  3
UCSORGLEFT
350
9F
  3
UCSORGRIGHT
350
A0
  3
UCSORGTOP
350
9D
  3
UCSORTHOREF
350
9A
  3
UCSORTHOVIEW
350
9B
  3
VERSIONGUID
350
8F
  0
DICTIONARY
  5
A4
102
{ACAD_REACTORS
330
C
102
}
330
C
100
AcDbDictionary
  3
DIMASSOC
350
A7
  3
HIDETEXT
350
A8
  0
IMAGEDEF
  5
54
102
{ACAD_REACTORS
330
53
330
56
102
}
330
53
100
AcDbRasterImageDef
 90
        0
  1
E:\Google Drive REI\Work - Kits\GITHUB\TVBGone\TVBGone_Hardware\TVBGone_Enclosure\TVBGone_Baseplate_ACD_0.jpg
 10
232.0
 20
320.0
 11
0.004310344827586207
 21
0.004310344827586207
280
     1
281
     5
  0
IMAGEDEF
  5
5B
102
{ACAD_REACTORS
330
53
330
5D
102
}
330
53
100
AcDbRasterImageDef
 90
        0
  1
E:\Google Drive REI\Work - Kits\GITHUB\TVBGone\TVBGone_Hardware\TVBGone_Enclosure\TVBGone_Baseplate_ACD_1.jpg
 10
274.0
 20
274.0
 11
0.00364963503649635
 21
0.00364963503649635
280
     1
281
     5
  0
IMAGEDEF
  5
62
102
{ACAD_REACTORS
330
53
330
64
102
}
330
53
100
AcDbRasterImageDef
 90
        0
  1
E:\Google Drive REI\Work - Kits\GITHUB\TVBGone\TVBGone_Hardware\TVBGone_Enclosure\TVBGone_Baseplate_ACD_2.jpg
 10
365.0
 20
277.0
 11
0.00273972602739726
 21
0.00273972602739726
280
     1
281
     5
  0
IMAGEDEF
  5
69
102
{ACAD_REACTORS
330
53
330
6B
102
}
330
53
100
AcDbRasterImageDef
 90
        0
  1
E:\Google Drive REI\Work - Kits\GITHUB\TVBGone\TVBGone_Hardware\TVBGone_Enclosure\TVBGone_Baseplate_ACD_3.jpg
 10
277.0
 20
365.0
 11
0.003610108303249098
 21
0.003610108303249098
280
     1
281
     5
  0
MATERIAL
  5
3D
102
{ACAD_REACTORS
330
3B
102
}
102
{ACAD_XDICTIONARY
360
AB
102
}
330
3B
100
AcDbMaterial
  1
ByBlock
  0
MATERIAL
  5
3C
102
{ACAD_REACTORS
330
3B
102
}
102
{ACAD_XDICTIONARY
360
A9
102
}
330
3B
100
AcDbMaterial
  1
ByLayer
  0
MATERIAL
  5
3E
102
{ACAD_REACTORS
330
3B
102
}
102
{ACAD_XDICTIONARY
360
AD
102
}
330
3B
100
AcDbMaterial
  1
Global
  0
MLINESTYLE
  5
18
102
{ACAD_REACTORS
330
17
102
}
330
17
100
AcDbMlineStyle
  2
Standard
 70
     0
  3

 62
   256
 51
90.0
 52
90.0
 71
     2
 49
0.5
 62
   256
  6
BYLAYER
 49
-0.5
 62
   256
  6
BYLAYER
  0
ACAD_PROXY_OBJECT
  5
2F
102
{ACAD_REACTORS
330
2A
102
}
330
2A
100
AcDbProxyObject
 90
      499
 91
      501
 93
      436
310
42CC9915DA5C99599C985B595049028333333333333E3BF0000000000000FB0107901411070040501600405405064090741402480A0340
1001
ACAD
1000
AcDbSavedByObjectVersion
1070
     0
  0
ACAD_PROXY_OBJECT
  5
31
102
{ACAD_REACTORS
330
2A
102
}
330
2A
100
AcDbProxyObject
 90
      499
 91
      501
 93
      500
310
424CD108121A5919195B90640502408333333333333E3BF0000000000000FB01079024090700405020000000000001110200405405064090740C02480A0340
1001
ACAD
1000
AcDbSavedByObjectVersion
1070
     0
  0
ACAD_PROXY_OBJECT
  5
30
102
{ACAD_REACTORS
330
2A
102
}
330
2A
100
AcDbProxyObject
 90
      499
 91
      501
 93
      436
310
42CCD915DA5C99599C985B595059028333333333333E3BF0000000000000FB0107901411070040501600405405064090741402480A0340
1001
ACAD
1000
AcDbSavedByObjectVersion
1070
     0
  0
ACAD_PROXY_OBJECT
  5
32
102
{ACAD_REACTORS
330
2A
102
}
330
2A
100
AcDbProxyObject
 90
      499
 91
      501
 93
      388
310
4150985CDA58D07406404333333333333E3BF0000000000000FB0107A41107004050150841D405064090741402480A0350
1001
ACAD
1000
AcDbSavedByObjectVersion
1070
     0
  0
ACAD_PROXY_OBJECT
  5
36
102
{ACAD_REACTORS
330
2A
102
}
330
2A
100
AcDbProxyObject
 90
      499
 91
      501
 93
      428
310
42109C9A59DA1D195B90C409028333333333333E3BF0000000000000FB010790141107004050150841D405064090741402480A029950
1001
ACAD
1000
AcDbSavedByObjectVersion
1070
     0
  0
ACAD_PROXY_OBJECT
  5
3A
102
{ACAD_REACTORS
330
2A
102
}
330
2A
100
AcDbProxyObject
 90
      499
 91
      501
 93
      452
310
42D0DBDB1BDC90DA185B99D95104090240C333333333333E3BF0000000000000FB0108901411070040501508421405064090741402480A0350
1001
ACAD
1000
AcDbSavedByObjectVersion
1070
     0
  0
ACAD_PROXY_OBJECT
  5
34
102
{ACAD_REACTORS
330
2A
102
}
330
2A
100
AcDbProxyObject
 90
      499
 91
      501
 93
      500
310
4290DBDB98D95C1D1D585B10940D028333333333333E3BF0000000000000FB0107902409070040501000000000000111010841D405064090740C02480A0340
1001
ACAD
1000
AcDbSavedByObjectVersion
1070
     0
  0
ACAD_PROXY_OBJECT
  5
35
102
{ACAD_REACTORS
330
2A
102
}
330
2A
100
AcDbProxyObject
 90
      499
 91
      501
 93
      412
310
40D11A5B50B409028333333333333E3BF0000000000000FB010790141107004050150841D405064090741402480A02677FFFFFD0
1001
ACAD
1000
AcDbSavedByObjectVersion
1070
     0
  0
ACAD_PROXY_OBJECT
  5
39
102
{ACAD_REACTORS
330
2A
102
}
330
2A
100
AcDbProxyObject
 90
      499
 91
      501
 93
      444
310
42D19858D95C185D1D195C9B90F409028333333333333E3BF0000000000000FB010790141107004050150841D405064090741402480A0350
1001
ACAD
1000
AcDbSavedByObjectVersion
1070
     0
  0
ACAD_PROXY_OBJECT
  5
2B
102
{ACAD_REACTORS
330
2A
102
}
330
2A
100
AcDbProxyObject
 90
      499
 91
      501
 93
      388
310
41119B185D240901404333333333333E3BF0000000000000F9010740A41107004050150841D405064090741402480A1B50
1001
ACAD
1000
AcDbSavedByObjectVersion
1070
     0
  0
ACAD_PROXY_OBJECT
  5
2C
102
{ACAD_REACTORS
330
2A
102
}
330
2A
100
AcDbProxyObject
 90
      499
 91
      501
 93
      476
310
43519B185D15DA5D1A115919D95CD0140901404333333333333E3BF0000000000000F9010740901411070040501600405405064090741402480A1B50
1001
ACAD
1000
AcDbSavedByObjectVersion
1070
     0
  0
ACAD_PROXY_OBJECT
  5
2D
102
{ACAD_REACTORS
330
2A
102
}
330
2A
100
AcDbProxyObject
 90
      499
 91
      501
 93
      412
310
41D1DBDD5C985D5910240902404333333333333E3BF0000000000000F9010740A411070040501641D405064090741402480A1B50
1001
ACAD
1000
AcDbSavedByObjectVersion
1070
     0
  0
ACAD_PROXY_OBJECT
  5
2E
102
{ACAD_REACTORS
330
2A
102
}
330
2A
100
AcDbProxyObject
 90
      499
 91
      501
 93
      500
310
4411DBDD5C985D5915DA5D1A115919D95CD0340902404333333333333E3BF0000000000000F9010740901411070040501600405405064090741402480A1B50
1001
ACAD
1000
AcDbSavedByObjectVersion
1070
     0
  0
ACAD_PROXY_OBJECT
  5
38
102
{ACAD_REACTORS
330
2A
102
}
330
2A
100
AcDbProxyObject
 90
      499
 91
      501
 93
      444
310
42D31A5B995C185D1D195C9B90E409028333333333333E3BF0000000000000FB010790141107004050750841D405064090741402483A0350
1001
ACAD
1000
AcDbSavedByObjectVersion
1070
     0
  0
ACAD_PROXY_OBJECT
  5
33
102
{ACAD_REACTORS
330
2A
102
}
330
2A
100
AcDbProxyObject
 90
      499
 91
      501
 93
      420
310
425499585B1A5CDD1A58D08409028333333333333E3BF0000000000000FB01079019070040501508421405064090741402480A1B40
1001
ACAD
1000
AcDbSavedByObjectVersion
1070
     0
  0
ACAD_PROXY_OBJECT
  5
37
102
{ACAD_REACTORS
330
2A
102
}
330
2A
100
AcDbProxyObject
 90
      499
 91
      501
 93
      412
310
41D51A1A58DAD95B90D409028333333333333E3BF0000000000000FB010790141107004050150C41D405064090741402480A0350
1001
ACAD
1000
AcDbSavedByObjectVersion
1070
     0
  0
XRECORD
  5
8D
102
{ACAD_REACTORS
330
84
102
}
330
84
100
AcDbXrecord
 90
        0
  0
XRECORD
  5
A3
102
{ACAD_REACTORS
330
84
102
}
330
84
100
AcDbXrecord
1000
DSTYLE
1002
{
1070
   340
340
11
1002
}
  0
XRECORD
  5
8E
102
{ACAD_REACTORS
330
84
102
}
330
84
100
AcDbXrecord
  1
{F77BD755-9C0F-42A1-A4D1-DA6FFB7F0295}
  0
XRECORD
  5
87
102
{ACAD_REACTORS
330
84
102
}
330
84
100
AcDbXrecord
  1

  0
XRECORD
  5
8C
102
{ACAD_REACTORS
330
84
102
}
330
84
100
AcDbXrecord
 90
        4
  0
XRECORD
  5
89
102
{ACAD_REACTORS
330
84
102
}
330
84
100
AcDbXrecord
340
1A
  0
XRECORD
  5
8B
102
{ACAD_REACTORS
330
84
102
}
330
84
100
AcDbXrecord
 90
    10781
  0
XRECORD
  5
8A
102
{ACAD_REACTORS
330
84
102
}
330
84
100
AcDbXrecord
340
19
  0
XRECORD
  5
90
102
{ACAD_REACTORS
330
84
102
}
330
84
100
AcDbXrecord
 40
0.0
  0
XRECORD
  5
93
102
{ACAD_REACTORS
330
84
102
}
330
84
100
AcDbXrecord
340
0
  0
XRECORD
  5
99
102
{ACAD_REACTORS
330
84
102
}
330
84
100
AcDbXrecord
 10
0.0
 20
0.0
 30
0.0
  0
XRECORD
  5
95
102
{ACAD_REACTORS
330
84
102
}
330
84
100
AcDbXrecord
 10
0.0
 20
0.0
 30
0.0
  0
XRECORD
  5
98
102
{ACAD_REACTORS
330
84
102
}
330
84
100
AcDbXrecord
 10
0.0
 20
0.0
 30
0.0
  0
XRECORD
  5
96
102
{ACAD_REACTORS
330
84
102
}
330
84
100
AcDbXrecord
 10
0.0
 20
0.0
 30
0.0
  0
XRECORD
  5
97
102
{ACAD_REACTORS
330
84
102
}
330
84
100
AcDbXrecord
 10
0.0
 20
0.0
 30
0.0
  0
XRECORD
  5
94
102
{ACAD_REACTORS
330
84
102
}
330
84
100
AcDbXrecord
 10
0.0
 20
0.0
 30
0.0
  0
XRECORD
  5
91
102
{ACAD_REACTORS
330
84
102
}
330
84
100
AcDbXrecord
340
0
  0
XRECORD
  5
92
102
{ACAD_REACTORS
330
84
102
}
330
84
100
AcDbXrecord
 70
     0
  0
XRECORD
  5
88
102
{ACAD_REACTORS
330
84
102
}
330
84
100
AcDbXrecord
  1

  0
XRECORD
  5
85
102
{ACAD_REACTORS
330
84
102
}
330
84
100
AcDbXrecord
 90
        1
  0
XRECORD
  5
86
102
{ACAD_REACTORS
330
84
102
}
330
84
100
AcDbXrecord
 90
       70
  0
XRECORD
  5
9C
102
{ACAD_REACTORS
330
84
102
}
330
84
100
AcDbXrecord
340
0
  0
XRECORD
  5
A2
102
{ACAD_REACTORS
330
84
102
}
330
84
100
AcDbXrecord
 10
0.0
 20
0.0
 30
0.0
  0
XRECORD
  5
9E
102
{ACAD_REACTORS
330
84
102
}
330
84
100
AcDbXrecord
 10
0.0
 20
0.0
 30
0.0
  0
XRECORD
  5
A1
102
{ACAD_REACTORS
330
84
102
}
330
84
100
AcDbXrecord
 10
0.0
 20
0.0
 30
0.0
  0
XRECORD
  5
9F
102
{ACAD_REACTORS
330
84
102
}
330
84
100
AcDbXrecord
 10
0.0
 20
0.0
 30
0.0
  0
XRECORD
  5
A0
102
{ACAD_REACTORS
330
84
102
}
330
84
100
AcDbXrecord
 10
0.0
 20
0.0
 30
0.0
  0
XRECORD
  5
9D
102
{ACAD_REACTORS
330
84
102
}
330
84
100
AcDbXrecord
 10
0.0
 20
0.0
 30
0.0
  0
XRECORD
  5
9A
102
{ACAD_REACTORS
330
84
102
}
330
84
100
AcDbXrecord
340
0
  0
XRECORD
  5
9B
102
{ACAD_REACTORS
330
84
102
}
330
84
100
AcDbXrecord
 70
     0
  0
XRECORD
  5
8F
102
{ACAD_REACTORS
330
84
102
}
330
84
100
AcDbXrecord
  1
{FAEB1C32-E019-11D5-929B-00C0DF256EC4}
  0
DICTIONARYVAR
  5
A7
102
{ACAD_REACTORS
330
A4
102
}
330
A4
100
DictionaryVariables
280
     0
  1
2
  0
DICTIONARYVAR
  5
A8
102
{ACAD_REACTORS
330
A4
102
}
330
A4
100
DictionaryVariables
280
     0
  1
1
  0
DICTIONARY
  5
AB
330
3D
100
AcDbDictionary
280
     1
  3
ACAD_XREC_ROUNDTRIP
360
AC
  0
DICTIONARY
  5
A9
330
3C
100
AcDbDictionary
280
     1
  3
ACAD_XREC_ROUNDTRIP
360
AA
  0
DICTIONARY
  5
AD
330
3E
100
AcDbDictionary
280
     1
  3
ACAD_XREC_ROUNDTRIP
360
AE
  0
XRECORD
  5
AC
102
{ACAD_REACTORS
330
AB
102
}
330
AB
100
AcDbXrecord
102
MATERIAL
148
0.0
149
0.0
149
0.0
 93
        0
 94
      127
282
     0
 72
     1
 77
     1
171
     1
175
     1
179
     1
273
     0
  0
XRECORD
  5
AA
102
{ACAD_REACTORS
330
A9
102
}
330
A9
100
AcDbXrecord
102
MATERIAL
148
0.0
149
0.0
149
0.0
 93
        0
 94
      127
282
     0
 72
     1
 77
     1
171
     1
175
     1
179
     1
273
     0
  0
XRECORD
  5
AE
102
{ACAD_REACTORS
330
AD
102
}
330
AD
100
AcDbXrecord
102
MATERIAL
148
0.0
149
0.0
149
0.0
 93
        0
 94
      127
282
     0
 72
     1
 77
     1
171
     1
175
     1
179
     1
273
     0
  0
ENDSEC
  0
EOF
