<?xml version="1.0" encoding="UTF-8"?>
<!DOCTYPE svg PUBLIC "-//W3C//DTD SVG 1.1//EN" "http://www.w3.org/Graphics/SVG/1.1/DTD/svg11.dtd">
<!-- Creator: CorelDRAW X7 -->
<svg xmlns="http://www.w3.org/2000/svg" xml:space="preserve" width="400mm" height="297mm" version="1.1" style="shape-rendering:geometricPrecision; text-rendering:geometricPrecision; image-rendering:optimizeQuality; fill-rule:evenodd; clip-rule:evenodd"
viewBox="0 0 40000 29700"
 xmlns:xlink="http://www.w3.org/1999/xlink"
 version="1.1">
 <defs>
  <style type="text/css">
   <![CDATA[
    .str0 {stroke:#2B2A29;stroke-width:17.63}
    .str1 {stroke:#2B2A29;stroke-width:17.63;stroke-linecap:round;stroke-linejoin:round}
    .fil0 {fill:none}
    .fil1 {fill:white}
   ]]>
  </style>
 </defs>
 <g id="Layer_x0020_1">
  <metadata id="CorelCorpID_0Corel-Layer"/>
  <rect class="fil0 str0" x="11078" y="580" width="3500" height="12000" rx="228" ry="272"/>
  <g id="_2423182594192">
   <circle class="fil1 str1" transform="matrix(2.64845E-014 -1 1 2.64845E-014 11691.7 5370.09)" r="163"/>
  </g>
  <g id="_2423182593648">
   <circle class="fil1 str1" transform="matrix(2.64845E-014 -1 1 2.64845E-014 11691.7 1179.09)" r="163"/>
  </g>
  <g id="_2423182600880">
   <circle class="fil1 str1" transform="matrix(2.64845E-014 -1 1 2.64845E-014 13977.7 5370.09)" r="163"/>
  </g>
  <g id="_2423182599536">
   <circle class="fil1 str1" transform="matrix(2.64845E-014 -1 1 2.64845E-014 13977.7 1179.09)" r="163"/>
  </g>
  <rect class="fil0 str0" x="14578" y="580" width="3500" height="12000" rx="228" ry="272"/>
  <g id="_2423181891456">
   <circle class="fil1 str1" transform="matrix(2.64845E-014 -1 1 2.64845E-014 15191.7 5370.09)" r="163"/>
  </g>
  <g id="_2423181890848">
   <circle class="fil1 str1" transform="matrix(2.64845E-014 -1 1 2.64845E-014 15191.7 1179.09)" r="163"/>
  </g>
  <g id="_2423181891104">
   <circle class="fil1 str1" transform="matrix(2.64845E-014 -1 1 2.64845E-014 17477.7 5370.09)" r="163"/>
  </g>
  <g id="_2423181891264">
   <circle class="fil1 str1" transform="matrix(2.64845E-014 -1 1 2.64845E-014 17477.7 1179.09)" r="163"/>
  </g>
  <rect class="fil0 str0" x="18078" y="580" width="3500" height="12000" rx="228" ry="272"/>
  <g id="_2423181889024">
   <circle class="fil1 str1" transform="matrix(2.64845E-014 -1 1 2.64845E-014 18691.7 5370.09)" r="163"/>
  </g>
  <g id="_2423181889408">
   <circle class="fil1 str1" transform="matrix(2.64845E-014 -1 1 2.64845E-014 18691.7 1179.09)" r="163"/>
  </g>
  <g id="_2423181890784">
   <circle class="fil1 str1" transform="matrix(2.64845E-014 -1 1 2.64845E-014 20977.7 5370.09)" r="163"/>
  </g>
  <g id="_2423181890592">
   <circle class="fil1 str1" transform="matrix(2.64845E-014 -1 1 2.64845E-014 20977.7 1179.09)" r="163"/>
  </g>
  <rect class="fil0 str0" x="21578" y="580" width="3500" height="12000" rx="228" ry="272"/>
  <g id="_2423298665360">
   <circle class="fil1 str1" transform="matrix(2.64845E-014 -1 1 2.64845E-014 22191.7 5370.09)" r="163"/>
  </g>
  <g id="_2423298666864">
   <circle class="fil1 str1" transform="matrix(2.64845E-014 -1 1 2.64845E-014 22191.7 1179.09)" r="163"/>
  </g>
  <g id="_2423298666736">
   <circle class="fil1 str1" transform="matrix(2.64845E-014 -1 1 2.64845E-014 24477.7 5370.09)" r="163"/>
  </g>
  <g id="_2423298666448">
   <circle class="fil1 str1" transform="matrix(2.64845E-014 -1 1 2.64845E-014 24477.7 1179.09)" r="163"/>
  </g>
  <rect class="fil0 str0" x="25078" y="580" width="3500" height="12000" rx="228" ry="272"/>
  <g id="_2423298664816">
   <circle class="fil1 str1" transform="matrix(2.64845E-014 -1 1 2.64845E-014 25691.7 5370.09)" r="163"/>
  </g>
  <g id="_2423298665104">
   <circle class="fil1 str1" transform="matrix(2.64845E-014 -1 1 2.64845E-014 25691.7 1179.09)" r="163"/>
  </g>
  <g id="_2423298664528">
   <circle class="fil1 str1" transform="matrix(2.64845E-014 -1 1 2.64845E-014 27977.7 5370.09)" r="163"/>
  </g>
  <g id="_2423298665232">
   <circle class="fil1 str1" transform="matrix(2.64845E-014 -1 1 2.64845E-014 27977.7 1179.09)" r="163"/>
  </g>
  <rect class="fil0 str0" x="28578" y="580" width="3500" height="12000" rx="228" ry="272"/>
  <g id="_2423298662032">
   <circle class="fil1 str1" transform="matrix(2.64845E-014 -1 1 2.64845E-014 29191.7 5370.09)" r="163"/>
  </g>
  <g id="_2423298662832">
   <circle class="fil1 str1" transform="matrix(2.64845E-014 -1 1 2.64845E-014 29191.7 1179.09)" r="163"/>
  </g>
  <g id="_2423298662256">
   <circle class="fil1 str1" transform="matrix(2.64845E-014 -1 1 2.64845E-014 31477.7 5370.09)" r="163"/>
  </g>
  <g id="_2423182381776">
   <circle class="fil1 str1" transform="matrix(2.64845E-014 -1 1 2.64845E-014 31477.7 1179.09)" r="163"/>
  </g>
  <rect class="fil0 str0" x="32078" y="580" width="3500" height="12000" rx="228" ry="272"/>
  <g id="_2423182381200">
   <circle class="fil1 str1" transform="matrix(2.64845E-014 -1 1 2.64845E-014 32691.7 5370.09)" r="163"/>
  </g>
  <g id="_2423182382096">
   <circle class="fil1 str1" transform="matrix(2.64845E-014 -1 1 2.64845E-014 32691.7 1179.09)" r="163"/>
  </g>
  <g id="_2423182379632">
   <circle class="fil1 str1" transform="matrix(2.64845E-014 -1 1 2.64845E-014 34977.7 5370.09)" r="163"/>
  </g>
  <g id="_2423182378384">
   <circle class="fil1 str1" transform="matrix(2.64845E-014 -1 1 2.64845E-014 34977.7 1179.09)" r="163"/>
  </g>
  <rect class="fil0 str0" x="35578" y="580" width="3500" height="12000" rx="228" ry="272"/>
  <g id="_2423182380048">
   <circle class="fil1 str1" transform="matrix(2.64845E-014 -1 1 2.64845E-014 36191.7 5370.09)" r="163"/>
  </g>
  <g id="_2423182385744">
   <circle class="fil1 str1" transform="matrix(2.64845E-014 -1 1 2.64845E-014 36191.7 1179.09)" r="163"/>
  </g>
  <g id="_2423182384560">
   <circle class="fil1 str1" transform="matrix(2.64845E-014 -1 1 2.64845E-014 38477.7 5370.09)" r="163"/>
  </g>
  <g id="_2423182385040">
   <circle class="fil1 str1" transform="matrix(2.64845E-014 -1 1 2.64845E-014 38477.7 1179.09)" r="163"/>
  </g>
  <rect class="fil0 str0" x="7578" y="580" width="3500" height="12000" rx="228" ry="272"/>
  <g id="_2423182384112">
   <circle class="fil1 str1" transform="matrix(2.64845E-014 -1 1 2.64845E-014 8191.74 5370.09)" r="163"/>
  </g>
  <g id="_2423182382640">
   <circle class="fil1 str1" transform="matrix(2.64845E-014 -1 1 2.64845E-014 8191.74 1179.09)" r="163"/>
  </g>
  <g id="_2423182383152">
   <circle class="fil1 str1" transform="matrix(2.64845E-014 -1 1 2.64845E-014 10477.7 5370.09)" r="163"/>
  </g>
  <g id="_2423182383440">
   <circle class="fil1 str1" transform="matrix(2.64845E-014 -1 1 2.64845E-014 10477.7 1179.09)" r="163"/>
  </g>
  <rect class="fil0 str0" x="4078" y="580" width="3500" height="12000" rx="228" ry="272"/>
  <g id="_2423295350464">
   <circle class="fil1 str1" transform="matrix(2.64845E-014 -1 1 2.64845E-014 4691.74 5370.09)" r="163"/>
  </g>
  <g id="_2423295350272">
   <circle class="fil1 str1" transform="matrix(2.64845E-014 -1 1 2.64845E-014 4691.74 1179.09)" r="163"/>
  </g>
  <g id="_2423295349984">
   <circle class="fil1 str1" transform="matrix(2.64845E-014 -1 1 2.64845E-014 6977.74 5370.09)" r="163"/>
  </g>
  <g id="_2423295350848">
   <circle class="fil1 str1" transform="matrix(2.64845E-014 -1 1 2.64845E-014 6977.74 1179.09)" r="163"/>
  </g>
  <rect class="fil0 str0" x="578" y="580" width="3500" height="12000" rx="228" ry="272"/>
  <g id="_2423295348800">
   <circle class="fil1 str1" transform="matrix(2.64845E-014 -1 1 2.64845E-014 1191.74 5370.09)" r="163"/>
  </g>
  <g id="_2423295347808">
   <circle class="fil1 str1" transform="matrix(2.64845E-014 -1 1 2.64845E-014 1191.74 1179.09)" r="163"/>
  </g>
  <g id="_2423295347904">
   <circle class="fil1 str1" transform="matrix(2.64845E-014 -1 1 2.64845E-014 3477.74 5370.09)" r="163"/>
  </g>
  <g id="_2423295347232">
   <circle class="fil1 str1" transform="matrix(2.64845E-014 -1 1 2.64845E-014 3477.74 1179.09)" r="163"/>
  </g>
 </g>
</svg>
