<?xml version="1.0" encoding="UTF-8"?>
<!DOCTYPE svg PUBLIC "-//W3C//DTD SVG 1.1//EN" "http://www.w3.org/Graphics/SVG/1.1/DTD/svg11.dtd">
<!-- Creator: CorelDRAW X7 -->
<svg xmlns="http://www.w3.org/2000/svg" xml:space="preserve" width="400mm" height="297mm" version="1.1" style="shape-rendering:geometricPrecision; text-rendering:geometricPrecision; image-rendering:optimizeQuality; fill-rule:evenodd; clip-rule:evenodd"
viewBox="0 0 40000 29700"
 xmlns:xlink="http://www.w3.org/1999/xlink"
 version="1.1">
 <defs>
  <style type="text/css">
   <![CDATA[
    .str0 {stroke:#2B2A29;stroke-width:17.63}
    .str1 {stroke:#2B2A29;stroke-width:17.63;stroke-linecap:round;stroke-linejoin:round}
    .fil0 {fill:none}
    .fil1 {fill:white}
   ]]>
  </style>
 </defs>
 <g id="Layer_x0020_1">
  <metadata id="CorelCorpID_0Corel-Layer"/>
  <rect class="fil0 str0" x="11078" y="580" width="3500" height="12000" rx="228" ry="272"/>
  <g id="_2423176022192">
   <circle class="fil1 str1" transform="matrix(2.64845E-014 -1 1 2.64845E-014 11691.7 5370.09)" r="163"/>
  </g>
  <g id="_2423176021264">
   <circle class="fil1 str1" transform="matrix(2.64845E-014 -1 1 2.64845E-014 11691.7 1179.09)" r="163"/>
  </g>
  <g id="_2423176021584">
   <circle class="fil1 str1" transform="matrix(2.64845E-014 -1 1 2.64845E-014 13977.7 5370.09)" r="163"/>
  </g>
  <g id="_2423176022896">
   <circle class="fil1 str1" transform="matrix(2.64845E-014 -1 1 2.64845E-014 13977.7 1179.09)" r="163"/>
  </g>
  <circle class="fil0 str0" cx="11692" cy="1179" r="150"/>
  <circle class="fil0 str0" cx="13978" cy="1179" r="150"/>
  <circle class="fil0 str0" cx="11692" cy="5370" r="150"/>
  <circle class="fil0 str0" cx="13978" cy="5370" r="150"/>
  <rect class="fil0 str0" x="14578" y="580" width="3500" height="12000" rx="228" ry="272"/>
  <g id="_2423176020656">
   <circle class="fil1 str1" transform="matrix(2.64845E-014 -1 1 2.64845E-014 15191.7 5370.09)" r="163"/>
  </g>
  <g id="_2423176017712">
   <circle class="fil1 str1" transform="matrix(2.64845E-014 -1 1 2.64845E-014 15191.7 1179.09)" r="163"/>
  </g>
  <g id="_2423176018448">
   <circle class="fil1 str1" transform="matrix(2.64845E-014 -1 1 2.64845E-014 17477.7 5370.09)" r="163"/>
  </g>
  <g id="_2423176018800">
   <circle class="fil1 str1" transform="matrix(2.64845E-014 -1 1 2.64845E-014 17477.7 1179.09)" r="163"/>
  </g>
  <circle class="fil0 str0" cx="15192" cy="1179" r="150"/>
  <circle class="fil0 str0" cx="17478" cy="1179" r="150"/>
  <circle class="fil0 str0" cx="15192" cy="5370" r="150"/>
  <circle class="fil0 str0" cx="17478" cy="5370" r="150"/>
  <rect class="fil0 str0" x="18078" y="580" width="3500" height="12000" rx="228" ry="272"/>
  <g id="_2423176014832">
   <circle class="fil1 str1" transform="matrix(2.64845E-014 -1 1 2.64845E-014 18691.7 5370.09)" r="163"/>
  </g>
  <g id="_2423176016368">
   <circle class="fil1 str1" transform="matrix(2.64845E-014 -1 1 2.64845E-014 18691.7 1179.09)" r="163"/>
  </g>
  <g id="_2423176015728">
   <circle class="fil1 str1" transform="matrix(2.64845E-014 -1 1 2.64845E-014 20977.7 5370.09)" r="163"/>
  </g>
  <g id="_2422567829824">
   <circle class="fil1 str1" transform="matrix(2.64845E-014 -1 1 2.64845E-014 20977.7 1179.09)" r="163"/>
  </g>
  <circle class="fil0 str0" cx="18692" cy="1179" r="150"/>
  <circle class="fil0 str0" cx="20978" cy="1179" r="150"/>
  <circle class="fil0 str0" cx="18692" cy="5370" r="150"/>
  <circle class="fil0 str0" cx="20978" cy="5370" r="150"/>
  <rect class="fil0 str0" x="21578" y="580" width="3500" height="12000" rx="228" ry="272"/>
  <g id="_2423177316560">
   <circle class="fil1 str1" transform="matrix(2.64845E-014 -1 1 2.64845E-014 22191.7 5370.09)" r="163"/>
  </g>
  <g id="_2423177315120">
   <circle class="fil1 str1" transform="matrix(2.64845E-014 -1 1 2.64845E-014 22191.7 1179.09)" r="163"/>
  </g>
  <g id="_2423177311376">
   <circle class="fil1 str1" transform="matrix(2.64845E-014 -1 1 2.64845E-014 24477.7 5370.09)" r="163"/>
  </g>
  <g id="_2423177312080">
   <circle class="fil1 str1" transform="matrix(2.64845E-014 -1 1 2.64845E-014 24477.7 1179.09)" r="163"/>
  </g>
  <circle class="fil0 str0" cx="22192" cy="1179" r="150"/>
  <circle class="fil0 str0" cx="24478" cy="1179" r="150"/>
  <circle class="fil0 str0" cx="22192" cy="5370" r="150"/>
  <circle class="fil0 str0" cx="24478" cy="5370" r="150"/>
  <rect class="fil0 str0" x="25078" y="580" width="3500" height="12000" rx="228" ry="272"/>
  <g id="_2423182815456">
   <circle class="fil1 str1" transform="matrix(2.64845E-014 -1 1 2.64845E-014 25691.7 5370.09)" r="163"/>
  </g>
  <g id="_2423182813248">
   <circle class="fil1 str1" transform="matrix(2.64845E-014 -1 1 2.64845E-014 25691.7 1179.09)" r="163"/>
  </g>
  <g id="_2423182813280">
   <circle class="fil1 str1" transform="matrix(2.64845E-014 -1 1 2.64845E-014 27977.7 5370.09)" r="163"/>
  </g>
  <g id="_2423182814304">
   <circle class="fil1 str1" transform="matrix(2.64845E-014 -1 1 2.64845E-014 27977.7 1179.09)" r="163"/>
  </g>
  <circle class="fil0 str0" cx="25692" cy="1179" r="150"/>
  <circle class="fil0 str0" cx="27978" cy="1179" r="150"/>
  <circle class="fil0 str0" cx="25692" cy="5370" r="150"/>
  <circle class="fil0 str0" cx="27978" cy="5370" r="150"/>
  <rect class="fil0 str0" x="28578" y="580" width="3500" height="12000" rx="228" ry="272"/>
  <g id="_2423182828512">
   <circle class="fil1 str1" transform="matrix(2.64845E-014 -1 1 2.64845E-014 29191.7 5370.09)" r="163"/>
  </g>
  <g id="_2423182828288">
   <circle class="fil1 str1" transform="matrix(2.64845E-014 -1 1 2.64845E-014 29191.7 1179.09)" r="163"/>
  </g>
  <g id="_2423182825344">
   <circle class="fil1 str1" transform="matrix(2.64845E-014 -1 1 2.64845E-014 31477.7 5370.09)" r="163"/>
  </g>
  <g id="_2423182826560">
   <circle class="fil1 str1" transform="matrix(2.64845E-014 -1 1 2.64845E-014 31477.7 1179.09)" r="163"/>
  </g>
  <circle class="fil0 str0" cx="29192" cy="1179" r="150"/>
  <circle class="fil0 str0" cx="31478" cy="1179" r="150"/>
  <circle class="fil0 str0" cx="29192" cy="5370" r="150"/>
  <circle class="fil0 str0" cx="31478" cy="5370" r="150"/>
  <rect class="fil0 str0" x="32078" y="580" width="3500" height="12000" rx="228" ry="272"/>
  <g id="_2423182819392">
   <circle class="fil1 str1" transform="matrix(2.64845E-014 -1 1 2.64845E-014 32691.7 5370.09)" r="163"/>
  </g>
  <g id="_2423182818880">
   <circle class="fil1 str1" transform="matrix(2.64845E-014 -1 1 2.64845E-014 32691.7 1179.09)" r="163"/>
  </g>
  <g id="_2423182820224">
   <circle class="fil1 str1" transform="matrix(2.64845E-014 -1 1 2.64845E-014 34977.7 5370.09)" r="163"/>
  </g>
  <g id="_2423298320784">
   <circle class="fil1 str1" transform="matrix(2.64845E-014 -1 1 2.64845E-014 34977.7 1179.09)" r="163"/>
  </g>
  <circle class="fil0 str0" cx="32692" cy="1179" r="150"/>
  <circle class="fil0 str0" cx="34978" cy="1179" r="150"/>
  <circle class="fil0 str0" cx="32692" cy="5370" r="150"/>
  <circle class="fil0 str0" cx="34978" cy="5370" r="150"/>
  <rect class="fil0 str0" x="35578" y="580" width="3500" height="12000" rx="228" ry="272"/>
  <g id="_2423298335504">
   <circle class="fil1 str1" transform="matrix(2.64845E-014 -1 1 2.64845E-014 36191.7 5370.09)" r="163"/>
  </g>
  <g id="_2423298335184">
   <circle class="fil1 str1" transform="matrix(2.64845E-014 -1 1 2.64845E-014 36191.7 1179.09)" r="163"/>
  </g>
  <g id="_2423298335152">
   <circle class="fil1 str1" transform="matrix(2.64845E-014 -1 1 2.64845E-014 38477.7 5370.09)" r="163"/>
  </g>
  <g id="_2423298334960">
   <circle class="fil1 str1" transform="matrix(2.64845E-014 -1 1 2.64845E-014 38477.7 1179.09)" r="163"/>
  </g>
  <circle class="fil0 str0" cx="36192" cy="1179" r="150"/>
  <circle class="fil0 str0" cx="38478" cy="1179" r="150"/>
  <circle class="fil0 str0" cx="36192" cy="5370" r="150"/>
  <circle class="fil0 str0" cx="38478" cy="5370" r="150"/>
  <rect class="fil0 str0" x="7578" y="580" width="3500" height="12000" rx="228" ry="272"/>
  <g id="_2423298333904">
   <circle class="fil1 str1" transform="matrix(2.64845E-014 -1 1 2.64845E-014 8191.74 5370.09)" r="163"/>
  </g>
  <g id="_2423298331440">
   <circle class="fil1 str1" transform="matrix(2.64845E-014 -1 1 2.64845E-014 8191.74 1179.09)" r="163"/>
  </g>
  <g id="_2423298330640">
   <circle class="fil1 str1" transform="matrix(2.64845E-014 -1 1 2.64845E-014 10477.7 5370.09)" r="163"/>
  </g>
  <g id="_2423298330352">
   <circle class="fil1 str1" transform="matrix(2.64845E-014 -1 1 2.64845E-014 10477.7 1179.09)" r="163"/>
  </g>
  <circle class="fil0 str0" cx="8192" cy="1179" r="150"/>
  <circle class="fil0 str0" cx="10478" cy="1179" r="150"/>
  <circle class="fil0 str0" cx="8192" cy="5370" r="150"/>
  <circle class="fil0 str0" cx="10478" cy="5370" r="150"/>
  <rect class="fil0 str0" x="4078" y="580" width="3500" height="12000" rx="228" ry="272"/>
  <g id="_2423298329488">
   <circle class="fil1 str1" transform="matrix(2.64845E-014 -1 1 2.64845E-014 4691.74 5370.09)" r="163"/>
  </g>
  <g id="_2423298329104">
   <circle class="fil1 str1" transform="matrix(2.64845E-014 -1 1 2.64845E-014 4691.74 1179.09)" r="163"/>
  </g>
  <g id="_2423298328240">
   <circle class="fil1 str1" transform="matrix(2.64845E-014 -1 1 2.64845E-014 6977.74 5370.09)" r="163"/>
  </g>
  <g id="_2423298326192">
   <circle class="fil1 str1" transform="matrix(2.64845E-014 -1 1 2.64845E-014 6977.74 1179.09)" r="163"/>
  </g>
  <circle class="fil0 str0" cx="4692" cy="1179" r="150"/>
  <circle class="fil0 str0" cx="6978" cy="1179" r="150"/>
  <circle class="fil0 str0" cx="4692" cy="5370" r="150"/>
  <circle class="fil0 str0" cx="6978" cy="5370" r="150"/>
  <rect class="fil0 str0" x="578" y="580" width="3500" height="12000" rx="228" ry="272"/>
  <g id="_2423298326000">
   <circle class="fil1 str1" transform="matrix(2.64845E-014 -1 1 2.64845E-014 1191.74 5370.09)" r="163"/>
  </g>
  <g id="_2423298325840">
   <circle class="fil1 str1" transform="matrix(2.64845E-014 -1 1 2.64845E-014 1191.74 1179.09)" r="163"/>
  </g>
  <g id="_2423298324272">
   <circle class="fil1 str1" transform="matrix(2.64845E-014 -1 1 2.64845E-014 3477.74 5370.09)" r="163"/>
  </g>
  <g id="_2423298325296">
   <circle class="fil1 str1" transform="matrix(2.64845E-014 -1 1 2.64845E-014 3477.74 1179.09)" r="163"/>
  </g>
  <circle class="fil0 str0" cx="1192" cy="1179" r="150"/>
  <circle class="fil0 str0" cx="3478" cy="1179" r="150"/>
  <circle class="fil0 str0" cx="1192" cy="5370" r="150"/>
  <circle class="fil0 str0" cx="3478" cy="5370" r="150"/>
 </g>
</svg>
