M48
METRIC,TZ
T1C0.800
T2C0.813
T3C1.001
T4C1.501
%
G90
G05
T1
X108.077Y-77.978
X108.077Y-80.518
X113.081Y-77.356
X113.081Y-82.436
X114.605Y-56.464
X116.332Y-68.326
X116.332Y-75.946
X118.135Y-60.833
X118.135Y-63.373
X118.999Y-68.326
X118.999Y-75.946
X119.126Y-79.248
X119.126Y-81.788
X120.675Y-60.833
X122.225Y-56.464
X122.301Y-68.326
X122.301Y-75.946
X124.892Y-58.623
X124.968Y-66.294
X124.968Y-73.914
X124.968Y-81.534
X127.432Y-56.083
X127.432Y-58.623
X127.508Y-63.754
X127.508Y-66.294
X127.508Y-71.374
X127.508Y-73.914
X127.508Y-78.994
X127.508Y-81.534
X133.795Y-71.374
X133.795Y-73.914
X133.845Y-56.109
X133.845Y-58.649
X133.858Y-63.754
X133.858Y-66.294
X133.858Y-78.981
X133.858Y-81.521
T2
X101.854Y-67.818
X101.854Y-70.358
X101.854Y-72.898
X105.410Y-66.421
X105.410Y-68.961
X105.410Y-71.501
X105.410Y-74.041
X113.030Y-66.421
X113.030Y-68.961
X113.030Y-71.501
X113.030Y-74.041
T3
X102.235Y-77.089
X102.235Y-80.518
X102.578Y-57.315
X102.578Y-62.395
X110.198Y-57.315
X110.198Y-62.395
T4
X98.679Y-80.518
X98.806Y-76.962
T0
M30
