G04 #@! TF.FileFunction,Legend,Top*
%FSLAX46Y46*%
G04 Gerber Fmt 4.6, Leading zero omitted, Abs format (unit mm)*
G04 Created by KiCad (PCBNEW (2015-07-09 BZR 5913, Git 33e1797)-product) date 29/10/2015 17:07:08*
%MOMM*%
G01*
G04 APERTURE LIST*
%ADD10C,0.150000*%
%ADD11C,0.304800*%
%ADD12C,0.250190*%
%ADD13C,0.251460*%
%ADD14C,0.127000*%
%ADD15C,0.381000*%
%ADD16C,0.200000*%
%ADD17C,0.203200*%
%ADD18C,0.285750*%
%ADD19C,0.287020*%
%ADD20C,0.254000*%
%ADD21C,0.269240*%
G04 APERTURE END LIST*
D10*
D11*
X52886429Y-78123143D02*
X54047572Y-78123143D01*
X53467001Y-78897238D02*
X53467001Y-77349048D01*
X59281665Y-57878571D02*
X59148332Y-57964286D01*
X58881665Y-57964286D01*
X58748332Y-57878571D01*
X58681665Y-57792857D01*
X58614999Y-57621429D01*
X58614999Y-57107143D01*
X58681665Y-56935714D01*
X58748332Y-56850000D01*
X58881665Y-56764286D01*
X59148332Y-56764286D01*
X59281665Y-56850000D01*
X60481665Y-56764286D02*
X60481665Y-57964286D01*
X59881665Y-56764286D02*
X59881665Y-57707143D01*
X59948332Y-57878571D01*
X60081665Y-57964286D01*
X60281665Y-57964286D01*
X60414999Y-57878571D01*
X60481665Y-57792857D01*
X61148332Y-57964286D02*
X61148332Y-56764286D01*
X61148332Y-57107143D02*
X61214999Y-56935714D01*
X61281666Y-56850000D01*
X61414999Y-56764286D01*
X61548332Y-56764286D01*
X62014999Y-57964286D02*
X62014999Y-56764286D01*
X62014999Y-56164286D02*
X61948333Y-56250000D01*
X62014999Y-56335714D01*
X62081666Y-56250000D01*
X62014999Y-56164286D01*
X62014999Y-56335714D01*
X62881666Y-57964286D02*
X62748333Y-57878571D01*
X62681666Y-57792857D01*
X62615000Y-57621429D01*
X62615000Y-57107143D01*
X62681666Y-56935714D01*
X62748333Y-56850000D01*
X62881666Y-56764286D01*
X63081666Y-56764286D01*
X63215000Y-56850000D01*
X63281666Y-56935714D01*
X63348333Y-57107143D01*
X63348333Y-57621429D01*
X63281666Y-57792857D01*
X63215000Y-57878571D01*
X63081666Y-57964286D01*
X62881666Y-57964286D01*
X64548333Y-56764286D02*
X64548333Y-57964286D01*
X63948333Y-56764286D02*
X63948333Y-57707143D01*
X64015000Y-57878571D01*
X64148333Y-57964286D01*
X64348333Y-57964286D01*
X64481667Y-57878571D01*
X64548333Y-57792857D01*
X65148334Y-57878571D02*
X65281667Y-57964286D01*
X65548334Y-57964286D01*
X65681667Y-57878571D01*
X65748334Y-57707143D01*
X65748334Y-57621429D01*
X65681667Y-57450000D01*
X65548334Y-57364286D01*
X65348334Y-57364286D01*
X65215000Y-57278571D01*
X65148334Y-57107143D01*
X65148334Y-57021429D01*
X65215000Y-56850000D01*
X65348334Y-56764286D01*
X65548334Y-56764286D01*
X65681667Y-56850000D01*
X66881667Y-57878571D02*
X66748333Y-57964286D01*
X66481667Y-57964286D01*
X66348333Y-57878571D01*
X66281667Y-57707143D01*
X66281667Y-57021429D01*
X66348333Y-56850000D01*
X66481667Y-56764286D01*
X66748333Y-56764286D01*
X66881667Y-56850000D01*
X66948333Y-57021429D01*
X66948333Y-57192857D01*
X66281667Y-57364286D01*
X67748333Y-57964286D02*
X67615000Y-57878571D01*
X67548333Y-57707143D01*
X67548333Y-56164286D01*
X68815000Y-57878571D02*
X68681666Y-57964286D01*
X68415000Y-57964286D01*
X68281666Y-57878571D01*
X68215000Y-57707143D01*
X68215000Y-57021429D01*
X68281666Y-56850000D01*
X68415000Y-56764286D01*
X68681666Y-56764286D01*
X68815000Y-56850000D01*
X68881666Y-57021429D01*
X68881666Y-57192857D01*
X68215000Y-57364286D01*
X70081666Y-57878571D02*
X69948333Y-57964286D01*
X69681666Y-57964286D01*
X69548333Y-57878571D01*
X69481666Y-57792857D01*
X69415000Y-57621429D01*
X69415000Y-57107143D01*
X69481666Y-56935714D01*
X69548333Y-56850000D01*
X69681666Y-56764286D01*
X69948333Y-56764286D01*
X70081666Y-56850000D01*
X70481666Y-56764286D02*
X71015000Y-56764286D01*
X70681666Y-56164286D02*
X70681666Y-57707143D01*
X70748333Y-57878571D01*
X70881666Y-57964286D01*
X71015000Y-57964286D01*
X71481666Y-57964286D02*
X71481666Y-56764286D01*
X71481666Y-57107143D02*
X71548333Y-56935714D01*
X71615000Y-56850000D01*
X71748333Y-56764286D01*
X71881666Y-56764286D01*
X72348333Y-57964286D02*
X72348333Y-56764286D01*
X72348333Y-56164286D02*
X72281667Y-56250000D01*
X72348333Y-56335714D01*
X72415000Y-56250000D01*
X72348333Y-56164286D01*
X72348333Y-56335714D01*
X73615000Y-57878571D02*
X73481667Y-57964286D01*
X73215000Y-57964286D01*
X73081667Y-57878571D01*
X73015000Y-57792857D01*
X72948334Y-57621429D01*
X72948334Y-57107143D01*
X73015000Y-56935714D01*
X73081667Y-56850000D01*
X73215000Y-56764286D01*
X73481667Y-56764286D01*
X73615000Y-56850000D01*
X74215000Y-57792857D02*
X74281667Y-57878571D01*
X74215000Y-57964286D01*
X74148334Y-57878571D01*
X74215000Y-57792857D01*
X74215000Y-57964286D01*
X75481667Y-57878571D02*
X75348334Y-57964286D01*
X75081667Y-57964286D01*
X74948334Y-57878571D01*
X74881667Y-57792857D01*
X74815001Y-57621429D01*
X74815001Y-57107143D01*
X74881667Y-56935714D01*
X74948334Y-56850000D01*
X75081667Y-56764286D01*
X75348334Y-56764286D01*
X75481667Y-56850000D01*
X76281667Y-57964286D02*
X76148334Y-57878571D01*
X76081667Y-57792857D01*
X76015001Y-57621429D01*
X76015001Y-57107143D01*
X76081667Y-56935714D01*
X76148334Y-56850000D01*
X76281667Y-56764286D01*
X76481667Y-56764286D01*
X76615001Y-56850000D01*
X76681667Y-56935714D01*
X76748334Y-57107143D01*
X76748334Y-57621429D01*
X76681667Y-57792857D01*
X76615001Y-57878571D01*
X76481667Y-57964286D01*
X76281667Y-57964286D01*
X77348334Y-57792857D02*
X77415001Y-57878571D01*
X77348334Y-57964286D01*
X77281668Y-57878571D01*
X77348334Y-57792857D01*
X77348334Y-57964286D01*
X78615001Y-56764286D02*
X78615001Y-57964286D01*
X78015001Y-56764286D02*
X78015001Y-57707143D01*
X78081668Y-57878571D01*
X78215001Y-57964286D01*
X78415001Y-57964286D01*
X78548335Y-57878571D01*
X78615001Y-57792857D01*
X79281668Y-57964286D02*
X79281668Y-56164286D01*
X79415002Y-57278571D02*
X79815002Y-57964286D01*
X79815002Y-56764286D02*
X79281668Y-57450000D01*
D12*
X86045947Y-74900972D02*
X86045947Y-74329109D01*
X87547087Y-74615040D02*
X86045947Y-74615040D01*
X86045947Y-74138488D02*
X87547087Y-73804901D01*
X86045947Y-73471314D01*
X86975224Y-73137728D02*
X86975224Y-72375244D01*
X86760776Y-71565105D02*
X86832259Y-71422139D01*
X86903741Y-71374484D01*
X87046707Y-71326829D01*
X87261156Y-71326829D01*
X87404121Y-71374484D01*
X87475604Y-71422139D01*
X87547087Y-71517450D01*
X87547087Y-71898692D01*
X86045947Y-71898692D01*
X86045947Y-71565105D01*
X86117430Y-71469795D01*
X86188913Y-71422139D01*
X86331879Y-71374484D01*
X86474844Y-71374484D01*
X86617810Y-71422139D01*
X86689293Y-71469795D01*
X86760776Y-71565105D01*
X86760776Y-71898692D01*
X86975224Y-70897932D02*
X86975224Y-70135448D01*
X86117430Y-69134688D02*
X86045947Y-69229999D01*
X86045947Y-69372964D01*
X86117430Y-69515930D01*
X86260396Y-69611241D01*
X86403361Y-69658896D01*
X86689293Y-69706551D01*
X86903741Y-69706551D01*
X87189673Y-69658896D01*
X87332639Y-69611241D01*
X87475604Y-69515930D01*
X87547087Y-69372964D01*
X87547087Y-69277654D01*
X87475604Y-69134688D01*
X87404121Y-69087033D01*
X86903741Y-69087033D01*
X86903741Y-69277654D01*
X87547087Y-68515170D02*
X87475604Y-68610481D01*
X87404121Y-68658136D01*
X87261156Y-68705791D01*
X86832259Y-68705791D01*
X86689293Y-68658136D01*
X86617810Y-68610481D01*
X86546327Y-68515170D01*
X86546327Y-68372204D01*
X86617810Y-68276894D01*
X86689293Y-68229239D01*
X86832259Y-68181583D01*
X87261156Y-68181583D01*
X87404121Y-68229239D01*
X87475604Y-68276894D01*
X87547087Y-68372204D01*
X87547087Y-68515170D01*
X86546327Y-67752686D02*
X87547087Y-67752686D01*
X86689293Y-67752686D02*
X86617810Y-67705031D01*
X86546327Y-67609720D01*
X86546327Y-67466754D01*
X86617810Y-67371444D01*
X86760776Y-67323789D01*
X87547087Y-67323789D01*
X87475604Y-66465994D02*
X87547087Y-66561304D01*
X87547087Y-66751925D01*
X87475604Y-66847236D01*
X87332639Y-66894891D01*
X86760776Y-66894891D01*
X86617810Y-66847236D01*
X86546327Y-66751925D01*
X86546327Y-66561304D01*
X86617810Y-66465994D01*
X86760776Y-66418339D01*
X86903741Y-66418339D01*
X87046707Y-66894891D01*
D13*
D14*
X59690000Y-81280000D02*
G75*
G03X59690000Y-81280000I-3175000J0D01*
G01*
D15*
X60325000Y-85090000D02*
X62865000Y-85090000D01*
X62865000Y-85090000D02*
X62865000Y-77470000D01*
X62865000Y-77470000D02*
X60325000Y-77470000D01*
X60325000Y-77470000D02*
X60325000Y-85090000D01*
D11*
X60960000Y-85090000D02*
X60325000Y-84455000D01*
D16*
X76200000Y-59182000D02*
X76073000Y-59309000D01*
X76200000Y-59182000D02*
X79883000Y-59182000D01*
X80518000Y-63500000D02*
G75*
G03X80010000Y-59182000I-2413000J1905000D01*
G01*
X76073000Y-59309000D02*
G75*
G03X75819000Y-63627000I2032000J-2286000D01*
G01*
X78105000Y-64643000D02*
G75*
G03X81153000Y-61595000I0J3048000D01*
G01*
X75057000Y-61595000D02*
G75*
G03X78105000Y-64643000I3048000J0D01*
G01*
X80645000Y-65532000D02*
X80518000Y-65659000D01*
X80645000Y-65532000D02*
X84328000Y-65532000D01*
X84963000Y-69850000D02*
G75*
G03X84455000Y-65532000I-2413000J1905000D01*
G01*
X80518000Y-65659000D02*
G75*
G03X80264000Y-69977000I2032000J-2286000D01*
G01*
X82550000Y-70993000D02*
G75*
G03X85598000Y-67945000I0J3048000D01*
G01*
X79502000Y-67945000D02*
G75*
G03X82550000Y-70993000I3048000J0D01*
G01*
X80645000Y-73152000D02*
X80518000Y-73279000D01*
X80645000Y-73152000D02*
X84328000Y-73152000D01*
X84963000Y-77470000D02*
G75*
G03X84455000Y-73152000I-2413000J1905000D01*
G01*
X80518000Y-73279000D02*
G75*
G03X80264000Y-77597000I2032000J-2286000D01*
G01*
X82550000Y-78613000D02*
G75*
G03X85598000Y-75565000I0J3048000D01*
G01*
X79502000Y-75565000D02*
G75*
G03X82550000Y-78613000I3048000J0D01*
G01*
X76200000Y-79502000D02*
X76073000Y-79629000D01*
X76200000Y-79502000D02*
X79883000Y-79502000D01*
X80518000Y-83820000D02*
G75*
G03X80010000Y-79502000I-2413000J1905000D01*
G01*
X76073000Y-79629000D02*
G75*
G03X75819000Y-83947000I2032000J-2286000D01*
G01*
X78105000Y-84963000D02*
G75*
G03X81153000Y-81915000I0J3048000D01*
G01*
X75057000Y-81915000D02*
G75*
G03X78105000Y-84963000I3048000J0D01*
G01*
X67310000Y-72517000D02*
X67183000Y-72644000D01*
X67310000Y-72517000D02*
X70993000Y-72517000D01*
X71628000Y-76835000D02*
G75*
G03X71120000Y-72517000I-2413000J1905000D01*
G01*
X67183000Y-72644000D02*
G75*
G03X66929000Y-76962000I2032000J-2286000D01*
G01*
X69215000Y-77978000D02*
G75*
G03X72263000Y-74930000I0J3048000D01*
G01*
X66167000Y-74930000D02*
G75*
G03X69215000Y-77978000I3048000J0D01*
G01*
D15*
X50800000Y-66675000D02*
X50800000Y-67945000D01*
X50800000Y-67945000D02*
X48260000Y-67945000D01*
X48260000Y-67945000D02*
X48260000Y-66675000D01*
X52070000Y-66675000D02*
X52070000Y-76835000D01*
X52070000Y-76835000D02*
X46990000Y-76835000D01*
X46990000Y-76835000D02*
X46990000Y-66675000D01*
X46990000Y-66675000D02*
X52070000Y-66675000D01*
X52451000Y-78359000D02*
X45720000Y-78359000D01*
X45720000Y-78359000D02*
X45720000Y-81661000D01*
X45720000Y-81661000D02*
X52451000Y-81661000D01*
X52451000Y-81661000D02*
X52451000Y-78359000D01*
X45720000Y-81661000D02*
X45720000Y-78359000D01*
X52451000Y-78359000D02*
X52451000Y-81661000D01*
D16*
X59390000Y-63800000D02*
G75*
G03X59390000Y-63800000I-635000J0D01*
G01*
X59055000Y-58420000D02*
X66675000Y-58420000D01*
X66675000Y-58420000D02*
X66675000Y-63500000D01*
X66675000Y-63500000D02*
X59055000Y-63500000D01*
X59055000Y-63500000D02*
X59055000Y-58420000D01*
D11*
X68580000Y-71755000D02*
X72390000Y-67945000D01*
X72390000Y-67945000D02*
X72390000Y-66675000D01*
X72390000Y-66675000D02*
X71120000Y-65405000D01*
X71120000Y-65405000D02*
X68580000Y-65405000D01*
X68580000Y-65405000D02*
X66040000Y-67945000D01*
X66040000Y-67945000D02*
X66040000Y-70485000D01*
X66040000Y-70485000D02*
X67310000Y-71755000D01*
X67310000Y-71755000D02*
X68580000Y-71755000D01*
X71755000Y-58420000D02*
X67945000Y-62230000D01*
X67945000Y-62230000D02*
X67945000Y-63500000D01*
X67945000Y-63500000D02*
X69215000Y-64770000D01*
X69215000Y-64770000D02*
X71755000Y-64770000D01*
X71755000Y-64770000D02*
X74295000Y-62230000D01*
X74295000Y-62230000D02*
X74295000Y-59690000D01*
X74295000Y-59690000D02*
X73025000Y-58420000D01*
X73025000Y-58420000D02*
X71755000Y-58420000D01*
X76200000Y-65405000D02*
X72390000Y-69215000D01*
X72390000Y-69215000D02*
X72390000Y-70485000D01*
X72390000Y-70485000D02*
X73660000Y-71755000D01*
X73660000Y-71755000D02*
X76200000Y-71755000D01*
X76200000Y-71755000D02*
X78740000Y-69215000D01*
X78740000Y-69215000D02*
X78740000Y-66675000D01*
X78740000Y-66675000D02*
X77470000Y-65405000D01*
X77470000Y-65405000D02*
X76200000Y-65405000D01*
X76200000Y-72390000D02*
X72390000Y-76200000D01*
X72390000Y-76200000D02*
X72390000Y-77470000D01*
X72390000Y-77470000D02*
X73660000Y-78740000D01*
X73660000Y-78740000D02*
X76200000Y-78740000D01*
X76200000Y-78740000D02*
X78740000Y-76200000D01*
X78740000Y-76200000D02*
X78740000Y-73660000D01*
X78740000Y-73660000D02*
X77470000Y-72390000D01*
X77470000Y-72390000D02*
X76200000Y-72390000D01*
X71120000Y-79375000D02*
X67310000Y-83185000D01*
X67310000Y-83185000D02*
X67310000Y-84455000D01*
X67310000Y-84455000D02*
X68580000Y-85725000D01*
X68580000Y-85725000D02*
X71120000Y-85725000D01*
X71120000Y-85725000D02*
X73660000Y-83185000D01*
X73660000Y-83185000D02*
X73660000Y-80645000D01*
X73660000Y-80645000D02*
X72390000Y-79375000D01*
X72390000Y-79375000D02*
X71120000Y-79375000D01*
D16*
X59055000Y-68834000D02*
X59055000Y-68580000D01*
X59055000Y-73406000D02*
X59055000Y-73660000D01*
X60071000Y-68834000D02*
X58166000Y-68834000D01*
X58166000Y-68834000D02*
X58166000Y-73406000D01*
X58166000Y-73406000D02*
X60071000Y-73406000D01*
X60071000Y-73406000D02*
X60071000Y-68834000D01*
X61595000Y-73406000D02*
X61595000Y-73660000D01*
X61595000Y-68834000D02*
X61595000Y-68580000D01*
X60579000Y-73406000D02*
X62484000Y-73406000D01*
X62484000Y-73406000D02*
X62484000Y-68834000D01*
X62484000Y-68834000D02*
X60579000Y-68834000D01*
X60579000Y-68834000D02*
X60579000Y-73406000D01*
X56896000Y-67691000D02*
X56896000Y-67945000D01*
X56896000Y-63119000D02*
X56896000Y-62865000D01*
X55880000Y-67691000D02*
X57785000Y-67691000D01*
X57785000Y-67691000D02*
X57785000Y-63119000D01*
X57785000Y-63119000D02*
X55880000Y-63119000D01*
X55880000Y-63119000D02*
X55880000Y-67691000D01*
X64135000Y-68834000D02*
X64135000Y-68580000D01*
X64135000Y-73406000D02*
X64135000Y-73660000D01*
X65151000Y-68834000D02*
X63246000Y-68834000D01*
X63246000Y-68834000D02*
X63246000Y-73406000D01*
X63246000Y-73406000D02*
X65151000Y-73406000D01*
X65151000Y-73406000D02*
X65151000Y-68834000D01*
D14*
X53340000Y-62230000D02*
G75*
G03X53340000Y-62230000I-2540000J0D01*
G01*
X46990000Y-58420000D02*
X54610000Y-58420000D01*
X54610000Y-58420000D02*
X54610000Y-66040000D01*
X54610000Y-66040000D02*
X46990000Y-66040000D01*
X46990000Y-58420000D02*
X46990000Y-66040000D01*
D11*
X43180000Y-74295000D02*
X40640000Y-74295000D01*
X40640000Y-74295000D02*
X40640000Y-66675000D01*
X40640000Y-66675000D02*
X43180000Y-66675000D01*
X43180000Y-66675000D02*
X43180000Y-74295000D01*
X40640000Y-71755000D02*
X43180000Y-71755000D01*
X53467000Y-85634286D02*
X53394429Y-85706857D01*
X53176715Y-85779429D01*
X53031572Y-85779429D01*
X52813857Y-85706857D01*
X52668715Y-85561714D01*
X52596143Y-85416571D01*
X52523572Y-85126286D01*
X52523572Y-84908571D01*
X52596143Y-84618286D01*
X52668715Y-84473143D01*
X52813857Y-84328000D01*
X53031572Y-84255429D01*
X53176715Y-84255429D01*
X53394429Y-84328000D01*
X53467000Y-84400571D01*
X54918429Y-85779429D02*
X54047572Y-85779429D01*
X54483000Y-85779429D02*
X54483000Y-84255429D01*
X54337857Y-84473143D01*
X54192715Y-84618286D01*
X54047572Y-84690857D01*
D17*
X55000071Y-82528834D02*
X55000071Y-83036834D01*
X55000071Y-82782834D02*
X53857071Y-82782834D01*
X54020357Y-82867500D01*
X54129214Y-82952167D01*
X54183643Y-83036834D01*
X53857071Y-81978500D02*
X53857071Y-81893833D01*
X53911500Y-81809167D01*
X53965929Y-81766833D01*
X54074786Y-81724500D01*
X54292500Y-81682167D01*
X54564643Y-81682167D01*
X54782357Y-81724500D01*
X54891214Y-81766833D01*
X54945643Y-81809167D01*
X55000071Y-81893833D01*
X55000071Y-81978500D01*
X54945643Y-82063167D01*
X54891214Y-82105500D01*
X54782357Y-82147833D01*
X54564643Y-82190167D01*
X54292500Y-82190167D01*
X54074786Y-82147833D01*
X53965929Y-82105500D01*
X53911500Y-82063167D01*
X53857071Y-81978500D01*
X53857071Y-81131833D02*
X53857071Y-81047166D01*
X53911500Y-80962500D01*
X53965929Y-80920166D01*
X54074786Y-80877833D01*
X54292500Y-80835500D01*
X54564643Y-80835500D01*
X54782357Y-80877833D01*
X54891214Y-80920166D01*
X54945643Y-80962500D01*
X55000071Y-81047166D01*
X55000071Y-81131833D01*
X54945643Y-81216500D01*
X54891214Y-81258833D01*
X54782357Y-81301166D01*
X54564643Y-81343500D01*
X54292500Y-81343500D01*
X54074786Y-81301166D01*
X53965929Y-81258833D01*
X53911500Y-81216500D01*
X53857071Y-81131833D01*
X54238071Y-80073499D02*
X55000071Y-80073499D01*
X54238071Y-80454499D02*
X54836786Y-80454499D01*
X54945643Y-80412166D01*
X55000071Y-80327499D01*
X55000071Y-80200499D01*
X54945643Y-80115833D01*
X54891214Y-80073499D01*
X54238071Y-79777166D02*
X54238071Y-79438500D01*
X55000071Y-79650166D02*
X54020357Y-79650166D01*
X53911500Y-79607833D01*
X53857071Y-79523166D01*
X53857071Y-79438500D01*
D18*
X58247643Y-85144428D02*
X58247643Y-84273571D01*
X58683071Y-84709000D02*
X57812214Y-84709000D01*
D19*
D11*
X64679286Y-83947000D02*
X64751857Y-84019571D01*
X64824429Y-84237285D01*
X64824429Y-84382428D01*
X64751857Y-84600143D01*
X64606714Y-84745285D01*
X64461571Y-84817857D01*
X64171286Y-84890428D01*
X63953571Y-84890428D01*
X63663286Y-84817857D01*
X63518143Y-84745285D01*
X63373000Y-84600143D01*
X63300429Y-84382428D01*
X63300429Y-84237285D01*
X63373000Y-84019571D01*
X63445571Y-83947000D01*
X63445571Y-83366428D02*
X63373000Y-83293857D01*
X63300429Y-83148714D01*
X63300429Y-82785857D01*
X63373000Y-82640714D01*
X63445571Y-82568143D01*
X63590714Y-82495571D01*
X63735857Y-82495571D01*
X63953571Y-82568143D01*
X64824429Y-83439000D01*
X64824429Y-82495571D01*
D17*
X64340619Y-81310238D02*
X64340619Y-81890809D01*
X64340619Y-81600523D02*
X63324619Y-81600523D01*
X63469762Y-81697285D01*
X63566524Y-81794047D01*
X63614905Y-81890809D01*
X63324619Y-80681285D02*
X63324619Y-80584524D01*
X63373000Y-80487762D01*
X63421381Y-80439381D01*
X63518143Y-80391000D01*
X63711667Y-80342619D01*
X63953571Y-80342619D01*
X64147095Y-80391000D01*
X64243857Y-80439381D01*
X64292238Y-80487762D01*
X64340619Y-80584524D01*
X64340619Y-80681285D01*
X64292238Y-80778047D01*
X64243857Y-80826428D01*
X64147095Y-80874809D01*
X63953571Y-80923190D01*
X63711667Y-80923190D01*
X63518143Y-80874809D01*
X63421381Y-80826428D01*
X63373000Y-80778047D01*
X63324619Y-80681285D01*
X63324619Y-79713666D02*
X63324619Y-79616905D01*
X63373000Y-79520143D01*
X63421381Y-79471762D01*
X63518143Y-79423381D01*
X63711667Y-79375000D01*
X63953571Y-79375000D01*
X64147095Y-79423381D01*
X64243857Y-79471762D01*
X64292238Y-79520143D01*
X64340619Y-79616905D01*
X64340619Y-79713666D01*
X64292238Y-79810428D01*
X64243857Y-79858809D01*
X64147095Y-79907190D01*
X63953571Y-79955571D01*
X63711667Y-79955571D01*
X63518143Y-79907190D01*
X63421381Y-79858809D01*
X63373000Y-79810428D01*
X63324619Y-79713666D01*
X63663286Y-78939571D02*
X64340619Y-78939571D01*
X63760048Y-78939571D02*
X63711667Y-78891190D01*
X63663286Y-78794428D01*
X63663286Y-78649286D01*
X63711667Y-78552524D01*
X63808429Y-78504143D01*
X64340619Y-78504143D01*
X63663286Y-78165476D02*
X63663286Y-77778428D01*
X64340619Y-78020333D02*
X63469762Y-78020333D01*
X63373000Y-77971952D01*
X63324619Y-77875190D01*
X63324619Y-77778428D01*
D11*
X81044143Y-64570429D02*
X81044143Y-63046429D01*
X81407000Y-63046429D01*
X81624715Y-63119000D01*
X81769857Y-63264143D01*
X81842429Y-63409286D01*
X81915000Y-63699571D01*
X81915000Y-63917286D01*
X81842429Y-64207571D01*
X81769857Y-64352714D01*
X81624715Y-64497857D01*
X81407000Y-64570429D01*
X81044143Y-64570429D01*
X83366429Y-64570429D02*
X82495572Y-64570429D01*
X82931000Y-64570429D02*
X82931000Y-63046429D01*
X82785857Y-63264143D01*
X82640715Y-63409286D01*
X82495572Y-63481857D01*
X79012143Y-72571429D02*
X79012143Y-71047429D01*
X79375000Y-71047429D01*
X79592715Y-71120000D01*
X79737857Y-71265143D01*
X79810429Y-71410286D01*
X79883000Y-71700571D01*
X79883000Y-71918286D01*
X79810429Y-72208571D01*
X79737857Y-72353714D01*
X79592715Y-72498857D01*
X79375000Y-72571429D01*
X79012143Y-72571429D01*
X80463572Y-71192571D02*
X80536143Y-71120000D01*
X80681286Y-71047429D01*
X81044143Y-71047429D01*
X81189286Y-71120000D01*
X81261857Y-71192571D01*
X81334429Y-71337714D01*
X81334429Y-71482857D01*
X81261857Y-71700571D01*
X80391000Y-72571429D01*
X81334429Y-72571429D01*
X85235143Y-79302429D02*
X85235143Y-77778429D01*
X85598000Y-77778429D01*
X85815715Y-77851000D01*
X85960857Y-77996143D01*
X86033429Y-78141286D01*
X86106000Y-78431571D01*
X86106000Y-78649286D01*
X86033429Y-78939571D01*
X85960857Y-79084714D01*
X85815715Y-79229857D01*
X85598000Y-79302429D01*
X85235143Y-79302429D01*
X86614000Y-77778429D02*
X87557429Y-77778429D01*
X87049429Y-78359000D01*
X87267143Y-78359000D01*
X87412286Y-78431571D01*
X87484857Y-78504143D01*
X87557429Y-78649286D01*
X87557429Y-79012143D01*
X87484857Y-79157286D01*
X87412286Y-79229857D01*
X87267143Y-79302429D01*
X86831715Y-79302429D01*
X86686572Y-79229857D01*
X86614000Y-79157286D01*
X77996143Y-79048429D02*
X77996143Y-77524429D01*
X78359000Y-77524429D01*
X78576715Y-77597000D01*
X78721857Y-77742143D01*
X78794429Y-77887286D01*
X78867000Y-78177571D01*
X78867000Y-78395286D01*
X78794429Y-78685571D01*
X78721857Y-78830714D01*
X78576715Y-78975857D01*
X78359000Y-79048429D01*
X77996143Y-79048429D01*
X80173286Y-78032429D02*
X80173286Y-79048429D01*
X79810429Y-77451857D02*
X79447572Y-78540429D01*
X80391000Y-78540429D01*
X65042143Y-79175429D02*
X65042143Y-77651429D01*
X65405000Y-77651429D01*
X65622715Y-77724000D01*
X65767857Y-77869143D01*
X65840429Y-78014286D01*
X65913000Y-78304571D01*
X65913000Y-78522286D01*
X65840429Y-78812571D01*
X65767857Y-78957714D01*
X65622715Y-79102857D01*
X65405000Y-79175429D01*
X65042143Y-79175429D01*
X67291857Y-77651429D02*
X66566143Y-77651429D01*
X66493572Y-78377143D01*
X66566143Y-78304571D01*
X66711286Y-78232000D01*
X67074143Y-78232000D01*
X67219286Y-78304571D01*
X67291857Y-78377143D01*
X67364429Y-78522286D01*
X67364429Y-78885143D01*
X67291857Y-79030286D01*
X67219286Y-79102857D01*
X67074143Y-79175429D01*
X66711286Y-79175429D01*
X66566143Y-79102857D01*
X66493572Y-79030286D01*
X56696429Y-77179714D02*
X55172429Y-77179714D01*
X56551286Y-75583143D02*
X56623857Y-75655714D01*
X56696429Y-75873428D01*
X56696429Y-76018571D01*
X56623857Y-76236286D01*
X56478714Y-76381428D01*
X56333571Y-76454000D01*
X56043286Y-76526571D01*
X55825571Y-76526571D01*
X55535286Y-76454000D01*
X55390143Y-76381428D01*
X55245000Y-76236286D01*
X55172429Y-76018571D01*
X55172429Y-75873428D01*
X55245000Y-75655714D01*
X55317571Y-75583143D01*
X56696429Y-74131714D02*
X56696429Y-75002571D01*
X56696429Y-74567143D02*
X55172429Y-74567143D01*
X55390143Y-74712286D01*
X55535286Y-74857428D01*
X55607857Y-75002571D01*
D20*
X49699333Y-75837142D02*
X49699333Y-75353333D01*
X50207333Y-75933904D02*
X48429333Y-75595237D01*
X50207333Y-75256571D01*
X48429333Y-75063047D02*
X48429333Y-74482476D01*
X50207333Y-74772761D02*
X48429333Y-74772761D01*
X48429333Y-74288952D02*
X48429333Y-73708381D01*
X50207333Y-73998666D02*
X48429333Y-73998666D01*
X50207333Y-73369714D02*
X48429333Y-73369714D01*
X50207333Y-72885904D02*
X48429333Y-72885904D01*
X50207333Y-72305333D01*
X48429333Y-72305333D01*
X49360667Y-71627999D02*
X50207333Y-71627999D01*
X48429333Y-71966666D02*
X49360667Y-71627999D01*
X48429333Y-71289333D01*
X49191333Y-70805523D02*
X49106667Y-70902285D01*
X49022000Y-70950666D01*
X48852667Y-70999047D01*
X48768000Y-70999047D01*
X48598667Y-70950666D01*
X48514000Y-70902285D01*
X48429333Y-70805523D01*
X48429333Y-70612000D01*
X48514000Y-70515238D01*
X48598667Y-70466857D01*
X48768000Y-70418476D01*
X48852667Y-70418476D01*
X49022000Y-70466857D01*
X49106667Y-70515238D01*
X49191333Y-70612000D01*
X49191333Y-70805523D01*
X49276000Y-70902285D01*
X49360667Y-70950666D01*
X49530000Y-70999047D01*
X49868667Y-70999047D01*
X50038000Y-70950666D01*
X50122667Y-70902285D01*
X50207333Y-70805523D01*
X50207333Y-70612000D01*
X50122667Y-70515238D01*
X50038000Y-70466857D01*
X49868667Y-70418476D01*
X49530000Y-70418476D01*
X49360667Y-70466857D01*
X49276000Y-70515238D01*
X49191333Y-70612000D01*
X48429333Y-69499238D02*
X48429333Y-69983047D01*
X49276000Y-70031428D01*
X49191333Y-69983047D01*
X49106667Y-69886285D01*
X49106667Y-69644381D01*
X49191333Y-69547619D01*
X49276000Y-69499238D01*
X49445333Y-69450857D01*
X49868667Y-69450857D01*
X50038000Y-69499238D01*
X50122667Y-69547619D01*
X50207333Y-69644381D01*
X50207333Y-69886285D01*
X50122667Y-69983047D01*
X50038000Y-70031428D01*
X43700096Y-78564619D02*
X43700096Y-77548619D01*
X44087143Y-77548619D01*
X44183905Y-77597000D01*
X44232286Y-77645381D01*
X44280667Y-77742143D01*
X44280667Y-77887286D01*
X44232286Y-77984048D01*
X44183905Y-78032429D01*
X44087143Y-78080810D01*
X43700096Y-78080810D01*
X45248286Y-78564619D02*
X44667715Y-78564619D01*
X44958001Y-78564619D02*
X44958001Y-77548619D01*
X44861239Y-77693762D01*
X44764477Y-77790524D01*
X44667715Y-77838905D01*
X46609000Y-85652429D02*
X46754143Y-85700810D01*
X46802524Y-85749190D01*
X46850905Y-85845952D01*
X46850905Y-85991095D01*
X46802524Y-86087857D01*
X46754143Y-86136238D01*
X46657381Y-86184619D01*
X46270334Y-86184619D01*
X46270334Y-85168619D01*
X46609000Y-85168619D01*
X46705762Y-85217000D01*
X46754143Y-85265381D01*
X46802524Y-85362143D01*
X46802524Y-85458905D01*
X46754143Y-85555667D01*
X46705762Y-85604048D01*
X46609000Y-85652429D01*
X46270334Y-85652429D01*
X47237953Y-85894333D02*
X47721762Y-85894333D01*
X47141191Y-86184619D02*
X47479858Y-85168619D01*
X47818524Y-86184619D01*
X48012048Y-85168619D02*
X48592619Y-85168619D01*
X48302334Y-86184619D02*
X48302334Y-85168619D01*
X48786143Y-85168619D02*
X49366714Y-85168619D01*
X49076429Y-86184619D02*
X49076429Y-85168619D01*
X49705381Y-85652429D02*
X50044047Y-85652429D01*
X50189190Y-86184619D02*
X49705381Y-86184619D01*
X49705381Y-85168619D01*
X50189190Y-85168619D01*
X51205190Y-86184619D02*
X50866524Y-85700810D01*
X50624619Y-86184619D02*
X50624619Y-85168619D01*
X51011666Y-85168619D01*
X51108428Y-85217000D01*
X51156809Y-85265381D01*
X51205190Y-85362143D01*
X51205190Y-85507286D01*
X51156809Y-85604048D01*
X51108428Y-85652429D01*
X51011666Y-85700810D01*
X50624619Y-85700810D01*
X51834143Y-85700810D02*
X51834143Y-86184619D01*
X51495476Y-85168619D02*
X51834143Y-85700810D01*
X52172809Y-85168619D01*
D11*
X64026143Y-65332429D02*
X64026143Y-63808429D01*
X64606715Y-63808429D01*
X64751857Y-63881000D01*
X64824429Y-63953571D01*
X64897000Y-64098714D01*
X64897000Y-64316429D01*
X64824429Y-64461571D01*
X64751857Y-64534143D01*
X64606715Y-64606714D01*
X64026143Y-64606714D01*
X65477572Y-63953571D02*
X65550143Y-63881000D01*
X65695286Y-63808429D01*
X66058143Y-63808429D01*
X66203286Y-63881000D01*
X66275857Y-63953571D01*
X66348429Y-64098714D01*
X66348429Y-64243857D01*
X66275857Y-64461571D01*
X65405000Y-65332429D01*
X66348429Y-65332429D01*
D10*
X58618381Y-60793190D02*
X57618381Y-60793190D01*
X58570762Y-60364619D02*
X58618381Y-60221762D01*
X58618381Y-59983666D01*
X58570762Y-59888428D01*
X58523143Y-59840809D01*
X58427905Y-59793190D01*
X58332667Y-59793190D01*
X58237429Y-59840809D01*
X58189810Y-59888428D01*
X58142190Y-59983666D01*
X58094571Y-60174143D01*
X58046952Y-60269381D01*
X57999333Y-60317000D01*
X57904095Y-60364619D01*
X57808857Y-60364619D01*
X57713619Y-60317000D01*
X57666000Y-60269381D01*
X57618381Y-60174143D01*
X57618381Y-59936047D01*
X57666000Y-59793190D01*
X58618381Y-59364619D02*
X57618381Y-59364619D01*
X57618381Y-58983666D01*
X57666000Y-58888428D01*
X57713619Y-58840809D01*
X57808857Y-58793190D01*
X57951714Y-58793190D01*
X58046952Y-58840809D01*
X58094571Y-58888428D01*
X58142190Y-58983666D01*
X58142190Y-59364619D01*
D17*
X70769238Y-72057381D02*
X70672476Y-72009000D01*
X70575714Y-71912238D01*
X70430571Y-71767095D01*
X70333810Y-71718714D01*
X70237048Y-71718714D01*
X70285429Y-71960619D02*
X70188667Y-71912238D01*
X70091905Y-71815476D01*
X70043524Y-71621952D01*
X70043524Y-71283286D01*
X70091905Y-71089762D01*
X70188667Y-70993000D01*
X70285429Y-70944619D01*
X70478952Y-70944619D01*
X70575714Y-70993000D01*
X70672476Y-71089762D01*
X70720857Y-71283286D01*
X70720857Y-71621952D01*
X70672476Y-71815476D01*
X70575714Y-71912238D01*
X70478952Y-71960619D01*
X70285429Y-71960619D01*
X71688476Y-71960619D02*
X71107905Y-71960619D01*
X71398191Y-71960619D02*
X71398191Y-70944619D01*
X71301429Y-71089762D01*
X71204667Y-71186524D01*
X71107905Y-71234905D01*
D11*
X68434857Y-60016571D02*
X68289714Y-59944000D01*
X68144571Y-59798857D01*
X67926857Y-59581143D01*
X67781714Y-59508571D01*
X67636571Y-59508571D01*
X67709143Y-59871429D02*
X67564000Y-59798857D01*
X67418857Y-59653714D01*
X67346286Y-59363429D01*
X67346286Y-58855429D01*
X67418857Y-58565143D01*
X67564000Y-58420000D01*
X67709143Y-58347429D01*
X67999429Y-58347429D01*
X68144571Y-58420000D01*
X68289714Y-58565143D01*
X68362286Y-58855429D01*
X68362286Y-59363429D01*
X68289714Y-59653714D01*
X68144571Y-59798857D01*
X67999429Y-59871429D01*
X67709143Y-59871429D01*
X68942857Y-58492571D02*
X69015428Y-58420000D01*
X69160571Y-58347429D01*
X69523428Y-58347429D01*
X69668571Y-58420000D01*
X69741142Y-58492571D01*
X69813714Y-58637714D01*
X69813714Y-58782857D01*
X69741142Y-59000571D01*
X68870285Y-59871429D01*
X69813714Y-59871429D01*
D17*
X74325238Y-65834381D02*
X74228476Y-65786000D01*
X74131714Y-65689238D01*
X73986571Y-65544095D01*
X73889810Y-65495714D01*
X73793048Y-65495714D01*
X73841429Y-65737619D02*
X73744667Y-65689238D01*
X73647905Y-65592476D01*
X73599524Y-65398952D01*
X73599524Y-65060286D01*
X73647905Y-64866762D01*
X73744667Y-64770000D01*
X73841429Y-64721619D01*
X74034952Y-64721619D01*
X74131714Y-64770000D01*
X74228476Y-64866762D01*
X74276857Y-65060286D01*
X74276857Y-65398952D01*
X74228476Y-65592476D01*
X74131714Y-65689238D01*
X74034952Y-65737619D01*
X73841429Y-65737619D01*
X74615524Y-64721619D02*
X75244476Y-64721619D01*
X74905810Y-65108667D01*
X75050952Y-65108667D01*
X75147714Y-65157048D01*
X75196095Y-65205429D01*
X75244476Y-65302190D01*
X75244476Y-65544095D01*
X75196095Y-65640857D01*
X75147714Y-65689238D01*
X75050952Y-65737619D01*
X74760667Y-65737619D01*
X74663905Y-65689238D01*
X74615524Y-65640857D01*
X73550538Y-73657581D02*
X73453776Y-73609200D01*
X73357014Y-73512438D01*
X73211871Y-73367295D01*
X73115110Y-73318914D01*
X73018348Y-73318914D01*
X73066729Y-73560819D02*
X72969967Y-73512438D01*
X72873205Y-73415676D01*
X72824824Y-73222152D01*
X72824824Y-72883486D01*
X72873205Y-72689962D01*
X72969967Y-72593200D01*
X73066729Y-72544819D01*
X73260252Y-72544819D01*
X73357014Y-72593200D01*
X73453776Y-72689962D01*
X73502157Y-72883486D01*
X73502157Y-73222152D01*
X73453776Y-73415676D01*
X73357014Y-73512438D01*
X73260252Y-73560819D01*
X73066729Y-73560819D01*
X74373014Y-72883486D02*
X74373014Y-73560819D01*
X74131110Y-72496438D02*
X73889205Y-73222152D01*
X74518157Y-73222152D01*
X68470538Y-80642581D02*
X68373776Y-80594200D01*
X68277014Y-80497438D01*
X68131871Y-80352295D01*
X68035110Y-80303914D01*
X67938348Y-80303914D01*
X67986729Y-80545819D02*
X67889967Y-80497438D01*
X67793205Y-80400676D01*
X67744824Y-80207152D01*
X67744824Y-79868486D01*
X67793205Y-79674962D01*
X67889967Y-79578200D01*
X67986729Y-79529819D01*
X68180252Y-79529819D01*
X68277014Y-79578200D01*
X68373776Y-79674962D01*
X68422157Y-79868486D01*
X68422157Y-80207152D01*
X68373776Y-80400676D01*
X68277014Y-80497438D01*
X68180252Y-80545819D01*
X67986729Y-80545819D01*
X69341395Y-79529819D02*
X68857586Y-79529819D01*
X68809205Y-80013629D01*
X68857586Y-79965248D01*
X68954348Y-79916867D01*
X69196252Y-79916867D01*
X69293014Y-79965248D01*
X69341395Y-80013629D01*
X69389776Y-80110390D01*
X69389776Y-80352295D01*
X69341395Y-80449057D01*
X69293014Y-80497438D01*
X69196252Y-80545819D01*
X68954348Y-80545819D01*
X68857586Y-80497438D01*
X68809205Y-80449057D01*
X59686976Y-71331667D02*
X59021738Y-71755000D01*
X59686976Y-72057381D02*
X58289976Y-72057381D01*
X58289976Y-71573572D01*
X58356500Y-71452619D01*
X58423024Y-71392143D01*
X58556071Y-71331667D01*
X58755643Y-71331667D01*
X58888690Y-71392143D01*
X58955214Y-71452619D01*
X59021738Y-71573572D01*
X59021738Y-72057381D01*
X59686976Y-70122143D02*
X59686976Y-70847857D01*
X59686976Y-70485000D02*
X58289976Y-70485000D01*
X58489548Y-70605952D01*
X58622595Y-70726905D01*
X58689119Y-70847857D01*
X62226976Y-71331667D02*
X61561738Y-71755000D01*
X62226976Y-72057381D02*
X60829976Y-72057381D01*
X60829976Y-71573572D01*
X60896500Y-71452619D01*
X60963024Y-71392143D01*
X61096071Y-71331667D01*
X61295643Y-71331667D01*
X61428690Y-71392143D01*
X61495214Y-71452619D01*
X61561738Y-71573572D01*
X61561738Y-72057381D01*
X60963024Y-70847857D02*
X60896500Y-70787381D01*
X60829976Y-70666429D01*
X60829976Y-70364048D01*
X60896500Y-70243095D01*
X60963024Y-70182619D01*
X61096071Y-70122143D01*
X61229119Y-70122143D01*
X61428690Y-70182619D01*
X62226976Y-70908333D01*
X62226976Y-70122143D01*
X57527976Y-65616667D02*
X56862738Y-66040000D01*
X57527976Y-66342381D02*
X56130976Y-66342381D01*
X56130976Y-65858572D01*
X56197500Y-65737619D01*
X56264024Y-65677143D01*
X56397071Y-65616667D01*
X56596643Y-65616667D01*
X56729690Y-65677143D01*
X56796214Y-65737619D01*
X56862738Y-65858572D01*
X56862738Y-66342381D01*
X56130976Y-65193333D02*
X56130976Y-64407143D01*
X56663167Y-64830476D01*
X56663167Y-64649048D01*
X56729690Y-64528095D01*
X56796214Y-64467619D01*
X56929262Y-64407143D01*
X57261881Y-64407143D01*
X57394929Y-64467619D01*
X57461452Y-64528095D01*
X57527976Y-64649048D01*
X57527976Y-65011905D01*
X57461452Y-65132857D01*
X57394929Y-65193333D01*
X64893976Y-72347667D02*
X64228738Y-72771000D01*
X64893976Y-73073381D02*
X63496976Y-73073381D01*
X63496976Y-72589572D01*
X63563500Y-72468619D01*
X63630024Y-72408143D01*
X63763071Y-72347667D01*
X63962643Y-72347667D01*
X64095690Y-72408143D01*
X64162214Y-72468619D01*
X64228738Y-72589572D01*
X64228738Y-73073381D01*
X63962643Y-71259095D02*
X64893976Y-71259095D01*
X63430452Y-71561476D02*
X64428310Y-71863857D01*
X64428310Y-71077667D01*
X49521534Y-59644038D02*
X49666677Y-59692419D01*
X49908581Y-59692419D01*
X50005343Y-59644038D01*
X50053724Y-59595657D01*
X50102105Y-59498895D01*
X50102105Y-59402133D01*
X50053724Y-59305371D01*
X50005343Y-59256990D01*
X49908581Y-59208610D01*
X49715058Y-59160229D01*
X49618296Y-59111848D01*
X49569915Y-59063467D01*
X49521534Y-58966705D01*
X49521534Y-58869943D01*
X49569915Y-58773181D01*
X49618296Y-58724800D01*
X49715058Y-58676419D01*
X49956962Y-58676419D01*
X50102105Y-58724800D01*
X50440772Y-58676419D02*
X50682677Y-59692419D01*
X50876200Y-58966705D01*
X51069724Y-59692419D01*
X51311629Y-58676419D01*
X52230867Y-59692419D02*
X51650296Y-59692419D01*
X51940582Y-59692419D02*
X51940582Y-58676419D01*
X51843820Y-58821562D01*
X51747058Y-58918324D01*
X51650296Y-58966705D01*
D11*
X47788286Y-58020857D02*
X48006000Y-58093429D01*
X48368857Y-58093429D01*
X48514000Y-58020857D01*
X48586571Y-57948286D01*
X48659143Y-57803143D01*
X48659143Y-57658000D01*
X48586571Y-57512857D01*
X48514000Y-57440286D01*
X48368857Y-57367714D01*
X48078571Y-57295143D01*
X47933429Y-57222571D01*
X47860857Y-57150000D01*
X47788286Y-57004857D01*
X47788286Y-56859714D01*
X47860857Y-56714571D01*
X47933429Y-56642000D01*
X48078571Y-56569429D01*
X48441429Y-56569429D01*
X48659143Y-56642000D01*
X49094572Y-56569429D02*
X49965429Y-56569429D01*
X49530000Y-58093429D02*
X49530000Y-56569429D01*
X50400858Y-57658000D02*
X51126572Y-57658000D01*
X50255715Y-58093429D02*
X50763715Y-56569429D01*
X51271715Y-58093429D01*
X52650572Y-58093429D02*
X52142572Y-57367714D01*
X51779715Y-58093429D02*
X51779715Y-56569429D01*
X52360287Y-56569429D01*
X52505429Y-56642000D01*
X52578001Y-56714571D01*
X52650572Y-56859714D01*
X52650572Y-57077429D01*
X52578001Y-57222571D01*
X52505429Y-57295143D01*
X52360287Y-57367714D01*
X51779715Y-57367714D01*
X53086001Y-56569429D02*
X53956858Y-56569429D01*
X53521429Y-58093429D02*
X53521429Y-56569429D01*
D21*
X41892764Y-65828938D02*
X42745479Y-65828938D01*
X40954779Y-66187924D02*
X41892764Y-65828938D01*
X40954779Y-65469951D01*
X42745479Y-64546842D02*
X42745479Y-65162248D01*
X42745479Y-64854545D02*
X40954779Y-64854545D01*
X41210593Y-64957113D01*
X41381136Y-65059680D01*
X41466407Y-65162248D01*
M02*
