G04 #@! TF.FileFunction,Copper,L2,Bot,Signal*
%FSLAX46Y46*%
G04 Gerber Fmt 4.6, Leading zero omitted, Abs format (unit mm)*
G04 Created by KiCad (PCBNEW (2015-07-09 BZR 5913, Git 33e1797)-product) date 29/10/2015 17:07:08*
%MOMM*%
G01*
G04 APERTURE LIST*
%ADD10C,0.150000*%
%ADD11R,2.032000X2.032000*%
%ADD12C,2.032000*%
%ADD13C,1.905000*%
%ADD14R,2.286000X1.574800*%
%ADD15O,2.286000X1.574800*%
%ADD16R,2.499360X2.499360*%
%ADD17C,2.499360*%
%ADD18C,1.998980*%
%ADD19R,1.600200X1.600200*%
%ADD20C,1.600200*%
%ADD21R,1.905000X1.905000*%
%ADD22C,0.889000*%
%ADD23C,0.635000*%
%ADD24C,0.254000*%
G04 APERTURE END LIST*
D10*
D11*
X56515000Y-82550000D03*
D12*
X56515000Y-80010000D03*
D13*
X61595000Y-83820000D03*
X61595000Y-78740000D03*
D12*
X78105000Y-62865000D03*
X78105000Y-60325000D03*
X82550000Y-69215000D03*
X82550000Y-66675000D03*
X82550000Y-76835000D03*
X82550000Y-74295000D03*
X78105000Y-83185000D03*
X78105000Y-80645000D03*
X69215000Y-76200000D03*
X69215000Y-73660000D03*
D14*
X45720000Y-67945000D03*
D15*
X45720000Y-70485000D03*
X45720000Y-73025000D03*
X45720000Y-75565000D03*
X53340000Y-75565000D03*
X53340000Y-73025000D03*
X53340000Y-70485000D03*
X53340000Y-67945000D03*
D16*
X50800000Y-80010000D03*
D17*
X47371000Y-80010000D03*
D18*
X50800000Y-83566000D03*
X47244000Y-83439000D03*
D19*
X60325000Y-62230000D03*
D20*
X60325000Y-59690000D03*
X62865000Y-62230000D03*
X62865000Y-59690000D03*
X65405000Y-62230000D03*
X65405000Y-59690000D03*
D21*
X68580000Y-70485000D03*
D13*
X71120000Y-67945000D03*
X68580000Y-67945000D03*
D21*
X69215000Y-62230000D03*
D13*
X71755000Y-62230000D03*
X71755000Y-59690000D03*
D21*
X73660000Y-69215000D03*
D13*
X76200000Y-69215000D03*
X76200000Y-66675000D03*
D21*
X73660000Y-76200000D03*
D13*
X76200000Y-76200000D03*
X76200000Y-73660000D03*
D21*
X68580000Y-83185000D03*
D13*
X71120000Y-83185000D03*
X71120000Y-80645000D03*
D12*
X59055000Y-67310000D03*
X59055000Y-74930000D03*
X61595000Y-74930000D03*
X61595000Y-67310000D03*
X56896000Y-69215000D03*
X56896000Y-61595000D03*
X64135000Y-67310000D03*
X64135000Y-74930000D03*
X54610000Y-59690000D03*
X54610000Y-64770000D03*
X46990000Y-59690000D03*
X46990000Y-64770000D03*
D11*
X41910000Y-73025000D03*
D12*
X41910000Y-70485000D03*
X41910000Y-67945000D03*
D22*
X64516000Y-70485000D03*
D23*
X65405000Y-59690000D02*
X65405000Y-58166000D01*
X65405000Y-58166000D02*
X65405000Y-58293000D01*
X65405000Y-58293000D02*
X65405000Y-58166000D01*
X46990000Y-59690000D02*
X54610000Y-59690000D01*
X56896000Y-61595000D02*
X56896000Y-60071000D01*
X56896000Y-60071000D02*
X58801000Y-58166000D01*
X58801000Y-58166000D02*
X65405000Y-58166000D01*
X67056000Y-58166000D02*
X68580000Y-59690000D01*
X65405000Y-58166000D02*
X67056000Y-58166000D01*
X47371000Y-80010000D02*
X45466000Y-80010000D01*
X43815000Y-71247000D02*
X43815000Y-76073000D01*
X43053000Y-70485000D02*
X43815000Y-71247000D01*
X41910000Y-70485000D02*
X43053000Y-70485000D01*
X45466000Y-80010000D02*
X43815000Y-78359000D01*
X43815000Y-78359000D02*
X43815000Y-76073000D01*
X69215000Y-62230000D02*
X69215000Y-60325000D01*
X69215000Y-60325000D02*
X68580000Y-59690000D01*
X53340000Y-67945000D02*
X54991000Y-67945000D01*
X58674000Y-60325000D02*
X59309000Y-59690000D01*
X58674000Y-62865000D02*
X58674000Y-60325000D01*
X56896000Y-64643000D02*
X58674000Y-62865000D01*
X56896000Y-66040000D02*
X56896000Y-64643000D01*
X54991000Y-67945000D02*
X56896000Y-66040000D01*
X64643000Y-83820000D02*
X65659000Y-83820000D01*
X76708000Y-83185000D02*
X78105000Y-83185000D01*
X74930000Y-84963000D02*
X76708000Y-83185000D01*
X66802000Y-84963000D02*
X74930000Y-84963000D01*
X65659000Y-83820000D02*
X66802000Y-84963000D01*
X61595000Y-83820000D02*
X64643000Y-83820000D01*
X64643000Y-83820000D02*
X65278000Y-83820000D01*
X66421000Y-78994000D02*
X69215000Y-76200000D01*
X66421000Y-82677000D02*
X66421000Y-78994000D01*
X65278000Y-83820000D02*
X66421000Y-82677000D01*
X56515000Y-82550000D02*
X58547000Y-82550000D01*
X59817000Y-83820000D02*
X61595000Y-83820000D01*
X58547000Y-82550000D02*
X59817000Y-83820000D01*
X50800000Y-80010000D02*
X52197000Y-80010000D01*
X54737000Y-82550000D02*
X56515000Y-82550000D01*
X52197000Y-80010000D02*
X54737000Y-82550000D01*
X60325000Y-59690000D02*
X59309000Y-59690000D01*
X54356000Y-67945000D02*
X53340000Y-67945000D01*
X82550000Y-69215000D02*
X85344000Y-69215000D01*
X82550000Y-76835000D02*
X85217000Y-76835000D01*
X85217000Y-76835000D02*
X85344000Y-76708000D01*
X78105000Y-62865000D02*
X82804000Y-62865000D01*
X79883000Y-83185000D02*
X78105000Y-83185000D01*
X85344000Y-76708000D02*
X85344000Y-78359000D01*
X85344000Y-78359000D02*
X84328000Y-79375000D01*
X84328000Y-79375000D02*
X81915000Y-79375000D01*
X81915000Y-79375000D02*
X80264000Y-81026000D01*
X80264000Y-81026000D02*
X80264000Y-82804000D01*
X80264000Y-82804000D02*
X79883000Y-83185000D01*
X85344000Y-65405000D02*
X85344000Y-69215000D01*
X85344000Y-69215000D02*
X85344000Y-76708000D01*
X82804000Y-62865000D02*
X85344000Y-65405000D01*
X68580000Y-67945000D02*
X68580000Y-66421000D01*
X74295000Y-62865000D02*
X78105000Y-62865000D01*
X71755000Y-65405000D02*
X74295000Y-62865000D01*
X69596000Y-65405000D02*
X71755000Y-65405000D01*
X68580000Y-66421000D02*
X69596000Y-65405000D01*
X50800000Y-80010000D02*
X50800000Y-69215000D01*
X52070000Y-67945000D02*
X53340000Y-67945000D01*
X50800000Y-69215000D02*
X52070000Y-67945000D01*
X71755000Y-59690000D02*
X74930000Y-59690000D01*
X75565000Y-60325000D02*
X78105000Y-60325000D01*
X74930000Y-59690000D02*
X75565000Y-60325000D01*
X82550000Y-66675000D02*
X76200000Y-66675000D01*
X82550000Y-74295000D02*
X76835000Y-74295000D01*
X76835000Y-74295000D02*
X76200000Y-73660000D01*
X78105000Y-80645000D02*
X71120000Y-80645000D01*
X64135000Y-74930000D02*
X65151000Y-74930000D01*
X65151000Y-74930000D02*
X66421000Y-73660000D01*
X66421000Y-73660000D02*
X69215000Y-73660000D01*
X46990000Y-64770000D02*
X54610000Y-64770000D01*
X53340000Y-75565000D02*
X58420000Y-75565000D01*
X58420000Y-75565000D02*
X59055000Y-74930000D01*
X64135000Y-67310000D02*
X64135000Y-65278000D01*
X62865000Y-64008000D02*
X62865000Y-62230000D01*
X64135000Y-65278000D02*
X62865000Y-64008000D01*
X56896000Y-69215000D02*
X56896000Y-70612000D01*
X56896000Y-70612000D02*
X58674000Y-72390000D01*
X63627000Y-72390000D02*
X65278000Y-72390000D01*
X67183000Y-70485000D02*
X68580000Y-70485000D01*
X65278000Y-72390000D02*
X67183000Y-70485000D01*
X68580000Y-70485000D02*
X70485000Y-70485000D01*
X70485000Y-70485000D02*
X71247000Y-71247000D01*
X71247000Y-71247000D02*
X75311000Y-71247000D01*
X75311000Y-71247000D02*
X76200000Y-70358000D01*
X76200000Y-70358000D02*
X76200000Y-69215000D01*
X58674000Y-72390000D02*
X63627000Y-72390000D01*
X71755000Y-62230000D02*
X71755000Y-62865000D01*
X59055000Y-69850000D02*
X59055000Y-67310000D01*
X59690000Y-70485000D02*
X59055000Y-69850000D01*
X64516000Y-70485000D02*
X59690000Y-70485000D01*
D24*
G36*
X81951439Y-56888355D02*
X80895064Y-57942888D01*
X80322653Y-59321407D01*
X80321350Y-60814045D01*
X80775223Y-61912500D01*
X79486993Y-61912500D01*
X79169868Y-61594821D01*
X79503834Y-61261437D01*
X79755713Y-60654845D01*
X79756286Y-59998037D01*
X79505466Y-59391005D01*
X79041437Y-58926166D01*
X78434845Y-58674287D01*
X77778037Y-58673714D01*
X77171005Y-58924534D01*
X76722257Y-59372500D01*
X75959538Y-59372500D01*
X75603519Y-59016481D01*
X75294506Y-58810005D01*
X74930000Y-58737500D01*
X73047269Y-58737500D01*
X72655421Y-58344968D01*
X72072159Y-58102776D01*
X71440612Y-58102225D01*
X70856928Y-58343398D01*
X70409968Y-58789579D01*
X70167776Y-59372841D01*
X70167225Y-60004388D01*
X70408398Y-60588072D01*
X70779935Y-60960257D01*
X70739947Y-61000175D01*
X70705827Y-60917801D01*
X70527198Y-60739173D01*
X70293809Y-60642500D01*
X69500750Y-60642500D01*
X69342000Y-60801250D01*
X69342000Y-62103000D01*
X69362000Y-62103000D01*
X69362000Y-62357000D01*
X69342000Y-62357000D01*
X69342000Y-63658750D01*
X69500750Y-63817500D01*
X70293809Y-63817500D01*
X70527198Y-63720827D01*
X70705827Y-63542199D01*
X70739838Y-63460090D01*
X70854579Y-63575032D01*
X71437841Y-63817224D01*
X71995251Y-63817710D01*
X71360462Y-64452500D01*
X69596000Y-64452500D01*
X69231494Y-64525005D01*
X68922481Y-64731481D01*
X67906481Y-65747481D01*
X67700005Y-66056494D01*
X67627500Y-66421000D01*
X67627500Y-66652731D01*
X67234968Y-67044579D01*
X66992776Y-67627841D01*
X66992225Y-68259388D01*
X67233398Y-68843072D01*
X67347226Y-68957098D01*
X67172573Y-69071827D01*
X67030123Y-69282860D01*
X66980060Y-69532500D01*
X66980060Y-69572867D01*
X66818494Y-69605005D01*
X66509481Y-69811481D01*
X65577574Y-70743388D01*
X65595313Y-70700668D01*
X65595687Y-70271216D01*
X65431689Y-69874311D01*
X65128286Y-69570378D01*
X64731668Y-69405687D01*
X64302216Y-69405313D01*
X63994400Y-69532500D01*
X60084538Y-69532500D01*
X60007500Y-69455462D01*
X60007500Y-68691993D01*
X60225766Y-68474107D01*
X60610498Y-68474107D01*
X60711120Y-68742622D01*
X61326642Y-68971816D01*
X61983019Y-68948014D01*
X62478880Y-68742622D01*
X62579502Y-68474107D01*
X61595000Y-67489605D01*
X60610498Y-68474107D01*
X60225766Y-68474107D01*
X60412565Y-68287634D01*
X60430893Y-68294502D01*
X61415395Y-67310000D01*
X60430893Y-66325498D01*
X60412083Y-66332547D01*
X60225755Y-66145893D01*
X60610498Y-66145893D01*
X61595000Y-67130395D01*
X62579502Y-66145893D01*
X62478880Y-65877378D01*
X61863358Y-65648184D01*
X61206981Y-65671986D01*
X60711120Y-65877378D01*
X60610498Y-66145893D01*
X60225755Y-66145893D01*
X59991437Y-65911166D01*
X59384845Y-65659287D01*
X58728037Y-65658714D01*
X58121005Y-65909534D01*
X57813364Y-66216639D01*
X57848500Y-66040000D01*
X57848500Y-65037538D01*
X59265291Y-63620747D01*
X59275260Y-63627477D01*
X59524900Y-63677540D01*
X61125100Y-63677540D01*
X61367223Y-63630563D01*
X61580027Y-63490773D01*
X61722477Y-63279740D01*
X61749688Y-63144051D01*
X61912500Y-63307147D01*
X61912500Y-64008000D01*
X61985005Y-64372506D01*
X62191481Y-64681519D01*
X63182500Y-65672538D01*
X63182500Y-65928007D01*
X62777435Y-66332366D01*
X62759107Y-66325498D01*
X61774605Y-67310000D01*
X62759107Y-68294502D01*
X62777917Y-68287453D01*
X63198563Y-68708834D01*
X63805155Y-68960713D01*
X64461963Y-68961286D01*
X65068995Y-68710466D01*
X65533834Y-68246437D01*
X65785713Y-67639845D01*
X65786286Y-66983037D01*
X65535466Y-66376005D01*
X65087500Y-65927257D01*
X65087500Y-65278000D01*
X65014995Y-64913494D01*
X64808519Y-64604481D01*
X63817500Y-63613462D01*
X63817500Y-63306930D01*
X64080909Y-63043980D01*
X64134862Y-62914047D01*
X64187672Y-63041857D01*
X64591020Y-63445909D01*
X65118289Y-63664850D01*
X65689207Y-63665348D01*
X66216857Y-63447328D01*
X66620909Y-63043980D01*
X66839850Y-62516711D01*
X66839851Y-62515750D01*
X67627500Y-62515750D01*
X67627500Y-63308810D01*
X67724173Y-63542199D01*
X67902802Y-63720827D01*
X68136191Y-63817500D01*
X68929250Y-63817500D01*
X69088000Y-63658750D01*
X69088000Y-62357000D01*
X67786250Y-62357000D01*
X67627500Y-62515750D01*
X66839851Y-62515750D01*
X66840348Y-61945793D01*
X66622328Y-61418143D01*
X66355840Y-61151190D01*
X67627500Y-61151190D01*
X67627500Y-61944250D01*
X67786250Y-62103000D01*
X69088000Y-62103000D01*
X69088000Y-60801250D01*
X68929250Y-60642500D01*
X68136191Y-60642500D01*
X67902802Y-60739173D01*
X67724173Y-60917801D01*
X67627500Y-61151190D01*
X66355840Y-61151190D01*
X66218980Y-61014091D01*
X66104493Y-60966552D01*
X66159065Y-60943947D01*
X66233212Y-60697817D01*
X65405000Y-59869605D01*
X64576788Y-60697817D01*
X64650935Y-60943947D01*
X64708978Y-60964810D01*
X64593143Y-61012672D01*
X64189091Y-61416020D01*
X64135138Y-61545953D01*
X64082328Y-61418143D01*
X63678980Y-61014091D01*
X63549047Y-60960138D01*
X63676857Y-60907328D01*
X64080909Y-60503980D01*
X64128448Y-60389493D01*
X64151053Y-60444065D01*
X64397183Y-60518212D01*
X65225395Y-59690000D01*
X65584605Y-59690000D01*
X66412817Y-60518212D01*
X66658947Y-60444065D01*
X66852064Y-59906800D01*
X66824879Y-59336530D01*
X66658947Y-58935935D01*
X66412817Y-58861788D01*
X65584605Y-59690000D01*
X65225395Y-59690000D01*
X65225395Y-59690000D01*
X64397183Y-58861788D01*
X64151053Y-58935935D01*
X64130190Y-58993978D01*
X64082328Y-58878143D01*
X63886709Y-58682183D01*
X64576788Y-58682183D01*
X65405000Y-59510395D01*
X66233212Y-58682183D01*
X66159065Y-58436053D01*
X65621800Y-58242936D01*
X65051530Y-58270121D01*
X64650935Y-58436053D01*
X64576788Y-58682183D01*
X63886709Y-58682183D01*
X63678980Y-58474091D01*
X63151711Y-58255150D01*
X62580793Y-58254652D01*
X62053143Y-58472672D01*
X61649091Y-58876020D01*
X61595138Y-59005953D01*
X61542328Y-58878143D01*
X61138980Y-58474091D01*
X60611711Y-58255150D01*
X60040793Y-58254652D01*
X59513143Y-58472672D01*
X59232637Y-58752690D01*
X58944494Y-58810005D01*
X58756027Y-58935935D01*
X58635481Y-59016481D01*
X58000481Y-59651481D01*
X57794005Y-59960494D01*
X57755643Y-60153353D01*
X57164358Y-59933184D01*
X56507981Y-59956986D01*
X56229353Y-60072397D01*
X56271816Y-59958358D01*
X56248014Y-59301981D01*
X56042622Y-58806120D01*
X55774107Y-58705498D01*
X54789605Y-59690000D01*
X54803748Y-59704143D01*
X54624143Y-59883748D01*
X54610000Y-59869605D01*
X53625498Y-60854107D01*
X53726120Y-61122622D01*
X54341642Y-61351816D01*
X54998019Y-61328014D01*
X55276647Y-61212603D01*
X55234184Y-61326642D01*
X55257986Y-61983019D01*
X55463378Y-62478880D01*
X55731893Y-62579502D01*
X56716395Y-61595000D01*
X56702253Y-61580858D01*
X56881858Y-61401253D01*
X56896000Y-61415395D01*
X56910143Y-61401253D01*
X57089748Y-61580858D01*
X57075605Y-61595000D01*
X57089748Y-61609143D01*
X56910143Y-61788748D01*
X56896000Y-61774605D01*
X55911498Y-62759107D01*
X56012120Y-63027622D01*
X56627642Y-63256816D01*
X56946717Y-63245245D01*
X56222481Y-63969481D01*
X56125555Y-64114541D01*
X56010466Y-63836005D01*
X55546437Y-63371166D01*
X54939845Y-63119287D01*
X54283037Y-63118714D01*
X53676005Y-63369534D01*
X53227257Y-63817500D01*
X48371993Y-63817500D01*
X47926437Y-63371166D01*
X47319845Y-63119287D01*
X46663037Y-63118714D01*
X46056005Y-63369534D01*
X45591166Y-63833563D01*
X45339287Y-64440155D01*
X45338714Y-65096963D01*
X45589534Y-65703995D01*
X46053563Y-66168834D01*
X46660155Y-66420713D01*
X47316963Y-66421286D01*
X47923995Y-66170466D01*
X48372743Y-65722500D01*
X53228007Y-65722500D01*
X53673563Y-66168834D01*
X54280155Y-66420713D01*
X54936963Y-66421286D01*
X55330128Y-66258834D01*
X54684386Y-66904576D01*
X54274762Y-66630874D01*
X53730433Y-66522600D01*
X52949567Y-66522600D01*
X52405238Y-66630874D01*
X51943778Y-66939211D01*
X51883366Y-67029624D01*
X51705494Y-67065005D01*
X51396481Y-67271481D01*
X50126481Y-68541481D01*
X49920005Y-68850494D01*
X49847500Y-69215000D01*
X49847500Y-78112880D01*
X49550320Y-78112880D01*
X49308197Y-78159857D01*
X49095393Y-78299647D01*
X48952943Y-78510680D01*
X48902880Y-78760320D01*
X48902880Y-78944249D01*
X48704089Y-78856517D01*
X47550605Y-80010000D01*
X48704089Y-81163483D01*
X48902880Y-81075751D01*
X48902880Y-81259680D01*
X48949857Y-81501803D01*
X49089647Y-81714607D01*
X49300680Y-81857057D01*
X49550320Y-81907120D01*
X52049680Y-81907120D01*
X52291803Y-81860143D01*
X52504607Y-81720353D01*
X52527057Y-81687095D01*
X54063480Y-83223519D01*
X54313290Y-83390436D01*
X54372494Y-83429995D01*
X54737000Y-83502500D01*
X54851560Y-83502500D01*
X54851560Y-83566000D01*
X54898537Y-83808123D01*
X55038327Y-84020927D01*
X55249360Y-84163377D01*
X55499000Y-84213440D01*
X57531000Y-84213440D01*
X57773123Y-84166463D01*
X57985927Y-84026673D01*
X58128377Y-83815640D01*
X58178440Y-83566000D01*
X58178440Y-83528478D01*
X59143481Y-84493519D01*
X59452494Y-84699995D01*
X59817000Y-84772500D01*
X60302731Y-84772500D01*
X60694579Y-85165032D01*
X61277841Y-85407224D01*
X61909388Y-85407775D01*
X62493072Y-85166602D01*
X62887862Y-84772500D01*
X65264462Y-84772500D01*
X66128481Y-85636519D01*
X66437494Y-85842995D01*
X66802000Y-85915500D01*
X74930000Y-85915500D01*
X75294506Y-85842995D01*
X75603519Y-85636519D01*
X76912607Y-84327431D01*
X77168563Y-84583834D01*
X77775155Y-84835713D01*
X78431963Y-84836286D01*
X79038995Y-84585466D01*
X79487743Y-84137500D01*
X79883000Y-84137500D01*
X80247506Y-84064995D01*
X80431962Y-83941746D01*
X80891355Y-85053561D01*
X81945888Y-86109936D01*
X82089334Y-86169500D01*
X44151382Y-86169500D01*
X44286561Y-86113645D01*
X45342936Y-85059112D01*
X45744905Y-84091063D01*
X45857538Y-84363655D01*
X46316927Y-84823846D01*
X46917453Y-85073206D01*
X47567694Y-85073774D01*
X48168655Y-84825462D01*
X48628846Y-84366073D01*
X48826656Y-83889694D01*
X49165226Y-83889694D01*
X49413538Y-84490655D01*
X49872927Y-84950846D01*
X50473453Y-85200206D01*
X51123694Y-85200774D01*
X51724655Y-84952462D01*
X52184846Y-84493073D01*
X52434206Y-83892547D01*
X52434774Y-83242306D01*
X52186462Y-82641345D01*
X51727073Y-82181154D01*
X51126547Y-81931794D01*
X50476306Y-81931226D01*
X49875345Y-82179538D01*
X49415154Y-82638927D01*
X49165794Y-83239453D01*
X49165226Y-83889694D01*
X48826656Y-83889694D01*
X48878206Y-83765547D01*
X48878774Y-83115306D01*
X48630462Y-82514345D01*
X48171073Y-82054154D01*
X47763266Y-81884818D01*
X47796384Y-81883928D01*
X48395275Y-81635859D01*
X48524483Y-81343089D01*
X47371000Y-80189605D01*
X46217517Y-81343089D01*
X46346725Y-81635859D01*
X46855809Y-81830876D01*
X46319345Y-82052538D01*
X45916417Y-82454764D01*
X45916650Y-82187955D01*
X45346645Y-80808439D01*
X44292112Y-79752064D01*
X44132730Y-79685883D01*
X45476929Y-79685883D01*
X45497072Y-80435384D01*
X45745141Y-81034275D01*
X46037911Y-81163483D01*
X47191395Y-80010000D01*
X46037911Y-78856517D01*
X45745141Y-78985725D01*
X45476929Y-79685883D01*
X44132730Y-79685883D01*
X42913593Y-79179653D01*
X41420955Y-79178350D01*
X40041439Y-79748355D01*
X38985064Y-80802888D01*
X38925500Y-80946334D01*
X38925500Y-78676911D01*
X46217517Y-78676911D01*
X47371000Y-79830395D01*
X48524483Y-78676911D01*
X48395275Y-78384141D01*
X47695117Y-78115929D01*
X46945616Y-78136072D01*
X46346725Y-78384141D01*
X46217517Y-78676911D01*
X38925500Y-78676911D01*
X38925500Y-75912060D01*
X43984990Y-75912060D01*
X44001673Y-75991996D01*
X44268809Y-76480986D01*
X44702738Y-76830525D01*
X45237400Y-76987400D01*
X45593000Y-76987400D01*
X45593000Y-75692000D01*
X45847000Y-75692000D01*
X45847000Y-76987400D01*
X46202600Y-76987400D01*
X46737262Y-76830525D01*
X47171191Y-76480986D01*
X47438327Y-75991996D01*
X47455010Y-75912060D01*
X47332852Y-75692000D01*
X45847000Y-75692000D01*
X45593000Y-75692000D01*
X45593000Y-75692000D01*
X44107148Y-75692000D01*
X43984990Y-75912060D01*
X38925500Y-75912060D01*
X38925500Y-72009000D01*
X40246560Y-72009000D01*
X40246560Y-74041000D01*
X40293537Y-74283123D01*
X40433327Y-74495927D01*
X40644360Y-74638377D01*
X40894000Y-74688440D01*
X42926000Y-74688440D01*
X43168123Y-74641463D01*
X43380927Y-74501673D01*
X43523377Y-74290640D01*
X43573440Y-74041000D01*
X43573440Y-72009000D01*
X43526463Y-71766877D01*
X43386673Y-71554073D01*
X43194531Y-71424375D01*
X43342622Y-71368880D01*
X43571816Y-70753358D01*
X43562085Y-70485000D01*
X43907167Y-70485000D01*
X44015441Y-71029329D01*
X44323778Y-71490789D01*
X44719199Y-71755000D01*
X44323778Y-72019211D01*
X44015441Y-72480671D01*
X43907167Y-73025000D01*
X44015441Y-73569329D01*
X44323778Y-74030789D01*
X44718830Y-74294754D01*
X44702738Y-74299475D01*
X44268809Y-74649014D01*
X44001673Y-75138004D01*
X43984990Y-75217940D01*
X44107148Y-75438000D01*
X45593000Y-75438000D01*
X45593000Y-75418000D01*
X45847000Y-75418000D01*
X45847000Y-75438000D01*
X47332852Y-75438000D01*
X47455010Y-75217940D01*
X47438327Y-75138004D01*
X47171191Y-74649014D01*
X46737262Y-74299475D01*
X46721170Y-74294754D01*
X47116222Y-74030789D01*
X47424559Y-73569329D01*
X47532833Y-73025000D01*
X47424559Y-72480671D01*
X47116222Y-72019211D01*
X46720801Y-71755000D01*
X47116222Y-71490789D01*
X47424559Y-71029329D01*
X47532833Y-70485000D01*
X47424559Y-69940671D01*
X47116222Y-69479211D01*
X46943986Y-69364127D01*
X47105123Y-69332863D01*
X47317927Y-69193073D01*
X47460377Y-68982040D01*
X47510440Y-68732400D01*
X47510440Y-67157600D01*
X47463463Y-66915477D01*
X47323673Y-66702673D01*
X47112640Y-66560223D01*
X46863000Y-66510160D01*
X44577000Y-66510160D01*
X44334877Y-66557137D01*
X44122073Y-66696927D01*
X43979623Y-66907960D01*
X43929560Y-67157600D01*
X43929560Y-68732400D01*
X43976537Y-68974523D01*
X44116327Y-69187327D01*
X44327360Y-69329777D01*
X44496622Y-69363721D01*
X44323778Y-69479211D01*
X44015441Y-69940671D01*
X43907167Y-70485000D01*
X43562085Y-70485000D01*
X43548014Y-70096981D01*
X43342622Y-69601120D01*
X43074107Y-69500498D01*
X42089605Y-70485000D01*
X42103748Y-70499143D01*
X41924143Y-70678748D01*
X41910000Y-70664605D01*
X41895858Y-70678748D01*
X41716253Y-70499143D01*
X41730395Y-70485000D01*
X40745893Y-69500498D01*
X40477378Y-69601120D01*
X40248184Y-70216642D01*
X40271986Y-70873019D01*
X40477378Y-71368880D01*
X40626932Y-71424923D01*
X40439073Y-71548327D01*
X40296623Y-71759360D01*
X40246560Y-72009000D01*
X38925500Y-72009000D01*
X38925500Y-68271963D01*
X40258714Y-68271963D01*
X40509534Y-68878995D01*
X40932366Y-69302565D01*
X40925498Y-69320893D01*
X41910000Y-70305395D01*
X42894502Y-69320893D01*
X42887453Y-69302083D01*
X43308834Y-68881437D01*
X43560713Y-68274845D01*
X43561286Y-67618037D01*
X43310466Y-67011005D01*
X42846437Y-66546166D01*
X42239845Y-66294287D01*
X41583037Y-66293714D01*
X40976005Y-66544534D01*
X40511166Y-67008563D01*
X40259287Y-67615155D01*
X40258714Y-68271963D01*
X38925500Y-68271963D01*
X38925500Y-62058382D01*
X38981355Y-62193561D01*
X40035888Y-63249936D01*
X41414407Y-63822347D01*
X42907045Y-63823650D01*
X44286561Y-63253645D01*
X45342936Y-62199112D01*
X45864927Y-60942017D01*
X45891259Y-60968349D01*
X46005499Y-60854109D01*
X46106120Y-61122622D01*
X46721642Y-61351816D01*
X47378019Y-61328014D01*
X47873880Y-61122622D01*
X47974502Y-60854107D01*
X46990000Y-59869605D01*
X46975858Y-59883748D01*
X46796253Y-59704143D01*
X46810395Y-59690000D01*
X47169605Y-59690000D01*
X48154107Y-60674502D01*
X48422622Y-60573880D01*
X48651816Y-59958358D01*
X48632353Y-59421642D01*
X52948184Y-59421642D01*
X52971986Y-60078019D01*
X53177378Y-60573880D01*
X53445893Y-60674502D01*
X54430395Y-59690000D01*
X53445893Y-58705498D01*
X53177378Y-58806120D01*
X52948184Y-59421642D01*
X48632353Y-59421642D01*
X48628014Y-59301981D01*
X48422622Y-58806120D01*
X48154107Y-58705498D01*
X47169605Y-59690000D01*
X46810395Y-59690000D01*
X46810395Y-59690000D01*
X45825893Y-58705498D01*
X45681771Y-58759505D01*
X45585244Y-58525893D01*
X46005498Y-58525893D01*
X46990000Y-59510395D01*
X47974502Y-58525893D01*
X53625498Y-58525893D01*
X54610000Y-59510395D01*
X55594502Y-58525893D01*
X55493880Y-58257378D01*
X54878358Y-58028184D01*
X54221981Y-58051986D01*
X53726120Y-58257378D01*
X53625498Y-58525893D01*
X47974502Y-58525893D01*
X47974502Y-58525893D01*
X47873880Y-58257378D01*
X47258358Y-58028184D01*
X46601981Y-58051986D01*
X46106120Y-58257378D01*
X46005498Y-58525893D01*
X45585244Y-58525893D01*
X45346645Y-57948439D01*
X44292112Y-56892064D01*
X43842816Y-56705500D01*
X82393981Y-56705500D01*
X81951439Y-56888355D01*
X81951439Y-56888355D01*
G37*
X81951439Y-56888355D02*
X80895064Y-57942888D01*
X80322653Y-59321407D01*
X80321350Y-60814045D01*
X80775223Y-61912500D01*
X79486993Y-61912500D01*
X79169868Y-61594821D01*
X79503834Y-61261437D01*
X79755713Y-60654845D01*
X79756286Y-59998037D01*
X79505466Y-59391005D01*
X79041437Y-58926166D01*
X78434845Y-58674287D01*
X77778037Y-58673714D01*
X77171005Y-58924534D01*
X76722257Y-59372500D01*
X75959538Y-59372500D01*
X75603519Y-59016481D01*
X75294506Y-58810005D01*
X74930000Y-58737500D01*
X73047269Y-58737500D01*
X72655421Y-58344968D01*
X72072159Y-58102776D01*
X71440612Y-58102225D01*
X70856928Y-58343398D01*
X70409968Y-58789579D01*
X70167776Y-59372841D01*
X70167225Y-60004388D01*
X70408398Y-60588072D01*
X70779935Y-60960257D01*
X70739947Y-61000175D01*
X70705827Y-60917801D01*
X70527198Y-60739173D01*
X70293809Y-60642500D01*
X69500750Y-60642500D01*
X69342000Y-60801250D01*
X69342000Y-62103000D01*
X69362000Y-62103000D01*
X69362000Y-62357000D01*
X69342000Y-62357000D01*
X69342000Y-63658750D01*
X69500750Y-63817500D01*
X70293809Y-63817500D01*
X70527198Y-63720827D01*
X70705827Y-63542199D01*
X70739838Y-63460090D01*
X70854579Y-63575032D01*
X71437841Y-63817224D01*
X71995251Y-63817710D01*
X71360462Y-64452500D01*
X69596000Y-64452500D01*
X69231494Y-64525005D01*
X68922481Y-64731481D01*
X67906481Y-65747481D01*
X67700005Y-66056494D01*
X67627500Y-66421000D01*
X67627500Y-66652731D01*
X67234968Y-67044579D01*
X66992776Y-67627841D01*
X66992225Y-68259388D01*
X67233398Y-68843072D01*
X67347226Y-68957098D01*
X67172573Y-69071827D01*
X67030123Y-69282860D01*
X66980060Y-69532500D01*
X66980060Y-69572867D01*
X66818494Y-69605005D01*
X66509481Y-69811481D01*
X65577574Y-70743388D01*
X65595313Y-70700668D01*
X65595687Y-70271216D01*
X65431689Y-69874311D01*
X65128286Y-69570378D01*
X64731668Y-69405687D01*
X64302216Y-69405313D01*
X63994400Y-69532500D01*
X60084538Y-69532500D01*
X60007500Y-69455462D01*
X60007500Y-68691993D01*
X60225766Y-68474107D01*
X60610498Y-68474107D01*
X60711120Y-68742622D01*
X61326642Y-68971816D01*
X61983019Y-68948014D01*
X62478880Y-68742622D01*
X62579502Y-68474107D01*
X61595000Y-67489605D01*
X60610498Y-68474107D01*
X60225766Y-68474107D01*
X60412565Y-68287634D01*
X60430893Y-68294502D01*
X61415395Y-67310000D01*
X60430893Y-66325498D01*
X60412083Y-66332547D01*
X60225755Y-66145893D01*
X60610498Y-66145893D01*
X61595000Y-67130395D01*
X62579502Y-66145893D01*
X62478880Y-65877378D01*
X61863358Y-65648184D01*
X61206981Y-65671986D01*
X60711120Y-65877378D01*
X60610498Y-66145893D01*
X60225755Y-66145893D01*
X59991437Y-65911166D01*
X59384845Y-65659287D01*
X58728037Y-65658714D01*
X58121005Y-65909534D01*
X57813364Y-66216639D01*
X57848500Y-66040000D01*
X57848500Y-65037538D01*
X59265291Y-63620747D01*
X59275260Y-63627477D01*
X59524900Y-63677540D01*
X61125100Y-63677540D01*
X61367223Y-63630563D01*
X61580027Y-63490773D01*
X61722477Y-63279740D01*
X61749688Y-63144051D01*
X61912500Y-63307147D01*
X61912500Y-64008000D01*
X61985005Y-64372506D01*
X62191481Y-64681519D01*
X63182500Y-65672538D01*
X63182500Y-65928007D01*
X62777435Y-66332366D01*
X62759107Y-66325498D01*
X61774605Y-67310000D01*
X62759107Y-68294502D01*
X62777917Y-68287453D01*
X63198563Y-68708834D01*
X63805155Y-68960713D01*
X64461963Y-68961286D01*
X65068995Y-68710466D01*
X65533834Y-68246437D01*
X65785713Y-67639845D01*
X65786286Y-66983037D01*
X65535466Y-66376005D01*
X65087500Y-65927257D01*
X65087500Y-65278000D01*
X65014995Y-64913494D01*
X64808519Y-64604481D01*
X63817500Y-63613462D01*
X63817500Y-63306930D01*
X64080909Y-63043980D01*
X64134862Y-62914047D01*
X64187672Y-63041857D01*
X64591020Y-63445909D01*
X65118289Y-63664850D01*
X65689207Y-63665348D01*
X66216857Y-63447328D01*
X66620909Y-63043980D01*
X66839850Y-62516711D01*
X66839851Y-62515750D01*
X67627500Y-62515750D01*
X67627500Y-63308810D01*
X67724173Y-63542199D01*
X67902802Y-63720827D01*
X68136191Y-63817500D01*
X68929250Y-63817500D01*
X69088000Y-63658750D01*
X69088000Y-62357000D01*
X67786250Y-62357000D01*
X67627500Y-62515750D01*
X66839851Y-62515750D01*
X66840348Y-61945793D01*
X66622328Y-61418143D01*
X66355840Y-61151190D01*
X67627500Y-61151190D01*
X67627500Y-61944250D01*
X67786250Y-62103000D01*
X69088000Y-62103000D01*
X69088000Y-60801250D01*
X68929250Y-60642500D01*
X68136191Y-60642500D01*
X67902802Y-60739173D01*
X67724173Y-60917801D01*
X67627500Y-61151190D01*
X66355840Y-61151190D01*
X66218980Y-61014091D01*
X66104493Y-60966552D01*
X66159065Y-60943947D01*
X66233212Y-60697817D01*
X65405000Y-59869605D01*
X64576788Y-60697817D01*
X64650935Y-60943947D01*
X64708978Y-60964810D01*
X64593143Y-61012672D01*
X64189091Y-61416020D01*
X64135138Y-61545953D01*
X64082328Y-61418143D01*
X63678980Y-61014091D01*
X63549047Y-60960138D01*
X63676857Y-60907328D01*
X64080909Y-60503980D01*
X64128448Y-60389493D01*
X64151053Y-60444065D01*
X64397183Y-60518212D01*
X65225395Y-59690000D01*
X65584605Y-59690000D01*
X66412817Y-60518212D01*
X66658947Y-60444065D01*
X66852064Y-59906800D01*
X66824879Y-59336530D01*
X66658947Y-58935935D01*
X66412817Y-58861788D01*
X65584605Y-59690000D01*
X65225395Y-59690000D01*
X65225395Y-59690000D01*
X64397183Y-58861788D01*
X64151053Y-58935935D01*
X64130190Y-58993978D01*
X64082328Y-58878143D01*
X63886709Y-58682183D01*
X64576788Y-58682183D01*
X65405000Y-59510395D01*
X66233212Y-58682183D01*
X66159065Y-58436053D01*
X65621800Y-58242936D01*
X65051530Y-58270121D01*
X64650935Y-58436053D01*
X64576788Y-58682183D01*
X63886709Y-58682183D01*
X63678980Y-58474091D01*
X63151711Y-58255150D01*
X62580793Y-58254652D01*
X62053143Y-58472672D01*
X61649091Y-58876020D01*
X61595138Y-59005953D01*
X61542328Y-58878143D01*
X61138980Y-58474091D01*
X60611711Y-58255150D01*
X60040793Y-58254652D01*
X59513143Y-58472672D01*
X59232637Y-58752690D01*
X58944494Y-58810005D01*
X58756027Y-58935935D01*
X58635481Y-59016481D01*
X58000481Y-59651481D01*
X57794005Y-59960494D01*
X57755643Y-60153353D01*
X57164358Y-59933184D01*
X56507981Y-59956986D01*
X56229353Y-60072397D01*
X56271816Y-59958358D01*
X56248014Y-59301981D01*
X56042622Y-58806120D01*
X55774107Y-58705498D01*
X54789605Y-59690000D01*
X54803748Y-59704143D01*
X54624143Y-59883748D01*
X54610000Y-59869605D01*
X53625498Y-60854107D01*
X53726120Y-61122622D01*
X54341642Y-61351816D01*
X54998019Y-61328014D01*
X55276647Y-61212603D01*
X55234184Y-61326642D01*
X55257986Y-61983019D01*
X55463378Y-62478880D01*
X55731893Y-62579502D01*
X56716395Y-61595000D01*
X56702253Y-61580858D01*
X56881858Y-61401253D01*
X56896000Y-61415395D01*
X56910143Y-61401253D01*
X57089748Y-61580858D01*
X57075605Y-61595000D01*
X57089748Y-61609143D01*
X56910143Y-61788748D01*
X56896000Y-61774605D01*
X55911498Y-62759107D01*
X56012120Y-63027622D01*
X56627642Y-63256816D01*
X56946717Y-63245245D01*
X56222481Y-63969481D01*
X56125555Y-64114541D01*
X56010466Y-63836005D01*
X55546437Y-63371166D01*
X54939845Y-63119287D01*
X54283037Y-63118714D01*
X53676005Y-63369534D01*
X53227257Y-63817500D01*
X48371993Y-63817500D01*
X47926437Y-63371166D01*
X47319845Y-63119287D01*
X46663037Y-63118714D01*
X46056005Y-63369534D01*
X45591166Y-63833563D01*
X45339287Y-64440155D01*
X45338714Y-65096963D01*
X45589534Y-65703995D01*
X46053563Y-66168834D01*
X46660155Y-66420713D01*
X47316963Y-66421286D01*
X47923995Y-66170466D01*
X48372743Y-65722500D01*
X53228007Y-65722500D01*
X53673563Y-66168834D01*
X54280155Y-66420713D01*
X54936963Y-66421286D01*
X55330128Y-66258834D01*
X54684386Y-66904576D01*
X54274762Y-66630874D01*
X53730433Y-66522600D01*
X52949567Y-66522600D01*
X52405238Y-66630874D01*
X51943778Y-66939211D01*
X51883366Y-67029624D01*
X51705494Y-67065005D01*
X51396481Y-67271481D01*
X50126481Y-68541481D01*
X49920005Y-68850494D01*
X49847500Y-69215000D01*
X49847500Y-78112880D01*
X49550320Y-78112880D01*
X49308197Y-78159857D01*
X49095393Y-78299647D01*
X48952943Y-78510680D01*
X48902880Y-78760320D01*
X48902880Y-78944249D01*
X48704089Y-78856517D01*
X47550605Y-80010000D01*
X48704089Y-81163483D01*
X48902880Y-81075751D01*
X48902880Y-81259680D01*
X48949857Y-81501803D01*
X49089647Y-81714607D01*
X49300680Y-81857057D01*
X49550320Y-81907120D01*
X52049680Y-81907120D01*
X52291803Y-81860143D01*
X52504607Y-81720353D01*
X52527057Y-81687095D01*
X54063480Y-83223519D01*
X54313290Y-83390436D01*
X54372494Y-83429995D01*
X54737000Y-83502500D01*
X54851560Y-83502500D01*
X54851560Y-83566000D01*
X54898537Y-83808123D01*
X55038327Y-84020927D01*
X55249360Y-84163377D01*
X55499000Y-84213440D01*
X57531000Y-84213440D01*
X57773123Y-84166463D01*
X57985927Y-84026673D01*
X58128377Y-83815640D01*
X58178440Y-83566000D01*
X58178440Y-83528478D01*
X59143481Y-84493519D01*
X59452494Y-84699995D01*
X59817000Y-84772500D01*
X60302731Y-84772500D01*
X60694579Y-85165032D01*
X61277841Y-85407224D01*
X61909388Y-85407775D01*
X62493072Y-85166602D01*
X62887862Y-84772500D01*
X65264462Y-84772500D01*
X66128481Y-85636519D01*
X66437494Y-85842995D01*
X66802000Y-85915500D01*
X74930000Y-85915500D01*
X75294506Y-85842995D01*
X75603519Y-85636519D01*
X76912607Y-84327431D01*
X77168563Y-84583834D01*
X77775155Y-84835713D01*
X78431963Y-84836286D01*
X79038995Y-84585466D01*
X79487743Y-84137500D01*
X79883000Y-84137500D01*
X80247506Y-84064995D01*
X80431962Y-83941746D01*
X80891355Y-85053561D01*
X81945888Y-86109936D01*
X82089334Y-86169500D01*
X44151382Y-86169500D01*
X44286561Y-86113645D01*
X45342936Y-85059112D01*
X45744905Y-84091063D01*
X45857538Y-84363655D01*
X46316927Y-84823846D01*
X46917453Y-85073206D01*
X47567694Y-85073774D01*
X48168655Y-84825462D01*
X48628846Y-84366073D01*
X48826656Y-83889694D01*
X49165226Y-83889694D01*
X49413538Y-84490655D01*
X49872927Y-84950846D01*
X50473453Y-85200206D01*
X51123694Y-85200774D01*
X51724655Y-84952462D01*
X52184846Y-84493073D01*
X52434206Y-83892547D01*
X52434774Y-83242306D01*
X52186462Y-82641345D01*
X51727073Y-82181154D01*
X51126547Y-81931794D01*
X50476306Y-81931226D01*
X49875345Y-82179538D01*
X49415154Y-82638927D01*
X49165794Y-83239453D01*
X49165226Y-83889694D01*
X48826656Y-83889694D01*
X48878206Y-83765547D01*
X48878774Y-83115306D01*
X48630462Y-82514345D01*
X48171073Y-82054154D01*
X47763266Y-81884818D01*
X47796384Y-81883928D01*
X48395275Y-81635859D01*
X48524483Y-81343089D01*
X47371000Y-80189605D01*
X46217517Y-81343089D01*
X46346725Y-81635859D01*
X46855809Y-81830876D01*
X46319345Y-82052538D01*
X45916417Y-82454764D01*
X45916650Y-82187955D01*
X45346645Y-80808439D01*
X44292112Y-79752064D01*
X44132730Y-79685883D01*
X45476929Y-79685883D01*
X45497072Y-80435384D01*
X45745141Y-81034275D01*
X46037911Y-81163483D01*
X47191395Y-80010000D01*
X46037911Y-78856517D01*
X45745141Y-78985725D01*
X45476929Y-79685883D01*
X44132730Y-79685883D01*
X42913593Y-79179653D01*
X41420955Y-79178350D01*
X40041439Y-79748355D01*
X38985064Y-80802888D01*
X38925500Y-80946334D01*
X38925500Y-78676911D01*
X46217517Y-78676911D01*
X47371000Y-79830395D01*
X48524483Y-78676911D01*
X48395275Y-78384141D01*
X47695117Y-78115929D01*
X46945616Y-78136072D01*
X46346725Y-78384141D01*
X46217517Y-78676911D01*
X38925500Y-78676911D01*
X38925500Y-75912060D01*
X43984990Y-75912060D01*
X44001673Y-75991996D01*
X44268809Y-76480986D01*
X44702738Y-76830525D01*
X45237400Y-76987400D01*
X45593000Y-76987400D01*
X45593000Y-75692000D01*
X45847000Y-75692000D01*
X45847000Y-76987400D01*
X46202600Y-76987400D01*
X46737262Y-76830525D01*
X47171191Y-76480986D01*
X47438327Y-75991996D01*
X47455010Y-75912060D01*
X47332852Y-75692000D01*
X45847000Y-75692000D01*
X45593000Y-75692000D01*
X45593000Y-75692000D01*
X44107148Y-75692000D01*
X43984990Y-75912060D01*
X38925500Y-75912060D01*
X38925500Y-72009000D01*
X40246560Y-72009000D01*
X40246560Y-74041000D01*
X40293537Y-74283123D01*
X40433327Y-74495927D01*
X40644360Y-74638377D01*
X40894000Y-74688440D01*
X42926000Y-74688440D01*
X43168123Y-74641463D01*
X43380927Y-74501673D01*
X43523377Y-74290640D01*
X43573440Y-74041000D01*
X43573440Y-72009000D01*
X43526463Y-71766877D01*
X43386673Y-71554073D01*
X43194531Y-71424375D01*
X43342622Y-71368880D01*
X43571816Y-70753358D01*
X43562085Y-70485000D01*
X43907167Y-70485000D01*
X44015441Y-71029329D01*
X44323778Y-71490789D01*
X44719199Y-71755000D01*
X44323778Y-72019211D01*
X44015441Y-72480671D01*
X43907167Y-73025000D01*
X44015441Y-73569329D01*
X44323778Y-74030789D01*
X44718830Y-74294754D01*
X44702738Y-74299475D01*
X44268809Y-74649014D01*
X44001673Y-75138004D01*
X43984990Y-75217940D01*
X44107148Y-75438000D01*
X45593000Y-75438000D01*
X45593000Y-75418000D01*
X45847000Y-75418000D01*
X45847000Y-75438000D01*
X47332852Y-75438000D01*
X47455010Y-75217940D01*
X47438327Y-75138004D01*
X47171191Y-74649014D01*
X46737262Y-74299475D01*
X46721170Y-74294754D01*
X47116222Y-74030789D01*
X47424559Y-73569329D01*
X47532833Y-73025000D01*
X47424559Y-72480671D01*
X47116222Y-72019211D01*
X46720801Y-71755000D01*
X47116222Y-71490789D01*
X47424559Y-71029329D01*
X47532833Y-70485000D01*
X47424559Y-69940671D01*
X47116222Y-69479211D01*
X46943986Y-69364127D01*
X47105123Y-69332863D01*
X47317927Y-69193073D01*
X47460377Y-68982040D01*
X47510440Y-68732400D01*
X47510440Y-67157600D01*
X47463463Y-66915477D01*
X47323673Y-66702673D01*
X47112640Y-66560223D01*
X46863000Y-66510160D01*
X44577000Y-66510160D01*
X44334877Y-66557137D01*
X44122073Y-66696927D01*
X43979623Y-66907960D01*
X43929560Y-67157600D01*
X43929560Y-68732400D01*
X43976537Y-68974523D01*
X44116327Y-69187327D01*
X44327360Y-69329777D01*
X44496622Y-69363721D01*
X44323778Y-69479211D01*
X44015441Y-69940671D01*
X43907167Y-70485000D01*
X43562085Y-70485000D01*
X43548014Y-70096981D01*
X43342622Y-69601120D01*
X43074107Y-69500498D01*
X42089605Y-70485000D01*
X42103748Y-70499143D01*
X41924143Y-70678748D01*
X41910000Y-70664605D01*
X41895858Y-70678748D01*
X41716253Y-70499143D01*
X41730395Y-70485000D01*
X40745893Y-69500498D01*
X40477378Y-69601120D01*
X40248184Y-70216642D01*
X40271986Y-70873019D01*
X40477378Y-71368880D01*
X40626932Y-71424923D01*
X40439073Y-71548327D01*
X40296623Y-71759360D01*
X40246560Y-72009000D01*
X38925500Y-72009000D01*
X38925500Y-68271963D01*
X40258714Y-68271963D01*
X40509534Y-68878995D01*
X40932366Y-69302565D01*
X40925498Y-69320893D01*
X41910000Y-70305395D01*
X42894502Y-69320893D01*
X42887453Y-69302083D01*
X43308834Y-68881437D01*
X43560713Y-68274845D01*
X43561286Y-67618037D01*
X43310466Y-67011005D01*
X42846437Y-66546166D01*
X42239845Y-66294287D01*
X41583037Y-66293714D01*
X40976005Y-66544534D01*
X40511166Y-67008563D01*
X40259287Y-67615155D01*
X40258714Y-68271963D01*
X38925500Y-68271963D01*
X38925500Y-62058382D01*
X38981355Y-62193561D01*
X40035888Y-63249936D01*
X41414407Y-63822347D01*
X42907045Y-63823650D01*
X44286561Y-63253645D01*
X45342936Y-62199112D01*
X45864927Y-60942017D01*
X45891259Y-60968349D01*
X46005499Y-60854109D01*
X46106120Y-61122622D01*
X46721642Y-61351816D01*
X47378019Y-61328014D01*
X47873880Y-61122622D01*
X47974502Y-60854107D01*
X46990000Y-59869605D01*
X46975858Y-59883748D01*
X46796253Y-59704143D01*
X46810395Y-59690000D01*
X47169605Y-59690000D01*
X48154107Y-60674502D01*
X48422622Y-60573880D01*
X48651816Y-59958358D01*
X48632353Y-59421642D01*
X52948184Y-59421642D01*
X52971986Y-60078019D01*
X53177378Y-60573880D01*
X53445893Y-60674502D01*
X54430395Y-59690000D01*
X53445893Y-58705498D01*
X53177378Y-58806120D01*
X52948184Y-59421642D01*
X48632353Y-59421642D01*
X48628014Y-59301981D01*
X48422622Y-58806120D01*
X48154107Y-58705498D01*
X47169605Y-59690000D01*
X46810395Y-59690000D01*
X46810395Y-59690000D01*
X45825893Y-58705498D01*
X45681771Y-58759505D01*
X45585244Y-58525893D01*
X46005498Y-58525893D01*
X46990000Y-59510395D01*
X47974502Y-58525893D01*
X53625498Y-58525893D01*
X54610000Y-59510395D01*
X55594502Y-58525893D01*
X55493880Y-58257378D01*
X54878358Y-58028184D01*
X54221981Y-58051986D01*
X53726120Y-58257378D01*
X53625498Y-58525893D01*
X47974502Y-58525893D01*
X47974502Y-58525893D01*
X47873880Y-58257378D01*
X47258358Y-58028184D01*
X46601981Y-58051986D01*
X46106120Y-58257378D01*
X46005498Y-58525893D01*
X45585244Y-58525893D01*
X45346645Y-57948439D01*
X44292112Y-56892064D01*
X43842816Y-56705500D01*
X82393981Y-56705500D01*
X81951439Y-56888355D01*
G36*
X81485132Y-67945179D02*
X81151166Y-68278563D01*
X80899287Y-68885155D01*
X80898714Y-69541963D01*
X81149534Y-70148995D01*
X81613563Y-70613834D01*
X82220155Y-70865713D01*
X82876963Y-70866286D01*
X83483995Y-70615466D01*
X83932743Y-70167500D01*
X84391500Y-70167500D01*
X84391500Y-75882500D01*
X83931993Y-75882500D01*
X83614868Y-75564821D01*
X83948834Y-75231437D01*
X84200713Y-74624845D01*
X84201286Y-73968037D01*
X83950466Y-73361005D01*
X83486437Y-72896166D01*
X82879845Y-72644287D01*
X82223037Y-72643714D01*
X81616005Y-72894534D01*
X81167257Y-73342500D01*
X77786489Y-73342500D01*
X77546602Y-72761928D01*
X77100421Y-72314968D01*
X76517159Y-72072776D01*
X75885612Y-72072225D01*
X75301928Y-72313398D01*
X74854968Y-72759579D01*
X74612776Y-73342841D01*
X74612225Y-73974388D01*
X74853398Y-74558072D01*
X75224935Y-74930257D01*
X75184947Y-74970175D01*
X75150827Y-74887801D01*
X74972198Y-74709173D01*
X74738809Y-74612500D01*
X73945750Y-74612500D01*
X73787000Y-74771250D01*
X73787000Y-76073000D01*
X73807000Y-76073000D01*
X73807000Y-76327000D01*
X73787000Y-76327000D01*
X73787000Y-77628750D01*
X73945750Y-77787500D01*
X74738809Y-77787500D01*
X74972198Y-77690827D01*
X75150827Y-77512199D01*
X75184838Y-77430090D01*
X75299579Y-77545032D01*
X75882841Y-77787224D01*
X76514388Y-77787775D01*
X77098072Y-77546602D01*
X77545032Y-77100421D01*
X77787224Y-76517159D01*
X77787775Y-75885612D01*
X77546602Y-75301928D01*
X77492269Y-75247500D01*
X81168007Y-75247500D01*
X81485132Y-75565179D01*
X81151166Y-75898563D01*
X80899287Y-76505155D01*
X80898714Y-77161963D01*
X81149534Y-77768995D01*
X81613563Y-78233834D01*
X82067921Y-78422500D01*
X81915000Y-78422500D01*
X81550494Y-78495005D01*
X81349217Y-78629494D01*
X81241481Y-78701481D01*
X79717878Y-80225084D01*
X79505466Y-79711005D01*
X79041437Y-79246166D01*
X78434845Y-78994287D01*
X77778037Y-78993714D01*
X77171005Y-79244534D01*
X76722257Y-79692500D01*
X72412269Y-79692500D01*
X72020421Y-79299968D01*
X71437159Y-79057776D01*
X70805612Y-79057225D01*
X70221928Y-79298398D01*
X69774968Y-79744579D01*
X69532776Y-80327841D01*
X69532225Y-80959388D01*
X69773398Y-81543072D01*
X70144935Y-81915257D01*
X70104947Y-81955175D01*
X70070827Y-81872801D01*
X69892198Y-81694173D01*
X69658809Y-81597500D01*
X68865750Y-81597500D01*
X68707000Y-81756250D01*
X68707000Y-83058000D01*
X68727000Y-83058000D01*
X68727000Y-83312000D01*
X68707000Y-83312000D01*
X68707000Y-83332000D01*
X68453000Y-83332000D01*
X68453000Y-83312000D01*
X68433000Y-83312000D01*
X68433000Y-83058000D01*
X68453000Y-83058000D01*
X68453000Y-81756250D01*
X68294250Y-81597500D01*
X67501191Y-81597500D01*
X67373500Y-81650391D01*
X67373500Y-79388538D01*
X68911302Y-77850736D01*
X69541963Y-77851286D01*
X70148995Y-77600466D01*
X70613834Y-77136437D01*
X70865713Y-76529845D01*
X70865751Y-76485750D01*
X72072500Y-76485750D01*
X72072500Y-77278810D01*
X72169173Y-77512199D01*
X72347802Y-77690827D01*
X72581191Y-77787500D01*
X73374250Y-77787500D01*
X73533000Y-77628750D01*
X73533000Y-76327000D01*
X72231250Y-76327000D01*
X72072500Y-76485750D01*
X70865751Y-76485750D01*
X70866286Y-75873037D01*
X70615466Y-75266005D01*
X70470903Y-75121190D01*
X72072500Y-75121190D01*
X72072500Y-75914250D01*
X72231250Y-76073000D01*
X73533000Y-76073000D01*
X73533000Y-74771250D01*
X73374250Y-74612500D01*
X72581191Y-74612500D01*
X72347802Y-74709173D01*
X72169173Y-74887801D01*
X72072500Y-75121190D01*
X70470903Y-75121190D01*
X70279868Y-74929821D01*
X70613834Y-74596437D01*
X70865713Y-73989845D01*
X70866286Y-73333037D01*
X70615466Y-72726005D01*
X70151437Y-72261166D01*
X69665086Y-72059215D01*
X69774623Y-72037963D01*
X69987427Y-71898173D01*
X70129877Y-71687140D01*
X70164993Y-71512031D01*
X70573481Y-71920519D01*
X70882494Y-72126995D01*
X71247000Y-72199500D01*
X75311000Y-72199500D01*
X75675506Y-72126995D01*
X75984519Y-71920519D01*
X76873519Y-71031519D01*
X77079995Y-70722506D01*
X77115452Y-70544252D01*
X77545032Y-70115421D01*
X77787224Y-69532159D01*
X77787775Y-68900612D01*
X77546602Y-68316928D01*
X77175065Y-67944743D01*
X77492862Y-67627500D01*
X81168007Y-67627500D01*
X81485132Y-67945179D01*
X81485132Y-67945179D01*
G37*
X81485132Y-67945179D02*
X81151166Y-68278563D01*
X80899287Y-68885155D01*
X80898714Y-69541963D01*
X81149534Y-70148995D01*
X81613563Y-70613834D01*
X82220155Y-70865713D01*
X82876963Y-70866286D01*
X83483995Y-70615466D01*
X83932743Y-70167500D01*
X84391500Y-70167500D01*
X84391500Y-75882500D01*
X83931993Y-75882500D01*
X83614868Y-75564821D01*
X83948834Y-75231437D01*
X84200713Y-74624845D01*
X84201286Y-73968037D01*
X83950466Y-73361005D01*
X83486437Y-72896166D01*
X82879845Y-72644287D01*
X82223037Y-72643714D01*
X81616005Y-72894534D01*
X81167257Y-73342500D01*
X77786489Y-73342500D01*
X77546602Y-72761928D01*
X77100421Y-72314968D01*
X76517159Y-72072776D01*
X75885612Y-72072225D01*
X75301928Y-72313398D01*
X74854968Y-72759579D01*
X74612776Y-73342841D01*
X74612225Y-73974388D01*
X74853398Y-74558072D01*
X75224935Y-74930257D01*
X75184947Y-74970175D01*
X75150827Y-74887801D01*
X74972198Y-74709173D01*
X74738809Y-74612500D01*
X73945750Y-74612500D01*
X73787000Y-74771250D01*
X73787000Y-76073000D01*
X73807000Y-76073000D01*
X73807000Y-76327000D01*
X73787000Y-76327000D01*
X73787000Y-77628750D01*
X73945750Y-77787500D01*
X74738809Y-77787500D01*
X74972198Y-77690827D01*
X75150827Y-77512199D01*
X75184838Y-77430090D01*
X75299579Y-77545032D01*
X75882841Y-77787224D01*
X76514388Y-77787775D01*
X77098072Y-77546602D01*
X77545032Y-77100421D01*
X77787224Y-76517159D01*
X77787775Y-75885612D01*
X77546602Y-75301928D01*
X77492269Y-75247500D01*
X81168007Y-75247500D01*
X81485132Y-75565179D01*
X81151166Y-75898563D01*
X80899287Y-76505155D01*
X80898714Y-77161963D01*
X81149534Y-77768995D01*
X81613563Y-78233834D01*
X82067921Y-78422500D01*
X81915000Y-78422500D01*
X81550494Y-78495005D01*
X81349217Y-78629494D01*
X81241481Y-78701481D01*
X79717878Y-80225084D01*
X79505466Y-79711005D01*
X79041437Y-79246166D01*
X78434845Y-78994287D01*
X77778037Y-78993714D01*
X77171005Y-79244534D01*
X76722257Y-79692500D01*
X72412269Y-79692500D01*
X72020421Y-79299968D01*
X71437159Y-79057776D01*
X70805612Y-79057225D01*
X70221928Y-79298398D01*
X69774968Y-79744579D01*
X69532776Y-80327841D01*
X69532225Y-80959388D01*
X69773398Y-81543072D01*
X70144935Y-81915257D01*
X70104947Y-81955175D01*
X70070827Y-81872801D01*
X69892198Y-81694173D01*
X69658809Y-81597500D01*
X68865750Y-81597500D01*
X68707000Y-81756250D01*
X68707000Y-83058000D01*
X68727000Y-83058000D01*
X68727000Y-83312000D01*
X68707000Y-83312000D01*
X68707000Y-83332000D01*
X68453000Y-83332000D01*
X68453000Y-83312000D01*
X68433000Y-83312000D01*
X68433000Y-83058000D01*
X68453000Y-83058000D01*
X68453000Y-81756250D01*
X68294250Y-81597500D01*
X67501191Y-81597500D01*
X67373500Y-81650391D01*
X67373500Y-79388538D01*
X68911302Y-77850736D01*
X69541963Y-77851286D01*
X70148995Y-77600466D01*
X70613834Y-77136437D01*
X70865713Y-76529845D01*
X70865751Y-76485750D01*
X72072500Y-76485750D01*
X72072500Y-77278810D01*
X72169173Y-77512199D01*
X72347802Y-77690827D01*
X72581191Y-77787500D01*
X73374250Y-77787500D01*
X73533000Y-77628750D01*
X73533000Y-76327000D01*
X72231250Y-76327000D01*
X72072500Y-76485750D01*
X70865751Y-76485750D01*
X70866286Y-75873037D01*
X70615466Y-75266005D01*
X70470903Y-75121190D01*
X72072500Y-75121190D01*
X72072500Y-75914250D01*
X72231250Y-76073000D01*
X73533000Y-76073000D01*
X73533000Y-74771250D01*
X73374250Y-74612500D01*
X72581191Y-74612500D01*
X72347802Y-74709173D01*
X72169173Y-74887801D01*
X72072500Y-75121190D01*
X70470903Y-75121190D01*
X70279868Y-74929821D01*
X70613834Y-74596437D01*
X70865713Y-73989845D01*
X70866286Y-73333037D01*
X70615466Y-72726005D01*
X70151437Y-72261166D01*
X69665086Y-72059215D01*
X69774623Y-72037963D01*
X69987427Y-71898173D01*
X70129877Y-71687140D01*
X70164993Y-71512031D01*
X70573481Y-71920519D01*
X70882494Y-72126995D01*
X71247000Y-72199500D01*
X75311000Y-72199500D01*
X75675506Y-72126995D01*
X75984519Y-71920519D01*
X76873519Y-71031519D01*
X77079995Y-70722506D01*
X77115452Y-70544252D01*
X77545032Y-70115421D01*
X77787224Y-69532159D01*
X77787775Y-68900612D01*
X77546602Y-68316928D01*
X77175065Y-67944743D01*
X77492862Y-67627500D01*
X81168007Y-67627500D01*
X81485132Y-67945179D01*
G36*
X68150132Y-74930179D02*
X67816166Y-75263563D01*
X67564287Y-75870155D01*
X67563734Y-76504228D01*
X65747481Y-78320481D01*
X65541005Y-78629494D01*
X65468500Y-78994000D01*
X65468500Y-82282462D01*
X64883462Y-82867500D01*
X62887269Y-82867500D01*
X62495421Y-82474968D01*
X61912159Y-82232776D01*
X61280612Y-82232225D01*
X60696928Y-82473398D01*
X60302138Y-82867500D01*
X60211538Y-82867500D01*
X59220519Y-81876481D01*
X58911506Y-81670005D01*
X58547000Y-81597500D01*
X58178440Y-81597500D01*
X58178440Y-81534000D01*
X58131463Y-81291877D01*
X57991673Y-81079073D01*
X57799531Y-80949375D01*
X57947622Y-80893880D01*
X58176816Y-80278358D01*
X58161578Y-79858159D01*
X60656446Y-79858159D01*
X60749288Y-80120088D01*
X61341801Y-80338675D01*
X61972861Y-80313878D01*
X62440712Y-80120088D01*
X62533554Y-79858159D01*
X61595000Y-78919605D01*
X60656446Y-79858159D01*
X58161578Y-79858159D01*
X58153014Y-79621981D01*
X57947622Y-79126120D01*
X57679107Y-79025498D01*
X56694605Y-80010000D01*
X56708748Y-80024143D01*
X56529143Y-80203748D01*
X56515000Y-80189605D01*
X56500858Y-80203748D01*
X56321253Y-80024143D01*
X56335395Y-80010000D01*
X55350893Y-79025498D01*
X55082378Y-79126120D01*
X54853184Y-79741642D01*
X54876986Y-80398019D01*
X55082378Y-80893880D01*
X55231932Y-80949923D01*
X55044073Y-81073327D01*
X54901623Y-81284360D01*
X54887721Y-81353682D01*
X52870519Y-79336481D01*
X52697120Y-79220619D01*
X52697120Y-78845893D01*
X55530498Y-78845893D01*
X56515000Y-79830395D01*
X57499502Y-78845893D01*
X57398880Y-78577378D01*
X57155627Y-78486801D01*
X59996325Y-78486801D01*
X60021122Y-79117861D01*
X60214912Y-79585712D01*
X60476841Y-79678554D01*
X61415395Y-78740000D01*
X61774605Y-78740000D01*
X62713159Y-79678554D01*
X62975088Y-79585712D01*
X63193675Y-78993199D01*
X63168878Y-78362139D01*
X62975088Y-77894288D01*
X62713159Y-77801446D01*
X61774605Y-78740000D01*
X61415395Y-78740000D01*
X61415395Y-78740000D01*
X60476841Y-77801446D01*
X60214912Y-77894288D01*
X59996325Y-78486801D01*
X57155627Y-78486801D01*
X56783358Y-78348184D01*
X56126981Y-78371986D01*
X55631120Y-78577378D01*
X55530498Y-78845893D01*
X52697120Y-78845893D01*
X52697120Y-78760320D01*
X52650143Y-78518197D01*
X52510353Y-78305393D01*
X52299320Y-78162943D01*
X52049680Y-78112880D01*
X51752500Y-78112880D01*
X51752500Y-77621841D01*
X60656446Y-77621841D01*
X61595000Y-78560395D01*
X62533554Y-77621841D01*
X62440712Y-77359912D01*
X61848199Y-77141325D01*
X61217139Y-77166122D01*
X60749288Y-77359912D01*
X60656446Y-77621841D01*
X51752500Y-77621841D01*
X51752500Y-76284521D01*
X51943778Y-76570789D01*
X52405238Y-76879126D01*
X52949567Y-76987400D01*
X53730433Y-76987400D01*
X54274762Y-76879126D01*
X54736222Y-76570789D01*
X54771828Y-76517500D01*
X58420000Y-76517500D01*
X58523392Y-76496934D01*
X58725155Y-76580713D01*
X59381963Y-76581286D01*
X59988995Y-76330466D01*
X60325179Y-75994868D01*
X60658563Y-76328834D01*
X61265155Y-76580713D01*
X61921963Y-76581286D01*
X62528995Y-76330466D01*
X62865179Y-75994868D01*
X63198563Y-76328834D01*
X63805155Y-76580713D01*
X64461963Y-76581286D01*
X65068995Y-76330466D01*
X65533834Y-75866437D01*
X65573308Y-75771373D01*
X65824519Y-75603519D01*
X66815538Y-74612500D01*
X67833007Y-74612500D01*
X68150132Y-74930179D01*
X68150132Y-74930179D01*
G37*
X68150132Y-74930179D02*
X67816166Y-75263563D01*
X67564287Y-75870155D01*
X67563734Y-76504228D01*
X65747481Y-78320481D01*
X65541005Y-78629494D01*
X65468500Y-78994000D01*
X65468500Y-82282462D01*
X64883462Y-82867500D01*
X62887269Y-82867500D01*
X62495421Y-82474968D01*
X61912159Y-82232776D01*
X61280612Y-82232225D01*
X60696928Y-82473398D01*
X60302138Y-82867500D01*
X60211538Y-82867500D01*
X59220519Y-81876481D01*
X58911506Y-81670005D01*
X58547000Y-81597500D01*
X58178440Y-81597500D01*
X58178440Y-81534000D01*
X58131463Y-81291877D01*
X57991673Y-81079073D01*
X57799531Y-80949375D01*
X57947622Y-80893880D01*
X58176816Y-80278358D01*
X58161578Y-79858159D01*
X60656446Y-79858159D01*
X60749288Y-80120088D01*
X61341801Y-80338675D01*
X61972861Y-80313878D01*
X62440712Y-80120088D01*
X62533554Y-79858159D01*
X61595000Y-78919605D01*
X60656446Y-79858159D01*
X58161578Y-79858159D01*
X58153014Y-79621981D01*
X57947622Y-79126120D01*
X57679107Y-79025498D01*
X56694605Y-80010000D01*
X56708748Y-80024143D01*
X56529143Y-80203748D01*
X56515000Y-80189605D01*
X56500858Y-80203748D01*
X56321253Y-80024143D01*
X56335395Y-80010000D01*
X55350893Y-79025498D01*
X55082378Y-79126120D01*
X54853184Y-79741642D01*
X54876986Y-80398019D01*
X55082378Y-80893880D01*
X55231932Y-80949923D01*
X55044073Y-81073327D01*
X54901623Y-81284360D01*
X54887721Y-81353682D01*
X52870519Y-79336481D01*
X52697120Y-79220619D01*
X52697120Y-78845893D01*
X55530498Y-78845893D01*
X56515000Y-79830395D01*
X57499502Y-78845893D01*
X57398880Y-78577378D01*
X57155627Y-78486801D01*
X59996325Y-78486801D01*
X60021122Y-79117861D01*
X60214912Y-79585712D01*
X60476841Y-79678554D01*
X61415395Y-78740000D01*
X61774605Y-78740000D01*
X62713159Y-79678554D01*
X62975088Y-79585712D01*
X63193675Y-78993199D01*
X63168878Y-78362139D01*
X62975088Y-77894288D01*
X62713159Y-77801446D01*
X61774605Y-78740000D01*
X61415395Y-78740000D01*
X61415395Y-78740000D01*
X60476841Y-77801446D01*
X60214912Y-77894288D01*
X59996325Y-78486801D01*
X57155627Y-78486801D01*
X56783358Y-78348184D01*
X56126981Y-78371986D01*
X55631120Y-78577378D01*
X55530498Y-78845893D01*
X52697120Y-78845893D01*
X52697120Y-78760320D01*
X52650143Y-78518197D01*
X52510353Y-78305393D01*
X52299320Y-78162943D01*
X52049680Y-78112880D01*
X51752500Y-78112880D01*
X51752500Y-77621841D01*
X60656446Y-77621841D01*
X61595000Y-78560395D01*
X62533554Y-77621841D01*
X62440712Y-77359912D01*
X61848199Y-77141325D01*
X61217139Y-77166122D01*
X60749288Y-77359912D01*
X60656446Y-77621841D01*
X51752500Y-77621841D01*
X51752500Y-76284521D01*
X51943778Y-76570789D01*
X52405238Y-76879126D01*
X52949567Y-76987400D01*
X53730433Y-76987400D01*
X54274762Y-76879126D01*
X54736222Y-76570789D01*
X54771828Y-76517500D01*
X58420000Y-76517500D01*
X58523392Y-76496934D01*
X58725155Y-76580713D01*
X59381963Y-76581286D01*
X59988995Y-76330466D01*
X60325179Y-75994868D01*
X60658563Y-76328834D01*
X61265155Y-76580713D01*
X61921963Y-76581286D01*
X62528995Y-76330466D01*
X62865179Y-75994868D01*
X63198563Y-76328834D01*
X63805155Y-76580713D01*
X64461963Y-76581286D01*
X65068995Y-76330466D01*
X65533834Y-75866437D01*
X65573308Y-75771373D01*
X65824519Y-75603519D01*
X66815538Y-74612500D01*
X67833007Y-74612500D01*
X68150132Y-74930179D01*
G36*
X77168563Y-64263834D02*
X77775155Y-64515713D01*
X78431963Y-64516286D01*
X79038995Y-64265466D01*
X79487743Y-63817500D01*
X82409462Y-63817500D01*
X84391500Y-65799539D01*
X84391500Y-68262500D01*
X83931993Y-68262500D01*
X83614868Y-67944821D01*
X83948834Y-67611437D01*
X84200713Y-67004845D01*
X84201286Y-66348037D01*
X83950466Y-65741005D01*
X83486437Y-65276166D01*
X82879845Y-65024287D01*
X82223037Y-65023714D01*
X81616005Y-65274534D01*
X81167257Y-65722500D01*
X77492269Y-65722500D01*
X77100421Y-65329968D01*
X76517159Y-65087776D01*
X75885612Y-65087225D01*
X75301928Y-65328398D01*
X74854968Y-65774579D01*
X74612776Y-66357841D01*
X74612225Y-66989388D01*
X74853398Y-67573072D01*
X75224935Y-67945257D01*
X75184947Y-67985175D01*
X75150827Y-67902801D01*
X74972198Y-67724173D01*
X74738809Y-67627500D01*
X73945750Y-67627500D01*
X73787000Y-67786250D01*
X73787000Y-69088000D01*
X73807000Y-69088000D01*
X73807000Y-69342000D01*
X73787000Y-69342000D01*
X73787000Y-69362000D01*
X73533000Y-69362000D01*
X73533000Y-69342000D01*
X73513000Y-69342000D01*
X73513000Y-69088000D01*
X73533000Y-69088000D01*
X73533000Y-67786250D01*
X73374250Y-67627500D01*
X72706489Y-67627500D01*
X72466602Y-67046928D01*
X72020421Y-66599968D01*
X71437159Y-66357776D01*
X71120812Y-66357500D01*
X71755000Y-66357500D01*
X72119506Y-66284995D01*
X72428519Y-66078519D01*
X74689539Y-63817500D01*
X76723007Y-63817500D01*
X77168563Y-64263834D01*
X77168563Y-64263834D01*
G37*
X77168563Y-64263834D02*
X77775155Y-64515713D01*
X78431963Y-64516286D01*
X79038995Y-64265466D01*
X79487743Y-63817500D01*
X82409462Y-63817500D01*
X84391500Y-65799539D01*
X84391500Y-68262500D01*
X83931993Y-68262500D01*
X83614868Y-67944821D01*
X83948834Y-67611437D01*
X84200713Y-67004845D01*
X84201286Y-66348037D01*
X83950466Y-65741005D01*
X83486437Y-65276166D01*
X82879845Y-65024287D01*
X82223037Y-65023714D01*
X81616005Y-65274534D01*
X81167257Y-65722500D01*
X77492269Y-65722500D01*
X77100421Y-65329968D01*
X76517159Y-65087776D01*
X75885612Y-65087225D01*
X75301928Y-65328398D01*
X74854968Y-65774579D01*
X74612776Y-66357841D01*
X74612225Y-66989388D01*
X74853398Y-67573072D01*
X75224935Y-67945257D01*
X75184947Y-67985175D01*
X75150827Y-67902801D01*
X74972198Y-67724173D01*
X74738809Y-67627500D01*
X73945750Y-67627500D01*
X73787000Y-67786250D01*
X73787000Y-69088000D01*
X73807000Y-69088000D01*
X73807000Y-69342000D01*
X73787000Y-69342000D01*
X73787000Y-69362000D01*
X73533000Y-69362000D01*
X73533000Y-69342000D01*
X73513000Y-69342000D01*
X73513000Y-69088000D01*
X73533000Y-69088000D01*
X73533000Y-67786250D01*
X73374250Y-67627500D01*
X72706489Y-67627500D01*
X72466602Y-67046928D01*
X72020421Y-66599968D01*
X71437159Y-66357776D01*
X71120812Y-66357500D01*
X71755000Y-66357500D01*
X72119506Y-66284995D01*
X72428519Y-66078519D01*
X74689539Y-63817500D01*
X76723007Y-63817500D01*
X77168563Y-64263834D01*
M02*
