G04 #@! TF.GenerationSoftware,KiCad,Pcbnew,(5.1.12)-1*
G04 #@! TF.CreationDate,2022-05-10T20:13:37+01:00*
G04 #@! TF.ProjectId,TV_B_Gone_ML_v1_3,54565f42-5f47-46f6-9e65-5f4d4c5f7631,rev?*
G04 #@! TF.SameCoordinates,Original*
G04 #@! TF.FileFunction,Copper,L2,Bot*
G04 #@! TF.FilePolarity,Positive*
%FSLAX46Y46*%
G04 Gerber Fmt 4.6, Leading zero omitted, Abs format (unit mm)*
G04 Created by KiCad (PCBNEW (5.1.12)-1) date 2022-05-10 20:13:37*
%MOMM*%
%LPD*%
G01*
G04 APERTURE LIST*
G04 #@! TA.AperFunction,ComponentPad*
%ADD10C,2.032000*%
G04 #@! TD*
G04 #@! TA.AperFunction,ComponentPad*
%ADD11R,2.032000X2.032000*%
G04 #@! TD*
G04 #@! TA.AperFunction,ComponentPad*
%ADD12R,2.286000X1.574800*%
G04 #@! TD*
G04 #@! TA.AperFunction,ComponentPad*
%ADD13O,2.286000X1.574800*%
G04 #@! TD*
G04 #@! TA.AperFunction,ComponentPad*
%ADD14C,1.600200*%
G04 #@! TD*
G04 #@! TA.AperFunction,ComponentPad*
%ADD15R,1.600200X1.600200*%
G04 #@! TD*
G04 #@! TA.AperFunction,ComponentPad*
%ADD16C,1.905000*%
G04 #@! TD*
G04 #@! TA.AperFunction,ComponentPad*
%ADD17R,1.905000X1.905000*%
G04 #@! TD*
G04 #@! TA.AperFunction,ComponentPad*
%ADD18C,2.199640*%
G04 #@! TD*
G04 #@! TA.AperFunction,ViaPad*
%ADD19C,0.889000*%
G04 #@! TD*
G04 #@! TA.AperFunction,Conductor*
%ADD20C,0.635000*%
G04 #@! TD*
G04 #@! TA.AperFunction,Conductor*
%ADD21C,1.000000*%
G04 #@! TD*
G04 #@! TA.AperFunction,Conductor*
%ADD22C,0.254000*%
G04 #@! TD*
G04 #@! TA.AperFunction,Conductor*
%ADD23C,0.150000*%
G04 #@! TD*
G04 APERTURE END LIST*
D10*
X41910000Y-67945000D03*
X41910000Y-70485000D03*
D11*
X41910000Y-73025000D03*
D10*
X54610000Y-59690000D03*
X54610000Y-64770000D03*
X46990000Y-59690000D03*
X46990000Y-64770000D03*
X59055000Y-74930000D03*
X59055000Y-67310000D03*
X61595000Y-67310000D03*
X61595000Y-74930000D03*
X56896000Y-61595000D03*
X56896000Y-69215000D03*
X64135000Y-74930000D03*
X64135000Y-67310000D03*
D12*
X45720000Y-67945000D03*
D13*
X45720000Y-70485000D03*
X45720000Y-73025000D03*
X45720000Y-75565000D03*
X53340000Y-75565000D03*
X53340000Y-73025000D03*
X53340000Y-70485000D03*
X53340000Y-67945000D03*
D14*
X65405000Y-59690000D03*
X65405000Y-62230000D03*
X62865000Y-59690000D03*
X62865000Y-62230000D03*
X60325000Y-59690000D03*
D15*
X60325000Y-62230000D03*
D16*
X71755000Y-59690000D03*
X71755000Y-62230000D03*
D17*
X69215000Y-62230000D03*
D16*
X76200000Y-66675000D03*
X76200000Y-69215000D03*
D17*
X73660000Y-69215000D03*
D16*
X76200000Y-73660000D03*
X76200000Y-76200000D03*
D17*
X73660000Y-76200000D03*
D16*
X71120000Y-80645000D03*
X71120000Y-83185000D03*
D17*
X68580000Y-83185000D03*
X68580000Y-70485000D03*
D16*
X71120000Y-67945000D03*
X68580000Y-67945000D03*
D10*
X69215000Y-73660000D03*
X69215000Y-76200000D03*
X78105000Y-80645000D03*
X78105000Y-83185000D03*
X82550000Y-74295000D03*
X82550000Y-76835000D03*
X82550000Y-66675000D03*
X82550000Y-69215000D03*
X78105000Y-60325000D03*
X78105000Y-62865000D03*
D11*
X56515000Y-82550000D03*
D10*
X56515000Y-80010000D03*
D16*
X61595000Y-78740000D03*
X61595000Y-83820000D03*
D11*
X47625000Y-79375000D03*
D10*
X47625000Y-84455000D03*
D18*
X45085000Y-79375000D03*
X45085000Y-84455000D03*
D19*
X64516000Y-70485000D03*
D20*
X65405000Y-59690000D02*
X65405000Y-58166000D01*
X65405000Y-58166000D02*
X65405000Y-58293000D01*
X65405000Y-58293000D02*
X65405000Y-58166000D01*
X46990000Y-59690000D02*
X54610000Y-59690000D01*
X56896000Y-61595000D02*
X56896000Y-60071000D01*
X56896000Y-60071000D02*
X58801000Y-58166000D01*
X58801000Y-58166000D02*
X65405000Y-58166000D01*
X67056000Y-58166000D02*
X68580000Y-59690000D01*
X65405000Y-58166000D02*
X67056000Y-58166000D01*
X43053000Y-70485000D02*
X43815000Y-71247000D01*
X41910000Y-70485000D02*
X43053000Y-70485000D01*
X69215000Y-62230000D02*
X69215000Y-60325000D01*
X69215000Y-60325000D02*
X68580000Y-59690000D01*
X43815000Y-73025000D02*
X43815000Y-74930000D01*
X43815000Y-71247000D02*
X43815000Y-73025000D01*
X44450000Y-75565000D02*
X45720000Y-75565000D01*
X43815000Y-74930000D02*
X44450000Y-75565000D01*
X56515000Y-85725000D02*
X56515000Y-85471000D01*
X56515000Y-85471000D02*
X56515000Y-85725000D01*
X61595000Y-83820000D02*
X61595000Y-85725000D01*
X61595000Y-85725000D02*
X61595000Y-85471000D01*
X61595000Y-85471000D02*
X61595000Y-85725000D01*
X66421000Y-83312000D02*
X66421000Y-85725000D01*
X66548000Y-85471000D02*
X66548000Y-85725000D01*
X66548000Y-85598000D02*
X66548000Y-85471000D01*
X66421000Y-85725000D02*
X66548000Y-85598000D01*
X56515000Y-85725000D02*
X61595000Y-85725000D01*
X61595000Y-85725000D02*
X66548000Y-85725000D01*
X66548000Y-85725000D02*
X77216000Y-85725000D01*
X66421000Y-83820000D02*
X66421000Y-83820000D01*
X66421000Y-82423000D02*
X66421000Y-83312000D01*
X66421000Y-83312000D02*
X66421000Y-83820000D01*
X66421000Y-82423000D02*
X66421000Y-78994000D01*
X53340000Y-67945000D02*
X54991000Y-67945000D01*
X58674000Y-60325000D02*
X59309000Y-59690000D01*
X58674000Y-62865000D02*
X58674000Y-60325000D01*
X56896000Y-64643000D02*
X58674000Y-62865000D01*
X56896000Y-66040000D02*
X56896000Y-64643000D01*
X54991000Y-67945000D02*
X56896000Y-66040000D01*
X60325000Y-59690000D02*
X59309000Y-59690000D01*
X54356000Y-67945000D02*
X53340000Y-67945000D01*
X55372000Y-85725000D02*
X56515000Y-85725000D01*
X53848000Y-84201000D02*
X55372000Y-85725000D01*
X53848000Y-81534000D02*
X53848000Y-84201000D01*
X50800000Y-69215000D02*
X50800000Y-78486000D01*
X50800000Y-78486000D02*
X53848000Y-81534000D01*
X49911000Y-79375000D02*
X50800000Y-78486000D01*
X47625000Y-79375000D02*
X49911000Y-79375000D01*
D21*
X47625000Y-79375000D02*
X50419000Y-79375000D01*
X50800000Y-78994000D02*
X50800000Y-69215000D01*
X50419000Y-79375000D02*
X50800000Y-78994000D01*
X52070000Y-67945000D02*
X50800000Y-69215000D01*
X53340000Y-67945000D02*
X52070000Y-67945000D01*
X50800000Y-78994000D02*
X50800000Y-79121000D01*
X50800000Y-79121000D02*
X53467000Y-81788000D01*
X53467000Y-83820000D02*
X55372000Y-85725000D01*
X53467000Y-81788000D02*
X53467000Y-83820000D01*
X77216000Y-85725000D02*
X78105000Y-84836000D01*
X55372000Y-85725000D02*
X77216000Y-85725000D01*
X78105000Y-84836000D02*
X78105000Y-83185000D01*
X66421000Y-78994000D02*
X69215000Y-76200000D01*
X66421000Y-85725000D02*
X66421000Y-78994000D01*
X56515000Y-85725000D02*
X56515000Y-82550000D01*
X68580000Y-66421000D02*
X69596000Y-65405000D01*
X68580000Y-67945000D02*
X68580000Y-66421000D01*
X71755000Y-65405000D02*
X73914000Y-63246000D01*
X69596000Y-65405000D02*
X71755000Y-65405000D01*
X77724000Y-63246000D02*
X78105000Y-62865000D01*
X73914000Y-63246000D02*
X77724000Y-63246000D01*
D20*
X71755000Y-59690000D02*
X74930000Y-59690000D01*
X75565000Y-60325000D02*
X78105000Y-60325000D01*
X74930000Y-59690000D02*
X75565000Y-60325000D01*
X82550000Y-66675000D02*
X76200000Y-66675000D01*
X76200000Y-73660000D02*
X78994000Y-73660000D01*
X78994000Y-73660000D02*
X79629000Y-74295000D01*
X82550000Y-74295000D02*
X79629000Y-74295000D01*
X78105000Y-80645000D02*
X71120000Y-80645000D01*
X64135000Y-74930000D02*
X66040000Y-74930000D01*
X66040000Y-74930000D02*
X67310000Y-73660000D01*
X64135000Y-74930000D02*
X65151000Y-74930000D01*
X67310000Y-73660000D02*
X69215000Y-73660000D01*
X46990000Y-64770000D02*
X54610000Y-64770000D01*
X53340000Y-75565000D02*
X55753000Y-75565000D01*
X56388000Y-74930000D02*
X59055000Y-74930000D01*
X55753000Y-75565000D02*
X56388000Y-74930000D01*
X64135000Y-67310000D02*
X64135000Y-65278000D01*
X62865000Y-64008000D02*
X62865000Y-62230000D01*
X64135000Y-65278000D02*
X62865000Y-64008000D01*
X56896000Y-69215000D02*
X56896000Y-70612000D01*
X56896000Y-70612000D02*
X58674000Y-72390000D01*
X63627000Y-72390000D02*
X65278000Y-72390000D01*
X67183000Y-70485000D02*
X68580000Y-70485000D01*
X65278000Y-72390000D02*
X67183000Y-70485000D01*
X68580000Y-70485000D02*
X70485000Y-70485000D01*
X70485000Y-70485000D02*
X71247000Y-71247000D01*
X71247000Y-71247000D02*
X75311000Y-71247000D01*
X75311000Y-71247000D02*
X76200000Y-70358000D01*
X76200000Y-70358000D02*
X76200000Y-69215000D01*
X58674000Y-72390000D02*
X63627000Y-72390000D01*
X71755000Y-62230000D02*
X71755000Y-62865000D01*
X59055000Y-69850000D02*
X59055000Y-67310000D01*
X59690000Y-70485000D02*
X59055000Y-69850000D01*
X64516000Y-70485000D02*
X59690000Y-70485000D01*
D22*
X87374425Y-56152304D02*
X87593910Y-56185612D01*
X87804941Y-56239588D01*
X88006962Y-56313293D01*
X88199207Y-56405646D01*
X88380505Y-56515522D01*
X88549842Y-56642028D01*
X88706073Y-56783925D01*
X88847965Y-56940151D01*
X88974480Y-57109498D01*
X89084353Y-57290792D01*
X89176704Y-57483032D01*
X89250407Y-57685050D01*
X89304387Y-57896096D01*
X89337694Y-58115572D01*
X89350000Y-58360115D01*
X89350001Y-85549861D01*
X89337694Y-85794424D01*
X89304387Y-86013900D01*
X89250407Y-86224946D01*
X89176704Y-86426964D01*
X89084353Y-86619204D01*
X88974480Y-86800498D01*
X88847965Y-86969845D01*
X88706073Y-87126071D01*
X88549842Y-87267968D01*
X88380505Y-87394474D01*
X88199111Y-87504408D01*
X88006968Y-87596789D01*
X87805054Y-87670379D01*
X87593910Y-87724384D01*
X87374425Y-87757692D01*
X87129884Y-87769998D01*
X37940117Y-87769998D01*
X37695574Y-87757692D01*
X37476098Y-87724385D01*
X37264944Y-87670378D01*
X37063030Y-87596786D01*
X36870827Y-87504394D01*
X36689475Y-87394482D01*
X36520142Y-87267977D01*
X36363898Y-87126055D01*
X36221991Y-86969847D01*
X36095519Y-86800506D01*
X35985573Y-86619154D01*
X35893266Y-86427024D01*
X35819600Y-86224962D01*
X35765561Y-86013831D01*
X35732262Y-85794460D01*
X35719990Y-85549931D01*
X35719990Y-84234872D01*
X37299997Y-84234872D01*
X37299997Y-84675128D01*
X37385887Y-85106925D01*
X37554366Y-85513669D01*
X37798959Y-85879729D01*
X38110268Y-86191038D01*
X38476328Y-86435631D01*
X38883072Y-86604110D01*
X39314869Y-86690000D01*
X39755125Y-86690000D01*
X40186922Y-86604110D01*
X40593666Y-86435631D01*
X40959726Y-86191038D01*
X41271035Y-85879729D01*
X41515628Y-85513669D01*
X41684107Y-85106925D01*
X41769997Y-84675128D01*
X41769997Y-84284135D01*
X43350180Y-84284135D01*
X43350180Y-84625865D01*
X43416848Y-84961028D01*
X43547623Y-85276745D01*
X43737477Y-85560883D01*
X43979117Y-85802523D01*
X44263255Y-85992377D01*
X44578972Y-86123152D01*
X44914135Y-86189820D01*
X45255865Y-86189820D01*
X45591028Y-86123152D01*
X45906745Y-85992377D01*
X46190883Y-85802523D01*
X46391583Y-85601823D01*
X46657782Y-85601823D01*
X46755478Y-85867860D01*
X47047821Y-86010348D01*
X47362344Y-86093064D01*
X47686962Y-86112831D01*
X48009198Y-86068888D01*
X48316670Y-85962924D01*
X48494522Y-85867860D01*
X48592218Y-85601823D01*
X47625000Y-84634605D01*
X46657782Y-85601823D01*
X46391583Y-85601823D01*
X46432523Y-85560883D01*
X46619814Y-85280581D01*
X47445395Y-84455000D01*
X47804605Y-84455000D01*
X48771823Y-85422218D01*
X49037860Y-85324522D01*
X49180348Y-85032179D01*
X49263064Y-84717656D01*
X49282831Y-84393038D01*
X49238888Y-84070802D01*
X49132924Y-83763330D01*
X49037860Y-83585478D01*
X48771823Y-83487782D01*
X47804605Y-84455000D01*
X47445395Y-84455000D01*
X46619814Y-83629419D01*
X46432523Y-83349117D01*
X46391583Y-83308177D01*
X46657782Y-83308177D01*
X47625000Y-84275395D01*
X48592218Y-83308177D01*
X48494522Y-83042140D01*
X48202179Y-82899652D01*
X47887656Y-82816936D01*
X47563038Y-82797169D01*
X47240802Y-82841112D01*
X46933330Y-82947076D01*
X46755478Y-83042140D01*
X46657782Y-83308177D01*
X46391583Y-83308177D01*
X46190883Y-83107477D01*
X45906745Y-82917623D01*
X45591028Y-82786848D01*
X45255865Y-82720180D01*
X44914135Y-82720180D01*
X44578972Y-82786848D01*
X44263255Y-82917623D01*
X43979117Y-83107477D01*
X43737477Y-83349117D01*
X43547623Y-83633255D01*
X43416848Y-83948972D01*
X43350180Y-84284135D01*
X41769997Y-84284135D01*
X41769997Y-84234872D01*
X41684107Y-83803075D01*
X41515628Y-83396331D01*
X41271035Y-83030271D01*
X40959726Y-82718962D01*
X40593666Y-82474369D01*
X40186922Y-82305890D01*
X39755125Y-82220000D01*
X39314869Y-82220000D01*
X38883072Y-82305890D01*
X38476328Y-82474369D01*
X38110268Y-82718962D01*
X37798959Y-83030271D01*
X37554366Y-83396331D01*
X37385887Y-83803075D01*
X37299997Y-84234872D01*
X35719990Y-84234872D01*
X35719990Y-79204135D01*
X43350180Y-79204135D01*
X43350180Y-79545865D01*
X43416848Y-79881028D01*
X43547623Y-80196745D01*
X43737477Y-80480883D01*
X43979117Y-80722523D01*
X44263255Y-80912377D01*
X44578972Y-81043152D01*
X44914135Y-81109820D01*
X45255865Y-81109820D01*
X45591028Y-81043152D01*
X45906745Y-80912377D01*
X46106102Y-80779172D01*
X46157815Y-80842185D01*
X46254506Y-80921537D01*
X46364820Y-80980502D01*
X46484518Y-81016812D01*
X46609000Y-81029072D01*
X48641000Y-81029072D01*
X48765482Y-81016812D01*
X48885180Y-80980502D01*
X48995494Y-80921537D01*
X49092185Y-80842185D01*
X49171537Y-80745494D01*
X49230502Y-80635180D01*
X49266812Y-80515482D01*
X49267352Y-80510000D01*
X50363249Y-80510000D01*
X50419000Y-80515491D01*
X50474751Y-80510000D01*
X50474752Y-80510000D01*
X50574085Y-80500217D01*
X52332000Y-82258133D01*
X52332001Y-83764239D01*
X52326509Y-83820000D01*
X52348423Y-84042498D01*
X52413324Y-84256446D01*
X52427548Y-84283057D01*
X52518717Y-84453623D01*
X52660552Y-84626449D01*
X52703860Y-84661991D01*
X54530009Y-86488141D01*
X54565551Y-86531449D01*
X54738377Y-86673284D01*
X54935553Y-86778676D01*
X55149501Y-86843577D01*
X55291363Y-86857549D01*
X55372000Y-86865491D01*
X55427752Y-86860000D01*
X56459248Y-86860000D01*
X56515000Y-86865491D01*
X56570751Y-86860000D01*
X66365248Y-86860000D01*
X66421000Y-86865491D01*
X66476751Y-86860000D01*
X77160249Y-86860000D01*
X77216000Y-86865491D01*
X77271751Y-86860000D01*
X77271752Y-86860000D01*
X77438499Y-86843577D01*
X77652447Y-86778676D01*
X77849623Y-86673284D01*
X78022449Y-86531449D01*
X78057995Y-86488136D01*
X78868140Y-85677992D01*
X78911449Y-85642449D01*
X79053284Y-85469623D01*
X79158676Y-85272447D01*
X79223577Y-85058499D01*
X79240000Y-84891752D01*
X79240000Y-84891751D01*
X79245491Y-84836000D01*
X79240000Y-84780248D01*
X79240000Y-84384866D01*
X79387415Y-84237451D01*
X79389138Y-84234872D01*
X83299997Y-84234872D01*
X83299997Y-84675128D01*
X83385887Y-85106925D01*
X83554366Y-85513669D01*
X83798959Y-85879729D01*
X84110268Y-86191038D01*
X84476328Y-86435631D01*
X84883072Y-86604110D01*
X85314869Y-86690000D01*
X85755125Y-86690000D01*
X86186922Y-86604110D01*
X86593666Y-86435631D01*
X86959726Y-86191038D01*
X87271035Y-85879729D01*
X87515628Y-85513669D01*
X87684107Y-85106925D01*
X87769997Y-84675128D01*
X87769997Y-84234872D01*
X87684107Y-83803075D01*
X87515628Y-83396331D01*
X87271035Y-83030271D01*
X86959726Y-82718962D01*
X86593666Y-82474369D01*
X86186922Y-82305890D01*
X85755125Y-82220000D01*
X85314869Y-82220000D01*
X84883072Y-82305890D01*
X84476328Y-82474369D01*
X84110268Y-82718962D01*
X83798959Y-83030271D01*
X83554366Y-83396331D01*
X83385887Y-83803075D01*
X83299997Y-84234872D01*
X79389138Y-84234872D01*
X79568097Y-83967042D01*
X79692553Y-83666579D01*
X79756000Y-83347609D01*
X79756000Y-83022391D01*
X79692553Y-82703421D01*
X79568097Y-82402958D01*
X79387415Y-82132549D01*
X79169866Y-81915000D01*
X79387415Y-81697451D01*
X79568097Y-81427042D01*
X79692553Y-81126579D01*
X79756000Y-80807609D01*
X79756000Y-80482391D01*
X79692553Y-80163421D01*
X79568097Y-79862958D01*
X79387415Y-79592549D01*
X79157451Y-79362585D01*
X78887042Y-79181903D01*
X78586579Y-79057447D01*
X78267609Y-78994000D01*
X77942391Y-78994000D01*
X77623421Y-79057447D01*
X77322958Y-79181903D01*
X77052549Y-79362585D01*
X76822585Y-79592549D01*
X76755800Y-79692500D01*
X72392830Y-79692500D01*
X72353092Y-79633028D01*
X72131972Y-79411908D01*
X71871963Y-79238176D01*
X71583057Y-79118507D01*
X71276355Y-79057500D01*
X70963645Y-79057500D01*
X70656943Y-79118507D01*
X70368037Y-79238176D01*
X70108028Y-79411908D01*
X69886908Y-79633028D01*
X69713176Y-79893037D01*
X69593507Y-80181943D01*
X69532500Y-80488645D01*
X69532500Y-80801355D01*
X69593507Y-81108057D01*
X69713176Y-81396963D01*
X69886908Y-81656972D01*
X70108028Y-81878092D01*
X70163265Y-81915000D01*
X70108028Y-81951908D01*
X70104451Y-81955485D01*
X70063037Y-81878006D01*
X69983685Y-81781315D01*
X69886994Y-81701963D01*
X69776680Y-81642998D01*
X69656982Y-81606688D01*
X69532500Y-81594428D01*
X68865750Y-81597500D01*
X68707000Y-81756250D01*
X68707000Y-83058000D01*
X68727000Y-83058000D01*
X68727000Y-83312000D01*
X68707000Y-83312000D01*
X68707000Y-83332000D01*
X68453000Y-83332000D01*
X68453000Y-83312000D01*
X68433000Y-83312000D01*
X68433000Y-83058000D01*
X68453000Y-83058000D01*
X68453000Y-81756250D01*
X68294250Y-81597500D01*
X67627500Y-81594428D01*
X67556000Y-81601470D01*
X67556000Y-79464131D01*
X69169132Y-77851000D01*
X69377609Y-77851000D01*
X69696579Y-77787553D01*
X69997042Y-77663097D01*
X70267451Y-77482415D01*
X70497415Y-77252451D01*
X70564200Y-77152500D01*
X72069428Y-77152500D01*
X72081688Y-77276982D01*
X72117998Y-77396680D01*
X72176963Y-77506994D01*
X72256315Y-77603685D01*
X72353006Y-77683037D01*
X72463320Y-77742002D01*
X72583018Y-77778312D01*
X72707500Y-77790572D01*
X73374250Y-77787500D01*
X73533000Y-77628750D01*
X73533000Y-76327000D01*
X72231250Y-76327000D01*
X72072500Y-76485750D01*
X72069428Y-77152500D01*
X70564200Y-77152500D01*
X70678097Y-76982042D01*
X70802553Y-76681579D01*
X70866000Y-76362609D01*
X70866000Y-76037391D01*
X70802553Y-75718421D01*
X70678097Y-75417958D01*
X70564201Y-75247500D01*
X72069428Y-75247500D01*
X72072500Y-75914250D01*
X72231250Y-76073000D01*
X73533000Y-76073000D01*
X73533000Y-74771250D01*
X73787000Y-74771250D01*
X73787000Y-76073000D01*
X73807000Y-76073000D01*
X73807000Y-76327000D01*
X73787000Y-76327000D01*
X73787000Y-77628750D01*
X73945750Y-77787500D01*
X74612500Y-77790572D01*
X74736982Y-77778312D01*
X74856680Y-77742002D01*
X74966994Y-77683037D01*
X75063685Y-77603685D01*
X75143037Y-77506994D01*
X75184451Y-77429515D01*
X75188028Y-77433092D01*
X75448037Y-77606824D01*
X75736943Y-77726493D01*
X76043645Y-77787500D01*
X76356355Y-77787500D01*
X76663057Y-77726493D01*
X76951963Y-77606824D01*
X77211972Y-77433092D01*
X77433092Y-77211972D01*
X77606824Y-76951963D01*
X77726493Y-76663057D01*
X77787500Y-76356355D01*
X77787500Y-76043645D01*
X77726493Y-75736943D01*
X77606824Y-75448037D01*
X77433092Y-75188028D01*
X77211972Y-74966908D01*
X77156735Y-74930000D01*
X77211972Y-74893092D01*
X77433092Y-74671972D01*
X77472830Y-74612500D01*
X78599462Y-74612500D01*
X78922389Y-74935426D01*
X78952222Y-74971778D01*
X79097259Y-75090806D01*
X79145745Y-75116722D01*
X79262730Y-75179252D01*
X79286601Y-75186493D01*
X79442277Y-75233717D01*
X79582215Y-75247500D01*
X79629000Y-75252108D01*
X79675785Y-75247500D01*
X81200800Y-75247500D01*
X81267585Y-75347451D01*
X81485134Y-75565000D01*
X81267585Y-75782549D01*
X81086903Y-76052958D01*
X80962447Y-76353421D01*
X80899000Y-76672391D01*
X80899000Y-76997609D01*
X80962447Y-77316579D01*
X81086903Y-77617042D01*
X81267585Y-77887451D01*
X81497549Y-78117415D01*
X81767958Y-78298097D01*
X82068421Y-78422553D01*
X82387391Y-78486000D01*
X82712609Y-78486000D01*
X83031579Y-78422553D01*
X83332042Y-78298097D01*
X83602451Y-78117415D01*
X83832415Y-77887451D01*
X84013097Y-77617042D01*
X84137553Y-77316579D01*
X84201000Y-76997609D01*
X84201000Y-76672391D01*
X84137553Y-76353421D01*
X84013097Y-76052958D01*
X83832415Y-75782549D01*
X83614866Y-75565000D01*
X83832415Y-75347451D01*
X84013097Y-75077042D01*
X84137553Y-74776579D01*
X84201000Y-74457609D01*
X84201000Y-74132391D01*
X84137553Y-73813421D01*
X84013097Y-73512958D01*
X83832415Y-73242549D01*
X83602451Y-73012585D01*
X83332042Y-72831903D01*
X83031579Y-72707447D01*
X82712609Y-72644000D01*
X82387391Y-72644000D01*
X82068421Y-72707447D01*
X81767958Y-72831903D01*
X81497549Y-73012585D01*
X81267585Y-73242549D01*
X81200800Y-73342500D01*
X80023537Y-73342500D01*
X79700608Y-73019570D01*
X79670778Y-72983222D01*
X79525741Y-72864194D01*
X79360269Y-72775748D01*
X79180723Y-72721283D01*
X79040785Y-72707500D01*
X78994000Y-72702892D01*
X78947215Y-72707500D01*
X77472830Y-72707500D01*
X77433092Y-72648028D01*
X77211972Y-72426908D01*
X76951963Y-72253176D01*
X76663057Y-72133507D01*
X76356355Y-72072500D01*
X76043645Y-72072500D01*
X75736943Y-72133507D01*
X75448037Y-72253176D01*
X75188028Y-72426908D01*
X74966908Y-72648028D01*
X74793176Y-72908037D01*
X74673507Y-73196943D01*
X74612500Y-73503645D01*
X74612500Y-73816355D01*
X74673507Y-74123057D01*
X74793176Y-74411963D01*
X74966908Y-74671972D01*
X75188028Y-74893092D01*
X75243265Y-74930000D01*
X75188028Y-74966908D01*
X75184451Y-74970485D01*
X75143037Y-74893006D01*
X75063685Y-74796315D01*
X74966994Y-74716963D01*
X74856680Y-74657998D01*
X74736982Y-74621688D01*
X74612500Y-74609428D01*
X73945750Y-74612500D01*
X73787000Y-74771250D01*
X73533000Y-74771250D01*
X73374250Y-74612500D01*
X72707500Y-74609428D01*
X72583018Y-74621688D01*
X72463320Y-74657998D01*
X72353006Y-74716963D01*
X72256315Y-74796315D01*
X72176963Y-74893006D01*
X72117998Y-75003320D01*
X72081688Y-75123018D01*
X72069428Y-75247500D01*
X70564201Y-75247500D01*
X70497415Y-75147549D01*
X70279866Y-74930000D01*
X70497415Y-74712451D01*
X70678097Y-74442042D01*
X70802553Y-74141579D01*
X70866000Y-73822609D01*
X70866000Y-73497391D01*
X70802553Y-73178421D01*
X70678097Y-72877958D01*
X70497415Y-72607549D01*
X70267451Y-72377585D01*
X69997042Y-72196903D01*
X69696579Y-72072447D01*
X69652750Y-72063729D01*
X69656982Y-72063312D01*
X69776680Y-72027002D01*
X69886994Y-71968037D01*
X69983685Y-71888685D01*
X70063037Y-71791994D01*
X70122002Y-71681680D01*
X70158312Y-71561982D01*
X70163389Y-71510428D01*
X70540397Y-71887436D01*
X70570222Y-71923778D01*
X70715259Y-72042806D01*
X70797995Y-72087029D01*
X70880730Y-72131252D01*
X70970504Y-72158485D01*
X71060277Y-72185717D01*
X71200215Y-72199500D01*
X71247000Y-72204108D01*
X71293785Y-72199500D01*
X75264215Y-72199500D01*
X75311000Y-72204108D01*
X75357785Y-72199500D01*
X75497723Y-72185717D01*
X75677269Y-72131252D01*
X75842741Y-72042806D01*
X75987778Y-71923778D01*
X76017607Y-71887431D01*
X76840436Y-71064603D01*
X76876778Y-71034778D01*
X76995806Y-70889741D01*
X77084252Y-70724269D01*
X77138717Y-70544723D01*
X77143744Y-70493680D01*
X77211972Y-70448092D01*
X77433092Y-70226972D01*
X77606824Y-69966963D01*
X77726493Y-69678057D01*
X77787500Y-69371355D01*
X77787500Y-69058645D01*
X77726493Y-68751943D01*
X77606824Y-68463037D01*
X77433092Y-68203028D01*
X77211972Y-67981908D01*
X77156735Y-67945000D01*
X77211972Y-67908092D01*
X77433092Y-67686972D01*
X77472830Y-67627500D01*
X81200800Y-67627500D01*
X81267585Y-67727451D01*
X81485134Y-67945000D01*
X81267585Y-68162549D01*
X81086903Y-68432958D01*
X80962447Y-68733421D01*
X80899000Y-69052391D01*
X80899000Y-69377609D01*
X80962447Y-69696579D01*
X81086903Y-69997042D01*
X81267585Y-70267451D01*
X81497549Y-70497415D01*
X81767958Y-70678097D01*
X82068421Y-70802553D01*
X82387391Y-70866000D01*
X82712609Y-70866000D01*
X83031579Y-70802553D01*
X83332042Y-70678097D01*
X83602451Y-70497415D01*
X83832415Y-70267451D01*
X84013097Y-69997042D01*
X84137553Y-69696579D01*
X84201000Y-69377609D01*
X84201000Y-69052391D01*
X84137553Y-68733421D01*
X84013097Y-68432958D01*
X83832415Y-68162549D01*
X83614866Y-67945000D01*
X83832415Y-67727451D01*
X84013097Y-67457042D01*
X84137553Y-67156579D01*
X84201000Y-66837609D01*
X84201000Y-66512391D01*
X84137553Y-66193421D01*
X84013097Y-65892958D01*
X83832415Y-65622549D01*
X83602451Y-65392585D01*
X83332042Y-65211903D01*
X83031579Y-65087447D01*
X82712609Y-65024000D01*
X82387391Y-65024000D01*
X82068421Y-65087447D01*
X81767958Y-65211903D01*
X81497549Y-65392585D01*
X81267585Y-65622549D01*
X81200800Y-65722500D01*
X77472830Y-65722500D01*
X77433092Y-65663028D01*
X77211972Y-65441908D01*
X76951963Y-65268176D01*
X76663057Y-65148507D01*
X76356355Y-65087500D01*
X76043645Y-65087500D01*
X75736943Y-65148507D01*
X75448037Y-65268176D01*
X75188028Y-65441908D01*
X74966908Y-65663028D01*
X74793176Y-65923037D01*
X74673507Y-66211943D01*
X74612500Y-66518645D01*
X74612500Y-66831355D01*
X74673507Y-67138057D01*
X74793176Y-67426963D01*
X74966908Y-67686972D01*
X75188028Y-67908092D01*
X75243265Y-67945000D01*
X75188028Y-67981908D01*
X75184451Y-67985485D01*
X75143037Y-67908006D01*
X75063685Y-67811315D01*
X74966994Y-67731963D01*
X74856680Y-67672998D01*
X74736982Y-67636688D01*
X74612500Y-67624428D01*
X73945750Y-67627500D01*
X73787000Y-67786250D01*
X73787000Y-69088000D01*
X73807000Y-69088000D01*
X73807000Y-69342000D01*
X73787000Y-69342000D01*
X73787000Y-69362000D01*
X73533000Y-69362000D01*
X73533000Y-69342000D01*
X73513000Y-69342000D01*
X73513000Y-69088000D01*
X73533000Y-69088000D01*
X73533000Y-67786250D01*
X73374250Y-67627500D01*
X72707500Y-67624428D01*
X72675463Y-67627583D01*
X72646493Y-67481943D01*
X72526824Y-67193037D01*
X72353092Y-66933028D01*
X72131972Y-66711908D01*
X71871963Y-66538176D01*
X71863762Y-66534779D01*
X71977499Y-66523577D01*
X72191447Y-66458676D01*
X72388623Y-66353284D01*
X72561449Y-66211449D01*
X72596996Y-66168135D01*
X74384132Y-64381000D01*
X77450677Y-64381000D01*
X77623421Y-64452553D01*
X77942391Y-64516000D01*
X78267609Y-64516000D01*
X78586579Y-64452553D01*
X78887042Y-64328097D01*
X79157451Y-64147415D01*
X79387415Y-63917451D01*
X79568097Y-63647042D01*
X79692553Y-63346579D01*
X79756000Y-63027609D01*
X79756000Y-62702391D01*
X79692553Y-62383421D01*
X79568097Y-62082958D01*
X79387415Y-61812549D01*
X79169866Y-61595000D01*
X79387415Y-61377451D01*
X79568097Y-61107042D01*
X79692553Y-60806579D01*
X79756000Y-60487609D01*
X79756000Y-60162391D01*
X79692553Y-59843421D01*
X79568097Y-59542958D01*
X79387415Y-59272549D01*
X79349738Y-59234872D01*
X83299997Y-59234872D01*
X83299997Y-59675128D01*
X83385887Y-60106925D01*
X83554366Y-60513669D01*
X83798959Y-60879729D01*
X84110268Y-61191038D01*
X84476328Y-61435631D01*
X84883072Y-61604110D01*
X85314869Y-61690000D01*
X85755125Y-61690000D01*
X86186922Y-61604110D01*
X86593666Y-61435631D01*
X86959726Y-61191038D01*
X87271035Y-60879729D01*
X87515628Y-60513669D01*
X87684107Y-60106925D01*
X87769997Y-59675128D01*
X87769997Y-59234872D01*
X87684107Y-58803075D01*
X87515628Y-58396331D01*
X87271035Y-58030271D01*
X86959726Y-57718962D01*
X86593666Y-57474369D01*
X86186922Y-57305890D01*
X85755125Y-57220000D01*
X85314869Y-57220000D01*
X84883072Y-57305890D01*
X84476328Y-57474369D01*
X84110268Y-57718962D01*
X83798959Y-58030271D01*
X83554366Y-58396331D01*
X83385887Y-58803075D01*
X83299997Y-59234872D01*
X79349738Y-59234872D01*
X79157451Y-59042585D01*
X78887042Y-58861903D01*
X78586579Y-58737447D01*
X78267609Y-58674000D01*
X77942391Y-58674000D01*
X77623421Y-58737447D01*
X77322958Y-58861903D01*
X77052549Y-59042585D01*
X76822585Y-59272549D01*
X76755800Y-59372500D01*
X75959537Y-59372500D01*
X75636608Y-59049570D01*
X75606778Y-59013222D01*
X75461741Y-58894194D01*
X75296269Y-58805748D01*
X75116723Y-58751283D01*
X74976785Y-58737500D01*
X74930000Y-58732892D01*
X74883215Y-58737500D01*
X73027830Y-58737500D01*
X72988092Y-58678028D01*
X72766972Y-58456908D01*
X72506963Y-58283176D01*
X72218057Y-58163507D01*
X71911355Y-58102500D01*
X71598645Y-58102500D01*
X71291943Y-58163507D01*
X71003037Y-58283176D01*
X70743028Y-58456908D01*
X70521908Y-58678028D01*
X70348176Y-58938037D01*
X70228507Y-59226943D01*
X70167500Y-59533645D01*
X70167500Y-59846355D01*
X70228507Y-60153057D01*
X70348176Y-60441963D01*
X70521908Y-60701972D01*
X70743028Y-60923092D01*
X70798265Y-60960000D01*
X70743028Y-60996908D01*
X70739451Y-61000485D01*
X70698037Y-60923006D01*
X70618685Y-60826315D01*
X70521994Y-60746963D01*
X70411680Y-60687998D01*
X70291982Y-60651688D01*
X70167500Y-60639428D01*
X69500750Y-60642500D01*
X69342000Y-60801250D01*
X69342000Y-62103000D01*
X69362000Y-62103000D01*
X69362000Y-62357000D01*
X69342000Y-62357000D01*
X69342000Y-63658750D01*
X69500750Y-63817500D01*
X70167500Y-63820572D01*
X70291982Y-63808312D01*
X70411680Y-63772002D01*
X70521994Y-63713037D01*
X70618685Y-63633685D01*
X70698037Y-63536994D01*
X70739451Y-63459515D01*
X70743028Y-63463092D01*
X71003037Y-63636824D01*
X71291943Y-63756493D01*
X71598645Y-63817500D01*
X71708215Y-63817500D01*
X71734755Y-63820114D01*
X71284869Y-64270000D01*
X69651751Y-64270000D01*
X69596000Y-64264509D01*
X69540248Y-64270000D01*
X69373501Y-64286423D01*
X69159553Y-64351324D01*
X68962377Y-64456716D01*
X68789551Y-64598551D01*
X68754011Y-64641857D01*
X67816860Y-65579009D01*
X67773552Y-65614551D01*
X67631717Y-65787377D01*
X67582640Y-65879194D01*
X67526324Y-65984554D01*
X67481111Y-66133600D01*
X67461423Y-66198501D01*
X67455607Y-66257549D01*
X67439509Y-66421000D01*
X67445000Y-66476751D01*
X67445000Y-66834936D01*
X67346908Y-66933028D01*
X67173176Y-67193037D01*
X67053507Y-67481943D01*
X66992500Y-67788645D01*
X66992500Y-68101355D01*
X67053507Y-68408057D01*
X67173176Y-68696963D01*
X67346908Y-68956972D01*
X67350485Y-68960549D01*
X67273006Y-69001963D01*
X67176315Y-69081315D01*
X67096963Y-69178006D01*
X67037998Y-69288320D01*
X67001688Y-69408018D01*
X66989428Y-69532500D01*
X66989428Y-69548361D01*
X66816731Y-69600748D01*
X66651259Y-69689194D01*
X66506222Y-69808222D01*
X66476397Y-69844564D01*
X65562192Y-70758769D01*
X65595500Y-70591321D01*
X65595500Y-70378679D01*
X65554015Y-70170122D01*
X65472640Y-69973665D01*
X65354502Y-69796859D01*
X65204141Y-69646498D01*
X65027335Y-69528360D01*
X64830878Y-69446985D01*
X64622321Y-69405500D01*
X64409679Y-69405500D01*
X64201122Y-69446985D01*
X64004665Y-69528360D01*
X63998469Y-69532500D01*
X60084537Y-69532500D01*
X60007500Y-69455462D01*
X60007500Y-68659200D01*
X60107451Y-68592415D01*
X60243043Y-68456823D01*
X60627782Y-68456823D01*
X60725478Y-68722860D01*
X61017821Y-68865348D01*
X61332344Y-68948064D01*
X61656962Y-68967831D01*
X61979198Y-68923888D01*
X62286670Y-68817924D01*
X62464522Y-68722860D01*
X62562218Y-68456823D01*
X61595000Y-67489605D01*
X60627782Y-68456823D01*
X60243043Y-68456823D01*
X60337415Y-68362451D01*
X60404968Y-68261351D01*
X60448177Y-68277218D01*
X61415395Y-67310000D01*
X60448177Y-66342782D01*
X60404968Y-66358649D01*
X60337415Y-66257549D01*
X60243043Y-66163177D01*
X60627782Y-66163177D01*
X61595000Y-67130395D01*
X62562218Y-66163177D01*
X62464522Y-65897140D01*
X62172179Y-65754652D01*
X61857656Y-65671936D01*
X61533038Y-65652169D01*
X61210802Y-65696112D01*
X60903330Y-65802076D01*
X60725478Y-65897140D01*
X60627782Y-66163177D01*
X60243043Y-66163177D01*
X60107451Y-66027585D01*
X59837042Y-65846903D01*
X59536579Y-65722447D01*
X59217609Y-65659000D01*
X58892391Y-65659000D01*
X58573421Y-65722447D01*
X58272958Y-65846903D01*
X58002549Y-66027585D01*
X57838137Y-66191997D01*
X57848500Y-66086785D01*
X57848500Y-66086784D01*
X57853108Y-66040000D01*
X57848500Y-65993215D01*
X57848500Y-65037538D01*
X59271412Y-63614627D01*
X59280720Y-63619602D01*
X59400418Y-63655912D01*
X59524900Y-63668172D01*
X61125100Y-63668172D01*
X61249582Y-63655912D01*
X61369280Y-63619602D01*
X61479594Y-63560637D01*
X61576285Y-63481285D01*
X61655637Y-63384594D01*
X61714602Y-63274280D01*
X61750912Y-63154582D01*
X61751731Y-63146269D01*
X61912500Y-63307038D01*
X61912500Y-63961215D01*
X61907892Y-64008000D01*
X61921624Y-64147415D01*
X61926283Y-64194722D01*
X61980748Y-64374268D01*
X62069194Y-64539741D01*
X62188222Y-64684778D01*
X62224569Y-64714607D01*
X63182501Y-65672540D01*
X63182501Y-65960799D01*
X63082549Y-66027585D01*
X62852585Y-66257549D01*
X62785032Y-66358649D01*
X62741823Y-66342782D01*
X61774605Y-67310000D01*
X62741823Y-68277218D01*
X62785032Y-68261351D01*
X62852585Y-68362451D01*
X63082549Y-68592415D01*
X63352958Y-68773097D01*
X63653421Y-68897553D01*
X63972391Y-68961000D01*
X64297609Y-68961000D01*
X64616579Y-68897553D01*
X64917042Y-68773097D01*
X65187451Y-68592415D01*
X65417415Y-68362451D01*
X65598097Y-68092042D01*
X65722553Y-67791579D01*
X65786000Y-67472609D01*
X65786000Y-67147391D01*
X65722553Y-66828421D01*
X65598097Y-66527958D01*
X65417415Y-66257549D01*
X65187451Y-66027585D01*
X65087500Y-65960800D01*
X65087500Y-65324784D01*
X65092108Y-65277999D01*
X65073717Y-65091277D01*
X65071173Y-65082892D01*
X65019252Y-64911731D01*
X64930806Y-64746259D01*
X64811778Y-64601222D01*
X64775436Y-64571397D01*
X63817500Y-63613462D01*
X63817500Y-63307038D01*
X63979715Y-63144823D01*
X64135000Y-62912422D01*
X64290285Y-63144823D01*
X64490177Y-63344715D01*
X64725225Y-63501769D01*
X64986397Y-63609950D01*
X65263655Y-63665100D01*
X65546345Y-63665100D01*
X65823603Y-63609950D01*
X66084775Y-63501769D01*
X66319823Y-63344715D01*
X66482038Y-63182500D01*
X67624428Y-63182500D01*
X67636688Y-63306982D01*
X67672998Y-63426680D01*
X67731963Y-63536994D01*
X67811315Y-63633685D01*
X67908006Y-63713037D01*
X68018320Y-63772002D01*
X68138018Y-63808312D01*
X68262500Y-63820572D01*
X68929250Y-63817500D01*
X69088000Y-63658750D01*
X69088000Y-62357000D01*
X67786250Y-62357000D01*
X67627500Y-62515750D01*
X67624428Y-63182500D01*
X66482038Y-63182500D01*
X66519715Y-63144823D01*
X66676769Y-62909775D01*
X66784950Y-62648603D01*
X66840100Y-62371345D01*
X66840100Y-62088655D01*
X66784950Y-61811397D01*
X66676769Y-61550225D01*
X66519715Y-61315177D01*
X66482038Y-61277500D01*
X67624428Y-61277500D01*
X67627500Y-61944250D01*
X67786250Y-62103000D01*
X69088000Y-62103000D01*
X69088000Y-60801250D01*
X68929250Y-60642500D01*
X68262500Y-60639428D01*
X68138018Y-60651688D01*
X68018320Y-60687998D01*
X67908006Y-60746963D01*
X67811315Y-60826315D01*
X67731963Y-60923006D01*
X67672998Y-61033320D01*
X67636688Y-61153018D01*
X67624428Y-61277500D01*
X66482038Y-61277500D01*
X66319823Y-61115285D01*
X66086068Y-60959095D01*
X66146574Y-60926754D01*
X66218169Y-60682774D01*
X65405000Y-59869605D01*
X64591831Y-60682774D01*
X64663426Y-60926754D01*
X64727744Y-60957188D01*
X64725225Y-60958231D01*
X64490177Y-61115285D01*
X64290285Y-61315177D01*
X64135000Y-61547578D01*
X63979715Y-61315177D01*
X63779823Y-61115285D01*
X63547422Y-60960000D01*
X63779823Y-60804715D01*
X63979715Y-60604823D01*
X64135905Y-60371068D01*
X64168246Y-60431574D01*
X64412226Y-60503169D01*
X65225395Y-59690000D01*
X65584605Y-59690000D01*
X66397774Y-60503169D01*
X66641754Y-60431574D01*
X66762664Y-60176046D01*
X66831400Y-59901839D01*
X66845320Y-59619492D01*
X66803889Y-59339853D01*
X66708700Y-59073672D01*
X66641754Y-58948426D01*
X66397774Y-58876831D01*
X65584605Y-59690000D01*
X65225395Y-59690000D01*
X64412226Y-58876831D01*
X64168246Y-58948426D01*
X64137812Y-59012744D01*
X64136769Y-59010225D01*
X63979715Y-58775177D01*
X63901764Y-58697226D01*
X64591831Y-58697226D01*
X65405000Y-59510395D01*
X66218169Y-58697226D01*
X66146574Y-58453246D01*
X65891046Y-58332336D01*
X65616839Y-58263600D01*
X65334492Y-58249680D01*
X65054853Y-58291111D01*
X64788672Y-58386300D01*
X64663426Y-58453246D01*
X64591831Y-58697226D01*
X63901764Y-58697226D01*
X63779823Y-58575285D01*
X63544775Y-58418231D01*
X63283603Y-58310050D01*
X63006345Y-58254900D01*
X62723655Y-58254900D01*
X62446397Y-58310050D01*
X62185225Y-58418231D01*
X61950177Y-58575285D01*
X61750285Y-58775177D01*
X61595000Y-59007578D01*
X61439715Y-58775177D01*
X61239823Y-58575285D01*
X61004775Y-58418231D01*
X60743603Y-58310050D01*
X60466345Y-58254900D01*
X60183655Y-58254900D01*
X59906397Y-58310050D01*
X59645225Y-58418231D01*
X59410177Y-58575285D01*
X59246405Y-58739057D01*
X59122277Y-58751283D01*
X59032504Y-58778516D01*
X58942730Y-58805748D01*
X58859995Y-58849971D01*
X58777259Y-58894194D01*
X58632222Y-59013222D01*
X58602389Y-59049574D01*
X58033565Y-59618397D01*
X57997223Y-59648222D01*
X57967399Y-59684563D01*
X57878194Y-59793260D01*
X57789749Y-59958731D01*
X57735283Y-60138278D01*
X57732546Y-60166067D01*
X57473179Y-60039652D01*
X57158656Y-59956936D01*
X56834038Y-59937169D01*
X56511802Y-59981112D01*
X56213549Y-60083899D01*
X56248064Y-59952656D01*
X56267831Y-59628038D01*
X56223888Y-59305802D01*
X56117924Y-58998330D01*
X56022860Y-58820478D01*
X55756823Y-58722782D01*
X54789605Y-59690000D01*
X54803748Y-59704143D01*
X54624143Y-59883748D01*
X54610000Y-59869605D01*
X53642782Y-60836823D01*
X53740478Y-61102860D01*
X54032821Y-61245348D01*
X54347344Y-61328064D01*
X54671962Y-61347831D01*
X54994198Y-61303888D01*
X55292451Y-61201101D01*
X55257936Y-61332344D01*
X55238169Y-61656962D01*
X55282112Y-61979198D01*
X55388076Y-62286670D01*
X55483140Y-62464522D01*
X55749177Y-62562218D01*
X56716395Y-61595000D01*
X56702253Y-61580858D01*
X56881858Y-61401253D01*
X56896000Y-61415395D01*
X56910143Y-61401253D01*
X57089748Y-61580858D01*
X57075605Y-61595000D01*
X57089748Y-61609143D01*
X56910143Y-61788748D01*
X56896000Y-61774605D01*
X55928782Y-62741823D01*
X56026478Y-63007860D01*
X56318821Y-63150348D01*
X56633344Y-63233064D01*
X56940211Y-63251750D01*
X56255564Y-63936398D01*
X56219223Y-63966222D01*
X56189399Y-64002563D01*
X56116128Y-64091844D01*
X56073097Y-63987958D01*
X55892415Y-63717549D01*
X55662451Y-63487585D01*
X55392042Y-63306903D01*
X55091579Y-63182447D01*
X54772609Y-63119000D01*
X54447391Y-63119000D01*
X54128421Y-63182447D01*
X53827958Y-63306903D01*
X53557549Y-63487585D01*
X53327585Y-63717549D01*
X53260800Y-63817500D01*
X48339200Y-63817500D01*
X48272415Y-63717549D01*
X48042451Y-63487585D01*
X47772042Y-63306903D01*
X47471579Y-63182447D01*
X47152609Y-63119000D01*
X46827391Y-63119000D01*
X46508421Y-63182447D01*
X46207958Y-63306903D01*
X45937549Y-63487585D01*
X45707585Y-63717549D01*
X45526903Y-63987958D01*
X45402447Y-64288421D01*
X45339000Y-64607391D01*
X45339000Y-64932609D01*
X45402447Y-65251579D01*
X45526903Y-65552042D01*
X45707585Y-65822451D01*
X45937549Y-66052415D01*
X46207958Y-66233097D01*
X46508421Y-66357553D01*
X46827391Y-66421000D01*
X47152609Y-66421000D01*
X47471579Y-66357553D01*
X47772042Y-66233097D01*
X48042451Y-66052415D01*
X48272415Y-65822451D01*
X48339200Y-65722500D01*
X53260800Y-65722500D01*
X53327585Y-65822451D01*
X53557549Y-66052415D01*
X53827958Y-66233097D01*
X54128421Y-66357553D01*
X54447391Y-66421000D01*
X54772609Y-66421000D01*
X55091579Y-66357553D01*
X55330283Y-66258678D01*
X54677893Y-66911069D01*
X54489667Y-66756595D01*
X54242563Y-66624516D01*
X53974439Y-66543181D01*
X53765475Y-66522600D01*
X52914525Y-66522600D01*
X52705561Y-66543181D01*
X52437437Y-66624516D01*
X52190333Y-66756595D01*
X52125311Y-66809957D01*
X52069999Y-66804510D01*
X52014255Y-66810000D01*
X52014248Y-66810000D01*
X51868493Y-66824356D01*
X51847500Y-66826423D01*
X51810626Y-66837609D01*
X51633553Y-66891324D01*
X51436377Y-66996716D01*
X51263551Y-67138551D01*
X51228008Y-67181860D01*
X50036860Y-68373009D01*
X49993552Y-68408551D01*
X49851717Y-68581377D01*
X49814182Y-68651601D01*
X49746324Y-68778554D01*
X49681423Y-68992502D01*
X49659509Y-69215000D01*
X49665001Y-69270761D01*
X49665000Y-78240000D01*
X49267352Y-78240000D01*
X49266812Y-78234518D01*
X49230502Y-78114820D01*
X49171537Y-78004506D01*
X49092185Y-77907815D01*
X48995494Y-77828463D01*
X48885180Y-77769498D01*
X48765482Y-77733188D01*
X48641000Y-77720928D01*
X46609000Y-77720928D01*
X46484518Y-77733188D01*
X46364820Y-77769498D01*
X46254506Y-77828463D01*
X46157815Y-77907815D01*
X46106102Y-77970828D01*
X45906745Y-77837623D01*
X45591028Y-77706848D01*
X45255865Y-77640180D01*
X44914135Y-77640180D01*
X44578972Y-77706848D01*
X44263255Y-77837623D01*
X43979117Y-78027477D01*
X43737477Y-78269117D01*
X43547623Y-78553255D01*
X43416848Y-78868972D01*
X43350180Y-79204135D01*
X35719990Y-79204135D01*
X35719990Y-75912060D01*
X43984990Y-75912060D01*
X44001672Y-75991996D01*
X44111159Y-76249646D01*
X44268808Y-76480986D01*
X44468560Y-76677125D01*
X44702738Y-76830526D01*
X44962344Y-76935293D01*
X45237400Y-76987400D01*
X45593000Y-76987400D01*
X45593000Y-75692000D01*
X45847000Y-75692000D01*
X45847000Y-76987400D01*
X46202600Y-76987400D01*
X46477656Y-76935293D01*
X46737262Y-76830526D01*
X46971440Y-76677125D01*
X47171192Y-76480986D01*
X47328841Y-76249646D01*
X47438328Y-75991996D01*
X47455010Y-75912060D01*
X47332852Y-75692000D01*
X45847000Y-75692000D01*
X45593000Y-75692000D01*
X44107148Y-75692000D01*
X43984990Y-75912060D01*
X35719990Y-75912060D01*
X35719990Y-70546962D01*
X40252169Y-70546962D01*
X40296112Y-70869198D01*
X40402076Y-71176670D01*
X40497140Y-71354522D01*
X40663104Y-71415468D01*
X40649820Y-71419498D01*
X40539506Y-71478463D01*
X40442815Y-71557815D01*
X40363463Y-71654506D01*
X40304498Y-71764820D01*
X40268188Y-71884518D01*
X40255928Y-72009000D01*
X40255928Y-74041000D01*
X40268188Y-74165482D01*
X40304498Y-74285180D01*
X40363463Y-74395494D01*
X40442815Y-74492185D01*
X40539506Y-74571537D01*
X40649820Y-74630502D01*
X40769518Y-74666812D01*
X40894000Y-74679072D01*
X42926000Y-74679072D01*
X43050482Y-74666812D01*
X43170180Y-74630502D01*
X43280494Y-74571537D01*
X43377185Y-74492185D01*
X43456537Y-74395494D01*
X43515502Y-74285180D01*
X43551812Y-74165482D01*
X43564072Y-74041000D01*
X43564072Y-72009000D01*
X43551812Y-71884518D01*
X43515502Y-71764820D01*
X43456537Y-71654506D01*
X43377185Y-71557815D01*
X43280494Y-71478463D01*
X43170180Y-71419498D01*
X43156896Y-71415468D01*
X43322860Y-71354522D01*
X43465348Y-71062179D01*
X43548064Y-70747656D01*
X43564057Y-70485000D01*
X43935118Y-70485000D01*
X43962581Y-70763839D01*
X44043916Y-71031963D01*
X44175995Y-71279067D01*
X44353745Y-71495655D01*
X44570333Y-71673405D01*
X44722987Y-71755000D01*
X44570333Y-71836595D01*
X44353745Y-72014345D01*
X44175995Y-72230933D01*
X44043916Y-72478037D01*
X43962581Y-72746161D01*
X43935118Y-73025000D01*
X43962581Y-73303839D01*
X44043916Y-73571963D01*
X44175995Y-73819067D01*
X44353745Y-74035655D01*
X44570333Y-74213405D01*
X44719045Y-74292893D01*
X44702738Y-74299474D01*
X44468560Y-74452875D01*
X44268808Y-74649014D01*
X44111159Y-74880354D01*
X44001672Y-75138004D01*
X43984990Y-75217940D01*
X44107148Y-75438000D01*
X45593000Y-75438000D01*
X45593000Y-75418000D01*
X45847000Y-75418000D01*
X45847000Y-75438000D01*
X47332852Y-75438000D01*
X47455010Y-75217940D01*
X47438328Y-75138004D01*
X47328841Y-74880354D01*
X47171192Y-74649014D01*
X46971440Y-74452875D01*
X46737262Y-74299474D01*
X46720955Y-74292893D01*
X46869667Y-74213405D01*
X47086255Y-74035655D01*
X47264005Y-73819067D01*
X47396084Y-73571963D01*
X47477419Y-73303839D01*
X47504882Y-73025000D01*
X47477419Y-72746161D01*
X47396084Y-72478037D01*
X47264005Y-72230933D01*
X47086255Y-72014345D01*
X46869667Y-71836595D01*
X46717013Y-71755000D01*
X46869667Y-71673405D01*
X47086255Y-71495655D01*
X47264005Y-71279067D01*
X47396084Y-71031963D01*
X47477419Y-70763839D01*
X47504882Y-70485000D01*
X47477419Y-70206161D01*
X47396084Y-69938037D01*
X47264005Y-69690933D01*
X47086255Y-69474345D01*
X46949326Y-69361970D01*
X46987482Y-69358212D01*
X47107180Y-69321902D01*
X47217494Y-69262937D01*
X47314185Y-69183585D01*
X47393537Y-69086894D01*
X47452502Y-68976580D01*
X47488812Y-68856882D01*
X47501072Y-68732400D01*
X47501072Y-67157600D01*
X47488812Y-67033118D01*
X47452502Y-66913420D01*
X47393537Y-66803106D01*
X47314185Y-66706415D01*
X47217494Y-66627063D01*
X47107180Y-66568098D01*
X46987482Y-66531788D01*
X46863000Y-66519528D01*
X44577000Y-66519528D01*
X44452518Y-66531788D01*
X44332820Y-66568098D01*
X44222506Y-66627063D01*
X44125815Y-66706415D01*
X44046463Y-66803106D01*
X43987498Y-66913420D01*
X43951188Y-67033118D01*
X43938928Y-67157600D01*
X43938928Y-68732400D01*
X43951188Y-68856882D01*
X43987498Y-68976580D01*
X44046463Y-69086894D01*
X44125815Y-69183585D01*
X44222506Y-69262937D01*
X44332820Y-69321902D01*
X44452518Y-69358212D01*
X44490674Y-69361970D01*
X44353745Y-69474345D01*
X44175995Y-69690933D01*
X44043916Y-69938037D01*
X43962581Y-70206161D01*
X43935118Y-70485000D01*
X43564057Y-70485000D01*
X43567831Y-70423038D01*
X43523888Y-70100802D01*
X43417924Y-69793330D01*
X43322860Y-69615478D01*
X43056823Y-69517782D01*
X42089605Y-70485000D01*
X42103748Y-70499143D01*
X41924143Y-70678748D01*
X41910000Y-70664605D01*
X41895858Y-70678748D01*
X41716253Y-70499143D01*
X41730395Y-70485000D01*
X40763177Y-69517782D01*
X40497140Y-69615478D01*
X40354652Y-69907821D01*
X40271936Y-70222344D01*
X40252169Y-70546962D01*
X35719990Y-70546962D01*
X35719990Y-67782391D01*
X40259000Y-67782391D01*
X40259000Y-68107609D01*
X40322447Y-68426579D01*
X40446903Y-68727042D01*
X40627585Y-68997451D01*
X40857549Y-69227415D01*
X40958649Y-69294968D01*
X40942782Y-69338177D01*
X41910000Y-70305395D01*
X42877218Y-69338177D01*
X42861351Y-69294968D01*
X42962451Y-69227415D01*
X43192415Y-68997451D01*
X43373097Y-68727042D01*
X43497553Y-68426579D01*
X43561000Y-68107609D01*
X43561000Y-67782391D01*
X43497553Y-67463421D01*
X43373097Y-67162958D01*
X43192415Y-66892549D01*
X42962451Y-66662585D01*
X42692042Y-66481903D01*
X42391579Y-66357447D01*
X42072609Y-66294000D01*
X41747391Y-66294000D01*
X41428421Y-66357447D01*
X41127958Y-66481903D01*
X40857549Y-66662585D01*
X40627585Y-66892549D01*
X40446903Y-67162958D01*
X40322447Y-67463421D01*
X40259000Y-67782391D01*
X35719990Y-67782391D01*
X35719990Y-59234873D01*
X37299997Y-59234873D01*
X37299997Y-59675129D01*
X37385887Y-60106926D01*
X37554366Y-60513670D01*
X37798959Y-60879730D01*
X38110268Y-61191039D01*
X38476328Y-61435632D01*
X38883072Y-61604111D01*
X39314869Y-61690001D01*
X39755125Y-61690001D01*
X40186922Y-61604111D01*
X40593666Y-61435632D01*
X40959726Y-61191039D01*
X41271035Y-60879730D01*
X41299704Y-60836823D01*
X46022782Y-60836823D01*
X46120478Y-61102860D01*
X46412821Y-61245348D01*
X46727344Y-61328064D01*
X47051962Y-61347831D01*
X47374198Y-61303888D01*
X47681670Y-61197924D01*
X47859522Y-61102860D01*
X47957218Y-60836823D01*
X46990000Y-59869605D01*
X46022782Y-60836823D01*
X41299704Y-60836823D01*
X41515628Y-60513670D01*
X41684107Y-60106926D01*
X41754713Y-59751962D01*
X45332169Y-59751962D01*
X45376112Y-60074198D01*
X45482076Y-60381670D01*
X45577140Y-60559522D01*
X45843177Y-60657218D01*
X46810395Y-59690000D01*
X47169605Y-59690000D01*
X48136823Y-60657218D01*
X48402860Y-60559522D01*
X48545348Y-60267179D01*
X48628064Y-59952656D01*
X48640284Y-59751962D01*
X52952169Y-59751962D01*
X52996112Y-60074198D01*
X53102076Y-60381670D01*
X53197140Y-60559522D01*
X53463177Y-60657218D01*
X54430395Y-59690000D01*
X53463177Y-58722782D01*
X53197140Y-58820478D01*
X53054652Y-59112821D01*
X52971936Y-59427344D01*
X52952169Y-59751962D01*
X48640284Y-59751962D01*
X48647831Y-59628038D01*
X48603888Y-59305802D01*
X48497924Y-58998330D01*
X48402860Y-58820478D01*
X48136823Y-58722782D01*
X47169605Y-59690000D01*
X46810395Y-59690000D01*
X45843177Y-58722782D01*
X45577140Y-58820478D01*
X45434652Y-59112821D01*
X45351936Y-59427344D01*
X45332169Y-59751962D01*
X41754713Y-59751962D01*
X41769997Y-59675129D01*
X41769997Y-59234873D01*
X41684107Y-58803076D01*
X41576454Y-58543177D01*
X46022782Y-58543177D01*
X46990000Y-59510395D01*
X47957218Y-58543177D01*
X53642782Y-58543177D01*
X54610000Y-59510395D01*
X55577218Y-58543177D01*
X55479522Y-58277140D01*
X55187179Y-58134652D01*
X54872656Y-58051936D01*
X54548038Y-58032169D01*
X54225802Y-58076112D01*
X53918330Y-58182076D01*
X53740478Y-58277140D01*
X53642782Y-58543177D01*
X47957218Y-58543177D01*
X47859522Y-58277140D01*
X47567179Y-58134652D01*
X47252656Y-58051936D01*
X46928038Y-58032169D01*
X46605802Y-58076112D01*
X46298330Y-58182076D01*
X46120478Y-58277140D01*
X46022782Y-58543177D01*
X41576454Y-58543177D01*
X41515628Y-58396332D01*
X41271035Y-58030272D01*
X40959726Y-57718963D01*
X40593666Y-57474370D01*
X40186922Y-57305891D01*
X39755125Y-57220001D01*
X39314869Y-57220001D01*
X38883072Y-57305891D01*
X38476328Y-57474370D01*
X38110268Y-57718963D01*
X37798959Y-58030272D01*
X37554366Y-58396332D01*
X37385887Y-58803076D01*
X37299997Y-59234873D01*
X35719990Y-59234873D01*
X35719990Y-58360065D01*
X35732262Y-58115536D01*
X35765561Y-57896165D01*
X35819600Y-57685034D01*
X35893266Y-57482972D01*
X35985573Y-57290842D01*
X36095519Y-57109490D01*
X36221991Y-56940149D01*
X36363898Y-56783941D01*
X36520142Y-56642019D01*
X36689475Y-56515514D01*
X36870733Y-56405659D01*
X37063023Y-56313302D01*
X37265059Y-56239589D01*
X37476098Y-56185611D01*
X37695574Y-56152304D01*
X37940117Y-56139998D01*
X87129884Y-56139998D01*
X87374425Y-56152304D01*
G04 #@! TA.AperFunction,Conductor*
D23*
G36*
X87374425Y-56152304D02*
G01*
X87593910Y-56185612D01*
X87804941Y-56239588D01*
X88006962Y-56313293D01*
X88199207Y-56405646D01*
X88380505Y-56515522D01*
X88549842Y-56642028D01*
X88706073Y-56783925D01*
X88847965Y-56940151D01*
X88974480Y-57109498D01*
X89084353Y-57290792D01*
X89176704Y-57483032D01*
X89250407Y-57685050D01*
X89304387Y-57896096D01*
X89337694Y-58115572D01*
X89350000Y-58360115D01*
X89350001Y-85549861D01*
X89337694Y-85794424D01*
X89304387Y-86013900D01*
X89250407Y-86224946D01*
X89176704Y-86426964D01*
X89084353Y-86619204D01*
X88974480Y-86800498D01*
X88847965Y-86969845D01*
X88706073Y-87126071D01*
X88549842Y-87267968D01*
X88380505Y-87394474D01*
X88199111Y-87504408D01*
X88006968Y-87596789D01*
X87805054Y-87670379D01*
X87593910Y-87724384D01*
X87374425Y-87757692D01*
X87129884Y-87769998D01*
X37940117Y-87769998D01*
X37695574Y-87757692D01*
X37476098Y-87724385D01*
X37264944Y-87670378D01*
X37063030Y-87596786D01*
X36870827Y-87504394D01*
X36689475Y-87394482D01*
X36520142Y-87267977D01*
X36363898Y-87126055D01*
X36221991Y-86969847D01*
X36095519Y-86800506D01*
X35985573Y-86619154D01*
X35893266Y-86427024D01*
X35819600Y-86224962D01*
X35765561Y-86013831D01*
X35732262Y-85794460D01*
X35719990Y-85549931D01*
X35719990Y-84234872D01*
X37299997Y-84234872D01*
X37299997Y-84675128D01*
X37385887Y-85106925D01*
X37554366Y-85513669D01*
X37798959Y-85879729D01*
X38110268Y-86191038D01*
X38476328Y-86435631D01*
X38883072Y-86604110D01*
X39314869Y-86690000D01*
X39755125Y-86690000D01*
X40186922Y-86604110D01*
X40593666Y-86435631D01*
X40959726Y-86191038D01*
X41271035Y-85879729D01*
X41515628Y-85513669D01*
X41684107Y-85106925D01*
X41769997Y-84675128D01*
X41769997Y-84284135D01*
X43350180Y-84284135D01*
X43350180Y-84625865D01*
X43416848Y-84961028D01*
X43547623Y-85276745D01*
X43737477Y-85560883D01*
X43979117Y-85802523D01*
X44263255Y-85992377D01*
X44578972Y-86123152D01*
X44914135Y-86189820D01*
X45255865Y-86189820D01*
X45591028Y-86123152D01*
X45906745Y-85992377D01*
X46190883Y-85802523D01*
X46391583Y-85601823D01*
X46657782Y-85601823D01*
X46755478Y-85867860D01*
X47047821Y-86010348D01*
X47362344Y-86093064D01*
X47686962Y-86112831D01*
X48009198Y-86068888D01*
X48316670Y-85962924D01*
X48494522Y-85867860D01*
X48592218Y-85601823D01*
X47625000Y-84634605D01*
X46657782Y-85601823D01*
X46391583Y-85601823D01*
X46432523Y-85560883D01*
X46619814Y-85280581D01*
X47445395Y-84455000D01*
X47804605Y-84455000D01*
X48771823Y-85422218D01*
X49037860Y-85324522D01*
X49180348Y-85032179D01*
X49263064Y-84717656D01*
X49282831Y-84393038D01*
X49238888Y-84070802D01*
X49132924Y-83763330D01*
X49037860Y-83585478D01*
X48771823Y-83487782D01*
X47804605Y-84455000D01*
X47445395Y-84455000D01*
X46619814Y-83629419D01*
X46432523Y-83349117D01*
X46391583Y-83308177D01*
X46657782Y-83308177D01*
X47625000Y-84275395D01*
X48592218Y-83308177D01*
X48494522Y-83042140D01*
X48202179Y-82899652D01*
X47887656Y-82816936D01*
X47563038Y-82797169D01*
X47240802Y-82841112D01*
X46933330Y-82947076D01*
X46755478Y-83042140D01*
X46657782Y-83308177D01*
X46391583Y-83308177D01*
X46190883Y-83107477D01*
X45906745Y-82917623D01*
X45591028Y-82786848D01*
X45255865Y-82720180D01*
X44914135Y-82720180D01*
X44578972Y-82786848D01*
X44263255Y-82917623D01*
X43979117Y-83107477D01*
X43737477Y-83349117D01*
X43547623Y-83633255D01*
X43416848Y-83948972D01*
X43350180Y-84284135D01*
X41769997Y-84284135D01*
X41769997Y-84234872D01*
X41684107Y-83803075D01*
X41515628Y-83396331D01*
X41271035Y-83030271D01*
X40959726Y-82718962D01*
X40593666Y-82474369D01*
X40186922Y-82305890D01*
X39755125Y-82220000D01*
X39314869Y-82220000D01*
X38883072Y-82305890D01*
X38476328Y-82474369D01*
X38110268Y-82718962D01*
X37798959Y-83030271D01*
X37554366Y-83396331D01*
X37385887Y-83803075D01*
X37299997Y-84234872D01*
X35719990Y-84234872D01*
X35719990Y-79204135D01*
X43350180Y-79204135D01*
X43350180Y-79545865D01*
X43416848Y-79881028D01*
X43547623Y-80196745D01*
X43737477Y-80480883D01*
X43979117Y-80722523D01*
X44263255Y-80912377D01*
X44578972Y-81043152D01*
X44914135Y-81109820D01*
X45255865Y-81109820D01*
X45591028Y-81043152D01*
X45906745Y-80912377D01*
X46106102Y-80779172D01*
X46157815Y-80842185D01*
X46254506Y-80921537D01*
X46364820Y-80980502D01*
X46484518Y-81016812D01*
X46609000Y-81029072D01*
X48641000Y-81029072D01*
X48765482Y-81016812D01*
X48885180Y-80980502D01*
X48995494Y-80921537D01*
X49092185Y-80842185D01*
X49171537Y-80745494D01*
X49230502Y-80635180D01*
X49266812Y-80515482D01*
X49267352Y-80510000D01*
X50363249Y-80510000D01*
X50419000Y-80515491D01*
X50474751Y-80510000D01*
X50474752Y-80510000D01*
X50574085Y-80500217D01*
X52332000Y-82258133D01*
X52332001Y-83764239D01*
X52326509Y-83820000D01*
X52348423Y-84042498D01*
X52413324Y-84256446D01*
X52427548Y-84283057D01*
X52518717Y-84453623D01*
X52660552Y-84626449D01*
X52703860Y-84661991D01*
X54530009Y-86488141D01*
X54565551Y-86531449D01*
X54738377Y-86673284D01*
X54935553Y-86778676D01*
X55149501Y-86843577D01*
X55291363Y-86857549D01*
X55372000Y-86865491D01*
X55427752Y-86860000D01*
X56459248Y-86860000D01*
X56515000Y-86865491D01*
X56570751Y-86860000D01*
X66365248Y-86860000D01*
X66421000Y-86865491D01*
X66476751Y-86860000D01*
X77160249Y-86860000D01*
X77216000Y-86865491D01*
X77271751Y-86860000D01*
X77271752Y-86860000D01*
X77438499Y-86843577D01*
X77652447Y-86778676D01*
X77849623Y-86673284D01*
X78022449Y-86531449D01*
X78057995Y-86488136D01*
X78868140Y-85677992D01*
X78911449Y-85642449D01*
X79053284Y-85469623D01*
X79158676Y-85272447D01*
X79223577Y-85058499D01*
X79240000Y-84891752D01*
X79240000Y-84891751D01*
X79245491Y-84836000D01*
X79240000Y-84780248D01*
X79240000Y-84384866D01*
X79387415Y-84237451D01*
X79389138Y-84234872D01*
X83299997Y-84234872D01*
X83299997Y-84675128D01*
X83385887Y-85106925D01*
X83554366Y-85513669D01*
X83798959Y-85879729D01*
X84110268Y-86191038D01*
X84476328Y-86435631D01*
X84883072Y-86604110D01*
X85314869Y-86690000D01*
X85755125Y-86690000D01*
X86186922Y-86604110D01*
X86593666Y-86435631D01*
X86959726Y-86191038D01*
X87271035Y-85879729D01*
X87515628Y-85513669D01*
X87684107Y-85106925D01*
X87769997Y-84675128D01*
X87769997Y-84234872D01*
X87684107Y-83803075D01*
X87515628Y-83396331D01*
X87271035Y-83030271D01*
X86959726Y-82718962D01*
X86593666Y-82474369D01*
X86186922Y-82305890D01*
X85755125Y-82220000D01*
X85314869Y-82220000D01*
X84883072Y-82305890D01*
X84476328Y-82474369D01*
X84110268Y-82718962D01*
X83798959Y-83030271D01*
X83554366Y-83396331D01*
X83385887Y-83803075D01*
X83299997Y-84234872D01*
X79389138Y-84234872D01*
X79568097Y-83967042D01*
X79692553Y-83666579D01*
X79756000Y-83347609D01*
X79756000Y-83022391D01*
X79692553Y-82703421D01*
X79568097Y-82402958D01*
X79387415Y-82132549D01*
X79169866Y-81915000D01*
X79387415Y-81697451D01*
X79568097Y-81427042D01*
X79692553Y-81126579D01*
X79756000Y-80807609D01*
X79756000Y-80482391D01*
X79692553Y-80163421D01*
X79568097Y-79862958D01*
X79387415Y-79592549D01*
X79157451Y-79362585D01*
X78887042Y-79181903D01*
X78586579Y-79057447D01*
X78267609Y-78994000D01*
X77942391Y-78994000D01*
X77623421Y-79057447D01*
X77322958Y-79181903D01*
X77052549Y-79362585D01*
X76822585Y-79592549D01*
X76755800Y-79692500D01*
X72392830Y-79692500D01*
X72353092Y-79633028D01*
X72131972Y-79411908D01*
X71871963Y-79238176D01*
X71583057Y-79118507D01*
X71276355Y-79057500D01*
X70963645Y-79057500D01*
X70656943Y-79118507D01*
X70368037Y-79238176D01*
X70108028Y-79411908D01*
X69886908Y-79633028D01*
X69713176Y-79893037D01*
X69593507Y-80181943D01*
X69532500Y-80488645D01*
X69532500Y-80801355D01*
X69593507Y-81108057D01*
X69713176Y-81396963D01*
X69886908Y-81656972D01*
X70108028Y-81878092D01*
X70163265Y-81915000D01*
X70108028Y-81951908D01*
X70104451Y-81955485D01*
X70063037Y-81878006D01*
X69983685Y-81781315D01*
X69886994Y-81701963D01*
X69776680Y-81642998D01*
X69656982Y-81606688D01*
X69532500Y-81594428D01*
X68865750Y-81597500D01*
X68707000Y-81756250D01*
X68707000Y-83058000D01*
X68727000Y-83058000D01*
X68727000Y-83312000D01*
X68707000Y-83312000D01*
X68707000Y-83332000D01*
X68453000Y-83332000D01*
X68453000Y-83312000D01*
X68433000Y-83312000D01*
X68433000Y-83058000D01*
X68453000Y-83058000D01*
X68453000Y-81756250D01*
X68294250Y-81597500D01*
X67627500Y-81594428D01*
X67556000Y-81601470D01*
X67556000Y-79464131D01*
X69169132Y-77851000D01*
X69377609Y-77851000D01*
X69696579Y-77787553D01*
X69997042Y-77663097D01*
X70267451Y-77482415D01*
X70497415Y-77252451D01*
X70564200Y-77152500D01*
X72069428Y-77152500D01*
X72081688Y-77276982D01*
X72117998Y-77396680D01*
X72176963Y-77506994D01*
X72256315Y-77603685D01*
X72353006Y-77683037D01*
X72463320Y-77742002D01*
X72583018Y-77778312D01*
X72707500Y-77790572D01*
X73374250Y-77787500D01*
X73533000Y-77628750D01*
X73533000Y-76327000D01*
X72231250Y-76327000D01*
X72072500Y-76485750D01*
X72069428Y-77152500D01*
X70564200Y-77152500D01*
X70678097Y-76982042D01*
X70802553Y-76681579D01*
X70866000Y-76362609D01*
X70866000Y-76037391D01*
X70802553Y-75718421D01*
X70678097Y-75417958D01*
X70564201Y-75247500D01*
X72069428Y-75247500D01*
X72072500Y-75914250D01*
X72231250Y-76073000D01*
X73533000Y-76073000D01*
X73533000Y-74771250D01*
X73787000Y-74771250D01*
X73787000Y-76073000D01*
X73807000Y-76073000D01*
X73807000Y-76327000D01*
X73787000Y-76327000D01*
X73787000Y-77628750D01*
X73945750Y-77787500D01*
X74612500Y-77790572D01*
X74736982Y-77778312D01*
X74856680Y-77742002D01*
X74966994Y-77683037D01*
X75063685Y-77603685D01*
X75143037Y-77506994D01*
X75184451Y-77429515D01*
X75188028Y-77433092D01*
X75448037Y-77606824D01*
X75736943Y-77726493D01*
X76043645Y-77787500D01*
X76356355Y-77787500D01*
X76663057Y-77726493D01*
X76951963Y-77606824D01*
X77211972Y-77433092D01*
X77433092Y-77211972D01*
X77606824Y-76951963D01*
X77726493Y-76663057D01*
X77787500Y-76356355D01*
X77787500Y-76043645D01*
X77726493Y-75736943D01*
X77606824Y-75448037D01*
X77433092Y-75188028D01*
X77211972Y-74966908D01*
X77156735Y-74930000D01*
X77211972Y-74893092D01*
X77433092Y-74671972D01*
X77472830Y-74612500D01*
X78599462Y-74612500D01*
X78922389Y-74935426D01*
X78952222Y-74971778D01*
X79097259Y-75090806D01*
X79145745Y-75116722D01*
X79262730Y-75179252D01*
X79286601Y-75186493D01*
X79442277Y-75233717D01*
X79582215Y-75247500D01*
X79629000Y-75252108D01*
X79675785Y-75247500D01*
X81200800Y-75247500D01*
X81267585Y-75347451D01*
X81485134Y-75565000D01*
X81267585Y-75782549D01*
X81086903Y-76052958D01*
X80962447Y-76353421D01*
X80899000Y-76672391D01*
X80899000Y-76997609D01*
X80962447Y-77316579D01*
X81086903Y-77617042D01*
X81267585Y-77887451D01*
X81497549Y-78117415D01*
X81767958Y-78298097D01*
X82068421Y-78422553D01*
X82387391Y-78486000D01*
X82712609Y-78486000D01*
X83031579Y-78422553D01*
X83332042Y-78298097D01*
X83602451Y-78117415D01*
X83832415Y-77887451D01*
X84013097Y-77617042D01*
X84137553Y-77316579D01*
X84201000Y-76997609D01*
X84201000Y-76672391D01*
X84137553Y-76353421D01*
X84013097Y-76052958D01*
X83832415Y-75782549D01*
X83614866Y-75565000D01*
X83832415Y-75347451D01*
X84013097Y-75077042D01*
X84137553Y-74776579D01*
X84201000Y-74457609D01*
X84201000Y-74132391D01*
X84137553Y-73813421D01*
X84013097Y-73512958D01*
X83832415Y-73242549D01*
X83602451Y-73012585D01*
X83332042Y-72831903D01*
X83031579Y-72707447D01*
X82712609Y-72644000D01*
X82387391Y-72644000D01*
X82068421Y-72707447D01*
X81767958Y-72831903D01*
X81497549Y-73012585D01*
X81267585Y-73242549D01*
X81200800Y-73342500D01*
X80023537Y-73342500D01*
X79700608Y-73019570D01*
X79670778Y-72983222D01*
X79525741Y-72864194D01*
X79360269Y-72775748D01*
X79180723Y-72721283D01*
X79040785Y-72707500D01*
X78994000Y-72702892D01*
X78947215Y-72707500D01*
X77472830Y-72707500D01*
X77433092Y-72648028D01*
X77211972Y-72426908D01*
X76951963Y-72253176D01*
X76663057Y-72133507D01*
X76356355Y-72072500D01*
X76043645Y-72072500D01*
X75736943Y-72133507D01*
X75448037Y-72253176D01*
X75188028Y-72426908D01*
X74966908Y-72648028D01*
X74793176Y-72908037D01*
X74673507Y-73196943D01*
X74612500Y-73503645D01*
X74612500Y-73816355D01*
X74673507Y-74123057D01*
X74793176Y-74411963D01*
X74966908Y-74671972D01*
X75188028Y-74893092D01*
X75243265Y-74930000D01*
X75188028Y-74966908D01*
X75184451Y-74970485D01*
X75143037Y-74893006D01*
X75063685Y-74796315D01*
X74966994Y-74716963D01*
X74856680Y-74657998D01*
X74736982Y-74621688D01*
X74612500Y-74609428D01*
X73945750Y-74612500D01*
X73787000Y-74771250D01*
X73533000Y-74771250D01*
X73374250Y-74612500D01*
X72707500Y-74609428D01*
X72583018Y-74621688D01*
X72463320Y-74657998D01*
X72353006Y-74716963D01*
X72256315Y-74796315D01*
X72176963Y-74893006D01*
X72117998Y-75003320D01*
X72081688Y-75123018D01*
X72069428Y-75247500D01*
X70564201Y-75247500D01*
X70497415Y-75147549D01*
X70279866Y-74930000D01*
X70497415Y-74712451D01*
X70678097Y-74442042D01*
X70802553Y-74141579D01*
X70866000Y-73822609D01*
X70866000Y-73497391D01*
X70802553Y-73178421D01*
X70678097Y-72877958D01*
X70497415Y-72607549D01*
X70267451Y-72377585D01*
X69997042Y-72196903D01*
X69696579Y-72072447D01*
X69652750Y-72063729D01*
X69656982Y-72063312D01*
X69776680Y-72027002D01*
X69886994Y-71968037D01*
X69983685Y-71888685D01*
X70063037Y-71791994D01*
X70122002Y-71681680D01*
X70158312Y-71561982D01*
X70163389Y-71510428D01*
X70540397Y-71887436D01*
X70570222Y-71923778D01*
X70715259Y-72042806D01*
X70797995Y-72087029D01*
X70880730Y-72131252D01*
X70970504Y-72158485D01*
X71060277Y-72185717D01*
X71200215Y-72199500D01*
X71247000Y-72204108D01*
X71293785Y-72199500D01*
X75264215Y-72199500D01*
X75311000Y-72204108D01*
X75357785Y-72199500D01*
X75497723Y-72185717D01*
X75677269Y-72131252D01*
X75842741Y-72042806D01*
X75987778Y-71923778D01*
X76017607Y-71887431D01*
X76840436Y-71064603D01*
X76876778Y-71034778D01*
X76995806Y-70889741D01*
X77084252Y-70724269D01*
X77138717Y-70544723D01*
X77143744Y-70493680D01*
X77211972Y-70448092D01*
X77433092Y-70226972D01*
X77606824Y-69966963D01*
X77726493Y-69678057D01*
X77787500Y-69371355D01*
X77787500Y-69058645D01*
X77726493Y-68751943D01*
X77606824Y-68463037D01*
X77433092Y-68203028D01*
X77211972Y-67981908D01*
X77156735Y-67945000D01*
X77211972Y-67908092D01*
X77433092Y-67686972D01*
X77472830Y-67627500D01*
X81200800Y-67627500D01*
X81267585Y-67727451D01*
X81485134Y-67945000D01*
X81267585Y-68162549D01*
X81086903Y-68432958D01*
X80962447Y-68733421D01*
X80899000Y-69052391D01*
X80899000Y-69377609D01*
X80962447Y-69696579D01*
X81086903Y-69997042D01*
X81267585Y-70267451D01*
X81497549Y-70497415D01*
X81767958Y-70678097D01*
X82068421Y-70802553D01*
X82387391Y-70866000D01*
X82712609Y-70866000D01*
X83031579Y-70802553D01*
X83332042Y-70678097D01*
X83602451Y-70497415D01*
X83832415Y-70267451D01*
X84013097Y-69997042D01*
X84137553Y-69696579D01*
X84201000Y-69377609D01*
X84201000Y-69052391D01*
X84137553Y-68733421D01*
X84013097Y-68432958D01*
X83832415Y-68162549D01*
X83614866Y-67945000D01*
X83832415Y-67727451D01*
X84013097Y-67457042D01*
X84137553Y-67156579D01*
X84201000Y-66837609D01*
X84201000Y-66512391D01*
X84137553Y-66193421D01*
X84013097Y-65892958D01*
X83832415Y-65622549D01*
X83602451Y-65392585D01*
X83332042Y-65211903D01*
X83031579Y-65087447D01*
X82712609Y-65024000D01*
X82387391Y-65024000D01*
X82068421Y-65087447D01*
X81767958Y-65211903D01*
X81497549Y-65392585D01*
X81267585Y-65622549D01*
X81200800Y-65722500D01*
X77472830Y-65722500D01*
X77433092Y-65663028D01*
X77211972Y-65441908D01*
X76951963Y-65268176D01*
X76663057Y-65148507D01*
X76356355Y-65087500D01*
X76043645Y-65087500D01*
X75736943Y-65148507D01*
X75448037Y-65268176D01*
X75188028Y-65441908D01*
X74966908Y-65663028D01*
X74793176Y-65923037D01*
X74673507Y-66211943D01*
X74612500Y-66518645D01*
X74612500Y-66831355D01*
X74673507Y-67138057D01*
X74793176Y-67426963D01*
X74966908Y-67686972D01*
X75188028Y-67908092D01*
X75243265Y-67945000D01*
X75188028Y-67981908D01*
X75184451Y-67985485D01*
X75143037Y-67908006D01*
X75063685Y-67811315D01*
X74966994Y-67731963D01*
X74856680Y-67672998D01*
X74736982Y-67636688D01*
X74612500Y-67624428D01*
X73945750Y-67627500D01*
X73787000Y-67786250D01*
X73787000Y-69088000D01*
X73807000Y-69088000D01*
X73807000Y-69342000D01*
X73787000Y-69342000D01*
X73787000Y-69362000D01*
X73533000Y-69362000D01*
X73533000Y-69342000D01*
X73513000Y-69342000D01*
X73513000Y-69088000D01*
X73533000Y-69088000D01*
X73533000Y-67786250D01*
X73374250Y-67627500D01*
X72707500Y-67624428D01*
X72675463Y-67627583D01*
X72646493Y-67481943D01*
X72526824Y-67193037D01*
X72353092Y-66933028D01*
X72131972Y-66711908D01*
X71871963Y-66538176D01*
X71863762Y-66534779D01*
X71977499Y-66523577D01*
X72191447Y-66458676D01*
X72388623Y-66353284D01*
X72561449Y-66211449D01*
X72596996Y-66168135D01*
X74384132Y-64381000D01*
X77450677Y-64381000D01*
X77623421Y-64452553D01*
X77942391Y-64516000D01*
X78267609Y-64516000D01*
X78586579Y-64452553D01*
X78887042Y-64328097D01*
X79157451Y-64147415D01*
X79387415Y-63917451D01*
X79568097Y-63647042D01*
X79692553Y-63346579D01*
X79756000Y-63027609D01*
X79756000Y-62702391D01*
X79692553Y-62383421D01*
X79568097Y-62082958D01*
X79387415Y-61812549D01*
X79169866Y-61595000D01*
X79387415Y-61377451D01*
X79568097Y-61107042D01*
X79692553Y-60806579D01*
X79756000Y-60487609D01*
X79756000Y-60162391D01*
X79692553Y-59843421D01*
X79568097Y-59542958D01*
X79387415Y-59272549D01*
X79349738Y-59234872D01*
X83299997Y-59234872D01*
X83299997Y-59675128D01*
X83385887Y-60106925D01*
X83554366Y-60513669D01*
X83798959Y-60879729D01*
X84110268Y-61191038D01*
X84476328Y-61435631D01*
X84883072Y-61604110D01*
X85314869Y-61690000D01*
X85755125Y-61690000D01*
X86186922Y-61604110D01*
X86593666Y-61435631D01*
X86959726Y-61191038D01*
X87271035Y-60879729D01*
X87515628Y-60513669D01*
X87684107Y-60106925D01*
X87769997Y-59675128D01*
X87769997Y-59234872D01*
X87684107Y-58803075D01*
X87515628Y-58396331D01*
X87271035Y-58030271D01*
X86959726Y-57718962D01*
X86593666Y-57474369D01*
X86186922Y-57305890D01*
X85755125Y-57220000D01*
X85314869Y-57220000D01*
X84883072Y-57305890D01*
X84476328Y-57474369D01*
X84110268Y-57718962D01*
X83798959Y-58030271D01*
X83554366Y-58396331D01*
X83385887Y-58803075D01*
X83299997Y-59234872D01*
X79349738Y-59234872D01*
X79157451Y-59042585D01*
X78887042Y-58861903D01*
X78586579Y-58737447D01*
X78267609Y-58674000D01*
X77942391Y-58674000D01*
X77623421Y-58737447D01*
X77322958Y-58861903D01*
X77052549Y-59042585D01*
X76822585Y-59272549D01*
X76755800Y-59372500D01*
X75959537Y-59372500D01*
X75636608Y-59049570D01*
X75606778Y-59013222D01*
X75461741Y-58894194D01*
X75296269Y-58805748D01*
X75116723Y-58751283D01*
X74976785Y-58737500D01*
X74930000Y-58732892D01*
X74883215Y-58737500D01*
X73027830Y-58737500D01*
X72988092Y-58678028D01*
X72766972Y-58456908D01*
X72506963Y-58283176D01*
X72218057Y-58163507D01*
X71911355Y-58102500D01*
X71598645Y-58102500D01*
X71291943Y-58163507D01*
X71003037Y-58283176D01*
X70743028Y-58456908D01*
X70521908Y-58678028D01*
X70348176Y-58938037D01*
X70228507Y-59226943D01*
X70167500Y-59533645D01*
X70167500Y-59846355D01*
X70228507Y-60153057D01*
X70348176Y-60441963D01*
X70521908Y-60701972D01*
X70743028Y-60923092D01*
X70798265Y-60960000D01*
X70743028Y-60996908D01*
X70739451Y-61000485D01*
X70698037Y-60923006D01*
X70618685Y-60826315D01*
X70521994Y-60746963D01*
X70411680Y-60687998D01*
X70291982Y-60651688D01*
X70167500Y-60639428D01*
X69500750Y-60642500D01*
X69342000Y-60801250D01*
X69342000Y-62103000D01*
X69362000Y-62103000D01*
X69362000Y-62357000D01*
X69342000Y-62357000D01*
X69342000Y-63658750D01*
X69500750Y-63817500D01*
X70167500Y-63820572D01*
X70291982Y-63808312D01*
X70411680Y-63772002D01*
X70521994Y-63713037D01*
X70618685Y-63633685D01*
X70698037Y-63536994D01*
X70739451Y-63459515D01*
X70743028Y-63463092D01*
X71003037Y-63636824D01*
X71291943Y-63756493D01*
X71598645Y-63817500D01*
X71708215Y-63817500D01*
X71734755Y-63820114D01*
X71284869Y-64270000D01*
X69651751Y-64270000D01*
X69596000Y-64264509D01*
X69540248Y-64270000D01*
X69373501Y-64286423D01*
X69159553Y-64351324D01*
X68962377Y-64456716D01*
X68789551Y-64598551D01*
X68754011Y-64641857D01*
X67816860Y-65579009D01*
X67773552Y-65614551D01*
X67631717Y-65787377D01*
X67582640Y-65879194D01*
X67526324Y-65984554D01*
X67481111Y-66133600D01*
X67461423Y-66198501D01*
X67455607Y-66257549D01*
X67439509Y-66421000D01*
X67445000Y-66476751D01*
X67445000Y-66834936D01*
X67346908Y-66933028D01*
X67173176Y-67193037D01*
X67053507Y-67481943D01*
X66992500Y-67788645D01*
X66992500Y-68101355D01*
X67053507Y-68408057D01*
X67173176Y-68696963D01*
X67346908Y-68956972D01*
X67350485Y-68960549D01*
X67273006Y-69001963D01*
X67176315Y-69081315D01*
X67096963Y-69178006D01*
X67037998Y-69288320D01*
X67001688Y-69408018D01*
X66989428Y-69532500D01*
X66989428Y-69548361D01*
X66816731Y-69600748D01*
X66651259Y-69689194D01*
X66506222Y-69808222D01*
X66476397Y-69844564D01*
X65562192Y-70758769D01*
X65595500Y-70591321D01*
X65595500Y-70378679D01*
X65554015Y-70170122D01*
X65472640Y-69973665D01*
X65354502Y-69796859D01*
X65204141Y-69646498D01*
X65027335Y-69528360D01*
X64830878Y-69446985D01*
X64622321Y-69405500D01*
X64409679Y-69405500D01*
X64201122Y-69446985D01*
X64004665Y-69528360D01*
X63998469Y-69532500D01*
X60084537Y-69532500D01*
X60007500Y-69455462D01*
X60007500Y-68659200D01*
X60107451Y-68592415D01*
X60243043Y-68456823D01*
X60627782Y-68456823D01*
X60725478Y-68722860D01*
X61017821Y-68865348D01*
X61332344Y-68948064D01*
X61656962Y-68967831D01*
X61979198Y-68923888D01*
X62286670Y-68817924D01*
X62464522Y-68722860D01*
X62562218Y-68456823D01*
X61595000Y-67489605D01*
X60627782Y-68456823D01*
X60243043Y-68456823D01*
X60337415Y-68362451D01*
X60404968Y-68261351D01*
X60448177Y-68277218D01*
X61415395Y-67310000D01*
X60448177Y-66342782D01*
X60404968Y-66358649D01*
X60337415Y-66257549D01*
X60243043Y-66163177D01*
X60627782Y-66163177D01*
X61595000Y-67130395D01*
X62562218Y-66163177D01*
X62464522Y-65897140D01*
X62172179Y-65754652D01*
X61857656Y-65671936D01*
X61533038Y-65652169D01*
X61210802Y-65696112D01*
X60903330Y-65802076D01*
X60725478Y-65897140D01*
X60627782Y-66163177D01*
X60243043Y-66163177D01*
X60107451Y-66027585D01*
X59837042Y-65846903D01*
X59536579Y-65722447D01*
X59217609Y-65659000D01*
X58892391Y-65659000D01*
X58573421Y-65722447D01*
X58272958Y-65846903D01*
X58002549Y-66027585D01*
X57838137Y-66191997D01*
X57848500Y-66086785D01*
X57848500Y-66086784D01*
X57853108Y-66040000D01*
X57848500Y-65993215D01*
X57848500Y-65037538D01*
X59271412Y-63614627D01*
X59280720Y-63619602D01*
X59400418Y-63655912D01*
X59524900Y-63668172D01*
X61125100Y-63668172D01*
X61249582Y-63655912D01*
X61369280Y-63619602D01*
X61479594Y-63560637D01*
X61576285Y-63481285D01*
X61655637Y-63384594D01*
X61714602Y-63274280D01*
X61750912Y-63154582D01*
X61751731Y-63146269D01*
X61912500Y-63307038D01*
X61912500Y-63961215D01*
X61907892Y-64008000D01*
X61921624Y-64147415D01*
X61926283Y-64194722D01*
X61980748Y-64374268D01*
X62069194Y-64539741D01*
X62188222Y-64684778D01*
X62224569Y-64714607D01*
X63182501Y-65672540D01*
X63182501Y-65960799D01*
X63082549Y-66027585D01*
X62852585Y-66257549D01*
X62785032Y-66358649D01*
X62741823Y-66342782D01*
X61774605Y-67310000D01*
X62741823Y-68277218D01*
X62785032Y-68261351D01*
X62852585Y-68362451D01*
X63082549Y-68592415D01*
X63352958Y-68773097D01*
X63653421Y-68897553D01*
X63972391Y-68961000D01*
X64297609Y-68961000D01*
X64616579Y-68897553D01*
X64917042Y-68773097D01*
X65187451Y-68592415D01*
X65417415Y-68362451D01*
X65598097Y-68092042D01*
X65722553Y-67791579D01*
X65786000Y-67472609D01*
X65786000Y-67147391D01*
X65722553Y-66828421D01*
X65598097Y-66527958D01*
X65417415Y-66257549D01*
X65187451Y-66027585D01*
X65087500Y-65960800D01*
X65087500Y-65324784D01*
X65092108Y-65277999D01*
X65073717Y-65091277D01*
X65071173Y-65082892D01*
X65019252Y-64911731D01*
X64930806Y-64746259D01*
X64811778Y-64601222D01*
X64775436Y-64571397D01*
X63817500Y-63613462D01*
X63817500Y-63307038D01*
X63979715Y-63144823D01*
X64135000Y-62912422D01*
X64290285Y-63144823D01*
X64490177Y-63344715D01*
X64725225Y-63501769D01*
X64986397Y-63609950D01*
X65263655Y-63665100D01*
X65546345Y-63665100D01*
X65823603Y-63609950D01*
X66084775Y-63501769D01*
X66319823Y-63344715D01*
X66482038Y-63182500D01*
X67624428Y-63182500D01*
X67636688Y-63306982D01*
X67672998Y-63426680D01*
X67731963Y-63536994D01*
X67811315Y-63633685D01*
X67908006Y-63713037D01*
X68018320Y-63772002D01*
X68138018Y-63808312D01*
X68262500Y-63820572D01*
X68929250Y-63817500D01*
X69088000Y-63658750D01*
X69088000Y-62357000D01*
X67786250Y-62357000D01*
X67627500Y-62515750D01*
X67624428Y-63182500D01*
X66482038Y-63182500D01*
X66519715Y-63144823D01*
X66676769Y-62909775D01*
X66784950Y-62648603D01*
X66840100Y-62371345D01*
X66840100Y-62088655D01*
X66784950Y-61811397D01*
X66676769Y-61550225D01*
X66519715Y-61315177D01*
X66482038Y-61277500D01*
X67624428Y-61277500D01*
X67627500Y-61944250D01*
X67786250Y-62103000D01*
X69088000Y-62103000D01*
X69088000Y-60801250D01*
X68929250Y-60642500D01*
X68262500Y-60639428D01*
X68138018Y-60651688D01*
X68018320Y-60687998D01*
X67908006Y-60746963D01*
X67811315Y-60826315D01*
X67731963Y-60923006D01*
X67672998Y-61033320D01*
X67636688Y-61153018D01*
X67624428Y-61277500D01*
X66482038Y-61277500D01*
X66319823Y-61115285D01*
X66086068Y-60959095D01*
X66146574Y-60926754D01*
X66218169Y-60682774D01*
X65405000Y-59869605D01*
X64591831Y-60682774D01*
X64663426Y-60926754D01*
X64727744Y-60957188D01*
X64725225Y-60958231D01*
X64490177Y-61115285D01*
X64290285Y-61315177D01*
X64135000Y-61547578D01*
X63979715Y-61315177D01*
X63779823Y-61115285D01*
X63547422Y-60960000D01*
X63779823Y-60804715D01*
X63979715Y-60604823D01*
X64135905Y-60371068D01*
X64168246Y-60431574D01*
X64412226Y-60503169D01*
X65225395Y-59690000D01*
X65584605Y-59690000D01*
X66397774Y-60503169D01*
X66641754Y-60431574D01*
X66762664Y-60176046D01*
X66831400Y-59901839D01*
X66845320Y-59619492D01*
X66803889Y-59339853D01*
X66708700Y-59073672D01*
X66641754Y-58948426D01*
X66397774Y-58876831D01*
X65584605Y-59690000D01*
X65225395Y-59690000D01*
X64412226Y-58876831D01*
X64168246Y-58948426D01*
X64137812Y-59012744D01*
X64136769Y-59010225D01*
X63979715Y-58775177D01*
X63901764Y-58697226D01*
X64591831Y-58697226D01*
X65405000Y-59510395D01*
X66218169Y-58697226D01*
X66146574Y-58453246D01*
X65891046Y-58332336D01*
X65616839Y-58263600D01*
X65334492Y-58249680D01*
X65054853Y-58291111D01*
X64788672Y-58386300D01*
X64663426Y-58453246D01*
X64591831Y-58697226D01*
X63901764Y-58697226D01*
X63779823Y-58575285D01*
X63544775Y-58418231D01*
X63283603Y-58310050D01*
X63006345Y-58254900D01*
X62723655Y-58254900D01*
X62446397Y-58310050D01*
X62185225Y-58418231D01*
X61950177Y-58575285D01*
X61750285Y-58775177D01*
X61595000Y-59007578D01*
X61439715Y-58775177D01*
X61239823Y-58575285D01*
X61004775Y-58418231D01*
X60743603Y-58310050D01*
X60466345Y-58254900D01*
X60183655Y-58254900D01*
X59906397Y-58310050D01*
X59645225Y-58418231D01*
X59410177Y-58575285D01*
X59246405Y-58739057D01*
X59122277Y-58751283D01*
X59032504Y-58778516D01*
X58942730Y-58805748D01*
X58859995Y-58849971D01*
X58777259Y-58894194D01*
X58632222Y-59013222D01*
X58602389Y-59049574D01*
X58033565Y-59618397D01*
X57997223Y-59648222D01*
X57967399Y-59684563D01*
X57878194Y-59793260D01*
X57789749Y-59958731D01*
X57735283Y-60138278D01*
X57732546Y-60166067D01*
X57473179Y-60039652D01*
X57158656Y-59956936D01*
X56834038Y-59937169D01*
X56511802Y-59981112D01*
X56213549Y-60083899D01*
X56248064Y-59952656D01*
X56267831Y-59628038D01*
X56223888Y-59305802D01*
X56117924Y-58998330D01*
X56022860Y-58820478D01*
X55756823Y-58722782D01*
X54789605Y-59690000D01*
X54803748Y-59704143D01*
X54624143Y-59883748D01*
X54610000Y-59869605D01*
X53642782Y-60836823D01*
X53740478Y-61102860D01*
X54032821Y-61245348D01*
X54347344Y-61328064D01*
X54671962Y-61347831D01*
X54994198Y-61303888D01*
X55292451Y-61201101D01*
X55257936Y-61332344D01*
X55238169Y-61656962D01*
X55282112Y-61979198D01*
X55388076Y-62286670D01*
X55483140Y-62464522D01*
X55749177Y-62562218D01*
X56716395Y-61595000D01*
X56702253Y-61580858D01*
X56881858Y-61401253D01*
X56896000Y-61415395D01*
X56910143Y-61401253D01*
X57089748Y-61580858D01*
X57075605Y-61595000D01*
X57089748Y-61609143D01*
X56910143Y-61788748D01*
X56896000Y-61774605D01*
X55928782Y-62741823D01*
X56026478Y-63007860D01*
X56318821Y-63150348D01*
X56633344Y-63233064D01*
X56940211Y-63251750D01*
X56255564Y-63936398D01*
X56219223Y-63966222D01*
X56189399Y-64002563D01*
X56116128Y-64091844D01*
X56073097Y-63987958D01*
X55892415Y-63717549D01*
X55662451Y-63487585D01*
X55392042Y-63306903D01*
X55091579Y-63182447D01*
X54772609Y-63119000D01*
X54447391Y-63119000D01*
X54128421Y-63182447D01*
X53827958Y-63306903D01*
X53557549Y-63487585D01*
X53327585Y-63717549D01*
X53260800Y-63817500D01*
X48339200Y-63817500D01*
X48272415Y-63717549D01*
X48042451Y-63487585D01*
X47772042Y-63306903D01*
X47471579Y-63182447D01*
X47152609Y-63119000D01*
X46827391Y-63119000D01*
X46508421Y-63182447D01*
X46207958Y-63306903D01*
X45937549Y-63487585D01*
X45707585Y-63717549D01*
X45526903Y-63987958D01*
X45402447Y-64288421D01*
X45339000Y-64607391D01*
X45339000Y-64932609D01*
X45402447Y-65251579D01*
X45526903Y-65552042D01*
X45707585Y-65822451D01*
X45937549Y-66052415D01*
X46207958Y-66233097D01*
X46508421Y-66357553D01*
X46827391Y-66421000D01*
X47152609Y-66421000D01*
X47471579Y-66357553D01*
X47772042Y-66233097D01*
X48042451Y-66052415D01*
X48272415Y-65822451D01*
X48339200Y-65722500D01*
X53260800Y-65722500D01*
X53327585Y-65822451D01*
X53557549Y-66052415D01*
X53827958Y-66233097D01*
X54128421Y-66357553D01*
X54447391Y-66421000D01*
X54772609Y-66421000D01*
X55091579Y-66357553D01*
X55330283Y-66258678D01*
X54677893Y-66911069D01*
X54489667Y-66756595D01*
X54242563Y-66624516D01*
X53974439Y-66543181D01*
X53765475Y-66522600D01*
X52914525Y-66522600D01*
X52705561Y-66543181D01*
X52437437Y-66624516D01*
X52190333Y-66756595D01*
X52125311Y-66809957D01*
X52069999Y-66804510D01*
X52014255Y-66810000D01*
X52014248Y-66810000D01*
X51868493Y-66824356D01*
X51847500Y-66826423D01*
X51810626Y-66837609D01*
X51633553Y-66891324D01*
X51436377Y-66996716D01*
X51263551Y-67138551D01*
X51228008Y-67181860D01*
X50036860Y-68373009D01*
X49993552Y-68408551D01*
X49851717Y-68581377D01*
X49814182Y-68651601D01*
X49746324Y-68778554D01*
X49681423Y-68992502D01*
X49659509Y-69215000D01*
X49665001Y-69270761D01*
X49665000Y-78240000D01*
X49267352Y-78240000D01*
X49266812Y-78234518D01*
X49230502Y-78114820D01*
X49171537Y-78004506D01*
X49092185Y-77907815D01*
X48995494Y-77828463D01*
X48885180Y-77769498D01*
X48765482Y-77733188D01*
X48641000Y-77720928D01*
X46609000Y-77720928D01*
X46484518Y-77733188D01*
X46364820Y-77769498D01*
X46254506Y-77828463D01*
X46157815Y-77907815D01*
X46106102Y-77970828D01*
X45906745Y-77837623D01*
X45591028Y-77706848D01*
X45255865Y-77640180D01*
X44914135Y-77640180D01*
X44578972Y-77706848D01*
X44263255Y-77837623D01*
X43979117Y-78027477D01*
X43737477Y-78269117D01*
X43547623Y-78553255D01*
X43416848Y-78868972D01*
X43350180Y-79204135D01*
X35719990Y-79204135D01*
X35719990Y-75912060D01*
X43984990Y-75912060D01*
X44001672Y-75991996D01*
X44111159Y-76249646D01*
X44268808Y-76480986D01*
X44468560Y-76677125D01*
X44702738Y-76830526D01*
X44962344Y-76935293D01*
X45237400Y-76987400D01*
X45593000Y-76987400D01*
X45593000Y-75692000D01*
X45847000Y-75692000D01*
X45847000Y-76987400D01*
X46202600Y-76987400D01*
X46477656Y-76935293D01*
X46737262Y-76830526D01*
X46971440Y-76677125D01*
X47171192Y-76480986D01*
X47328841Y-76249646D01*
X47438328Y-75991996D01*
X47455010Y-75912060D01*
X47332852Y-75692000D01*
X45847000Y-75692000D01*
X45593000Y-75692000D01*
X44107148Y-75692000D01*
X43984990Y-75912060D01*
X35719990Y-75912060D01*
X35719990Y-70546962D01*
X40252169Y-70546962D01*
X40296112Y-70869198D01*
X40402076Y-71176670D01*
X40497140Y-71354522D01*
X40663104Y-71415468D01*
X40649820Y-71419498D01*
X40539506Y-71478463D01*
X40442815Y-71557815D01*
X40363463Y-71654506D01*
X40304498Y-71764820D01*
X40268188Y-71884518D01*
X40255928Y-72009000D01*
X40255928Y-74041000D01*
X40268188Y-74165482D01*
X40304498Y-74285180D01*
X40363463Y-74395494D01*
X40442815Y-74492185D01*
X40539506Y-74571537D01*
X40649820Y-74630502D01*
X40769518Y-74666812D01*
X40894000Y-74679072D01*
X42926000Y-74679072D01*
X43050482Y-74666812D01*
X43170180Y-74630502D01*
X43280494Y-74571537D01*
X43377185Y-74492185D01*
X43456537Y-74395494D01*
X43515502Y-74285180D01*
X43551812Y-74165482D01*
X43564072Y-74041000D01*
X43564072Y-72009000D01*
X43551812Y-71884518D01*
X43515502Y-71764820D01*
X43456537Y-71654506D01*
X43377185Y-71557815D01*
X43280494Y-71478463D01*
X43170180Y-71419498D01*
X43156896Y-71415468D01*
X43322860Y-71354522D01*
X43465348Y-71062179D01*
X43548064Y-70747656D01*
X43564057Y-70485000D01*
X43935118Y-70485000D01*
X43962581Y-70763839D01*
X44043916Y-71031963D01*
X44175995Y-71279067D01*
X44353745Y-71495655D01*
X44570333Y-71673405D01*
X44722987Y-71755000D01*
X44570333Y-71836595D01*
X44353745Y-72014345D01*
X44175995Y-72230933D01*
X44043916Y-72478037D01*
X43962581Y-72746161D01*
X43935118Y-73025000D01*
X43962581Y-73303839D01*
X44043916Y-73571963D01*
X44175995Y-73819067D01*
X44353745Y-74035655D01*
X44570333Y-74213405D01*
X44719045Y-74292893D01*
X44702738Y-74299474D01*
X44468560Y-74452875D01*
X44268808Y-74649014D01*
X44111159Y-74880354D01*
X44001672Y-75138004D01*
X43984990Y-75217940D01*
X44107148Y-75438000D01*
X45593000Y-75438000D01*
X45593000Y-75418000D01*
X45847000Y-75418000D01*
X45847000Y-75438000D01*
X47332852Y-75438000D01*
X47455010Y-75217940D01*
X47438328Y-75138004D01*
X47328841Y-74880354D01*
X47171192Y-74649014D01*
X46971440Y-74452875D01*
X46737262Y-74299474D01*
X46720955Y-74292893D01*
X46869667Y-74213405D01*
X47086255Y-74035655D01*
X47264005Y-73819067D01*
X47396084Y-73571963D01*
X47477419Y-73303839D01*
X47504882Y-73025000D01*
X47477419Y-72746161D01*
X47396084Y-72478037D01*
X47264005Y-72230933D01*
X47086255Y-72014345D01*
X46869667Y-71836595D01*
X46717013Y-71755000D01*
X46869667Y-71673405D01*
X47086255Y-71495655D01*
X47264005Y-71279067D01*
X47396084Y-71031963D01*
X47477419Y-70763839D01*
X47504882Y-70485000D01*
X47477419Y-70206161D01*
X47396084Y-69938037D01*
X47264005Y-69690933D01*
X47086255Y-69474345D01*
X46949326Y-69361970D01*
X46987482Y-69358212D01*
X47107180Y-69321902D01*
X47217494Y-69262937D01*
X47314185Y-69183585D01*
X47393537Y-69086894D01*
X47452502Y-68976580D01*
X47488812Y-68856882D01*
X47501072Y-68732400D01*
X47501072Y-67157600D01*
X47488812Y-67033118D01*
X47452502Y-66913420D01*
X47393537Y-66803106D01*
X47314185Y-66706415D01*
X47217494Y-66627063D01*
X47107180Y-66568098D01*
X46987482Y-66531788D01*
X46863000Y-66519528D01*
X44577000Y-66519528D01*
X44452518Y-66531788D01*
X44332820Y-66568098D01*
X44222506Y-66627063D01*
X44125815Y-66706415D01*
X44046463Y-66803106D01*
X43987498Y-66913420D01*
X43951188Y-67033118D01*
X43938928Y-67157600D01*
X43938928Y-68732400D01*
X43951188Y-68856882D01*
X43987498Y-68976580D01*
X44046463Y-69086894D01*
X44125815Y-69183585D01*
X44222506Y-69262937D01*
X44332820Y-69321902D01*
X44452518Y-69358212D01*
X44490674Y-69361970D01*
X44353745Y-69474345D01*
X44175995Y-69690933D01*
X44043916Y-69938037D01*
X43962581Y-70206161D01*
X43935118Y-70485000D01*
X43564057Y-70485000D01*
X43567831Y-70423038D01*
X43523888Y-70100802D01*
X43417924Y-69793330D01*
X43322860Y-69615478D01*
X43056823Y-69517782D01*
X42089605Y-70485000D01*
X42103748Y-70499143D01*
X41924143Y-70678748D01*
X41910000Y-70664605D01*
X41895858Y-70678748D01*
X41716253Y-70499143D01*
X41730395Y-70485000D01*
X40763177Y-69517782D01*
X40497140Y-69615478D01*
X40354652Y-69907821D01*
X40271936Y-70222344D01*
X40252169Y-70546962D01*
X35719990Y-70546962D01*
X35719990Y-67782391D01*
X40259000Y-67782391D01*
X40259000Y-68107609D01*
X40322447Y-68426579D01*
X40446903Y-68727042D01*
X40627585Y-68997451D01*
X40857549Y-69227415D01*
X40958649Y-69294968D01*
X40942782Y-69338177D01*
X41910000Y-70305395D01*
X42877218Y-69338177D01*
X42861351Y-69294968D01*
X42962451Y-69227415D01*
X43192415Y-68997451D01*
X43373097Y-68727042D01*
X43497553Y-68426579D01*
X43561000Y-68107609D01*
X43561000Y-67782391D01*
X43497553Y-67463421D01*
X43373097Y-67162958D01*
X43192415Y-66892549D01*
X42962451Y-66662585D01*
X42692042Y-66481903D01*
X42391579Y-66357447D01*
X42072609Y-66294000D01*
X41747391Y-66294000D01*
X41428421Y-66357447D01*
X41127958Y-66481903D01*
X40857549Y-66662585D01*
X40627585Y-66892549D01*
X40446903Y-67162958D01*
X40322447Y-67463421D01*
X40259000Y-67782391D01*
X35719990Y-67782391D01*
X35719990Y-59234873D01*
X37299997Y-59234873D01*
X37299997Y-59675129D01*
X37385887Y-60106926D01*
X37554366Y-60513670D01*
X37798959Y-60879730D01*
X38110268Y-61191039D01*
X38476328Y-61435632D01*
X38883072Y-61604111D01*
X39314869Y-61690001D01*
X39755125Y-61690001D01*
X40186922Y-61604111D01*
X40593666Y-61435632D01*
X40959726Y-61191039D01*
X41271035Y-60879730D01*
X41299704Y-60836823D01*
X46022782Y-60836823D01*
X46120478Y-61102860D01*
X46412821Y-61245348D01*
X46727344Y-61328064D01*
X47051962Y-61347831D01*
X47374198Y-61303888D01*
X47681670Y-61197924D01*
X47859522Y-61102860D01*
X47957218Y-60836823D01*
X46990000Y-59869605D01*
X46022782Y-60836823D01*
X41299704Y-60836823D01*
X41515628Y-60513670D01*
X41684107Y-60106926D01*
X41754713Y-59751962D01*
X45332169Y-59751962D01*
X45376112Y-60074198D01*
X45482076Y-60381670D01*
X45577140Y-60559522D01*
X45843177Y-60657218D01*
X46810395Y-59690000D01*
X47169605Y-59690000D01*
X48136823Y-60657218D01*
X48402860Y-60559522D01*
X48545348Y-60267179D01*
X48628064Y-59952656D01*
X48640284Y-59751962D01*
X52952169Y-59751962D01*
X52996112Y-60074198D01*
X53102076Y-60381670D01*
X53197140Y-60559522D01*
X53463177Y-60657218D01*
X54430395Y-59690000D01*
X53463177Y-58722782D01*
X53197140Y-58820478D01*
X53054652Y-59112821D01*
X52971936Y-59427344D01*
X52952169Y-59751962D01*
X48640284Y-59751962D01*
X48647831Y-59628038D01*
X48603888Y-59305802D01*
X48497924Y-58998330D01*
X48402860Y-58820478D01*
X48136823Y-58722782D01*
X47169605Y-59690000D01*
X46810395Y-59690000D01*
X45843177Y-58722782D01*
X45577140Y-58820478D01*
X45434652Y-59112821D01*
X45351936Y-59427344D01*
X45332169Y-59751962D01*
X41754713Y-59751962D01*
X41769997Y-59675129D01*
X41769997Y-59234873D01*
X41684107Y-58803076D01*
X41576454Y-58543177D01*
X46022782Y-58543177D01*
X46990000Y-59510395D01*
X47957218Y-58543177D01*
X53642782Y-58543177D01*
X54610000Y-59510395D01*
X55577218Y-58543177D01*
X55479522Y-58277140D01*
X55187179Y-58134652D01*
X54872656Y-58051936D01*
X54548038Y-58032169D01*
X54225802Y-58076112D01*
X53918330Y-58182076D01*
X53740478Y-58277140D01*
X53642782Y-58543177D01*
X47957218Y-58543177D01*
X47859522Y-58277140D01*
X47567179Y-58134652D01*
X47252656Y-58051936D01*
X46928038Y-58032169D01*
X46605802Y-58076112D01*
X46298330Y-58182076D01*
X46120478Y-58277140D01*
X46022782Y-58543177D01*
X41576454Y-58543177D01*
X41515628Y-58396332D01*
X41271035Y-58030272D01*
X40959726Y-57718963D01*
X40593666Y-57474370D01*
X40186922Y-57305891D01*
X39755125Y-57220001D01*
X39314869Y-57220001D01*
X38883072Y-57305891D01*
X38476328Y-57474370D01*
X38110268Y-57718963D01*
X37798959Y-58030272D01*
X37554366Y-58396332D01*
X37385887Y-58803076D01*
X37299997Y-59234873D01*
X35719990Y-59234873D01*
X35719990Y-58360065D01*
X35732262Y-58115536D01*
X35765561Y-57896165D01*
X35819600Y-57685034D01*
X35893266Y-57482972D01*
X35985573Y-57290842D01*
X36095519Y-57109490D01*
X36221991Y-56940149D01*
X36363898Y-56783941D01*
X36520142Y-56642019D01*
X36689475Y-56515514D01*
X36870733Y-56405659D01*
X37063023Y-56313302D01*
X37265059Y-56239589D01*
X37476098Y-56185611D01*
X37695574Y-56152304D01*
X37940117Y-56139998D01*
X87129884Y-56139998D01*
X87374425Y-56152304D01*
G37*
G04 #@! TD.AperFunction*
D22*
X67932585Y-74712451D02*
X68150134Y-74930000D01*
X67932585Y-75147549D01*
X67751903Y-75417958D01*
X67627447Y-75718421D01*
X67564000Y-76037391D01*
X67564000Y-76245868D01*
X65657860Y-78152009D01*
X65614552Y-78187551D01*
X65472717Y-78360377D01*
X65432145Y-78436283D01*
X65367324Y-78557554D01*
X65302423Y-78771502D01*
X65280509Y-78994000D01*
X65286001Y-79049761D01*
X65286000Y-84590000D01*
X62989772Y-84590000D01*
X63001824Y-84571963D01*
X63121493Y-84283057D01*
X63182500Y-83976355D01*
X63182500Y-83663645D01*
X63121493Y-83356943D01*
X63001824Y-83068037D01*
X62828092Y-82808028D01*
X62606972Y-82586908D01*
X62346963Y-82413176D01*
X62058057Y-82293507D01*
X61751355Y-82232500D01*
X61438645Y-82232500D01*
X61131943Y-82293507D01*
X60843037Y-82413176D01*
X60583028Y-82586908D01*
X60361908Y-82808028D01*
X60188176Y-83068037D01*
X60068507Y-83356943D01*
X60007500Y-83663645D01*
X60007500Y-83976355D01*
X60068507Y-84283057D01*
X60188176Y-84571963D01*
X60200228Y-84590000D01*
X57650000Y-84590000D01*
X57650000Y-84192352D01*
X57655482Y-84191812D01*
X57775180Y-84155502D01*
X57885494Y-84096537D01*
X57982185Y-84017185D01*
X58061537Y-83920494D01*
X58120502Y-83810180D01*
X58156812Y-83690482D01*
X58169072Y-83566000D01*
X58169072Y-81534000D01*
X58156812Y-81409518D01*
X58120502Y-81289820D01*
X58061537Y-81179506D01*
X57982185Y-81082815D01*
X57885494Y-81003463D01*
X57775180Y-80944498D01*
X57761896Y-80940468D01*
X57927860Y-80879522D01*
X58070348Y-80587179D01*
X58153064Y-80272656D01*
X58172831Y-79948038D01*
X58158308Y-79841535D01*
X60673070Y-79841535D01*
X60763098Y-80101081D01*
X61044616Y-80237224D01*
X61347286Y-80315829D01*
X61659474Y-80333877D01*
X61969185Y-80290672D01*
X62264516Y-80187877D01*
X62426902Y-80101081D01*
X62516930Y-79841535D01*
X61595000Y-78919605D01*
X60673070Y-79841535D01*
X58158308Y-79841535D01*
X58128888Y-79625802D01*
X58022924Y-79318330D01*
X57927860Y-79140478D01*
X57661823Y-79042782D01*
X56694605Y-80010000D01*
X56708748Y-80024143D01*
X56529143Y-80203748D01*
X56515000Y-80189605D01*
X56500858Y-80203748D01*
X56321253Y-80024143D01*
X56335395Y-80010000D01*
X55368177Y-79042782D01*
X55102140Y-79140478D01*
X54959652Y-79432821D01*
X54876936Y-79747344D01*
X54857169Y-80071962D01*
X54901112Y-80394198D01*
X55007076Y-80701670D01*
X55102140Y-80879522D01*
X55268104Y-80940468D01*
X55254820Y-80944498D01*
X55144506Y-81003463D01*
X55047815Y-81082815D01*
X54968463Y-81179506D01*
X54909498Y-81289820D01*
X54873188Y-81409518D01*
X54860928Y-81534000D01*
X54860928Y-83566000D01*
X54865603Y-83613472D01*
X54800500Y-83548369D01*
X54800500Y-81580785D01*
X54805108Y-81534000D01*
X54786717Y-81347277D01*
X54778982Y-81321778D01*
X54732252Y-81167731D01*
X54643806Y-81002259D01*
X54524778Y-80857222D01*
X54488436Y-80827397D01*
X52524216Y-78863177D01*
X55547782Y-78863177D01*
X56515000Y-79830395D01*
X57482218Y-78863177D01*
X57460661Y-78804474D01*
X60001123Y-78804474D01*
X60044328Y-79114185D01*
X60147123Y-79409516D01*
X60233919Y-79571902D01*
X60493465Y-79661930D01*
X61415395Y-78740000D01*
X61774605Y-78740000D01*
X62696535Y-79661930D01*
X62956081Y-79571902D01*
X63092224Y-79290384D01*
X63170829Y-78987714D01*
X63188877Y-78675526D01*
X63145672Y-78365815D01*
X63042877Y-78070484D01*
X62956081Y-77908098D01*
X62696535Y-77818070D01*
X61774605Y-78740000D01*
X61415395Y-78740000D01*
X60493465Y-77818070D01*
X60233919Y-77908098D01*
X60097776Y-78189616D01*
X60019171Y-78492286D01*
X60001123Y-78804474D01*
X57460661Y-78804474D01*
X57384522Y-78597140D01*
X57092179Y-78454652D01*
X56777656Y-78371936D01*
X56453038Y-78352169D01*
X56130802Y-78396112D01*
X55823330Y-78502076D01*
X55645478Y-78597140D01*
X55547782Y-78863177D01*
X52524216Y-78863177D01*
X51935000Y-78273962D01*
X51935000Y-77638465D01*
X60673070Y-77638465D01*
X61595000Y-78560395D01*
X62516930Y-77638465D01*
X62426902Y-77378919D01*
X62145384Y-77242776D01*
X61842714Y-77164171D01*
X61530526Y-77146123D01*
X61220815Y-77189328D01*
X60925484Y-77292123D01*
X60763098Y-77378919D01*
X60673070Y-77638465D01*
X51935000Y-77638465D01*
X51935000Y-76528444D01*
X51973745Y-76575655D01*
X52190333Y-76753405D01*
X52437437Y-76885484D01*
X52705561Y-76966819D01*
X52914525Y-76987400D01*
X53765475Y-76987400D01*
X53974439Y-76966819D01*
X54242563Y-76885484D01*
X54489667Y-76753405D01*
X54706255Y-76575655D01*
X54753982Y-76517500D01*
X55706215Y-76517500D01*
X55753000Y-76522108D01*
X55799785Y-76517500D01*
X55939723Y-76503717D01*
X56119269Y-76449252D01*
X56284741Y-76360806D01*
X56429778Y-76241778D01*
X56459608Y-76205430D01*
X56782537Y-75882500D01*
X57705800Y-75882500D01*
X57772585Y-75982451D01*
X58002549Y-76212415D01*
X58272958Y-76393097D01*
X58573421Y-76517553D01*
X58892391Y-76581000D01*
X59217609Y-76581000D01*
X59536579Y-76517553D01*
X59837042Y-76393097D01*
X60107451Y-76212415D01*
X60325000Y-75994866D01*
X60542549Y-76212415D01*
X60812958Y-76393097D01*
X61113421Y-76517553D01*
X61432391Y-76581000D01*
X61757609Y-76581000D01*
X62076579Y-76517553D01*
X62377042Y-76393097D01*
X62647451Y-76212415D01*
X62865000Y-75994866D01*
X63082549Y-76212415D01*
X63352958Y-76393097D01*
X63653421Y-76517553D01*
X63972391Y-76581000D01*
X64297609Y-76581000D01*
X64616579Y-76517553D01*
X64917042Y-76393097D01*
X65187451Y-76212415D01*
X65417415Y-75982451D01*
X65484200Y-75882500D01*
X65993215Y-75882500D01*
X66040000Y-75887108D01*
X66086785Y-75882500D01*
X66226723Y-75868717D01*
X66406269Y-75814252D01*
X66571741Y-75725806D01*
X66716778Y-75606778D01*
X66746607Y-75570431D01*
X67704539Y-74612500D01*
X67865800Y-74612500D01*
X67932585Y-74712451D01*
G04 #@! TA.AperFunction,Conductor*
D23*
G36*
X67932585Y-74712451D02*
G01*
X68150134Y-74930000D01*
X67932585Y-75147549D01*
X67751903Y-75417958D01*
X67627447Y-75718421D01*
X67564000Y-76037391D01*
X67564000Y-76245868D01*
X65657860Y-78152009D01*
X65614552Y-78187551D01*
X65472717Y-78360377D01*
X65432145Y-78436283D01*
X65367324Y-78557554D01*
X65302423Y-78771502D01*
X65280509Y-78994000D01*
X65286001Y-79049761D01*
X65286000Y-84590000D01*
X62989772Y-84590000D01*
X63001824Y-84571963D01*
X63121493Y-84283057D01*
X63182500Y-83976355D01*
X63182500Y-83663645D01*
X63121493Y-83356943D01*
X63001824Y-83068037D01*
X62828092Y-82808028D01*
X62606972Y-82586908D01*
X62346963Y-82413176D01*
X62058057Y-82293507D01*
X61751355Y-82232500D01*
X61438645Y-82232500D01*
X61131943Y-82293507D01*
X60843037Y-82413176D01*
X60583028Y-82586908D01*
X60361908Y-82808028D01*
X60188176Y-83068037D01*
X60068507Y-83356943D01*
X60007500Y-83663645D01*
X60007500Y-83976355D01*
X60068507Y-84283057D01*
X60188176Y-84571963D01*
X60200228Y-84590000D01*
X57650000Y-84590000D01*
X57650000Y-84192352D01*
X57655482Y-84191812D01*
X57775180Y-84155502D01*
X57885494Y-84096537D01*
X57982185Y-84017185D01*
X58061537Y-83920494D01*
X58120502Y-83810180D01*
X58156812Y-83690482D01*
X58169072Y-83566000D01*
X58169072Y-81534000D01*
X58156812Y-81409518D01*
X58120502Y-81289820D01*
X58061537Y-81179506D01*
X57982185Y-81082815D01*
X57885494Y-81003463D01*
X57775180Y-80944498D01*
X57761896Y-80940468D01*
X57927860Y-80879522D01*
X58070348Y-80587179D01*
X58153064Y-80272656D01*
X58172831Y-79948038D01*
X58158308Y-79841535D01*
X60673070Y-79841535D01*
X60763098Y-80101081D01*
X61044616Y-80237224D01*
X61347286Y-80315829D01*
X61659474Y-80333877D01*
X61969185Y-80290672D01*
X62264516Y-80187877D01*
X62426902Y-80101081D01*
X62516930Y-79841535D01*
X61595000Y-78919605D01*
X60673070Y-79841535D01*
X58158308Y-79841535D01*
X58128888Y-79625802D01*
X58022924Y-79318330D01*
X57927860Y-79140478D01*
X57661823Y-79042782D01*
X56694605Y-80010000D01*
X56708748Y-80024143D01*
X56529143Y-80203748D01*
X56515000Y-80189605D01*
X56500858Y-80203748D01*
X56321253Y-80024143D01*
X56335395Y-80010000D01*
X55368177Y-79042782D01*
X55102140Y-79140478D01*
X54959652Y-79432821D01*
X54876936Y-79747344D01*
X54857169Y-80071962D01*
X54901112Y-80394198D01*
X55007076Y-80701670D01*
X55102140Y-80879522D01*
X55268104Y-80940468D01*
X55254820Y-80944498D01*
X55144506Y-81003463D01*
X55047815Y-81082815D01*
X54968463Y-81179506D01*
X54909498Y-81289820D01*
X54873188Y-81409518D01*
X54860928Y-81534000D01*
X54860928Y-83566000D01*
X54865603Y-83613472D01*
X54800500Y-83548369D01*
X54800500Y-81580785D01*
X54805108Y-81534000D01*
X54786717Y-81347277D01*
X54778982Y-81321778D01*
X54732252Y-81167731D01*
X54643806Y-81002259D01*
X54524778Y-80857222D01*
X54488436Y-80827397D01*
X52524216Y-78863177D01*
X55547782Y-78863177D01*
X56515000Y-79830395D01*
X57482218Y-78863177D01*
X57460661Y-78804474D01*
X60001123Y-78804474D01*
X60044328Y-79114185D01*
X60147123Y-79409516D01*
X60233919Y-79571902D01*
X60493465Y-79661930D01*
X61415395Y-78740000D01*
X61774605Y-78740000D01*
X62696535Y-79661930D01*
X62956081Y-79571902D01*
X63092224Y-79290384D01*
X63170829Y-78987714D01*
X63188877Y-78675526D01*
X63145672Y-78365815D01*
X63042877Y-78070484D01*
X62956081Y-77908098D01*
X62696535Y-77818070D01*
X61774605Y-78740000D01*
X61415395Y-78740000D01*
X60493465Y-77818070D01*
X60233919Y-77908098D01*
X60097776Y-78189616D01*
X60019171Y-78492286D01*
X60001123Y-78804474D01*
X57460661Y-78804474D01*
X57384522Y-78597140D01*
X57092179Y-78454652D01*
X56777656Y-78371936D01*
X56453038Y-78352169D01*
X56130802Y-78396112D01*
X55823330Y-78502076D01*
X55645478Y-78597140D01*
X55547782Y-78863177D01*
X52524216Y-78863177D01*
X51935000Y-78273962D01*
X51935000Y-77638465D01*
X60673070Y-77638465D01*
X61595000Y-78560395D01*
X62516930Y-77638465D01*
X62426902Y-77378919D01*
X62145384Y-77242776D01*
X61842714Y-77164171D01*
X61530526Y-77146123D01*
X61220815Y-77189328D01*
X60925484Y-77292123D01*
X60763098Y-77378919D01*
X60673070Y-77638465D01*
X51935000Y-77638465D01*
X51935000Y-76528444D01*
X51973745Y-76575655D01*
X52190333Y-76753405D01*
X52437437Y-76885484D01*
X52705561Y-76966819D01*
X52914525Y-76987400D01*
X53765475Y-76987400D01*
X53974439Y-76966819D01*
X54242563Y-76885484D01*
X54489667Y-76753405D01*
X54706255Y-76575655D01*
X54753982Y-76517500D01*
X55706215Y-76517500D01*
X55753000Y-76522108D01*
X55799785Y-76517500D01*
X55939723Y-76503717D01*
X56119269Y-76449252D01*
X56284741Y-76360806D01*
X56429778Y-76241778D01*
X56459608Y-76205430D01*
X56782537Y-75882500D01*
X57705800Y-75882500D01*
X57772585Y-75982451D01*
X58002549Y-76212415D01*
X58272958Y-76393097D01*
X58573421Y-76517553D01*
X58892391Y-76581000D01*
X59217609Y-76581000D01*
X59536579Y-76517553D01*
X59837042Y-76393097D01*
X60107451Y-76212415D01*
X60325000Y-75994866D01*
X60542549Y-76212415D01*
X60812958Y-76393097D01*
X61113421Y-76517553D01*
X61432391Y-76581000D01*
X61757609Y-76581000D01*
X62076579Y-76517553D01*
X62377042Y-76393097D01*
X62647451Y-76212415D01*
X62865000Y-75994866D01*
X63082549Y-76212415D01*
X63352958Y-76393097D01*
X63653421Y-76517553D01*
X63972391Y-76581000D01*
X64297609Y-76581000D01*
X64616579Y-76517553D01*
X64917042Y-76393097D01*
X65187451Y-76212415D01*
X65417415Y-75982451D01*
X65484200Y-75882500D01*
X65993215Y-75882500D01*
X66040000Y-75887108D01*
X66086785Y-75882500D01*
X66226723Y-75868717D01*
X66406269Y-75814252D01*
X66571741Y-75725806D01*
X66716778Y-75606778D01*
X66746607Y-75570431D01*
X67704539Y-74612500D01*
X67865800Y-74612500D01*
X67932585Y-74712451D01*
G37*
G04 #@! TD.AperFunction*
M02*
