M48
;DRILL file {KiCad 4.0.0-rc2-stable} date 23/12/2015 16:59:56
;FORMAT={-:-/ absolute / metric / decimal}
FMAT,2
METRIC,TZ
T1C0.635
T2C0.800
T3C0.813
T4C1.000
T5C1.001
T6C1.501
%
G90
G05
M71
T1
X64.516Y-70.485
T2
X56.515Y-80.01
X56.515Y-82.55
X56.896Y-61.595
X56.896Y-69.215
X59.055Y-67.31
X59.055Y-74.93
X61.595Y-67.31
X61.595Y-74.93
X61.595Y-78.74
X61.595Y-83.82
X64.135Y-67.31
X64.135Y-74.93
X68.58Y-67.945
X68.58Y-70.485
X68.58Y-83.185
X69.215Y-62.23
X71.12Y-67.945
X71.12Y-80.645
X71.12Y-83.185
X71.755Y-59.69
X71.755Y-62.23
X73.66Y-69.215
X73.66Y-76.2
X76.2Y-66.675
X76.2Y-69.215
X76.2Y-73.66
X76.2Y-76.2
T3
X41.91Y-67.945
X41.91Y-70.485
X41.91Y-73.025
X45.72Y-67.945
X45.72Y-70.485
X45.72Y-73.025
X45.72Y-75.565
X53.34Y-67.945
X53.34Y-70.485
X53.34Y-73.025
X53.34Y-75.565
X69.215Y-73.66
X69.215Y-76.2
X78.105Y-60.325
X78.105Y-62.865
X78.105Y-80.645
X78.105Y-83.185
X82.55Y-66.675
X82.55Y-69.215
X82.55Y-74.295
X82.55Y-76.835
T4
X60.325Y-59.69
X60.325Y-62.23
X62.865Y-59.69
X62.865Y-62.23
X65.405Y-59.69
X65.405Y-62.23
T5
X46.99Y-59.69
X46.99Y-64.77
X47.371Y-80.01
X50.8Y-80.01
X54.61Y-59.69
X54.61Y-64.77
T6
X47.244Y-83.439
X50.8Y-83.566
T0
M30
