G04 #@! TF.GenerationSoftware,KiCad,Pcbnew,(5.1.12)-1*
G04 #@! TF.CreationDate,2022-05-10T20:13:38+01:00*
G04 #@! TF.ProjectId,TV_B_Gone_ML_v1_3,54565f42-5f47-46f6-9e65-5f4d4c5f7631,rev?*
G04 #@! TF.SameCoordinates,Original*
G04 #@! TF.FileFunction,Profile,NP*
%FSLAX46Y46*%
G04 Gerber Fmt 4.6, Leading zero omitted, Abs format (unit mm)*
G04 Created by KiCad (PCBNEW (5.1.12)-1) date 2022-05-10 20:13:38*
%MOMM*%
%LPD*%
G01*
G04 APERTURE LIST*
G04 #@! TA.AperFunction,Profile*
%ADD10C,0.100000*%
G04 #@! TD*
G04 APERTURE END LIST*
D10*
X37922900Y-55454998D02*
X37922900Y-55454998D01*
X37922900Y-55454998D02*
X37922900Y-55454998D01*
X37626800Y-55469898D02*
X37922900Y-55454998D01*
X37339500Y-55513498D02*
X37626800Y-55469898D01*
X37062300Y-55584398D02*
X37339500Y-55513498D01*
X36796710Y-55681298D02*
X37062300Y-55584398D01*
X36544160Y-55802598D02*
X36796710Y-55681298D01*
X36306070Y-55946898D02*
X36544160Y-55802598D01*
X36083870Y-56112898D02*
X36306070Y-55946898D01*
X35878990Y-56298998D02*
X36083870Y-56112898D01*
X35692850Y-56503898D02*
X35878990Y-56298998D01*
X35526900Y-56726098D02*
X35692850Y-56503898D01*
X35382550Y-56964198D02*
X35526900Y-56726098D01*
X35261240Y-57216698D02*
X35382550Y-56964198D01*
X35164410Y-57482298D02*
X35261240Y-57216698D01*
X35093460Y-57759498D02*
X35164410Y-57482298D01*
X35049850Y-58046798D02*
X35093460Y-57759498D01*
X35034990Y-58342898D02*
X35049850Y-58046798D01*
X35034990Y-85567098D02*
X35034990Y-58342898D01*
X35049850Y-85863198D02*
X35034990Y-85567098D01*
X35093460Y-86150498D02*
X35049850Y-85863198D01*
X35164410Y-86427698D02*
X35093460Y-86150498D01*
X35261240Y-86693298D02*
X35164410Y-86427698D01*
X35382550Y-86945798D02*
X35261240Y-86693298D01*
X35526900Y-87183898D02*
X35382550Y-86945798D01*
X35692850Y-87406098D02*
X35526900Y-87183898D01*
X35878990Y-87610998D02*
X35692850Y-87406098D01*
X36083870Y-87797098D02*
X35878990Y-87610998D01*
X36306070Y-87963098D02*
X36083870Y-87797098D01*
X36544160Y-88107398D02*
X36306070Y-87963098D01*
X36796710Y-88228798D02*
X36544160Y-88107398D01*
X37062300Y-88325598D02*
X36796710Y-88228798D01*
X37339500Y-88396498D02*
X37062300Y-88325598D01*
X37626800Y-88440098D02*
X37339500Y-88396498D01*
X37922900Y-88454998D02*
X37626800Y-88440098D01*
X87147100Y-88454998D02*
X37922900Y-88454998D01*
X87443200Y-88440098D02*
X87147100Y-88454998D01*
X87730500Y-88396498D02*
X87443200Y-88440098D01*
X88007700Y-88325598D02*
X87730500Y-88396498D01*
X88273300Y-88228798D02*
X88007700Y-88325598D01*
X88525800Y-88107398D02*
X88273300Y-88228798D01*
X88763900Y-87963098D02*
X88525800Y-88107398D01*
X88986100Y-87797098D02*
X88763900Y-87963098D01*
X89191000Y-87610998D02*
X88986100Y-87797098D01*
X89377100Y-87406098D02*
X89191000Y-87610998D01*
X89543100Y-87183898D02*
X89377100Y-87406098D01*
X89687400Y-86945798D02*
X89543100Y-87183898D01*
X89808700Y-86693298D02*
X89687400Y-86945798D01*
X89905600Y-86427698D02*
X89808700Y-86693298D01*
X89976500Y-86150498D02*
X89905600Y-86427698D01*
X90020100Y-85863198D02*
X89976500Y-86150498D01*
X90035000Y-85567098D02*
X90020100Y-85863198D01*
X90035000Y-58342898D02*
X90035000Y-85567098D01*
X90020100Y-58046798D02*
X90035000Y-58342898D01*
X89976500Y-57759498D02*
X90020100Y-58046798D01*
X89905600Y-57482298D02*
X89976500Y-57759498D01*
X89808700Y-57216698D02*
X89905600Y-57482298D01*
X89687400Y-56964198D02*
X89808700Y-57216698D01*
X89543100Y-56726098D02*
X89687400Y-56964198D01*
X89377100Y-56503898D02*
X89543100Y-56726098D01*
X89191000Y-56298998D02*
X89377100Y-56503898D01*
X88986100Y-56112898D02*
X89191000Y-56298998D01*
X88763900Y-55946898D02*
X88986100Y-56112898D01*
X88525800Y-55802598D02*
X88763900Y-55946898D01*
X88273300Y-55681298D02*
X88525800Y-55802598D01*
X88007700Y-55584398D02*
X88273300Y-55681298D01*
X87730500Y-55513498D02*
X88007700Y-55584398D01*
X87443200Y-55469898D02*
X87730500Y-55513498D01*
X87147100Y-55454998D02*
X87443200Y-55469898D01*
X37922900Y-55454998D02*
X87147100Y-55454998D01*
M02*
