G04 #@! TF.GenerationSoftware,KiCad,Pcbnew,(5.1.0)-1*
G04 #@! TF.CreationDate,2020-04-07T09:07:39+01:00*
G04 #@! TF.ProjectId,TV_B_Gone_ML_v1_2,54565f42-5f47-46f6-9e65-5f4d4c5f7631,rev?*
G04 #@! TF.SameCoordinates,Original*
G04 #@! TF.FileFunction,Copper,L2,Bot*
G04 #@! TF.FilePolarity,Positive*
%FSLAX46Y46*%
G04 Gerber Fmt 4.6, Leading zero omitted, Abs format (unit mm)*
G04 Created by KiCad (PCBNEW (5.1.0)-1) date 2020-04-07 09:07:39*
%MOMM*%
%LPD*%
G04 APERTURE LIST*
%ADD10R,2.032000X2.032000*%
%ADD11C,2.032000*%
%ADD12C,1.905000*%
%ADD13R,2.286000X1.574800*%
%ADD14O,2.286000X1.574800*%
%ADD15R,2.499360X2.499360*%
%ADD16C,2.499360*%
%ADD17C,1.998980*%
%ADD18R,1.600200X1.600200*%
%ADD19C,1.600200*%
%ADD20R,1.905000X1.905000*%
%ADD21C,0.889000*%
%ADD22C,0.635000*%
%ADD23C,0.254000*%
G04 APERTURE END LIST*
D10*
X56515000Y-82550000D03*
D11*
X56515000Y-80010000D03*
D12*
X61595000Y-83820000D03*
X61595000Y-78740000D03*
D11*
X69215000Y-76200000D03*
X69215000Y-73660000D03*
D13*
X45720000Y-67945000D03*
D14*
X45720000Y-70485000D03*
X45720000Y-73025000D03*
X45720000Y-75565000D03*
X53340000Y-75565000D03*
X53340000Y-73025000D03*
X53340000Y-70485000D03*
X53340000Y-67945000D03*
D15*
X50800000Y-80010000D03*
D16*
X47371000Y-80010000D03*
D17*
X50800000Y-83566000D03*
X47244000Y-83439000D03*
D18*
X60325000Y-62230000D03*
D19*
X60325000Y-59690000D03*
X62865000Y-62230000D03*
X62865000Y-59690000D03*
X65405000Y-62230000D03*
X65405000Y-59690000D03*
D20*
X68580000Y-70485000D03*
D12*
X71120000Y-67945000D03*
X68580000Y-67945000D03*
D20*
X69215000Y-62230000D03*
D12*
X71755000Y-62230000D03*
X71755000Y-59690000D03*
D20*
X73660000Y-69215000D03*
D12*
X76200000Y-69215000D03*
X76200000Y-66675000D03*
D20*
X73660000Y-76200000D03*
D12*
X76200000Y-76200000D03*
X76200000Y-73660000D03*
D20*
X68580000Y-83185000D03*
D12*
X71120000Y-83185000D03*
X71120000Y-80645000D03*
D11*
X59055000Y-67310000D03*
X59055000Y-74930000D03*
X61595000Y-74930000D03*
X61595000Y-67310000D03*
X56896000Y-69215000D03*
X56896000Y-61595000D03*
X64135000Y-67310000D03*
X64135000Y-74930000D03*
X54610000Y-59690000D03*
X54610000Y-64770000D03*
X46990000Y-59690000D03*
X46990000Y-64770000D03*
D10*
X41910000Y-73025000D03*
D11*
X41910000Y-70485000D03*
X41910000Y-67945000D03*
X78105000Y-83185000D03*
X78105000Y-80645000D03*
X82550000Y-76835000D03*
X82550000Y-74295000D03*
X82550000Y-69215000D03*
X82550000Y-66675000D03*
X78105000Y-62865000D03*
X78105000Y-60325000D03*
D21*
X64516000Y-70485000D03*
D22*
X45720000Y-75565000D02*
X45720000Y-77470000D01*
X45720000Y-77470000D02*
X44577000Y-78613000D01*
X45720000Y-75565000D02*
X45720000Y-76327000D01*
X65405000Y-59690000D02*
X65405000Y-58166000D01*
X65405000Y-58166000D02*
X65405000Y-58293000D01*
X65405000Y-58293000D02*
X65405000Y-58166000D01*
X46990000Y-59690000D02*
X54610000Y-59690000D01*
X56896000Y-61595000D02*
X56896000Y-60071000D01*
X56896000Y-60071000D02*
X58801000Y-58166000D01*
X58801000Y-58166000D02*
X65405000Y-58166000D01*
X67056000Y-58166000D02*
X68580000Y-59690000D01*
X65405000Y-58166000D02*
X67056000Y-58166000D01*
X47371000Y-80010000D02*
X45466000Y-80010000D01*
X43815000Y-71247000D02*
X43815000Y-76073000D01*
X43053000Y-70485000D02*
X43815000Y-71247000D01*
X41910000Y-70485000D02*
X43053000Y-70485000D01*
X45466000Y-80010000D02*
X43815000Y-78359000D01*
X43815000Y-78359000D02*
X43815000Y-77851000D01*
X43815000Y-77851000D02*
X43815000Y-76073000D01*
X69215000Y-62230000D02*
X69215000Y-60325000D01*
X69215000Y-60325000D02*
X68580000Y-59690000D01*
X56515000Y-82550000D02*
X56515000Y-85725000D01*
X56515000Y-85725000D02*
X56515000Y-85471000D01*
X56515000Y-85471000D02*
X56515000Y-85725000D01*
X61595000Y-83820000D02*
X61595000Y-85725000D01*
X61595000Y-85725000D02*
X61595000Y-85471000D01*
X61595000Y-85471000D02*
X61595000Y-85725000D01*
X66421000Y-83312000D02*
X66421000Y-85725000D01*
X66548000Y-85471000D02*
X66548000Y-85725000D01*
X66548000Y-85598000D02*
X66548000Y-85471000D01*
X66421000Y-85725000D02*
X66548000Y-85598000D01*
X50800000Y-80010000D02*
X52324000Y-80010000D01*
X52324000Y-80010000D02*
X53848000Y-81534000D01*
X55372000Y-85725000D02*
X56515000Y-85725000D01*
X56515000Y-85725000D02*
X61595000Y-85725000D01*
X53848000Y-84201000D02*
X55372000Y-85725000D01*
X53848000Y-81534000D02*
X53848000Y-84201000D01*
X61595000Y-85725000D02*
X66548000Y-85725000D01*
X78105000Y-84836000D02*
X78105000Y-83185000D01*
X66548000Y-85725000D02*
X77216000Y-85725000D01*
X77216000Y-85725000D02*
X78105000Y-84836000D01*
X66421000Y-83820000D02*
X66421000Y-83820000D01*
X66421000Y-82423000D02*
X66421000Y-83312000D01*
X66421000Y-83312000D02*
X66421000Y-83820000D01*
X66421000Y-82423000D02*
X66421000Y-78994000D01*
X66421000Y-78994000D02*
X69215000Y-76200000D01*
X84328000Y-64516000D02*
X85344000Y-65532000D01*
X82931000Y-64516000D02*
X84328000Y-64516000D01*
X78105000Y-62865000D02*
X80010000Y-62865000D01*
X81661000Y-64516000D02*
X82931000Y-64516000D01*
X80010000Y-62865000D02*
X81661000Y-64516000D01*
X85344000Y-71501000D02*
X85344000Y-76073000D01*
X85344000Y-76073000D02*
X84582000Y-76835000D01*
X82550000Y-76835000D02*
X82550000Y-77216000D01*
X82550000Y-77216000D02*
X83375500Y-78041500D01*
X82550000Y-78867000D02*
X83375500Y-78041500D01*
X83375500Y-78041500D02*
X84582000Y-76835000D01*
X84582000Y-76835000D02*
X85344000Y-76073000D01*
X78105000Y-83185000D02*
X78232000Y-83185000D01*
X78232000Y-83185000D02*
X82550000Y-78867000D01*
X53340000Y-67945000D02*
X54991000Y-67945000D01*
X58674000Y-60325000D02*
X59309000Y-59690000D01*
X58674000Y-62865000D02*
X58674000Y-60325000D01*
X56896000Y-64643000D02*
X58674000Y-62865000D01*
X56896000Y-66040000D02*
X56896000Y-64643000D01*
X54991000Y-67945000D02*
X56896000Y-66040000D01*
X60325000Y-59690000D02*
X59309000Y-59690000D01*
X54356000Y-67945000D02*
X53340000Y-67945000D01*
X82550000Y-69215000D02*
X85344000Y-69215000D01*
X85344000Y-65532000D02*
X85344000Y-69215000D01*
X85344000Y-69215000D02*
X85344000Y-71501000D01*
X68580000Y-67945000D02*
X68580000Y-66421000D01*
X74295000Y-62865000D02*
X78105000Y-62865000D01*
X71755000Y-65405000D02*
X74295000Y-62865000D01*
X69596000Y-65405000D02*
X71755000Y-65405000D01*
X68580000Y-66421000D02*
X69596000Y-65405000D01*
X50800000Y-80010000D02*
X50800000Y-69215000D01*
X52070000Y-67945000D02*
X53340000Y-67945000D01*
X50800000Y-69215000D02*
X52070000Y-67945000D01*
X71755000Y-59690000D02*
X74930000Y-59690000D01*
X75565000Y-60325000D02*
X78105000Y-60325000D01*
X74930000Y-59690000D02*
X75565000Y-60325000D01*
X82550000Y-66675000D02*
X76200000Y-66675000D01*
X76200000Y-73660000D02*
X78994000Y-73660000D01*
X78994000Y-73660000D02*
X79629000Y-74295000D01*
X82550000Y-74295000D02*
X79629000Y-74295000D01*
X78105000Y-80645000D02*
X71120000Y-80645000D01*
X64135000Y-74930000D02*
X66040000Y-74930000D01*
X66040000Y-74930000D02*
X67310000Y-73660000D01*
X64135000Y-74930000D02*
X65151000Y-74930000D01*
X67310000Y-73660000D02*
X69215000Y-73660000D01*
X46990000Y-64770000D02*
X54610000Y-64770000D01*
X53340000Y-75565000D02*
X55753000Y-75565000D01*
X56388000Y-74930000D02*
X59055000Y-74930000D01*
X55753000Y-75565000D02*
X56388000Y-74930000D01*
X64135000Y-67310000D02*
X64135000Y-65278000D01*
X62865000Y-64008000D02*
X62865000Y-62230000D01*
X64135000Y-65278000D02*
X62865000Y-64008000D01*
X56896000Y-69215000D02*
X56896000Y-70612000D01*
X56896000Y-70612000D02*
X58674000Y-72390000D01*
X63627000Y-72390000D02*
X65278000Y-72390000D01*
X67183000Y-70485000D02*
X68580000Y-70485000D01*
X65278000Y-72390000D02*
X67183000Y-70485000D01*
X68580000Y-70485000D02*
X70485000Y-70485000D01*
X70485000Y-70485000D02*
X71247000Y-71247000D01*
X71247000Y-71247000D02*
X75311000Y-71247000D01*
X75311000Y-71247000D02*
X76200000Y-70358000D01*
X76200000Y-70358000D02*
X76200000Y-69215000D01*
X58674000Y-72390000D02*
X63627000Y-72390000D01*
X71755000Y-62230000D02*
X71755000Y-62865000D01*
X59055000Y-69850000D02*
X59055000Y-67310000D01*
X59690000Y-70485000D02*
X59055000Y-69850000D01*
X64516000Y-70485000D02*
X59690000Y-70485000D01*
D23*
G36*
X82296762Y-56746021D02*
G01*
X81682240Y-57156632D01*
X81159632Y-57679240D01*
X80749021Y-58293762D01*
X80466188Y-58976582D01*
X80322000Y-59701460D01*
X80322000Y-60440540D01*
X80466188Y-61165418D01*
X80749021Y-61848238D01*
X81159632Y-62462760D01*
X81682240Y-62985368D01*
X82296762Y-63395979D01*
X82701194Y-63563500D01*
X82055538Y-63563500D01*
X80716607Y-62224569D01*
X80686778Y-62188222D01*
X80541741Y-62069194D01*
X80376269Y-61980748D01*
X80196723Y-61926283D01*
X80056785Y-61912500D01*
X80010000Y-61907892D01*
X79963215Y-61912500D01*
X79454200Y-61912500D01*
X79387415Y-61812549D01*
X79169866Y-61595000D01*
X79387415Y-61377451D01*
X79568097Y-61107042D01*
X79692553Y-60806579D01*
X79756000Y-60487609D01*
X79756000Y-60162391D01*
X79692553Y-59843421D01*
X79568097Y-59542958D01*
X79387415Y-59272549D01*
X79157451Y-59042585D01*
X78887042Y-58861903D01*
X78586579Y-58737447D01*
X78267609Y-58674000D01*
X77942391Y-58674000D01*
X77623421Y-58737447D01*
X77322958Y-58861903D01*
X77052549Y-59042585D01*
X76822585Y-59272549D01*
X76755800Y-59372500D01*
X75959537Y-59372500D01*
X75636608Y-59049570D01*
X75606778Y-59013222D01*
X75461741Y-58894194D01*
X75296269Y-58805748D01*
X75116723Y-58751283D01*
X74976785Y-58737500D01*
X74930000Y-58732892D01*
X74883215Y-58737500D01*
X73027830Y-58737500D01*
X72988092Y-58678028D01*
X72766972Y-58456908D01*
X72506963Y-58283176D01*
X72218057Y-58163507D01*
X71911355Y-58102500D01*
X71598645Y-58102500D01*
X71291943Y-58163507D01*
X71003037Y-58283176D01*
X70743028Y-58456908D01*
X70521908Y-58678028D01*
X70348176Y-58938037D01*
X70228507Y-59226943D01*
X70167500Y-59533645D01*
X70167500Y-59846355D01*
X70228507Y-60153057D01*
X70348176Y-60441963D01*
X70521908Y-60701972D01*
X70743028Y-60923092D01*
X70798265Y-60960000D01*
X70743028Y-60996908D01*
X70739451Y-61000485D01*
X70698037Y-60923006D01*
X70618685Y-60826315D01*
X70521994Y-60746963D01*
X70411680Y-60687998D01*
X70291982Y-60651688D01*
X70167500Y-60639428D01*
X68262500Y-60639428D01*
X68138018Y-60651688D01*
X68018320Y-60687998D01*
X67908006Y-60746963D01*
X67811315Y-60826315D01*
X67731963Y-60923006D01*
X67672998Y-61033320D01*
X67636688Y-61153018D01*
X67624428Y-61277500D01*
X67624428Y-63182500D01*
X67636688Y-63306982D01*
X67672998Y-63426680D01*
X67731963Y-63536994D01*
X67811315Y-63633685D01*
X67908006Y-63713037D01*
X68018320Y-63772002D01*
X68138018Y-63808312D01*
X68262500Y-63820572D01*
X70167500Y-63820572D01*
X70291982Y-63808312D01*
X70411680Y-63772002D01*
X70521994Y-63713037D01*
X70618685Y-63633685D01*
X70698037Y-63536994D01*
X70739451Y-63459515D01*
X70743028Y-63463092D01*
X71003037Y-63636824D01*
X71291943Y-63756493D01*
X71598645Y-63817500D01*
X71708215Y-63817500D01*
X71755000Y-63822108D01*
X71801785Y-63817500D01*
X71911355Y-63817500D01*
X72016346Y-63796616D01*
X71360462Y-64452500D01*
X69642785Y-64452500D01*
X69596000Y-64447892D01*
X69549215Y-64452500D01*
X69409277Y-64466283D01*
X69229731Y-64520748D01*
X69064259Y-64609194D01*
X68919222Y-64728222D01*
X68889398Y-64764563D01*
X67939564Y-65714398D01*
X67903223Y-65744222D01*
X67873399Y-65780563D01*
X67784194Y-65889260D01*
X67695749Y-66054731D01*
X67641283Y-66234278D01*
X67622892Y-66421000D01*
X67627501Y-66467794D01*
X67627501Y-66672170D01*
X67568028Y-66711908D01*
X67346908Y-66933028D01*
X67173176Y-67193037D01*
X67053507Y-67481943D01*
X66992500Y-67788645D01*
X66992500Y-68101355D01*
X67053507Y-68408057D01*
X67173176Y-68696963D01*
X67346908Y-68956972D01*
X67350485Y-68960549D01*
X67273006Y-69001963D01*
X67176315Y-69081315D01*
X67096963Y-69178006D01*
X67037998Y-69288320D01*
X67001688Y-69408018D01*
X66989428Y-69532500D01*
X66989428Y-69548361D01*
X66816731Y-69600748D01*
X66651259Y-69689194D01*
X66506222Y-69808222D01*
X66476397Y-69844564D01*
X65562192Y-70758769D01*
X65595500Y-70591321D01*
X65595500Y-70378679D01*
X65554015Y-70170122D01*
X65472640Y-69973665D01*
X65354502Y-69796859D01*
X65204141Y-69646498D01*
X65027335Y-69528360D01*
X64830878Y-69446985D01*
X64622321Y-69405500D01*
X64409679Y-69405500D01*
X64201122Y-69446985D01*
X64004665Y-69528360D01*
X63998469Y-69532500D01*
X60084537Y-69532500D01*
X60007500Y-69455462D01*
X60007500Y-68659200D01*
X60107451Y-68592415D01*
X60325000Y-68374866D01*
X60542549Y-68592415D01*
X60812958Y-68773097D01*
X61113421Y-68897553D01*
X61432391Y-68961000D01*
X61757609Y-68961000D01*
X62076579Y-68897553D01*
X62377042Y-68773097D01*
X62647451Y-68592415D01*
X62865000Y-68374866D01*
X63082549Y-68592415D01*
X63352958Y-68773097D01*
X63653421Y-68897553D01*
X63972391Y-68961000D01*
X64297609Y-68961000D01*
X64616579Y-68897553D01*
X64917042Y-68773097D01*
X65187451Y-68592415D01*
X65417415Y-68362451D01*
X65598097Y-68092042D01*
X65722553Y-67791579D01*
X65786000Y-67472609D01*
X65786000Y-67147391D01*
X65722553Y-66828421D01*
X65598097Y-66527958D01*
X65417415Y-66257549D01*
X65187451Y-66027585D01*
X65087500Y-65960800D01*
X65087500Y-65324784D01*
X65092108Y-65277999D01*
X65073717Y-65091277D01*
X65057777Y-65038731D01*
X65019252Y-64911731D01*
X64930806Y-64746259D01*
X64811778Y-64601222D01*
X64775436Y-64571397D01*
X63817500Y-63613462D01*
X63817500Y-63307038D01*
X63979715Y-63144823D01*
X64135000Y-62912422D01*
X64290285Y-63144823D01*
X64490177Y-63344715D01*
X64725225Y-63501769D01*
X64986397Y-63609950D01*
X65263655Y-63665100D01*
X65546345Y-63665100D01*
X65823603Y-63609950D01*
X66084775Y-63501769D01*
X66319823Y-63344715D01*
X66519715Y-63144823D01*
X66676769Y-62909775D01*
X66784950Y-62648603D01*
X66840100Y-62371345D01*
X66840100Y-62088655D01*
X66784950Y-61811397D01*
X66676769Y-61550225D01*
X66519715Y-61315177D01*
X66319823Y-61115285D01*
X66087422Y-60960000D01*
X66319823Y-60804715D01*
X66519715Y-60604823D01*
X66676769Y-60369775D01*
X66784950Y-60108603D01*
X66840100Y-59831345D01*
X66840100Y-59548655D01*
X66784950Y-59271397D01*
X66676769Y-59010225D01*
X66519715Y-58775177D01*
X66319823Y-58575285D01*
X66084775Y-58418231D01*
X65823603Y-58310050D01*
X65546345Y-58254900D01*
X65263655Y-58254900D01*
X64986397Y-58310050D01*
X64725225Y-58418231D01*
X64490177Y-58575285D01*
X64290285Y-58775177D01*
X64135000Y-59007578D01*
X63979715Y-58775177D01*
X63779823Y-58575285D01*
X63544775Y-58418231D01*
X63283603Y-58310050D01*
X63006345Y-58254900D01*
X62723655Y-58254900D01*
X62446397Y-58310050D01*
X62185225Y-58418231D01*
X61950177Y-58575285D01*
X61750285Y-58775177D01*
X61595000Y-59007578D01*
X61439715Y-58775177D01*
X61239823Y-58575285D01*
X61004775Y-58418231D01*
X60743603Y-58310050D01*
X60466345Y-58254900D01*
X60183655Y-58254900D01*
X59906397Y-58310050D01*
X59645225Y-58418231D01*
X59410177Y-58575285D01*
X59246405Y-58739057D01*
X59122277Y-58751283D01*
X59032504Y-58778516D01*
X58942730Y-58805748D01*
X58887663Y-58835182D01*
X58777259Y-58894194D01*
X58632222Y-59013222D01*
X58602389Y-59049574D01*
X58033565Y-59618397D01*
X57997223Y-59648222D01*
X57967399Y-59684563D01*
X57878194Y-59793260D01*
X57789749Y-59958731D01*
X57735283Y-60138278D01*
X57732338Y-60168182D01*
X57678042Y-60131903D01*
X57377579Y-60007447D01*
X57058609Y-59944000D01*
X56733391Y-59944000D01*
X56414421Y-60007447D01*
X56213660Y-60090605D01*
X56261000Y-59852609D01*
X56261000Y-59527391D01*
X56197553Y-59208421D01*
X56073097Y-58907958D01*
X55892415Y-58637549D01*
X55662451Y-58407585D01*
X55392042Y-58226903D01*
X55091579Y-58102447D01*
X54772609Y-58039000D01*
X54447391Y-58039000D01*
X54128421Y-58102447D01*
X53827958Y-58226903D01*
X53557549Y-58407585D01*
X53327585Y-58637549D01*
X53146903Y-58907958D01*
X53022447Y-59208421D01*
X52959000Y-59527391D01*
X52959000Y-59852609D01*
X53022447Y-60171579D01*
X53146903Y-60472042D01*
X53327585Y-60742451D01*
X53557549Y-60972415D01*
X53827958Y-61153097D01*
X54128421Y-61277553D01*
X54447391Y-61341000D01*
X54772609Y-61341000D01*
X55091579Y-61277553D01*
X55292340Y-61194395D01*
X55245000Y-61432391D01*
X55245000Y-61757609D01*
X55308447Y-62076579D01*
X55432903Y-62377042D01*
X55613585Y-62647451D01*
X55843549Y-62877415D01*
X56113958Y-63058097D01*
X56414421Y-63182553D01*
X56733391Y-63246000D01*
X56945962Y-63246000D01*
X56255564Y-63936398D01*
X56219223Y-63966222D01*
X56189399Y-64002563D01*
X56116128Y-64091844D01*
X56073097Y-63987958D01*
X55892415Y-63717549D01*
X55662451Y-63487585D01*
X55392042Y-63306903D01*
X55091579Y-63182447D01*
X54772609Y-63119000D01*
X54447391Y-63119000D01*
X54128421Y-63182447D01*
X53827958Y-63306903D01*
X53557549Y-63487585D01*
X53327585Y-63717549D01*
X53260800Y-63817500D01*
X48339200Y-63817500D01*
X48272415Y-63717549D01*
X48042451Y-63487585D01*
X47772042Y-63306903D01*
X47471579Y-63182447D01*
X47152609Y-63119000D01*
X46827391Y-63119000D01*
X46508421Y-63182447D01*
X46207958Y-63306903D01*
X45937549Y-63487585D01*
X45707585Y-63717549D01*
X45526903Y-63987958D01*
X45402447Y-64288421D01*
X45339000Y-64607391D01*
X45339000Y-64932609D01*
X45402447Y-65251579D01*
X45526903Y-65552042D01*
X45707585Y-65822451D01*
X45937549Y-66052415D01*
X46207958Y-66233097D01*
X46508421Y-66357553D01*
X46827391Y-66421000D01*
X47152609Y-66421000D01*
X47471579Y-66357553D01*
X47772042Y-66233097D01*
X48042451Y-66052415D01*
X48272415Y-65822451D01*
X48339200Y-65722500D01*
X53260800Y-65722500D01*
X53327585Y-65822451D01*
X53557549Y-66052415D01*
X53827958Y-66233097D01*
X54128421Y-66357553D01*
X54447391Y-66421000D01*
X54772609Y-66421000D01*
X55091579Y-66357553D01*
X55330283Y-66258678D01*
X54677893Y-66911069D01*
X54489667Y-66756595D01*
X54242563Y-66624516D01*
X53974439Y-66543181D01*
X53765475Y-66522600D01*
X52914525Y-66522600D01*
X52705561Y-66543181D01*
X52437437Y-66624516D01*
X52190333Y-66756595D01*
X51973745Y-66934345D01*
X51917471Y-67002915D01*
X51883277Y-67006283D01*
X51703731Y-67060748D01*
X51538259Y-67149194D01*
X51393222Y-67268222D01*
X51363398Y-67304563D01*
X50159564Y-68508398D01*
X50123223Y-68538222D01*
X50093399Y-68574563D01*
X50004194Y-68683260D01*
X49915749Y-68848731D01*
X49861283Y-69028278D01*
X49842892Y-69215000D01*
X49847501Y-69261795D01*
X49847500Y-78122248D01*
X49550320Y-78122248D01*
X49425838Y-78134508D01*
X49306140Y-78170818D01*
X49195826Y-78229783D01*
X49099135Y-78309135D01*
X49019783Y-78405826D01*
X48960818Y-78516140D01*
X48924508Y-78635838D01*
X48912248Y-78760320D01*
X48912248Y-78924307D01*
X48834926Y-78808587D01*
X48572413Y-78546074D01*
X48263731Y-78339818D01*
X47920741Y-78197747D01*
X47556625Y-78125320D01*
X47185375Y-78125320D01*
X46821259Y-78197747D01*
X46478269Y-78339818D01*
X46169587Y-78546074D01*
X45907074Y-78808587D01*
X45700818Y-79117269D01*
X45558747Y-79460259D01*
X45486320Y-79824375D01*
X45486320Y-80195625D01*
X45558747Y-80559741D01*
X45700818Y-80902731D01*
X45907074Y-81211413D01*
X46169587Y-81473926D01*
X46478269Y-81680182D01*
X46821259Y-81822253D01*
X46907537Y-81839415D01*
X46767237Y-81867322D01*
X46469778Y-81990533D01*
X46202073Y-82169408D01*
X45974408Y-82397073D01*
X45904201Y-82502145D01*
X45771812Y-81836582D01*
X45488979Y-81153762D01*
X45078368Y-80539240D01*
X44555760Y-80016632D01*
X43941238Y-79606021D01*
X43258418Y-79323188D01*
X42533540Y-79179000D01*
X41794460Y-79179000D01*
X41069582Y-79323188D01*
X40386762Y-79606021D01*
X39772240Y-80016632D01*
X39249632Y-80539240D01*
X38925500Y-81024337D01*
X38925500Y-72009000D01*
X40255928Y-72009000D01*
X40255928Y-74041000D01*
X40268188Y-74165482D01*
X40304498Y-74285180D01*
X40363463Y-74395494D01*
X40442815Y-74492185D01*
X40539506Y-74571537D01*
X40649820Y-74630502D01*
X40769518Y-74666812D01*
X40894000Y-74679072D01*
X42926000Y-74679072D01*
X43050482Y-74666812D01*
X43170180Y-74630502D01*
X43280494Y-74571537D01*
X43377185Y-74492185D01*
X43456537Y-74395494D01*
X43515502Y-74285180D01*
X43551812Y-74165482D01*
X43564072Y-74041000D01*
X43564072Y-72009000D01*
X43551812Y-71884518D01*
X43515502Y-71764820D01*
X43456537Y-71654506D01*
X43377185Y-71557815D01*
X43280494Y-71478463D01*
X43244636Y-71459296D01*
X43373097Y-71267042D01*
X43497553Y-70966579D01*
X43561000Y-70647609D01*
X43561000Y-70485000D01*
X43935118Y-70485000D01*
X43962581Y-70763839D01*
X44043916Y-71031963D01*
X44175995Y-71279067D01*
X44353745Y-71495655D01*
X44570333Y-71673405D01*
X44722987Y-71755000D01*
X44570333Y-71836595D01*
X44353745Y-72014345D01*
X44175995Y-72230933D01*
X44043916Y-72478037D01*
X43962581Y-72746161D01*
X43935118Y-73025000D01*
X43962581Y-73303839D01*
X44043916Y-73571963D01*
X44175995Y-73819067D01*
X44353745Y-74035655D01*
X44570333Y-74213405D01*
X44722987Y-74295000D01*
X44570333Y-74376595D01*
X44353745Y-74554345D01*
X44175995Y-74770933D01*
X44043916Y-75018037D01*
X43962581Y-75286161D01*
X43935118Y-75565000D01*
X43962581Y-75843839D01*
X44043916Y-76111963D01*
X44175995Y-76359067D01*
X44353745Y-76575655D01*
X44570333Y-76753405D01*
X44817437Y-76885484D01*
X45085561Y-76966819D01*
X45294525Y-76987400D01*
X46145475Y-76987400D01*
X46354439Y-76966819D01*
X46622563Y-76885484D01*
X46869667Y-76753405D01*
X47086255Y-76575655D01*
X47264005Y-76359067D01*
X47396084Y-76111963D01*
X47477419Y-75843839D01*
X47504882Y-75565000D01*
X47477419Y-75286161D01*
X47396084Y-75018037D01*
X47264005Y-74770933D01*
X47086255Y-74554345D01*
X46869667Y-74376595D01*
X46717013Y-74295000D01*
X46869667Y-74213405D01*
X47086255Y-74035655D01*
X47264005Y-73819067D01*
X47396084Y-73571963D01*
X47477419Y-73303839D01*
X47504882Y-73025000D01*
X47477419Y-72746161D01*
X47396084Y-72478037D01*
X47264005Y-72230933D01*
X47086255Y-72014345D01*
X46869667Y-71836595D01*
X46717013Y-71755000D01*
X46869667Y-71673405D01*
X47086255Y-71495655D01*
X47264005Y-71279067D01*
X47396084Y-71031963D01*
X47477419Y-70763839D01*
X47504882Y-70485000D01*
X47477419Y-70206161D01*
X47396084Y-69938037D01*
X47264005Y-69690933D01*
X47086255Y-69474345D01*
X46949326Y-69361970D01*
X46987482Y-69358212D01*
X47107180Y-69321902D01*
X47217494Y-69262937D01*
X47314185Y-69183585D01*
X47393537Y-69086894D01*
X47452502Y-68976580D01*
X47488812Y-68856882D01*
X47501072Y-68732400D01*
X47501072Y-67157600D01*
X47488812Y-67033118D01*
X47452502Y-66913420D01*
X47393537Y-66803106D01*
X47314185Y-66706415D01*
X47217494Y-66627063D01*
X47107180Y-66568098D01*
X46987482Y-66531788D01*
X46863000Y-66519528D01*
X44577000Y-66519528D01*
X44452518Y-66531788D01*
X44332820Y-66568098D01*
X44222506Y-66627063D01*
X44125815Y-66706415D01*
X44046463Y-66803106D01*
X43987498Y-66913420D01*
X43951188Y-67033118D01*
X43938928Y-67157600D01*
X43938928Y-68732400D01*
X43951188Y-68856882D01*
X43987498Y-68976580D01*
X44046463Y-69086894D01*
X44125815Y-69183585D01*
X44222506Y-69262937D01*
X44332820Y-69321902D01*
X44452518Y-69358212D01*
X44490674Y-69361970D01*
X44353745Y-69474345D01*
X44175995Y-69690933D01*
X44043916Y-69938037D01*
X43962581Y-70206161D01*
X43935118Y-70485000D01*
X43561000Y-70485000D01*
X43561000Y-70322391D01*
X43497553Y-70003421D01*
X43373097Y-69702958D01*
X43192415Y-69432549D01*
X42974866Y-69215000D01*
X43192415Y-68997451D01*
X43373097Y-68727042D01*
X43497553Y-68426579D01*
X43561000Y-68107609D01*
X43561000Y-67782391D01*
X43497553Y-67463421D01*
X43373097Y-67162958D01*
X43192415Y-66892549D01*
X42962451Y-66662585D01*
X42692042Y-66481903D01*
X42391579Y-66357447D01*
X42072609Y-66294000D01*
X41747391Y-66294000D01*
X41428421Y-66357447D01*
X41127958Y-66481903D01*
X40857549Y-66662585D01*
X40627585Y-66892549D01*
X40446903Y-67162958D01*
X40322447Y-67463421D01*
X40259000Y-67782391D01*
X40259000Y-68107609D01*
X40322447Y-68426579D01*
X40446903Y-68727042D01*
X40627585Y-68997451D01*
X40845134Y-69215000D01*
X40627585Y-69432549D01*
X40446903Y-69702958D01*
X40322447Y-70003421D01*
X40259000Y-70322391D01*
X40259000Y-70647609D01*
X40322447Y-70966579D01*
X40446903Y-71267042D01*
X40575364Y-71459296D01*
X40539506Y-71478463D01*
X40442815Y-71557815D01*
X40363463Y-71654506D01*
X40304498Y-71764820D01*
X40268188Y-71884518D01*
X40255928Y-72009000D01*
X38925500Y-72009000D01*
X38925500Y-61977663D01*
X39249632Y-62462760D01*
X39772240Y-62985368D01*
X40386762Y-63395979D01*
X41069582Y-63678812D01*
X41794460Y-63823000D01*
X42533540Y-63823000D01*
X43258418Y-63678812D01*
X43941238Y-63395979D01*
X44555760Y-62985368D01*
X45078368Y-62462760D01*
X45488979Y-61848238D01*
X45771812Y-61165418D01*
X45831331Y-60866197D01*
X45937549Y-60972415D01*
X46207958Y-61153097D01*
X46508421Y-61277553D01*
X46827391Y-61341000D01*
X47152609Y-61341000D01*
X47471579Y-61277553D01*
X47772042Y-61153097D01*
X48042451Y-60972415D01*
X48272415Y-60742451D01*
X48453097Y-60472042D01*
X48577553Y-60171579D01*
X48641000Y-59852609D01*
X48641000Y-59527391D01*
X48577553Y-59208421D01*
X48453097Y-58907958D01*
X48272415Y-58637549D01*
X48042451Y-58407585D01*
X47772042Y-58226903D01*
X47471579Y-58102447D01*
X47152609Y-58039000D01*
X46827391Y-58039000D01*
X46508421Y-58102447D01*
X46207958Y-58226903D01*
X45937549Y-58407585D01*
X45707585Y-58637549D01*
X45660542Y-58707953D01*
X45488979Y-58293762D01*
X45078368Y-57679240D01*
X44555760Y-57156632D01*
X43941238Y-56746021D01*
X43843412Y-56705500D01*
X82394588Y-56705500D01*
X82296762Y-56746021D01*
X82296762Y-56746021D01*
G37*
X82296762Y-56746021D02*
X81682240Y-57156632D01*
X81159632Y-57679240D01*
X80749021Y-58293762D01*
X80466188Y-58976582D01*
X80322000Y-59701460D01*
X80322000Y-60440540D01*
X80466188Y-61165418D01*
X80749021Y-61848238D01*
X81159632Y-62462760D01*
X81682240Y-62985368D01*
X82296762Y-63395979D01*
X82701194Y-63563500D01*
X82055538Y-63563500D01*
X80716607Y-62224569D01*
X80686778Y-62188222D01*
X80541741Y-62069194D01*
X80376269Y-61980748D01*
X80196723Y-61926283D01*
X80056785Y-61912500D01*
X80010000Y-61907892D01*
X79963215Y-61912500D01*
X79454200Y-61912500D01*
X79387415Y-61812549D01*
X79169866Y-61595000D01*
X79387415Y-61377451D01*
X79568097Y-61107042D01*
X79692553Y-60806579D01*
X79756000Y-60487609D01*
X79756000Y-60162391D01*
X79692553Y-59843421D01*
X79568097Y-59542958D01*
X79387415Y-59272549D01*
X79157451Y-59042585D01*
X78887042Y-58861903D01*
X78586579Y-58737447D01*
X78267609Y-58674000D01*
X77942391Y-58674000D01*
X77623421Y-58737447D01*
X77322958Y-58861903D01*
X77052549Y-59042585D01*
X76822585Y-59272549D01*
X76755800Y-59372500D01*
X75959537Y-59372500D01*
X75636608Y-59049570D01*
X75606778Y-59013222D01*
X75461741Y-58894194D01*
X75296269Y-58805748D01*
X75116723Y-58751283D01*
X74976785Y-58737500D01*
X74930000Y-58732892D01*
X74883215Y-58737500D01*
X73027830Y-58737500D01*
X72988092Y-58678028D01*
X72766972Y-58456908D01*
X72506963Y-58283176D01*
X72218057Y-58163507D01*
X71911355Y-58102500D01*
X71598645Y-58102500D01*
X71291943Y-58163507D01*
X71003037Y-58283176D01*
X70743028Y-58456908D01*
X70521908Y-58678028D01*
X70348176Y-58938037D01*
X70228507Y-59226943D01*
X70167500Y-59533645D01*
X70167500Y-59846355D01*
X70228507Y-60153057D01*
X70348176Y-60441963D01*
X70521908Y-60701972D01*
X70743028Y-60923092D01*
X70798265Y-60960000D01*
X70743028Y-60996908D01*
X70739451Y-61000485D01*
X70698037Y-60923006D01*
X70618685Y-60826315D01*
X70521994Y-60746963D01*
X70411680Y-60687998D01*
X70291982Y-60651688D01*
X70167500Y-60639428D01*
X68262500Y-60639428D01*
X68138018Y-60651688D01*
X68018320Y-60687998D01*
X67908006Y-60746963D01*
X67811315Y-60826315D01*
X67731963Y-60923006D01*
X67672998Y-61033320D01*
X67636688Y-61153018D01*
X67624428Y-61277500D01*
X67624428Y-63182500D01*
X67636688Y-63306982D01*
X67672998Y-63426680D01*
X67731963Y-63536994D01*
X67811315Y-63633685D01*
X67908006Y-63713037D01*
X68018320Y-63772002D01*
X68138018Y-63808312D01*
X68262500Y-63820572D01*
X70167500Y-63820572D01*
X70291982Y-63808312D01*
X70411680Y-63772002D01*
X70521994Y-63713037D01*
X70618685Y-63633685D01*
X70698037Y-63536994D01*
X70739451Y-63459515D01*
X70743028Y-63463092D01*
X71003037Y-63636824D01*
X71291943Y-63756493D01*
X71598645Y-63817500D01*
X71708215Y-63817500D01*
X71755000Y-63822108D01*
X71801785Y-63817500D01*
X71911355Y-63817500D01*
X72016346Y-63796616D01*
X71360462Y-64452500D01*
X69642785Y-64452500D01*
X69596000Y-64447892D01*
X69549215Y-64452500D01*
X69409277Y-64466283D01*
X69229731Y-64520748D01*
X69064259Y-64609194D01*
X68919222Y-64728222D01*
X68889398Y-64764563D01*
X67939564Y-65714398D01*
X67903223Y-65744222D01*
X67873399Y-65780563D01*
X67784194Y-65889260D01*
X67695749Y-66054731D01*
X67641283Y-66234278D01*
X67622892Y-66421000D01*
X67627501Y-66467794D01*
X67627501Y-66672170D01*
X67568028Y-66711908D01*
X67346908Y-66933028D01*
X67173176Y-67193037D01*
X67053507Y-67481943D01*
X66992500Y-67788645D01*
X66992500Y-68101355D01*
X67053507Y-68408057D01*
X67173176Y-68696963D01*
X67346908Y-68956972D01*
X67350485Y-68960549D01*
X67273006Y-69001963D01*
X67176315Y-69081315D01*
X67096963Y-69178006D01*
X67037998Y-69288320D01*
X67001688Y-69408018D01*
X66989428Y-69532500D01*
X66989428Y-69548361D01*
X66816731Y-69600748D01*
X66651259Y-69689194D01*
X66506222Y-69808222D01*
X66476397Y-69844564D01*
X65562192Y-70758769D01*
X65595500Y-70591321D01*
X65595500Y-70378679D01*
X65554015Y-70170122D01*
X65472640Y-69973665D01*
X65354502Y-69796859D01*
X65204141Y-69646498D01*
X65027335Y-69528360D01*
X64830878Y-69446985D01*
X64622321Y-69405500D01*
X64409679Y-69405500D01*
X64201122Y-69446985D01*
X64004665Y-69528360D01*
X63998469Y-69532500D01*
X60084537Y-69532500D01*
X60007500Y-69455462D01*
X60007500Y-68659200D01*
X60107451Y-68592415D01*
X60325000Y-68374866D01*
X60542549Y-68592415D01*
X60812958Y-68773097D01*
X61113421Y-68897553D01*
X61432391Y-68961000D01*
X61757609Y-68961000D01*
X62076579Y-68897553D01*
X62377042Y-68773097D01*
X62647451Y-68592415D01*
X62865000Y-68374866D01*
X63082549Y-68592415D01*
X63352958Y-68773097D01*
X63653421Y-68897553D01*
X63972391Y-68961000D01*
X64297609Y-68961000D01*
X64616579Y-68897553D01*
X64917042Y-68773097D01*
X65187451Y-68592415D01*
X65417415Y-68362451D01*
X65598097Y-68092042D01*
X65722553Y-67791579D01*
X65786000Y-67472609D01*
X65786000Y-67147391D01*
X65722553Y-66828421D01*
X65598097Y-66527958D01*
X65417415Y-66257549D01*
X65187451Y-66027585D01*
X65087500Y-65960800D01*
X65087500Y-65324784D01*
X65092108Y-65277999D01*
X65073717Y-65091277D01*
X65057777Y-65038731D01*
X65019252Y-64911731D01*
X64930806Y-64746259D01*
X64811778Y-64601222D01*
X64775436Y-64571397D01*
X63817500Y-63613462D01*
X63817500Y-63307038D01*
X63979715Y-63144823D01*
X64135000Y-62912422D01*
X64290285Y-63144823D01*
X64490177Y-63344715D01*
X64725225Y-63501769D01*
X64986397Y-63609950D01*
X65263655Y-63665100D01*
X65546345Y-63665100D01*
X65823603Y-63609950D01*
X66084775Y-63501769D01*
X66319823Y-63344715D01*
X66519715Y-63144823D01*
X66676769Y-62909775D01*
X66784950Y-62648603D01*
X66840100Y-62371345D01*
X66840100Y-62088655D01*
X66784950Y-61811397D01*
X66676769Y-61550225D01*
X66519715Y-61315177D01*
X66319823Y-61115285D01*
X66087422Y-60960000D01*
X66319823Y-60804715D01*
X66519715Y-60604823D01*
X66676769Y-60369775D01*
X66784950Y-60108603D01*
X66840100Y-59831345D01*
X66840100Y-59548655D01*
X66784950Y-59271397D01*
X66676769Y-59010225D01*
X66519715Y-58775177D01*
X66319823Y-58575285D01*
X66084775Y-58418231D01*
X65823603Y-58310050D01*
X65546345Y-58254900D01*
X65263655Y-58254900D01*
X64986397Y-58310050D01*
X64725225Y-58418231D01*
X64490177Y-58575285D01*
X64290285Y-58775177D01*
X64135000Y-59007578D01*
X63979715Y-58775177D01*
X63779823Y-58575285D01*
X63544775Y-58418231D01*
X63283603Y-58310050D01*
X63006345Y-58254900D01*
X62723655Y-58254900D01*
X62446397Y-58310050D01*
X62185225Y-58418231D01*
X61950177Y-58575285D01*
X61750285Y-58775177D01*
X61595000Y-59007578D01*
X61439715Y-58775177D01*
X61239823Y-58575285D01*
X61004775Y-58418231D01*
X60743603Y-58310050D01*
X60466345Y-58254900D01*
X60183655Y-58254900D01*
X59906397Y-58310050D01*
X59645225Y-58418231D01*
X59410177Y-58575285D01*
X59246405Y-58739057D01*
X59122277Y-58751283D01*
X59032504Y-58778516D01*
X58942730Y-58805748D01*
X58887663Y-58835182D01*
X58777259Y-58894194D01*
X58632222Y-59013222D01*
X58602389Y-59049574D01*
X58033565Y-59618397D01*
X57997223Y-59648222D01*
X57967399Y-59684563D01*
X57878194Y-59793260D01*
X57789749Y-59958731D01*
X57735283Y-60138278D01*
X57732338Y-60168182D01*
X57678042Y-60131903D01*
X57377579Y-60007447D01*
X57058609Y-59944000D01*
X56733391Y-59944000D01*
X56414421Y-60007447D01*
X56213660Y-60090605D01*
X56261000Y-59852609D01*
X56261000Y-59527391D01*
X56197553Y-59208421D01*
X56073097Y-58907958D01*
X55892415Y-58637549D01*
X55662451Y-58407585D01*
X55392042Y-58226903D01*
X55091579Y-58102447D01*
X54772609Y-58039000D01*
X54447391Y-58039000D01*
X54128421Y-58102447D01*
X53827958Y-58226903D01*
X53557549Y-58407585D01*
X53327585Y-58637549D01*
X53146903Y-58907958D01*
X53022447Y-59208421D01*
X52959000Y-59527391D01*
X52959000Y-59852609D01*
X53022447Y-60171579D01*
X53146903Y-60472042D01*
X53327585Y-60742451D01*
X53557549Y-60972415D01*
X53827958Y-61153097D01*
X54128421Y-61277553D01*
X54447391Y-61341000D01*
X54772609Y-61341000D01*
X55091579Y-61277553D01*
X55292340Y-61194395D01*
X55245000Y-61432391D01*
X55245000Y-61757609D01*
X55308447Y-62076579D01*
X55432903Y-62377042D01*
X55613585Y-62647451D01*
X55843549Y-62877415D01*
X56113958Y-63058097D01*
X56414421Y-63182553D01*
X56733391Y-63246000D01*
X56945962Y-63246000D01*
X56255564Y-63936398D01*
X56219223Y-63966222D01*
X56189399Y-64002563D01*
X56116128Y-64091844D01*
X56073097Y-63987958D01*
X55892415Y-63717549D01*
X55662451Y-63487585D01*
X55392042Y-63306903D01*
X55091579Y-63182447D01*
X54772609Y-63119000D01*
X54447391Y-63119000D01*
X54128421Y-63182447D01*
X53827958Y-63306903D01*
X53557549Y-63487585D01*
X53327585Y-63717549D01*
X53260800Y-63817500D01*
X48339200Y-63817500D01*
X48272415Y-63717549D01*
X48042451Y-63487585D01*
X47772042Y-63306903D01*
X47471579Y-63182447D01*
X47152609Y-63119000D01*
X46827391Y-63119000D01*
X46508421Y-63182447D01*
X46207958Y-63306903D01*
X45937549Y-63487585D01*
X45707585Y-63717549D01*
X45526903Y-63987958D01*
X45402447Y-64288421D01*
X45339000Y-64607391D01*
X45339000Y-64932609D01*
X45402447Y-65251579D01*
X45526903Y-65552042D01*
X45707585Y-65822451D01*
X45937549Y-66052415D01*
X46207958Y-66233097D01*
X46508421Y-66357553D01*
X46827391Y-66421000D01*
X47152609Y-66421000D01*
X47471579Y-66357553D01*
X47772042Y-66233097D01*
X48042451Y-66052415D01*
X48272415Y-65822451D01*
X48339200Y-65722500D01*
X53260800Y-65722500D01*
X53327585Y-65822451D01*
X53557549Y-66052415D01*
X53827958Y-66233097D01*
X54128421Y-66357553D01*
X54447391Y-66421000D01*
X54772609Y-66421000D01*
X55091579Y-66357553D01*
X55330283Y-66258678D01*
X54677893Y-66911069D01*
X54489667Y-66756595D01*
X54242563Y-66624516D01*
X53974439Y-66543181D01*
X53765475Y-66522600D01*
X52914525Y-66522600D01*
X52705561Y-66543181D01*
X52437437Y-66624516D01*
X52190333Y-66756595D01*
X51973745Y-66934345D01*
X51917471Y-67002915D01*
X51883277Y-67006283D01*
X51703731Y-67060748D01*
X51538259Y-67149194D01*
X51393222Y-67268222D01*
X51363398Y-67304563D01*
X50159564Y-68508398D01*
X50123223Y-68538222D01*
X50093399Y-68574563D01*
X50004194Y-68683260D01*
X49915749Y-68848731D01*
X49861283Y-69028278D01*
X49842892Y-69215000D01*
X49847501Y-69261795D01*
X49847500Y-78122248D01*
X49550320Y-78122248D01*
X49425838Y-78134508D01*
X49306140Y-78170818D01*
X49195826Y-78229783D01*
X49099135Y-78309135D01*
X49019783Y-78405826D01*
X48960818Y-78516140D01*
X48924508Y-78635838D01*
X48912248Y-78760320D01*
X48912248Y-78924307D01*
X48834926Y-78808587D01*
X48572413Y-78546074D01*
X48263731Y-78339818D01*
X47920741Y-78197747D01*
X47556625Y-78125320D01*
X47185375Y-78125320D01*
X46821259Y-78197747D01*
X46478269Y-78339818D01*
X46169587Y-78546074D01*
X45907074Y-78808587D01*
X45700818Y-79117269D01*
X45558747Y-79460259D01*
X45486320Y-79824375D01*
X45486320Y-80195625D01*
X45558747Y-80559741D01*
X45700818Y-80902731D01*
X45907074Y-81211413D01*
X46169587Y-81473926D01*
X46478269Y-81680182D01*
X46821259Y-81822253D01*
X46907537Y-81839415D01*
X46767237Y-81867322D01*
X46469778Y-81990533D01*
X46202073Y-82169408D01*
X45974408Y-82397073D01*
X45904201Y-82502145D01*
X45771812Y-81836582D01*
X45488979Y-81153762D01*
X45078368Y-80539240D01*
X44555760Y-80016632D01*
X43941238Y-79606021D01*
X43258418Y-79323188D01*
X42533540Y-79179000D01*
X41794460Y-79179000D01*
X41069582Y-79323188D01*
X40386762Y-79606021D01*
X39772240Y-80016632D01*
X39249632Y-80539240D01*
X38925500Y-81024337D01*
X38925500Y-72009000D01*
X40255928Y-72009000D01*
X40255928Y-74041000D01*
X40268188Y-74165482D01*
X40304498Y-74285180D01*
X40363463Y-74395494D01*
X40442815Y-74492185D01*
X40539506Y-74571537D01*
X40649820Y-74630502D01*
X40769518Y-74666812D01*
X40894000Y-74679072D01*
X42926000Y-74679072D01*
X43050482Y-74666812D01*
X43170180Y-74630502D01*
X43280494Y-74571537D01*
X43377185Y-74492185D01*
X43456537Y-74395494D01*
X43515502Y-74285180D01*
X43551812Y-74165482D01*
X43564072Y-74041000D01*
X43564072Y-72009000D01*
X43551812Y-71884518D01*
X43515502Y-71764820D01*
X43456537Y-71654506D01*
X43377185Y-71557815D01*
X43280494Y-71478463D01*
X43244636Y-71459296D01*
X43373097Y-71267042D01*
X43497553Y-70966579D01*
X43561000Y-70647609D01*
X43561000Y-70485000D01*
X43935118Y-70485000D01*
X43962581Y-70763839D01*
X44043916Y-71031963D01*
X44175995Y-71279067D01*
X44353745Y-71495655D01*
X44570333Y-71673405D01*
X44722987Y-71755000D01*
X44570333Y-71836595D01*
X44353745Y-72014345D01*
X44175995Y-72230933D01*
X44043916Y-72478037D01*
X43962581Y-72746161D01*
X43935118Y-73025000D01*
X43962581Y-73303839D01*
X44043916Y-73571963D01*
X44175995Y-73819067D01*
X44353745Y-74035655D01*
X44570333Y-74213405D01*
X44722987Y-74295000D01*
X44570333Y-74376595D01*
X44353745Y-74554345D01*
X44175995Y-74770933D01*
X44043916Y-75018037D01*
X43962581Y-75286161D01*
X43935118Y-75565000D01*
X43962581Y-75843839D01*
X44043916Y-76111963D01*
X44175995Y-76359067D01*
X44353745Y-76575655D01*
X44570333Y-76753405D01*
X44817437Y-76885484D01*
X45085561Y-76966819D01*
X45294525Y-76987400D01*
X46145475Y-76987400D01*
X46354439Y-76966819D01*
X46622563Y-76885484D01*
X46869667Y-76753405D01*
X47086255Y-76575655D01*
X47264005Y-76359067D01*
X47396084Y-76111963D01*
X47477419Y-75843839D01*
X47504882Y-75565000D01*
X47477419Y-75286161D01*
X47396084Y-75018037D01*
X47264005Y-74770933D01*
X47086255Y-74554345D01*
X46869667Y-74376595D01*
X46717013Y-74295000D01*
X46869667Y-74213405D01*
X47086255Y-74035655D01*
X47264005Y-73819067D01*
X47396084Y-73571963D01*
X47477419Y-73303839D01*
X47504882Y-73025000D01*
X47477419Y-72746161D01*
X47396084Y-72478037D01*
X47264005Y-72230933D01*
X47086255Y-72014345D01*
X46869667Y-71836595D01*
X46717013Y-71755000D01*
X46869667Y-71673405D01*
X47086255Y-71495655D01*
X47264005Y-71279067D01*
X47396084Y-71031963D01*
X47477419Y-70763839D01*
X47504882Y-70485000D01*
X47477419Y-70206161D01*
X47396084Y-69938037D01*
X47264005Y-69690933D01*
X47086255Y-69474345D01*
X46949326Y-69361970D01*
X46987482Y-69358212D01*
X47107180Y-69321902D01*
X47217494Y-69262937D01*
X47314185Y-69183585D01*
X47393537Y-69086894D01*
X47452502Y-68976580D01*
X47488812Y-68856882D01*
X47501072Y-68732400D01*
X47501072Y-67157600D01*
X47488812Y-67033118D01*
X47452502Y-66913420D01*
X47393537Y-66803106D01*
X47314185Y-66706415D01*
X47217494Y-66627063D01*
X47107180Y-66568098D01*
X46987482Y-66531788D01*
X46863000Y-66519528D01*
X44577000Y-66519528D01*
X44452518Y-66531788D01*
X44332820Y-66568098D01*
X44222506Y-66627063D01*
X44125815Y-66706415D01*
X44046463Y-66803106D01*
X43987498Y-66913420D01*
X43951188Y-67033118D01*
X43938928Y-67157600D01*
X43938928Y-68732400D01*
X43951188Y-68856882D01*
X43987498Y-68976580D01*
X44046463Y-69086894D01*
X44125815Y-69183585D01*
X44222506Y-69262937D01*
X44332820Y-69321902D01*
X44452518Y-69358212D01*
X44490674Y-69361970D01*
X44353745Y-69474345D01*
X44175995Y-69690933D01*
X44043916Y-69938037D01*
X43962581Y-70206161D01*
X43935118Y-70485000D01*
X43561000Y-70485000D01*
X43561000Y-70322391D01*
X43497553Y-70003421D01*
X43373097Y-69702958D01*
X43192415Y-69432549D01*
X42974866Y-69215000D01*
X43192415Y-68997451D01*
X43373097Y-68727042D01*
X43497553Y-68426579D01*
X43561000Y-68107609D01*
X43561000Y-67782391D01*
X43497553Y-67463421D01*
X43373097Y-67162958D01*
X43192415Y-66892549D01*
X42962451Y-66662585D01*
X42692042Y-66481903D01*
X42391579Y-66357447D01*
X42072609Y-66294000D01*
X41747391Y-66294000D01*
X41428421Y-66357447D01*
X41127958Y-66481903D01*
X40857549Y-66662585D01*
X40627585Y-66892549D01*
X40446903Y-67162958D01*
X40322447Y-67463421D01*
X40259000Y-67782391D01*
X40259000Y-68107609D01*
X40322447Y-68426579D01*
X40446903Y-68727042D01*
X40627585Y-68997451D01*
X40845134Y-69215000D01*
X40627585Y-69432549D01*
X40446903Y-69702958D01*
X40322447Y-70003421D01*
X40259000Y-70322391D01*
X40259000Y-70647609D01*
X40322447Y-70966579D01*
X40446903Y-71267042D01*
X40575364Y-71459296D01*
X40539506Y-71478463D01*
X40442815Y-71557815D01*
X40363463Y-71654506D01*
X40304498Y-71764820D01*
X40268188Y-71884518D01*
X40255928Y-72009000D01*
X38925500Y-72009000D01*
X38925500Y-61977663D01*
X39249632Y-62462760D01*
X39772240Y-62985368D01*
X40386762Y-63395979D01*
X41069582Y-63678812D01*
X41794460Y-63823000D01*
X42533540Y-63823000D01*
X43258418Y-63678812D01*
X43941238Y-63395979D01*
X44555760Y-62985368D01*
X45078368Y-62462760D01*
X45488979Y-61848238D01*
X45771812Y-61165418D01*
X45831331Y-60866197D01*
X45937549Y-60972415D01*
X46207958Y-61153097D01*
X46508421Y-61277553D01*
X46827391Y-61341000D01*
X47152609Y-61341000D01*
X47471579Y-61277553D01*
X47772042Y-61153097D01*
X48042451Y-60972415D01*
X48272415Y-60742451D01*
X48453097Y-60472042D01*
X48577553Y-60171579D01*
X48641000Y-59852609D01*
X48641000Y-59527391D01*
X48577553Y-59208421D01*
X48453097Y-58907958D01*
X48272415Y-58637549D01*
X48042451Y-58407585D01*
X47772042Y-58226903D01*
X47471579Y-58102447D01*
X47152609Y-58039000D01*
X46827391Y-58039000D01*
X46508421Y-58102447D01*
X46207958Y-58226903D01*
X45937549Y-58407585D01*
X45707585Y-58637549D01*
X45660542Y-58707953D01*
X45488979Y-58293762D01*
X45078368Y-57679240D01*
X44555760Y-57156632D01*
X43941238Y-56746021D01*
X43843412Y-56705500D01*
X82394588Y-56705500D01*
X82296762Y-56746021D01*
M02*
