M48
; DRILL file {KiCad (5.1.12)-1} date 05/10/22 20:13:44
; FORMAT={-:-/ absolute / inch / decimal}
; #@! TF.CreationDate,2022-05-10T20:13:44+01:00
; #@! TF.GenerationSoftware,Kicad,Pcbnew,(5.1.12)-1
FMAT,2
INCH
T1C0.0250
T2C0.0315
T3C0.0320
T4C0.0394
T5C0.0394
T6C0.0787
T7C0.1260
%
G90
G05
T1
X2.54Y-2.775
T2
X1.875Y-3.125
X1.875Y-3.325
X2.225Y-3.15
X2.225Y-3.25
X2.24Y-2.425
X2.24Y-2.725
X2.325Y-2.65
X2.325Y-2.95
X2.425Y-2.65
X2.425Y-2.95
X2.425Y-3.1
X2.425Y-3.3
X2.525Y-2.65
X2.525Y-2.95
X2.7Y-2.675
X2.7Y-2.775
X2.7Y-3.275
X2.725Y-2.45
X2.8Y-2.675
X2.8Y-3.175
X2.8Y-3.275
X2.825Y-2.35
X2.825Y-2.45
X2.9Y-2.725
X2.9Y-3.0
X3.0Y-2.625
X3.0Y-2.725
X3.0Y-2.9
X3.0Y-3.0
T3
X1.65Y-2.675
X1.65Y-2.775
X1.65Y-2.875
X1.8Y-2.675
X1.8Y-2.775
X1.8Y-2.875
X1.8Y-2.975
X2.1Y-2.675
X2.1Y-2.775
X2.1Y-2.875
X2.1Y-2.975
X2.725Y-2.9
X2.725Y-3.0
X3.075Y-2.375
X3.075Y-2.475
X3.075Y-3.175
X3.075Y-3.275
X3.25Y-2.625
X3.25Y-2.725
X3.25Y-2.925
X3.25Y-3.025
T4
X2.375Y-2.35
X2.375Y-2.45
X2.475Y-2.35
X2.475Y-2.45
X2.575Y-2.35
X2.575Y-2.45
T5
X1.85Y-2.35
X1.85Y-2.55
X2.15Y-2.35
X2.15Y-2.55
T6
X1.775Y-3.125
X1.775Y-3.325
T7
X1.5565Y-2.3407
X1.5565Y-3.325
X3.3675Y-2.3407
X3.3675Y-3.325
T0
M30
