G04 #@! TF.GenerationSoftware,KiCad,Pcbnew,(5.1.12)-1*
G04 #@! TF.CreationDate,2022-05-10T20:13:38+01:00*
G04 #@! TF.ProjectId,TV_B_Gone_ML_v1_3,54565f42-5f47-46f6-9e65-5f4d4c5f7631,rev?*
G04 #@! TF.SameCoordinates,Original*
G04 #@! TF.FileFunction,Soldermask,Bot*
G04 #@! TF.FilePolarity,Negative*
%FSLAX46Y46*%
G04 Gerber Fmt 4.6, Leading zero omitted, Abs format (unit mm)*
G04 Created by KiCad (PCBNEW (5.1.12)-1) date 2022-05-10 20:13:38*
%MOMM*%
%LPD*%
G01*
G04 APERTURE LIST*
%ADD10C,3.708000*%
%ADD11C,2.540000*%
%ADD12O,2.794000X2.082800*%
%ADD13C,2.108200*%
%ADD14C,2.413000*%
%ADD15C,2.707640*%
G04 APERTURE END LIST*
D10*
X39534997Y-59455001D03*
X85534997Y-59455000D03*
X85534997Y-84455000D03*
X39534997Y-84455000D03*
D11*
X41910000Y-67945000D03*
X41910000Y-70485000D03*
G36*
G01*
X42926000Y-74295000D02*
X40894000Y-74295000D01*
G75*
G02*
X40640000Y-74041000I0J254000D01*
G01*
X40640000Y-72009000D01*
G75*
G02*
X40894000Y-71755000I254000J0D01*
G01*
X42926000Y-71755000D01*
G75*
G02*
X43180000Y-72009000I0J-254000D01*
G01*
X43180000Y-74041000D01*
G75*
G02*
X42926000Y-74295000I-254000J0D01*
G01*
G37*
X54610000Y-59690000D03*
X54610000Y-64770000D03*
X46990000Y-59690000D03*
X46990000Y-64770000D03*
X59055000Y-74930000D03*
X59055000Y-67310000D03*
X61595000Y-67310000D03*
X61595000Y-74930000D03*
X56896000Y-61595000D03*
X56896000Y-69215000D03*
X64135000Y-74930000D03*
X64135000Y-67310000D03*
G36*
G01*
X44577000Y-66903600D02*
X46863000Y-66903600D01*
G75*
G02*
X47117000Y-67157600I0J-254000D01*
G01*
X47117000Y-68732400D01*
G75*
G02*
X46863000Y-68986400I-254000J0D01*
G01*
X44577000Y-68986400D01*
G75*
G02*
X44323000Y-68732400I0J254000D01*
G01*
X44323000Y-67157600D01*
G75*
G02*
X44577000Y-66903600I254000J0D01*
G01*
G37*
D12*
X45720000Y-70485000D03*
X45720000Y-73025000D03*
X45720000Y-75565000D03*
X53340000Y-75565000D03*
X53340000Y-73025000D03*
X53340000Y-70485000D03*
X53340000Y-67945000D03*
D13*
X65405000Y-59690000D03*
X65405000Y-62230000D03*
X62865000Y-59690000D03*
X62865000Y-62230000D03*
X60325000Y-59690000D03*
G36*
G01*
X59270900Y-63030100D02*
X59270900Y-61429900D01*
G75*
G02*
X59524900Y-61175900I254000J0D01*
G01*
X61125100Y-61175900D01*
G75*
G02*
X61379100Y-61429900I0J-254000D01*
G01*
X61379100Y-63030100D01*
G75*
G02*
X61125100Y-63284100I-254000J0D01*
G01*
X59524900Y-63284100D01*
G75*
G02*
X59270900Y-63030100I0J254000D01*
G01*
G37*
D14*
X71755000Y-59690000D03*
X71755000Y-62230000D03*
G36*
G01*
X70421500Y-61277500D02*
X70421500Y-63182500D01*
G75*
G02*
X70167500Y-63436500I-254000J0D01*
G01*
X68262500Y-63436500D01*
G75*
G02*
X68008500Y-63182500I0J254000D01*
G01*
X68008500Y-61277500D01*
G75*
G02*
X68262500Y-61023500I254000J0D01*
G01*
X70167500Y-61023500D01*
G75*
G02*
X70421500Y-61277500I0J-254000D01*
G01*
G37*
X76200000Y-66675000D03*
X76200000Y-69215000D03*
G36*
G01*
X74866500Y-68262500D02*
X74866500Y-70167500D01*
G75*
G02*
X74612500Y-70421500I-254000J0D01*
G01*
X72707500Y-70421500D01*
G75*
G02*
X72453500Y-70167500I0J254000D01*
G01*
X72453500Y-68262500D01*
G75*
G02*
X72707500Y-68008500I254000J0D01*
G01*
X74612500Y-68008500D01*
G75*
G02*
X74866500Y-68262500I0J-254000D01*
G01*
G37*
X76200000Y-73660000D03*
X76200000Y-76200000D03*
G36*
G01*
X74866500Y-75247500D02*
X74866500Y-77152500D01*
G75*
G02*
X74612500Y-77406500I-254000J0D01*
G01*
X72707500Y-77406500D01*
G75*
G02*
X72453500Y-77152500I0J254000D01*
G01*
X72453500Y-75247500D01*
G75*
G02*
X72707500Y-74993500I254000J0D01*
G01*
X74612500Y-74993500D01*
G75*
G02*
X74866500Y-75247500I0J-254000D01*
G01*
G37*
X71120000Y-80645000D03*
X71120000Y-83185000D03*
G36*
G01*
X69786500Y-82232500D02*
X69786500Y-84137500D01*
G75*
G02*
X69532500Y-84391500I-254000J0D01*
G01*
X67627500Y-84391500D01*
G75*
G02*
X67373500Y-84137500I0J254000D01*
G01*
X67373500Y-82232500D01*
G75*
G02*
X67627500Y-81978500I254000J0D01*
G01*
X69532500Y-81978500D01*
G75*
G02*
X69786500Y-82232500I0J-254000D01*
G01*
G37*
G36*
G01*
X67373500Y-71437500D02*
X67373500Y-69532500D01*
G75*
G02*
X67627500Y-69278500I254000J0D01*
G01*
X69532500Y-69278500D01*
G75*
G02*
X69786500Y-69532500I0J-254000D01*
G01*
X69786500Y-71437500D01*
G75*
G02*
X69532500Y-71691500I-254000J0D01*
G01*
X67627500Y-71691500D01*
G75*
G02*
X67373500Y-71437500I0J254000D01*
G01*
G37*
X71120000Y-67945000D03*
X68580000Y-67945000D03*
D11*
X69215000Y-73660000D03*
X69215000Y-76200000D03*
X78105000Y-80645000D03*
X78105000Y-83185000D03*
X82550000Y-74295000D03*
X82550000Y-76835000D03*
X82550000Y-66675000D03*
X82550000Y-69215000D03*
X78105000Y-60325000D03*
X78105000Y-62865000D03*
G36*
G01*
X57531000Y-83820000D02*
X55499000Y-83820000D01*
G75*
G02*
X55245000Y-83566000I0J254000D01*
G01*
X55245000Y-81534000D01*
G75*
G02*
X55499000Y-81280000I254000J0D01*
G01*
X57531000Y-81280000D01*
G75*
G02*
X57785000Y-81534000I0J-254000D01*
G01*
X57785000Y-83566000D01*
G75*
G02*
X57531000Y-83820000I-254000J0D01*
G01*
G37*
X56515000Y-80010000D03*
D14*
X61595000Y-78740000D03*
X61595000Y-83820000D03*
G36*
G01*
X46609000Y-78105000D02*
X48641000Y-78105000D01*
G75*
G02*
X48895000Y-78359000I0J-254000D01*
G01*
X48895000Y-80391000D01*
G75*
G02*
X48641000Y-80645000I-254000J0D01*
G01*
X46609000Y-80645000D01*
G75*
G02*
X46355000Y-80391000I0J254000D01*
G01*
X46355000Y-78359000D01*
G75*
G02*
X46609000Y-78105000I254000J0D01*
G01*
G37*
D11*
X47625000Y-84455000D03*
D15*
X45085000Y-79375000D03*
X45085000Y-84455000D03*
M02*
