G04 #@! TF.GenerationSoftware,KiCad,Pcbnew,(5.1.12)-1*
G04 #@! TF.CreationDate,2022-05-10T20:13:38+01:00*
G04 #@! TF.ProjectId,TV_B_Gone_ML_v1_3,54565f42-5f47-46f6-9e65-5f4d4c5f7631,rev?*
G04 #@! TF.SameCoordinates,Original*
G04 #@! TF.FileFunction,Legend,Top*
G04 #@! TF.FilePolarity,Positive*
%FSLAX46Y46*%
G04 Gerber Fmt 4.6, Leading zero omitted, Abs format (unit mm)*
G04 Created by KiCad (PCBNEW (5.1.12)-1) date 2022-05-10 20:13:38*
%MOMM*%
%LPD*%
G01*
G04 APERTURE LIST*
%ADD10C,0.300000*%
%ADD11C,0.250190*%
%ADD12C,0.251460*%
%ADD13C,0.010000*%
%ADD14C,0.304800*%
%ADD15C,0.127000*%
%ADD16C,0.200000*%
%ADD17C,0.381000*%
%ADD18C,0.269240*%
%ADD19C,0.203200*%
%ADD20C,0.254000*%
%ADD21C,0.150000*%
%ADD22C,0.285750*%
%ADD23C,0.287020*%
%ADD24C,0.271780*%
G04 APERTURE END LIST*
D10*
X37477619Y-80269285D02*
X37553809Y-80383571D01*
X37553809Y-80612142D01*
X37477619Y-80726428D01*
X37401428Y-80783571D01*
X37249047Y-80840714D01*
X36791904Y-80840714D01*
X36639523Y-80783571D01*
X36563333Y-80726428D01*
X36487142Y-80612142D01*
X36487142Y-80383571D01*
X36563333Y-80269285D01*
X36487142Y-79240714D02*
X37553809Y-79240714D01*
X36487142Y-79755000D02*
X37325238Y-79755000D01*
X37477619Y-79697857D01*
X37553809Y-79583571D01*
X37553809Y-79412142D01*
X37477619Y-79297857D01*
X37401428Y-79240714D01*
X37553809Y-78669285D02*
X36487142Y-78669285D01*
X36791904Y-78669285D02*
X36639523Y-78612142D01*
X36563333Y-78555000D01*
X36487142Y-78440714D01*
X36487142Y-78326428D01*
X37553809Y-77926428D02*
X36487142Y-77926428D01*
X35953809Y-77926428D02*
X36030000Y-77983571D01*
X36106190Y-77926428D01*
X36030000Y-77869285D01*
X35953809Y-77926428D01*
X36106190Y-77926428D01*
X37553809Y-77183571D02*
X37477619Y-77297857D01*
X37401428Y-77355000D01*
X37249047Y-77412142D01*
X36791904Y-77412142D01*
X36639523Y-77355000D01*
X36563333Y-77297857D01*
X36487142Y-77183571D01*
X36487142Y-77012142D01*
X36563333Y-76897857D01*
X36639523Y-76840714D01*
X36791904Y-76783571D01*
X37249047Y-76783571D01*
X37401428Y-76840714D01*
X37477619Y-76897857D01*
X37553809Y-77012142D01*
X37553809Y-77183571D01*
X36487142Y-75755000D02*
X37553809Y-75755000D01*
X36487142Y-76269285D02*
X37325238Y-76269285D01*
X37477619Y-76212142D01*
X37553809Y-76097857D01*
X37553809Y-75926428D01*
X37477619Y-75812142D01*
X37401428Y-75755000D01*
X37477619Y-75240714D02*
X37553809Y-75126428D01*
X37553809Y-74897857D01*
X37477619Y-74783571D01*
X37325238Y-74726428D01*
X37249047Y-74726428D01*
X37096666Y-74783571D01*
X37020476Y-74897857D01*
X37020476Y-75069285D01*
X36944285Y-75183571D01*
X36791904Y-75240714D01*
X36715714Y-75240714D01*
X36563333Y-75183571D01*
X36487142Y-75069285D01*
X36487142Y-74897857D01*
X36563333Y-74783571D01*
X37477619Y-73755000D02*
X37553809Y-73869285D01*
X37553809Y-74097857D01*
X37477619Y-74212142D01*
X37325238Y-74269285D01*
X36715714Y-74269285D01*
X36563333Y-74212142D01*
X36487142Y-74097857D01*
X36487142Y-73869285D01*
X36563333Y-73755000D01*
X36715714Y-73697857D01*
X36868095Y-73697857D01*
X37020476Y-74269285D01*
X37553809Y-73012142D02*
X37477619Y-73126428D01*
X37325238Y-73183571D01*
X35953809Y-73183571D01*
X37477619Y-72097857D02*
X37553809Y-72212142D01*
X37553809Y-72440714D01*
X37477619Y-72555000D01*
X37325238Y-72612142D01*
X36715714Y-72612142D01*
X36563333Y-72555000D01*
X36487142Y-72440714D01*
X36487142Y-72212142D01*
X36563333Y-72097857D01*
X36715714Y-72040714D01*
X36868095Y-72040714D01*
X37020476Y-72612142D01*
X37477619Y-71012142D02*
X37553809Y-71126428D01*
X37553809Y-71355000D01*
X37477619Y-71469285D01*
X37401428Y-71526428D01*
X37249047Y-71583571D01*
X36791904Y-71583571D01*
X36639523Y-71526428D01*
X36563333Y-71469285D01*
X36487142Y-71355000D01*
X36487142Y-71126428D01*
X36563333Y-71012142D01*
X36487142Y-70669285D02*
X36487142Y-70212142D01*
X35953809Y-70497857D02*
X37325238Y-70497857D01*
X37477619Y-70440714D01*
X37553809Y-70326428D01*
X37553809Y-70212142D01*
X37553809Y-69812142D02*
X36487142Y-69812142D01*
X36791904Y-69812142D02*
X36639523Y-69755000D01*
X36563333Y-69697857D01*
X36487142Y-69583571D01*
X36487142Y-69469285D01*
X37553809Y-69069285D02*
X36487142Y-69069285D01*
X35953809Y-69069285D02*
X36030000Y-69126428D01*
X36106190Y-69069285D01*
X36030000Y-69012142D01*
X35953809Y-69069285D01*
X36106190Y-69069285D01*
X37477619Y-67983571D02*
X37553809Y-68097857D01*
X37553809Y-68326428D01*
X37477619Y-68440714D01*
X37401428Y-68497857D01*
X37249047Y-68555000D01*
X36791904Y-68555000D01*
X36639523Y-68497857D01*
X36563333Y-68440714D01*
X36487142Y-68326428D01*
X36487142Y-68097857D01*
X36563333Y-67983571D01*
X37401428Y-67469285D02*
X37477619Y-67412142D01*
X37553809Y-67469285D01*
X37477619Y-67526428D01*
X37401428Y-67469285D01*
X37553809Y-67469285D01*
X37477619Y-66383571D02*
X37553809Y-66497857D01*
X37553809Y-66726428D01*
X37477619Y-66840714D01*
X37401428Y-66897857D01*
X37249047Y-66955000D01*
X36791904Y-66955000D01*
X36639523Y-66897857D01*
X36563333Y-66840714D01*
X36487142Y-66726428D01*
X36487142Y-66497857D01*
X36563333Y-66383571D01*
X37553809Y-65697857D02*
X37477619Y-65812142D01*
X37401428Y-65869285D01*
X37249047Y-65926428D01*
X36791904Y-65926428D01*
X36639523Y-65869285D01*
X36563333Y-65812142D01*
X36487142Y-65697857D01*
X36487142Y-65526428D01*
X36563333Y-65412142D01*
X36639523Y-65355000D01*
X36791904Y-65297857D01*
X37249047Y-65297857D01*
X37401428Y-65355000D01*
X37477619Y-65412142D01*
X37553809Y-65526428D01*
X37553809Y-65697857D01*
X37401428Y-64783571D02*
X37477619Y-64726428D01*
X37553809Y-64783571D01*
X37477619Y-64840714D01*
X37401428Y-64783571D01*
X37553809Y-64783571D01*
X36487142Y-63697857D02*
X37553809Y-63697857D01*
X36487142Y-64212142D02*
X37325238Y-64212142D01*
X37477619Y-64155000D01*
X37553809Y-64040714D01*
X37553809Y-63869285D01*
X37477619Y-63755000D01*
X37401428Y-63697857D01*
X37553809Y-63126428D02*
X35953809Y-63126428D01*
X36944285Y-63012142D02*
X37553809Y-62669285D01*
X36487142Y-62669285D02*
X37096666Y-63126428D01*
D11*
X38547947Y-76043971D02*
X38547947Y-75472108D01*
X40049087Y-75758040D02*
X38547947Y-75758040D01*
X38547947Y-75281487D02*
X40049087Y-74947900D01*
X38547947Y-74614314D01*
X39477224Y-74280727D02*
X39477224Y-73518243D01*
X39262775Y-72708104D02*
X39334258Y-72565139D01*
X39405741Y-72517483D01*
X39548707Y-72469828D01*
X39763155Y-72469828D01*
X39906121Y-72517483D01*
X39977604Y-72565139D01*
X40049087Y-72660449D01*
X40049087Y-73041691D01*
X38547947Y-73041691D01*
X38547947Y-72708104D01*
X38619430Y-72612794D01*
X38690912Y-72565139D01*
X38833878Y-72517483D01*
X38976844Y-72517483D01*
X39119810Y-72565139D01*
X39191292Y-72612794D01*
X39262775Y-72708104D01*
X39262775Y-73041691D01*
X39477224Y-72040931D02*
X39477224Y-71278447D01*
X38619430Y-70277687D02*
X38547947Y-70372998D01*
X38547947Y-70515963D01*
X38619430Y-70658929D01*
X38762395Y-70754240D01*
X38905361Y-70801895D01*
X39191292Y-70849550D01*
X39405741Y-70849550D01*
X39691672Y-70801895D01*
X39834638Y-70754240D01*
X39977604Y-70658929D01*
X40049087Y-70515963D01*
X40049087Y-70420653D01*
X39977604Y-70277687D01*
X39906121Y-70230032D01*
X39405741Y-70230032D01*
X39405741Y-70420653D01*
X40049087Y-69658169D02*
X39977604Y-69753480D01*
X39906121Y-69801135D01*
X39763155Y-69848790D01*
X39334258Y-69848790D01*
X39191292Y-69801135D01*
X39119810Y-69753480D01*
X39048327Y-69658169D01*
X39048327Y-69515203D01*
X39119810Y-69419893D01*
X39191292Y-69372238D01*
X39334258Y-69324582D01*
X39763155Y-69324582D01*
X39906121Y-69372238D01*
X39977604Y-69419893D01*
X40049087Y-69515203D01*
X40049087Y-69658169D01*
X39048327Y-68895685D02*
X40049087Y-68895685D01*
X39191292Y-68895685D02*
X39119810Y-68848030D01*
X39048327Y-68752720D01*
X39048327Y-68609754D01*
X39119810Y-68514443D01*
X39262775Y-68466788D01*
X40049087Y-68466788D01*
X39977604Y-67608994D02*
X40049087Y-67704304D01*
X40049087Y-67894925D01*
X39977604Y-67990236D01*
X39834638Y-68037891D01*
X39262775Y-68037891D01*
X39119810Y-67990236D01*
X39048327Y-67894925D01*
X39048327Y-67704304D01*
X39119810Y-67608994D01*
X39262775Y-67561339D01*
X39405741Y-67561339D01*
X39548707Y-68037891D01*
D12*
D13*
G36*
X87181137Y-69866544D02*
G01*
X87300318Y-69868879D01*
X87386772Y-69873130D01*
X87445292Y-69879591D01*
X87480671Y-69888556D01*
X87491810Y-69894521D01*
X87522898Y-69930218D01*
X87513262Y-69960532D01*
X87464313Y-69984190D01*
X87377462Y-69999918D01*
X87374793Y-70000201D01*
X87298110Y-70005305D01*
X87190988Y-70008613D01*
X87065278Y-70010149D01*
X86932837Y-70009938D01*
X86805516Y-70008006D01*
X86695171Y-70004377D01*
X86613654Y-69999077D01*
X86608709Y-69998579D01*
X86555619Y-69988715D01*
X86533138Y-69968584D01*
X86529334Y-69940902D01*
X86542127Y-69897242D01*
X86562815Y-69878679D01*
X86593483Y-69874763D01*
X86659510Y-69871328D01*
X86753920Y-69868568D01*
X86869739Y-69866678D01*
X86999992Y-69865852D01*
X87024436Y-69865832D01*
X87181137Y-69866544D01*
G37*
X87181137Y-69866544D02*
X87300318Y-69868879D01*
X87386772Y-69873130D01*
X87445292Y-69879591D01*
X87480671Y-69888556D01*
X87491810Y-69894521D01*
X87522898Y-69930218D01*
X87513262Y-69960532D01*
X87464313Y-69984190D01*
X87377462Y-69999918D01*
X87374793Y-70000201D01*
X87298110Y-70005305D01*
X87190988Y-70008613D01*
X87065278Y-70010149D01*
X86932837Y-70009938D01*
X86805516Y-70008006D01*
X86695171Y-70004377D01*
X86613654Y-69999077D01*
X86608709Y-69998579D01*
X86555619Y-69988715D01*
X86533138Y-69968584D01*
X86529334Y-69940902D01*
X86542127Y-69897242D01*
X86562815Y-69878679D01*
X86593483Y-69874763D01*
X86659510Y-69871328D01*
X86753920Y-69868568D01*
X86869739Y-69866678D01*
X86999992Y-69865852D01*
X87024436Y-69865832D01*
X87181137Y-69866544D01*
G36*
X85769726Y-56309656D02*
G01*
X86128088Y-56356608D01*
X86481173Y-56443978D01*
X86555727Y-56467952D01*
X86721093Y-56531471D01*
X86903102Y-56615008D01*
X87087385Y-56711066D01*
X87259575Y-56812146D01*
X87405303Y-56910750D01*
X87407750Y-56912572D01*
X87691613Y-57149875D01*
X87942354Y-57412642D01*
X88158835Y-57698603D01*
X88339917Y-58005488D01*
X88484461Y-58331025D01*
X88591329Y-58672946D01*
X88659382Y-59028979D01*
X88687481Y-59396854D01*
X88688209Y-59465603D01*
X88667819Y-59825692D01*
X88607503Y-60176492D01*
X88509029Y-60515126D01*
X88374166Y-60838716D01*
X88204682Y-61144386D01*
X88002347Y-61429257D01*
X87768929Y-61690452D01*
X87506197Y-61925093D01*
X87215919Y-62130305D01*
X86962927Y-62272418D01*
X86667882Y-62403186D01*
X86368316Y-62502610D01*
X86072344Y-62568379D01*
X85825214Y-62596358D01*
X85732135Y-62602043D01*
X85649852Y-62607568D01*
X85591340Y-62612042D01*
X85576834Y-62613409D01*
X85534395Y-62614326D01*
X85461034Y-62612347D01*
X85368033Y-62607881D01*
X85291084Y-62603070D01*
X84941093Y-62558205D01*
X84601447Y-62473897D01*
X84275062Y-62352376D01*
X83964854Y-62195877D01*
X83673740Y-62006629D01*
X83404634Y-61786867D01*
X83160455Y-61538822D01*
X82944117Y-61264727D01*
X82758537Y-60966814D01*
X82606631Y-60647314D01*
X82553717Y-60507635D01*
X82498359Y-60340461D01*
X82456595Y-60188804D01*
X82426766Y-60041820D01*
X82407213Y-59888664D01*
X82396277Y-59718491D01*
X82393163Y-59563445D01*
X82703441Y-59563445D01*
X82710896Y-59731057D01*
X82726549Y-59872212D01*
X82727070Y-59875417D01*
X82803877Y-60222890D01*
X82916788Y-60548422D01*
X83066176Y-60852767D01*
X83252412Y-61136682D01*
X83475866Y-61400923D01*
X83476522Y-61401613D01*
X83719257Y-61628451D01*
X83986731Y-61826715D01*
X84273355Y-61993376D01*
X84573539Y-62125404D01*
X84881692Y-62219771D01*
X85049714Y-62254049D01*
X85198329Y-62272037D01*
X85373835Y-62282330D01*
X85561494Y-62284909D01*
X85746565Y-62279750D01*
X85914308Y-62266835D01*
X86000167Y-62255408D01*
X86320789Y-62182350D01*
X86633243Y-62069556D01*
X86932976Y-61919465D01*
X87215434Y-61734521D01*
X87476063Y-61517164D01*
X87592478Y-61401613D01*
X87815878Y-61137099D01*
X88002991Y-60851062D01*
X88154055Y-60543044D01*
X88269310Y-60212586D01*
X88321626Y-60002165D01*
X88341185Y-59876857D01*
X88354298Y-59721999D01*
X88360967Y-59549325D01*
X88361196Y-59370574D01*
X88354987Y-59197482D01*
X88342342Y-59041786D01*
X88323264Y-58915223D01*
X88321394Y-58906405D01*
X88226327Y-58565050D01*
X88095548Y-58244067D01*
X87931115Y-57945524D01*
X87735086Y-57671488D01*
X87509520Y-57424028D01*
X87256476Y-57205209D01*
X86978010Y-57017100D01*
X86676182Y-56861768D01*
X86353049Y-56741280D01*
X86100363Y-56675540D01*
X85916273Y-56646288D01*
X85706366Y-56629878D01*
X85485161Y-56626308D01*
X85267180Y-56635579D01*
X85066943Y-56657691D01*
X84968637Y-56675540D01*
X84631090Y-56768794D01*
X84313197Y-56898457D01*
X84017070Y-57062410D01*
X83744824Y-57258533D01*
X83498570Y-57484708D01*
X83280422Y-57738813D01*
X83092493Y-58018731D01*
X82936895Y-58322341D01*
X82815743Y-58647525D01*
X82749358Y-58901498D01*
X82727143Y-59038403D01*
X82711878Y-59203465D01*
X82703873Y-59383030D01*
X82703441Y-59563445D01*
X82393163Y-59563445D01*
X82392299Y-59520458D01*
X82392220Y-59451832D01*
X82393263Y-59292221D01*
X82396019Y-59166141D01*
X82401129Y-59064798D01*
X82409234Y-58979405D01*
X82420977Y-58901169D01*
X82436999Y-58821300D01*
X82438843Y-58812963D01*
X82539018Y-58456112D01*
X82675382Y-58118327D01*
X82846034Y-57801872D01*
X83049071Y-57509013D01*
X83282592Y-57242014D01*
X83544696Y-57003141D01*
X83833479Y-56794658D01*
X84147040Y-56618830D01*
X84360924Y-56524051D01*
X84701684Y-56410319D01*
X85052652Y-56336610D01*
X85409956Y-56303023D01*
X85769726Y-56309656D01*
G37*
X85769726Y-56309656D02*
X86128088Y-56356608D01*
X86481173Y-56443978D01*
X86555727Y-56467952D01*
X86721093Y-56531471D01*
X86903102Y-56615008D01*
X87087385Y-56711066D01*
X87259575Y-56812146D01*
X87405303Y-56910750D01*
X87407750Y-56912572D01*
X87691613Y-57149875D01*
X87942354Y-57412642D01*
X88158835Y-57698603D01*
X88339917Y-58005488D01*
X88484461Y-58331025D01*
X88591329Y-58672946D01*
X88659382Y-59028979D01*
X88687481Y-59396854D01*
X88688209Y-59465603D01*
X88667819Y-59825692D01*
X88607503Y-60176492D01*
X88509029Y-60515126D01*
X88374166Y-60838716D01*
X88204682Y-61144386D01*
X88002347Y-61429257D01*
X87768929Y-61690452D01*
X87506197Y-61925093D01*
X87215919Y-62130305D01*
X86962927Y-62272418D01*
X86667882Y-62403186D01*
X86368316Y-62502610D01*
X86072344Y-62568379D01*
X85825214Y-62596358D01*
X85732135Y-62602043D01*
X85649852Y-62607568D01*
X85591340Y-62612042D01*
X85576834Y-62613409D01*
X85534395Y-62614326D01*
X85461034Y-62612347D01*
X85368033Y-62607881D01*
X85291084Y-62603070D01*
X84941093Y-62558205D01*
X84601447Y-62473897D01*
X84275062Y-62352376D01*
X83964854Y-62195877D01*
X83673740Y-62006629D01*
X83404634Y-61786867D01*
X83160455Y-61538822D01*
X82944117Y-61264727D01*
X82758537Y-60966814D01*
X82606631Y-60647314D01*
X82553717Y-60507635D01*
X82498359Y-60340461D01*
X82456595Y-60188804D01*
X82426766Y-60041820D01*
X82407213Y-59888664D01*
X82396277Y-59718491D01*
X82393163Y-59563445D01*
X82703441Y-59563445D01*
X82710896Y-59731057D01*
X82726549Y-59872212D01*
X82727070Y-59875417D01*
X82803877Y-60222890D01*
X82916788Y-60548422D01*
X83066176Y-60852767D01*
X83252412Y-61136682D01*
X83475866Y-61400923D01*
X83476522Y-61401613D01*
X83719257Y-61628451D01*
X83986731Y-61826715D01*
X84273355Y-61993376D01*
X84573539Y-62125404D01*
X84881692Y-62219771D01*
X85049714Y-62254049D01*
X85198329Y-62272037D01*
X85373835Y-62282330D01*
X85561494Y-62284909D01*
X85746565Y-62279750D01*
X85914308Y-62266835D01*
X86000167Y-62255408D01*
X86320789Y-62182350D01*
X86633243Y-62069556D01*
X86932976Y-61919465D01*
X87215434Y-61734521D01*
X87476063Y-61517164D01*
X87592478Y-61401613D01*
X87815878Y-61137099D01*
X88002991Y-60851062D01*
X88154055Y-60543044D01*
X88269310Y-60212586D01*
X88321626Y-60002165D01*
X88341185Y-59876857D01*
X88354298Y-59721999D01*
X88360967Y-59549325D01*
X88361196Y-59370574D01*
X88354987Y-59197482D01*
X88342342Y-59041786D01*
X88323264Y-58915223D01*
X88321394Y-58906405D01*
X88226327Y-58565050D01*
X88095548Y-58244067D01*
X87931115Y-57945524D01*
X87735086Y-57671488D01*
X87509520Y-57424028D01*
X87256476Y-57205209D01*
X86978010Y-57017100D01*
X86676182Y-56861768D01*
X86353049Y-56741280D01*
X86100363Y-56675540D01*
X85916273Y-56646288D01*
X85706366Y-56629878D01*
X85485161Y-56626308D01*
X85267180Y-56635579D01*
X85066943Y-56657691D01*
X84968637Y-56675540D01*
X84631090Y-56768794D01*
X84313197Y-56898457D01*
X84017070Y-57062410D01*
X83744824Y-57258533D01*
X83498570Y-57484708D01*
X83280422Y-57738813D01*
X83092493Y-58018731D01*
X82936895Y-58322341D01*
X82815743Y-58647525D01*
X82749358Y-58901498D01*
X82727143Y-59038403D01*
X82711878Y-59203465D01*
X82703873Y-59383030D01*
X82703441Y-59563445D01*
X82393163Y-59563445D01*
X82392299Y-59520458D01*
X82392220Y-59451832D01*
X82393263Y-59292221D01*
X82396019Y-59166141D01*
X82401129Y-59064798D01*
X82409234Y-58979405D01*
X82420977Y-58901169D01*
X82436999Y-58821300D01*
X82438843Y-58812963D01*
X82539018Y-58456112D01*
X82675382Y-58118327D01*
X82846034Y-57801872D01*
X83049071Y-57509013D01*
X83282592Y-57242014D01*
X83544696Y-57003141D01*
X83833479Y-56794658D01*
X84147040Y-56618830D01*
X84360924Y-56524051D01*
X84701684Y-56410319D01*
X85052652Y-56336610D01*
X85409956Y-56303023D01*
X85769726Y-56309656D01*
G36*
X39676917Y-56305636D02*
G01*
X40016373Y-56337756D01*
X40334400Y-56401140D01*
X40640726Y-56498393D01*
X40945079Y-56632119D01*
X40999337Y-56659711D01*
X41240552Y-56797569D01*
X41459776Y-56951506D01*
X41669181Y-57130707D01*
X41816992Y-57276669D01*
X42046995Y-57541533D01*
X42241342Y-57822694D01*
X42402059Y-58124030D01*
X42531169Y-58449419D01*
X42630700Y-58802739D01*
X42643373Y-58859165D01*
X42663372Y-58985280D01*
X42676859Y-59142389D01*
X42683908Y-59319666D01*
X42684593Y-59506288D01*
X42678987Y-59691430D01*
X42667165Y-59864268D01*
X42649201Y-60013976D01*
X42634952Y-60090700D01*
X42533665Y-60454126D01*
X42397194Y-60795746D01*
X42227060Y-61113862D01*
X42024784Y-61406778D01*
X41791887Y-61672796D01*
X41529891Y-61910218D01*
X41240315Y-62117346D01*
X40924683Y-62292483D01*
X40584513Y-62433932D01*
X40513590Y-62458056D01*
X40203443Y-62542271D01*
X39886792Y-62592500D01*
X39555657Y-62609686D01*
X39295917Y-62601640D01*
X38952201Y-62559185D01*
X38614392Y-62476578D01*
X38286653Y-62355964D01*
X37973147Y-62199490D01*
X37678038Y-62009299D01*
X37405490Y-61787539D01*
X37159665Y-61536354D01*
X37106192Y-61473248D01*
X36891999Y-61182205D01*
X36714789Y-60873179D01*
X36573112Y-60543216D01*
X36465517Y-60189365D01*
X36456049Y-60150332D01*
X36420177Y-59954483D01*
X36397119Y-59731986D01*
X36388376Y-59523747D01*
X36708129Y-59523747D01*
X36713395Y-59690967D01*
X36726105Y-59835372D01*
X36731921Y-59875417D01*
X36808166Y-60215754D01*
X36921557Y-60539987D01*
X37070086Y-60845340D01*
X37251749Y-61129035D01*
X37464540Y-61388297D01*
X37706453Y-61620350D01*
X37975483Y-61822416D01*
X38255696Y-61984754D01*
X38437355Y-62067308D01*
X38635935Y-62142266D01*
X38835467Y-62204244D01*
X39019979Y-62247857D01*
X39054548Y-62254049D01*
X39203162Y-62272037D01*
X39378668Y-62282330D01*
X39566327Y-62284909D01*
X39751398Y-62279750D01*
X39919142Y-62266835D01*
X40005000Y-62255408D01*
X40329064Y-62181801D01*
X40641327Y-62069277D01*
X40938351Y-61920417D01*
X41216697Y-61737804D01*
X41472925Y-61524018D01*
X41703597Y-61281643D01*
X41905273Y-61013260D01*
X42074514Y-60721451D01*
X42090008Y-60690082D01*
X42203179Y-60429061D01*
X42284674Y-60172606D01*
X42337693Y-59907800D01*
X42365436Y-59621723D01*
X42367941Y-59568248D01*
X42365375Y-59250991D01*
X42329930Y-58951630D01*
X42259656Y-58660971D01*
X42152603Y-58369820D01*
X42080560Y-58212726D01*
X41909771Y-57909603D01*
X41707479Y-57633851D01*
X41475802Y-57387120D01*
X41216861Y-57171058D01*
X40932776Y-56987315D01*
X40625665Y-56837541D01*
X40297648Y-56723385D01*
X40105196Y-56675540D01*
X39921107Y-56646288D01*
X39711199Y-56629878D01*
X39489994Y-56626308D01*
X39272013Y-56635579D01*
X39071776Y-56657691D01*
X38973471Y-56675540D01*
X38635966Y-56768807D01*
X38317941Y-56898553D01*
X38021551Y-57062629D01*
X37748953Y-57258886D01*
X37502303Y-57485176D01*
X37283758Y-57739350D01*
X37095473Y-58019260D01*
X36939605Y-58322756D01*
X36818310Y-58647692D01*
X36755371Y-58885660D01*
X36733928Y-59014670D01*
X36718702Y-59172653D01*
X36710000Y-59346661D01*
X36708129Y-59523747D01*
X36388376Y-59523747D01*
X36387238Y-59496652D01*
X36390894Y-59262294D01*
X36408449Y-59042723D01*
X36424164Y-58933248D01*
X36505081Y-58580679D01*
X36622505Y-58245920D01*
X36773992Y-57930945D01*
X36957100Y-57637728D01*
X37169385Y-57368241D01*
X37408404Y-57124459D01*
X37671714Y-56908356D01*
X37956871Y-56721905D01*
X38261433Y-56567079D01*
X38582956Y-56445853D01*
X38918997Y-56360199D01*
X39267113Y-56312093D01*
X39624860Y-56303506D01*
X39676917Y-56305636D01*
G37*
X39676917Y-56305636D02*
X40016373Y-56337756D01*
X40334400Y-56401140D01*
X40640726Y-56498393D01*
X40945079Y-56632119D01*
X40999337Y-56659711D01*
X41240552Y-56797569D01*
X41459776Y-56951506D01*
X41669181Y-57130707D01*
X41816992Y-57276669D01*
X42046995Y-57541533D01*
X42241342Y-57822694D01*
X42402059Y-58124030D01*
X42531169Y-58449419D01*
X42630700Y-58802739D01*
X42643373Y-58859165D01*
X42663372Y-58985280D01*
X42676859Y-59142389D01*
X42683908Y-59319666D01*
X42684593Y-59506288D01*
X42678987Y-59691430D01*
X42667165Y-59864268D01*
X42649201Y-60013976D01*
X42634952Y-60090700D01*
X42533665Y-60454126D01*
X42397194Y-60795746D01*
X42227060Y-61113862D01*
X42024784Y-61406778D01*
X41791887Y-61672796D01*
X41529891Y-61910218D01*
X41240315Y-62117346D01*
X40924683Y-62292483D01*
X40584513Y-62433932D01*
X40513590Y-62458056D01*
X40203443Y-62542271D01*
X39886792Y-62592500D01*
X39555657Y-62609686D01*
X39295917Y-62601640D01*
X38952201Y-62559185D01*
X38614392Y-62476578D01*
X38286653Y-62355964D01*
X37973147Y-62199490D01*
X37678038Y-62009299D01*
X37405490Y-61787539D01*
X37159665Y-61536354D01*
X37106192Y-61473248D01*
X36891999Y-61182205D01*
X36714789Y-60873179D01*
X36573112Y-60543216D01*
X36465517Y-60189365D01*
X36456049Y-60150332D01*
X36420177Y-59954483D01*
X36397119Y-59731986D01*
X36388376Y-59523747D01*
X36708129Y-59523747D01*
X36713395Y-59690967D01*
X36726105Y-59835372D01*
X36731921Y-59875417D01*
X36808166Y-60215754D01*
X36921557Y-60539987D01*
X37070086Y-60845340D01*
X37251749Y-61129035D01*
X37464540Y-61388297D01*
X37706453Y-61620350D01*
X37975483Y-61822416D01*
X38255696Y-61984754D01*
X38437355Y-62067308D01*
X38635935Y-62142266D01*
X38835467Y-62204244D01*
X39019979Y-62247857D01*
X39054548Y-62254049D01*
X39203162Y-62272037D01*
X39378668Y-62282330D01*
X39566327Y-62284909D01*
X39751398Y-62279750D01*
X39919142Y-62266835D01*
X40005000Y-62255408D01*
X40329064Y-62181801D01*
X40641327Y-62069277D01*
X40938351Y-61920417D01*
X41216697Y-61737804D01*
X41472925Y-61524018D01*
X41703597Y-61281643D01*
X41905273Y-61013260D01*
X42074514Y-60721451D01*
X42090008Y-60690082D01*
X42203179Y-60429061D01*
X42284674Y-60172606D01*
X42337693Y-59907800D01*
X42365436Y-59621723D01*
X42367941Y-59568248D01*
X42365375Y-59250991D01*
X42329930Y-58951630D01*
X42259656Y-58660971D01*
X42152603Y-58369820D01*
X42080560Y-58212726D01*
X41909771Y-57909603D01*
X41707479Y-57633851D01*
X41475802Y-57387120D01*
X41216861Y-57171058D01*
X40932776Y-56987315D01*
X40625665Y-56837541D01*
X40297648Y-56723385D01*
X40105196Y-56675540D01*
X39921107Y-56646288D01*
X39711199Y-56629878D01*
X39489994Y-56626308D01*
X39272013Y-56635579D01*
X39071776Y-56657691D01*
X38973471Y-56675540D01*
X38635966Y-56768807D01*
X38317941Y-56898553D01*
X38021551Y-57062629D01*
X37748953Y-57258886D01*
X37502303Y-57485176D01*
X37283758Y-57739350D01*
X37095473Y-58019260D01*
X36939605Y-58322756D01*
X36818310Y-58647692D01*
X36755371Y-58885660D01*
X36733928Y-59014670D01*
X36718702Y-59172653D01*
X36710000Y-59346661D01*
X36708129Y-59523747D01*
X36388376Y-59523747D01*
X36387238Y-59496652D01*
X36390894Y-59262294D01*
X36408449Y-59042723D01*
X36424164Y-58933248D01*
X36505081Y-58580679D01*
X36622505Y-58245920D01*
X36773992Y-57930945D01*
X36957100Y-57637728D01*
X37169385Y-57368241D01*
X37408404Y-57124459D01*
X37671714Y-56908356D01*
X37956871Y-56721905D01*
X38261433Y-56567079D01*
X38582956Y-56445853D01*
X38918997Y-56360199D01*
X39267113Y-56312093D01*
X39624860Y-56303506D01*
X39676917Y-56305636D01*
G36*
X86381247Y-64461069D02*
G01*
X86391345Y-64482072D01*
X86417270Y-64539601D01*
X86458026Y-64631364D01*
X86512617Y-64755071D01*
X86580046Y-64908431D01*
X86659316Y-65089151D01*
X86749431Y-65294941D01*
X86849395Y-65523510D01*
X86958211Y-65772566D01*
X87074882Y-66039819D01*
X87198412Y-66322976D01*
X87327805Y-66619748D01*
X87462064Y-66927842D01*
X87600192Y-67244967D01*
X87741192Y-67568832D01*
X87884070Y-67897147D01*
X88027827Y-68227619D01*
X88171467Y-68557958D01*
X88313995Y-68885872D01*
X88454413Y-69209070D01*
X88591724Y-69525261D01*
X88724933Y-69832154D01*
X88853043Y-70127457D01*
X88975057Y-70408880D01*
X89089979Y-70674130D01*
X89196812Y-70920918D01*
X89294560Y-71146951D01*
X89382226Y-71349939D01*
X89458814Y-71527589D01*
X89523327Y-71677612D01*
X89574769Y-71797716D01*
X89612143Y-71885609D01*
X89634453Y-71939000D01*
X89640834Y-71955616D01*
X89632548Y-71976434D01*
X89608352Y-72033752D01*
X89569241Y-72125286D01*
X89516206Y-72248749D01*
X89450243Y-72401856D01*
X89372344Y-72582320D01*
X89283502Y-72787857D01*
X89184712Y-73016179D01*
X89076966Y-73265001D01*
X88961257Y-73532037D01*
X88838581Y-73815002D01*
X88709929Y-74111609D01*
X88576295Y-74419573D01*
X88438673Y-74736608D01*
X88298056Y-75060427D01*
X88155437Y-75388746D01*
X88011811Y-75719278D01*
X87868170Y-76049737D01*
X87725507Y-76377837D01*
X87584817Y-76701293D01*
X87447093Y-77017819D01*
X87313328Y-77325129D01*
X87184515Y-77620937D01*
X87061648Y-77902957D01*
X86945721Y-78168903D01*
X86837726Y-78416490D01*
X86738658Y-78643431D01*
X86649510Y-78847441D01*
X86571274Y-79026234D01*
X86504945Y-79177524D01*
X86451517Y-79299025D01*
X86411981Y-79388452D01*
X86387333Y-79443518D01*
X86378597Y-79461933D01*
X86355191Y-79461424D01*
X86303167Y-79453844D01*
X86254167Y-79444797D01*
X86137750Y-79421670D01*
X86135222Y-75874269D01*
X86307309Y-75874269D01*
X86312008Y-75985539D01*
X86334671Y-76090306D01*
X86373718Y-76178384D01*
X86427565Y-76239585D01*
X86448040Y-76252014D01*
X86566400Y-76290090D01*
X86696935Y-76299891D01*
X86822521Y-76281074D01*
X86878584Y-76260608D01*
X86929946Y-76229238D01*
X86983101Y-76178925D01*
X87044841Y-76102566D01*
X87090250Y-76039256D01*
X87162359Y-75941523D01*
X87222799Y-75875778D01*
X87279253Y-75836358D01*
X87339404Y-75817601D01*
X87396280Y-75813665D01*
X87461209Y-75826281D01*
X87506642Y-75858688D01*
X87521940Y-75902726D01*
X87521066Y-75909386D01*
X87494825Y-75946525D01*
X87431904Y-75970023D01*
X87330482Y-75980520D01*
X87317792Y-75980888D01*
X87227834Y-75982998D01*
X87227834Y-76304655D01*
X87360125Y-76290163D01*
X87497170Y-76264138D01*
X87598722Y-76217699D01*
X87668222Y-76147053D01*
X87709109Y-76048410D01*
X87724825Y-75917978D01*
X87725250Y-75887748D01*
X87712625Y-75746588D01*
X87673879Y-75638307D01*
X87607708Y-75561485D01*
X87512809Y-75514703D01*
X87387875Y-75496542D01*
X87365277Y-75496198D01*
X87246609Y-75502136D01*
X87151259Y-75523565D01*
X87070585Y-75565798D01*
X86995940Y-75634153D01*
X86918682Y-75733943D01*
X86876854Y-75796543D01*
X86815049Y-75885469D01*
X86763287Y-75942044D01*
X86714034Y-75972429D01*
X86659757Y-75982786D01*
X86648873Y-75982998D01*
X86575714Y-75973784D01*
X86537394Y-75944642D01*
X86529334Y-75908915D01*
X86541038Y-75866938D01*
X86580242Y-75843383D01*
X86653084Y-75834986D01*
X86668648Y-75834832D01*
X86741000Y-75834832D01*
X86741000Y-75511503D01*
X86625379Y-75525092D01*
X86523277Y-75542072D01*
X86451999Y-75568693D01*
X86400168Y-75611250D01*
X86358131Y-75672970D01*
X86322156Y-75766684D01*
X86307309Y-75874269D01*
X86135222Y-75874269D01*
X86134448Y-74788066D01*
X86337966Y-74788066D01*
X86338915Y-74835804D01*
X86347006Y-74870380D01*
X86367564Y-74894712D01*
X86405914Y-74911719D01*
X86467382Y-74924317D01*
X86557293Y-74935424D01*
X86680973Y-74947959D01*
X86762167Y-74956192D01*
X86929356Y-74973689D01*
X87058118Y-74987710D01*
X87152174Y-74998745D01*
X87215243Y-75007285D01*
X87251047Y-75013821D01*
X87263304Y-75018844D01*
X87259584Y-75021817D01*
X87232493Y-75025676D01*
X87171120Y-75032033D01*
X87083395Y-75040230D01*
X86977252Y-75049609D01*
X86860622Y-75059512D01*
X86741438Y-75069280D01*
X86627631Y-75078255D01*
X86527134Y-75085779D01*
X86447879Y-75091194D01*
X86397799Y-75093842D01*
X86389726Y-75093998D01*
X86364534Y-75096032D01*
X86349422Y-75107871D01*
X86341816Y-75138121D01*
X86339145Y-75195389D01*
X86338834Y-75264291D01*
X86338834Y-75434583D01*
X86407625Y-75423106D01*
X86446612Y-75417735D01*
X86521370Y-75408455D01*
X86625592Y-75396010D01*
X86752974Y-75381145D01*
X86897208Y-75364603D01*
X87047917Y-75347584D01*
X87201118Y-75330230D01*
X87342344Y-75313880D01*
X87465571Y-75299260D01*
X87564780Y-75287095D01*
X87633947Y-75278110D01*
X87667042Y-75273032D01*
X87688819Y-75265871D01*
X87702696Y-75250553D01*
X87710445Y-75218907D01*
X87713841Y-75162761D01*
X87714657Y-75073944D01*
X87714667Y-75053617D01*
X87714667Y-74844709D01*
X87645875Y-74832709D01*
X87597797Y-74825182D01*
X87519009Y-74813774D01*
X87420778Y-74800085D01*
X87323084Y-74786873D01*
X87187083Y-74768411D01*
X87092641Y-74753854D01*
X87039328Y-74741734D01*
X87026712Y-74730583D01*
X87054360Y-74718933D01*
X87121843Y-74705315D01*
X87228729Y-74688261D01*
X87291334Y-74678809D01*
X87407901Y-74661029D01*
X87512614Y-74644544D01*
X87596950Y-74630734D01*
X87652390Y-74620980D01*
X87667042Y-74617951D01*
X87688741Y-74610298D01*
X87702603Y-74594647D01*
X87710376Y-74562827D01*
X87713810Y-74506663D01*
X87714655Y-74417985D01*
X87714667Y-74395498D01*
X87714140Y-74299329D01*
X87711394Y-74237360D01*
X87704680Y-74201460D01*
X87692247Y-74183497D01*
X87672348Y-74175340D01*
X87667042Y-74174108D01*
X87634015Y-74169064D01*
X87564860Y-74160145D01*
X87465534Y-74148060D01*
X87341991Y-74133522D01*
X87200190Y-74117241D01*
X87046085Y-74099927D01*
X87037334Y-74098955D01*
X86882039Y-74081532D01*
X86738100Y-74065039D01*
X86611608Y-74050201D01*
X86508658Y-74037744D01*
X86435344Y-74028392D01*
X86397760Y-74022872D01*
X86397042Y-74022733D01*
X86338834Y-74011135D01*
X86338834Y-74182150D01*
X86340797Y-74261215D01*
X86346019Y-74320910D01*
X86353496Y-74351268D01*
X86356054Y-74353165D01*
X86382816Y-74355789D01*
X86442393Y-74362913D01*
X86525639Y-74373411D01*
X86612088Y-74384663D01*
X86741312Y-74400010D01*
X86886766Y-74414652D01*
X87025008Y-74426317D01*
X87081701Y-74430178D01*
X87174775Y-74437007D01*
X87249886Y-74444755D01*
X87298465Y-74452391D01*
X87312500Y-74457958D01*
X87292509Y-74463864D01*
X87237071Y-74471685D01*
X87152988Y-74480680D01*
X87047065Y-74490109D01*
X86947375Y-74497737D01*
X86816948Y-74507280D01*
X86691627Y-74516902D01*
X86581588Y-74525787D01*
X86497006Y-74533123D01*
X86460542Y-74536670D01*
X86338834Y-74549587D01*
X86338834Y-74724248D01*
X86337966Y-74788066D01*
X86134448Y-74788066D01*
X86133595Y-73591165D01*
X86338834Y-73591165D01*
X86338834Y-73929832D01*
X87714667Y-73929832D01*
X87714667Y-73591165D01*
X86338834Y-73591165D01*
X86133595Y-73591165D01*
X86132961Y-72702165D01*
X86338834Y-72702165D01*
X86338834Y-73485332D01*
X86592834Y-73485332D01*
X86592834Y-73273665D01*
X87714667Y-73273665D01*
X87714667Y-72913832D01*
X86592834Y-72913832D01*
X86592834Y-72702165D01*
X86338834Y-72702165D01*
X86132961Y-72702165D01*
X86132598Y-72193898D01*
X86309494Y-72193898D01*
X86325162Y-72336256D01*
X86370305Y-72450022D01*
X86443979Y-72533836D01*
X86545242Y-72586337D01*
X86589364Y-72597526D01*
X86646913Y-72604074D01*
X86736878Y-72608893D01*
X86849374Y-72611974D01*
X86974517Y-72613309D01*
X87102424Y-72612890D01*
X87223212Y-72610708D01*
X87326996Y-72606755D01*
X87403894Y-72601023D01*
X87424932Y-72598227D01*
X87543268Y-72562911D01*
X87631153Y-72499994D01*
X87689716Y-72407952D01*
X87720085Y-72285261D01*
X87725250Y-72192619D01*
X87723157Y-72103946D01*
X87714489Y-72042219D01*
X87695669Y-71992155D01*
X87667132Y-71944501D01*
X87613992Y-71877247D01*
X87553032Y-71831372D01*
X87473886Y-71801860D01*
X87366184Y-71783697D01*
X87326428Y-71779681D01*
X87164334Y-71764992D01*
X87164334Y-72109498D01*
X87254292Y-72110718D01*
X87336873Y-72115460D01*
X87420006Y-72125445D01*
X87428917Y-72126952D01*
X87484149Y-72140747D01*
X87508539Y-72161792D01*
X87513584Y-72194316D01*
X87503650Y-72234983D01*
X87466172Y-72256306D01*
X87450084Y-72260244D01*
X87402592Y-72265678D01*
X87322029Y-72270021D01*
X87217643Y-72273220D01*
X87098684Y-72275219D01*
X86974399Y-72275963D01*
X86854038Y-72275397D01*
X86746850Y-72273467D01*
X86662084Y-72270117D01*
X86608989Y-72265292D01*
X86608709Y-72265246D01*
X86556095Y-72252416D01*
X86533683Y-72230420D01*
X86529334Y-72194165D01*
X86534994Y-72154810D01*
X86560043Y-72134304D01*
X86608709Y-72123084D01*
X86678914Y-72115148D01*
X86763976Y-72110352D01*
X86799209Y-72109731D01*
X86910334Y-72109498D01*
X86910334Y-71764544D01*
X86728629Y-71777367D01*
X86602689Y-71791799D01*
X86509556Y-71817590D01*
X86440258Y-71859246D01*
X86385827Y-71921275D01*
X86360934Y-71962147D01*
X86328363Y-72034241D01*
X86312761Y-72110266D01*
X86309494Y-72193898D01*
X86132598Y-72193898D01*
X86132429Y-71957091D01*
X86131618Y-70818332D01*
X86338834Y-70818332D01*
X86338834Y-71156998D01*
X86825667Y-71156998D01*
X86825667Y-71283998D01*
X86338834Y-71283998D01*
X86338834Y-71622665D01*
X87714667Y-71622665D01*
X87714667Y-71283998D01*
X87122000Y-71283998D01*
X87122000Y-71156998D01*
X87714667Y-71156998D01*
X87714667Y-70818332D01*
X86338834Y-70818332D01*
X86131618Y-70818332D01*
X86131018Y-69977473D01*
X86303180Y-69977473D01*
X86305687Y-69999453D01*
X86343026Y-70131947D01*
X86407330Y-70232050D01*
X86498308Y-70299446D01*
X86613495Y-70333520D01*
X86686630Y-70340115D01*
X86790633Y-70344696D01*
X86914279Y-70347261D01*
X87046339Y-70347808D01*
X87175587Y-70346335D01*
X87290798Y-70342839D01*
X87380742Y-70337319D01*
X87413589Y-70333678D01*
X87535479Y-70299187D01*
X87627980Y-70234399D01*
X87691411Y-70138959D01*
X87726094Y-70012516D01*
X87729336Y-69986166D01*
X87726081Y-69859914D01*
X87692589Y-69744561D01*
X87633240Y-69647956D01*
X87552413Y-69577947D01*
X87485384Y-69548964D01*
X87439603Y-69542063D01*
X87359844Y-69536065D01*
X87254460Y-69531348D01*
X87131803Y-69528295D01*
X87010195Y-69527283D01*
X86849241Y-69528295D01*
X86724085Y-69532238D01*
X86628228Y-69540308D01*
X86555172Y-69553702D01*
X86498416Y-69573616D01*
X86451462Y-69601249D01*
X86407810Y-69637797D01*
X86407252Y-69638320D01*
X86363930Y-69700009D01*
X86329135Y-69787794D01*
X86307381Y-69885631D01*
X86303180Y-69977473D01*
X86131018Y-69977473D01*
X86130169Y-68786332D01*
X86338834Y-68786332D01*
X86338834Y-69378998D01*
X87714667Y-69378998D01*
X87714667Y-69019165D01*
X87122000Y-69019165D01*
X87122000Y-68807498D01*
X86868000Y-68807498D01*
X86868000Y-69019165D01*
X86592834Y-69019165D01*
X86592834Y-68786332D01*
X86338834Y-68786332D01*
X86130169Y-68786332D01*
X86129656Y-68066665D01*
X86338834Y-68066665D01*
X86338834Y-68680498D01*
X87714667Y-68680498D01*
X87714667Y-68320665D01*
X87122000Y-68320665D01*
X87122000Y-68108998D01*
X86868000Y-68108998D01*
X86868000Y-68320665D01*
X86592834Y-68320665D01*
X86592834Y-68066665D01*
X86338834Y-68066665D01*
X86129656Y-68066665D01*
X86129599Y-67986155D01*
X86338834Y-67986155D01*
X86460542Y-67974100D01*
X86530978Y-67968321D01*
X86629974Y-67961767D01*
X86743789Y-67955286D01*
X86846834Y-67950248D01*
X86962264Y-67944551D01*
X87075158Y-67938022D01*
X87171771Y-67931510D01*
X87233125Y-67926397D01*
X87354834Y-67914342D01*
X87354834Y-67670655D01*
X87063792Y-67656439D01*
X86931486Y-67649769D01*
X86809650Y-67643332D01*
X87439500Y-67643332D01*
X87439500Y-67960832D01*
X87714667Y-67960832D01*
X87714667Y-67643332D01*
X87439500Y-67643332D01*
X86809650Y-67643332D01*
X86790135Y-67642301D01*
X86657213Y-67634976D01*
X86555792Y-67629076D01*
X86338834Y-67615930D01*
X86338834Y-67986155D01*
X86129599Y-67986155D01*
X86127107Y-64492512D01*
X86245817Y-64467868D01*
X86313058Y-64457357D01*
X86363160Y-64455865D01*
X86381247Y-64461069D01*
G37*
X86381247Y-64461069D02*
X86391345Y-64482072D01*
X86417270Y-64539601D01*
X86458026Y-64631364D01*
X86512617Y-64755071D01*
X86580046Y-64908431D01*
X86659316Y-65089151D01*
X86749431Y-65294941D01*
X86849395Y-65523510D01*
X86958211Y-65772566D01*
X87074882Y-66039819D01*
X87198412Y-66322976D01*
X87327805Y-66619748D01*
X87462064Y-66927842D01*
X87600192Y-67244967D01*
X87741192Y-67568832D01*
X87884070Y-67897147D01*
X88027827Y-68227619D01*
X88171467Y-68557958D01*
X88313995Y-68885872D01*
X88454413Y-69209070D01*
X88591724Y-69525261D01*
X88724933Y-69832154D01*
X88853043Y-70127457D01*
X88975057Y-70408880D01*
X89089979Y-70674130D01*
X89196812Y-70920918D01*
X89294560Y-71146951D01*
X89382226Y-71349939D01*
X89458814Y-71527589D01*
X89523327Y-71677612D01*
X89574769Y-71797716D01*
X89612143Y-71885609D01*
X89634453Y-71939000D01*
X89640834Y-71955616D01*
X89632548Y-71976434D01*
X89608352Y-72033752D01*
X89569241Y-72125286D01*
X89516206Y-72248749D01*
X89450243Y-72401856D01*
X89372344Y-72582320D01*
X89283502Y-72787857D01*
X89184712Y-73016179D01*
X89076966Y-73265001D01*
X88961257Y-73532037D01*
X88838581Y-73815002D01*
X88709929Y-74111609D01*
X88576295Y-74419573D01*
X88438673Y-74736608D01*
X88298056Y-75060427D01*
X88155437Y-75388746D01*
X88011811Y-75719278D01*
X87868170Y-76049737D01*
X87725507Y-76377837D01*
X87584817Y-76701293D01*
X87447093Y-77017819D01*
X87313328Y-77325129D01*
X87184515Y-77620937D01*
X87061648Y-77902957D01*
X86945721Y-78168903D01*
X86837726Y-78416490D01*
X86738658Y-78643431D01*
X86649510Y-78847441D01*
X86571274Y-79026234D01*
X86504945Y-79177524D01*
X86451517Y-79299025D01*
X86411981Y-79388452D01*
X86387333Y-79443518D01*
X86378597Y-79461933D01*
X86355191Y-79461424D01*
X86303167Y-79453844D01*
X86254167Y-79444797D01*
X86137750Y-79421670D01*
X86135222Y-75874269D01*
X86307309Y-75874269D01*
X86312008Y-75985539D01*
X86334671Y-76090306D01*
X86373718Y-76178384D01*
X86427565Y-76239585D01*
X86448040Y-76252014D01*
X86566400Y-76290090D01*
X86696935Y-76299891D01*
X86822521Y-76281074D01*
X86878584Y-76260608D01*
X86929946Y-76229238D01*
X86983101Y-76178925D01*
X87044841Y-76102566D01*
X87090250Y-76039256D01*
X87162359Y-75941523D01*
X87222799Y-75875778D01*
X87279253Y-75836358D01*
X87339404Y-75817601D01*
X87396280Y-75813665D01*
X87461209Y-75826281D01*
X87506642Y-75858688D01*
X87521940Y-75902726D01*
X87521066Y-75909386D01*
X87494825Y-75946525D01*
X87431904Y-75970023D01*
X87330482Y-75980520D01*
X87317792Y-75980888D01*
X87227834Y-75982998D01*
X87227834Y-76304655D01*
X87360125Y-76290163D01*
X87497170Y-76264138D01*
X87598722Y-76217699D01*
X87668222Y-76147053D01*
X87709109Y-76048410D01*
X87724825Y-75917978D01*
X87725250Y-75887748D01*
X87712625Y-75746588D01*
X87673879Y-75638307D01*
X87607708Y-75561485D01*
X87512809Y-75514703D01*
X87387875Y-75496542D01*
X87365277Y-75496198D01*
X87246609Y-75502136D01*
X87151259Y-75523565D01*
X87070585Y-75565798D01*
X86995940Y-75634153D01*
X86918682Y-75733943D01*
X86876854Y-75796543D01*
X86815049Y-75885469D01*
X86763287Y-75942044D01*
X86714034Y-75972429D01*
X86659757Y-75982786D01*
X86648873Y-75982998D01*
X86575714Y-75973784D01*
X86537394Y-75944642D01*
X86529334Y-75908915D01*
X86541038Y-75866938D01*
X86580242Y-75843383D01*
X86653084Y-75834986D01*
X86668648Y-75834832D01*
X86741000Y-75834832D01*
X86741000Y-75511503D01*
X86625379Y-75525092D01*
X86523277Y-75542072D01*
X86451999Y-75568693D01*
X86400168Y-75611250D01*
X86358131Y-75672970D01*
X86322156Y-75766684D01*
X86307309Y-75874269D01*
X86135222Y-75874269D01*
X86134448Y-74788066D01*
X86337966Y-74788066D01*
X86338915Y-74835804D01*
X86347006Y-74870380D01*
X86367564Y-74894712D01*
X86405914Y-74911719D01*
X86467382Y-74924317D01*
X86557293Y-74935424D01*
X86680973Y-74947959D01*
X86762167Y-74956192D01*
X86929356Y-74973689D01*
X87058118Y-74987710D01*
X87152174Y-74998745D01*
X87215243Y-75007285D01*
X87251047Y-75013821D01*
X87263304Y-75018844D01*
X87259584Y-75021817D01*
X87232493Y-75025676D01*
X87171120Y-75032033D01*
X87083395Y-75040230D01*
X86977252Y-75049609D01*
X86860622Y-75059512D01*
X86741438Y-75069280D01*
X86627631Y-75078255D01*
X86527134Y-75085779D01*
X86447879Y-75091194D01*
X86397799Y-75093842D01*
X86389726Y-75093998D01*
X86364534Y-75096032D01*
X86349422Y-75107871D01*
X86341816Y-75138121D01*
X86339145Y-75195389D01*
X86338834Y-75264291D01*
X86338834Y-75434583D01*
X86407625Y-75423106D01*
X86446612Y-75417735D01*
X86521370Y-75408455D01*
X86625592Y-75396010D01*
X86752974Y-75381145D01*
X86897208Y-75364603D01*
X87047917Y-75347584D01*
X87201118Y-75330230D01*
X87342344Y-75313880D01*
X87465571Y-75299260D01*
X87564780Y-75287095D01*
X87633947Y-75278110D01*
X87667042Y-75273032D01*
X87688819Y-75265871D01*
X87702696Y-75250553D01*
X87710445Y-75218907D01*
X87713841Y-75162761D01*
X87714657Y-75073944D01*
X87714667Y-75053617D01*
X87714667Y-74844709D01*
X87645875Y-74832709D01*
X87597797Y-74825182D01*
X87519009Y-74813774D01*
X87420778Y-74800085D01*
X87323084Y-74786873D01*
X87187083Y-74768411D01*
X87092641Y-74753854D01*
X87039328Y-74741734D01*
X87026712Y-74730583D01*
X87054360Y-74718933D01*
X87121843Y-74705315D01*
X87228729Y-74688261D01*
X87291334Y-74678809D01*
X87407901Y-74661029D01*
X87512614Y-74644544D01*
X87596950Y-74630734D01*
X87652390Y-74620980D01*
X87667042Y-74617951D01*
X87688741Y-74610298D01*
X87702603Y-74594647D01*
X87710376Y-74562827D01*
X87713810Y-74506663D01*
X87714655Y-74417985D01*
X87714667Y-74395498D01*
X87714140Y-74299329D01*
X87711394Y-74237360D01*
X87704680Y-74201460D01*
X87692247Y-74183497D01*
X87672348Y-74175340D01*
X87667042Y-74174108D01*
X87634015Y-74169064D01*
X87564860Y-74160145D01*
X87465534Y-74148060D01*
X87341991Y-74133522D01*
X87200190Y-74117241D01*
X87046085Y-74099927D01*
X87037334Y-74098955D01*
X86882039Y-74081532D01*
X86738100Y-74065039D01*
X86611608Y-74050201D01*
X86508658Y-74037744D01*
X86435344Y-74028392D01*
X86397760Y-74022872D01*
X86397042Y-74022733D01*
X86338834Y-74011135D01*
X86338834Y-74182150D01*
X86340797Y-74261215D01*
X86346019Y-74320910D01*
X86353496Y-74351268D01*
X86356054Y-74353165D01*
X86382816Y-74355789D01*
X86442393Y-74362913D01*
X86525639Y-74373411D01*
X86612088Y-74384663D01*
X86741312Y-74400010D01*
X86886766Y-74414652D01*
X87025008Y-74426317D01*
X87081701Y-74430178D01*
X87174775Y-74437007D01*
X87249886Y-74444755D01*
X87298465Y-74452391D01*
X87312500Y-74457958D01*
X87292509Y-74463864D01*
X87237071Y-74471685D01*
X87152988Y-74480680D01*
X87047065Y-74490109D01*
X86947375Y-74497737D01*
X86816948Y-74507280D01*
X86691627Y-74516902D01*
X86581588Y-74525787D01*
X86497006Y-74533123D01*
X86460542Y-74536670D01*
X86338834Y-74549587D01*
X86338834Y-74724248D01*
X86337966Y-74788066D01*
X86134448Y-74788066D01*
X86133595Y-73591165D01*
X86338834Y-73591165D01*
X86338834Y-73929832D01*
X87714667Y-73929832D01*
X87714667Y-73591165D01*
X86338834Y-73591165D01*
X86133595Y-73591165D01*
X86132961Y-72702165D01*
X86338834Y-72702165D01*
X86338834Y-73485332D01*
X86592834Y-73485332D01*
X86592834Y-73273665D01*
X87714667Y-73273665D01*
X87714667Y-72913832D01*
X86592834Y-72913832D01*
X86592834Y-72702165D01*
X86338834Y-72702165D01*
X86132961Y-72702165D01*
X86132598Y-72193898D01*
X86309494Y-72193898D01*
X86325162Y-72336256D01*
X86370305Y-72450022D01*
X86443979Y-72533836D01*
X86545242Y-72586337D01*
X86589364Y-72597526D01*
X86646913Y-72604074D01*
X86736878Y-72608893D01*
X86849374Y-72611974D01*
X86974517Y-72613309D01*
X87102424Y-72612890D01*
X87223212Y-72610708D01*
X87326996Y-72606755D01*
X87403894Y-72601023D01*
X87424932Y-72598227D01*
X87543268Y-72562911D01*
X87631153Y-72499994D01*
X87689716Y-72407952D01*
X87720085Y-72285261D01*
X87725250Y-72192619D01*
X87723157Y-72103946D01*
X87714489Y-72042219D01*
X87695669Y-71992155D01*
X87667132Y-71944501D01*
X87613992Y-71877247D01*
X87553032Y-71831372D01*
X87473886Y-71801860D01*
X87366184Y-71783697D01*
X87326428Y-71779681D01*
X87164334Y-71764992D01*
X87164334Y-72109498D01*
X87254292Y-72110718D01*
X87336873Y-72115460D01*
X87420006Y-72125445D01*
X87428917Y-72126952D01*
X87484149Y-72140747D01*
X87508539Y-72161792D01*
X87513584Y-72194316D01*
X87503650Y-72234983D01*
X87466172Y-72256306D01*
X87450084Y-72260244D01*
X87402592Y-72265678D01*
X87322029Y-72270021D01*
X87217643Y-72273220D01*
X87098684Y-72275219D01*
X86974399Y-72275963D01*
X86854038Y-72275397D01*
X86746850Y-72273467D01*
X86662084Y-72270117D01*
X86608989Y-72265292D01*
X86608709Y-72265246D01*
X86556095Y-72252416D01*
X86533683Y-72230420D01*
X86529334Y-72194165D01*
X86534994Y-72154810D01*
X86560043Y-72134304D01*
X86608709Y-72123084D01*
X86678914Y-72115148D01*
X86763976Y-72110352D01*
X86799209Y-72109731D01*
X86910334Y-72109498D01*
X86910334Y-71764544D01*
X86728629Y-71777367D01*
X86602689Y-71791799D01*
X86509556Y-71817590D01*
X86440258Y-71859246D01*
X86385827Y-71921275D01*
X86360934Y-71962147D01*
X86328363Y-72034241D01*
X86312761Y-72110266D01*
X86309494Y-72193898D01*
X86132598Y-72193898D01*
X86132429Y-71957091D01*
X86131618Y-70818332D01*
X86338834Y-70818332D01*
X86338834Y-71156998D01*
X86825667Y-71156998D01*
X86825667Y-71283998D01*
X86338834Y-71283998D01*
X86338834Y-71622665D01*
X87714667Y-71622665D01*
X87714667Y-71283998D01*
X87122000Y-71283998D01*
X87122000Y-71156998D01*
X87714667Y-71156998D01*
X87714667Y-70818332D01*
X86338834Y-70818332D01*
X86131618Y-70818332D01*
X86131018Y-69977473D01*
X86303180Y-69977473D01*
X86305687Y-69999453D01*
X86343026Y-70131947D01*
X86407330Y-70232050D01*
X86498308Y-70299446D01*
X86613495Y-70333520D01*
X86686630Y-70340115D01*
X86790633Y-70344696D01*
X86914279Y-70347261D01*
X87046339Y-70347808D01*
X87175587Y-70346335D01*
X87290798Y-70342839D01*
X87380742Y-70337319D01*
X87413589Y-70333678D01*
X87535479Y-70299187D01*
X87627980Y-70234399D01*
X87691411Y-70138959D01*
X87726094Y-70012516D01*
X87729336Y-69986166D01*
X87726081Y-69859914D01*
X87692589Y-69744561D01*
X87633240Y-69647956D01*
X87552413Y-69577947D01*
X87485384Y-69548964D01*
X87439603Y-69542063D01*
X87359844Y-69536065D01*
X87254460Y-69531348D01*
X87131803Y-69528295D01*
X87010195Y-69527283D01*
X86849241Y-69528295D01*
X86724085Y-69532238D01*
X86628228Y-69540308D01*
X86555172Y-69553702D01*
X86498416Y-69573616D01*
X86451462Y-69601249D01*
X86407810Y-69637797D01*
X86407252Y-69638320D01*
X86363930Y-69700009D01*
X86329135Y-69787794D01*
X86307381Y-69885631D01*
X86303180Y-69977473D01*
X86131018Y-69977473D01*
X86130169Y-68786332D01*
X86338834Y-68786332D01*
X86338834Y-69378998D01*
X87714667Y-69378998D01*
X87714667Y-69019165D01*
X87122000Y-69019165D01*
X87122000Y-68807498D01*
X86868000Y-68807498D01*
X86868000Y-69019165D01*
X86592834Y-69019165D01*
X86592834Y-68786332D01*
X86338834Y-68786332D01*
X86130169Y-68786332D01*
X86129656Y-68066665D01*
X86338834Y-68066665D01*
X86338834Y-68680498D01*
X87714667Y-68680498D01*
X87714667Y-68320665D01*
X87122000Y-68320665D01*
X87122000Y-68108998D01*
X86868000Y-68108998D01*
X86868000Y-68320665D01*
X86592834Y-68320665D01*
X86592834Y-68066665D01*
X86338834Y-68066665D01*
X86129656Y-68066665D01*
X86129599Y-67986155D01*
X86338834Y-67986155D01*
X86460542Y-67974100D01*
X86530978Y-67968321D01*
X86629974Y-67961767D01*
X86743789Y-67955286D01*
X86846834Y-67950248D01*
X86962264Y-67944551D01*
X87075158Y-67938022D01*
X87171771Y-67931510D01*
X87233125Y-67926397D01*
X87354834Y-67914342D01*
X87354834Y-67670655D01*
X87063792Y-67656439D01*
X86931486Y-67649769D01*
X86809650Y-67643332D01*
X87439500Y-67643332D01*
X87439500Y-67960832D01*
X87714667Y-67960832D01*
X87714667Y-67643332D01*
X87439500Y-67643332D01*
X86809650Y-67643332D01*
X86790135Y-67642301D01*
X86657213Y-67634976D01*
X86555792Y-67629076D01*
X86338834Y-67615930D01*
X86338834Y-67986155D01*
X86129599Y-67986155D01*
X86127107Y-64492512D01*
X86245817Y-64467868D01*
X86313058Y-64457357D01*
X86363160Y-64455865D01*
X86381247Y-64461069D01*
G36*
X85769726Y-81307489D02*
G01*
X86128088Y-81354441D01*
X86481173Y-81441812D01*
X86555727Y-81465786D01*
X86721093Y-81529304D01*
X86903102Y-81612841D01*
X87087385Y-81708899D01*
X87259575Y-81809979D01*
X87405303Y-81908583D01*
X87407750Y-81910405D01*
X87691613Y-82147708D01*
X87942354Y-82410476D01*
X88158835Y-82696437D01*
X88339917Y-83003321D01*
X88484461Y-83328859D01*
X88591329Y-83670779D01*
X88659382Y-84026812D01*
X88687481Y-84394687D01*
X88688209Y-84463436D01*
X88667819Y-84823525D01*
X88607503Y-85174325D01*
X88509029Y-85512959D01*
X88374166Y-85836549D01*
X88204682Y-86142219D01*
X88002347Y-86427090D01*
X87768929Y-86688285D01*
X87506197Y-86922927D01*
X87215919Y-87128138D01*
X86962927Y-87270251D01*
X86667882Y-87401020D01*
X86368316Y-87500443D01*
X86072344Y-87566212D01*
X85825214Y-87594192D01*
X85732135Y-87599877D01*
X85649852Y-87605402D01*
X85591340Y-87609876D01*
X85576834Y-87611242D01*
X85534395Y-87612159D01*
X85461034Y-87610180D01*
X85368033Y-87605714D01*
X85291084Y-87600903D01*
X84941093Y-87556039D01*
X84601447Y-87471730D01*
X84275062Y-87350210D01*
X83964854Y-87193710D01*
X83673740Y-87004463D01*
X83404634Y-86784701D01*
X83160455Y-86536656D01*
X82944117Y-86262560D01*
X82758537Y-85964647D01*
X82606631Y-85645148D01*
X82553717Y-85505469D01*
X82498359Y-85338294D01*
X82456595Y-85186637D01*
X82426766Y-85039653D01*
X82407213Y-84886497D01*
X82396277Y-84716325D01*
X82393163Y-84561279D01*
X82703441Y-84561279D01*
X82710896Y-84728890D01*
X82726549Y-84870045D01*
X82727070Y-84873250D01*
X82803877Y-85220723D01*
X82916788Y-85546255D01*
X83066176Y-85850601D01*
X83252412Y-86134516D01*
X83475866Y-86398757D01*
X83476522Y-86399446D01*
X83719257Y-86626285D01*
X83986731Y-86824549D01*
X84273355Y-86991209D01*
X84573539Y-87123237D01*
X84881692Y-87217604D01*
X85049714Y-87251882D01*
X85198329Y-87269870D01*
X85373835Y-87280164D01*
X85561494Y-87282742D01*
X85746565Y-87277584D01*
X85914308Y-87264668D01*
X86000167Y-87253241D01*
X86320789Y-87180183D01*
X86633243Y-87067389D01*
X86932976Y-86917299D01*
X87215434Y-86732354D01*
X87476063Y-86514997D01*
X87592478Y-86399446D01*
X87815878Y-86134933D01*
X88002991Y-85848896D01*
X88154055Y-85540877D01*
X88269310Y-85210420D01*
X88321626Y-84999998D01*
X88341185Y-84874691D01*
X88354298Y-84719832D01*
X88360967Y-84547159D01*
X88361196Y-84368408D01*
X88354987Y-84195316D01*
X88342342Y-84039620D01*
X88323264Y-83913056D01*
X88321394Y-83904238D01*
X88226327Y-83562883D01*
X88095548Y-83241900D01*
X87931115Y-82943357D01*
X87735086Y-82669322D01*
X87509520Y-82421861D01*
X87256476Y-82203043D01*
X86978010Y-82014934D01*
X86676182Y-81859602D01*
X86353049Y-81739114D01*
X86100363Y-81673373D01*
X85916273Y-81644121D01*
X85706366Y-81627711D01*
X85485161Y-81624141D01*
X85267180Y-81633412D01*
X85066943Y-81655524D01*
X84968637Y-81673373D01*
X84631090Y-81766627D01*
X84313197Y-81896291D01*
X84017070Y-82060244D01*
X83744824Y-82256367D01*
X83498570Y-82482541D01*
X83280422Y-82736646D01*
X83092493Y-83016564D01*
X82936895Y-83320175D01*
X82815743Y-83645359D01*
X82749358Y-83899332D01*
X82727143Y-84036237D01*
X82711878Y-84201299D01*
X82703873Y-84380864D01*
X82703441Y-84561279D01*
X82393163Y-84561279D01*
X82392299Y-84518291D01*
X82392220Y-84449665D01*
X82393263Y-84290055D01*
X82396019Y-84163974D01*
X82401129Y-84062632D01*
X82409234Y-83977238D01*
X82420977Y-83899002D01*
X82436999Y-83819133D01*
X82438843Y-83810796D01*
X82539018Y-83453945D01*
X82675382Y-83116160D01*
X82846034Y-82799705D01*
X83049071Y-82506846D01*
X83282592Y-82239848D01*
X83544696Y-82000974D01*
X83833479Y-81792491D01*
X84147040Y-81616663D01*
X84360924Y-81521884D01*
X84701684Y-81408153D01*
X85052652Y-81334444D01*
X85409956Y-81300856D01*
X85769726Y-81307489D01*
G37*
X85769726Y-81307489D02*
X86128088Y-81354441D01*
X86481173Y-81441812D01*
X86555727Y-81465786D01*
X86721093Y-81529304D01*
X86903102Y-81612841D01*
X87087385Y-81708899D01*
X87259575Y-81809979D01*
X87405303Y-81908583D01*
X87407750Y-81910405D01*
X87691613Y-82147708D01*
X87942354Y-82410476D01*
X88158835Y-82696437D01*
X88339917Y-83003321D01*
X88484461Y-83328859D01*
X88591329Y-83670779D01*
X88659382Y-84026812D01*
X88687481Y-84394687D01*
X88688209Y-84463436D01*
X88667819Y-84823525D01*
X88607503Y-85174325D01*
X88509029Y-85512959D01*
X88374166Y-85836549D01*
X88204682Y-86142219D01*
X88002347Y-86427090D01*
X87768929Y-86688285D01*
X87506197Y-86922927D01*
X87215919Y-87128138D01*
X86962927Y-87270251D01*
X86667882Y-87401020D01*
X86368316Y-87500443D01*
X86072344Y-87566212D01*
X85825214Y-87594192D01*
X85732135Y-87599877D01*
X85649852Y-87605402D01*
X85591340Y-87609876D01*
X85576834Y-87611242D01*
X85534395Y-87612159D01*
X85461034Y-87610180D01*
X85368033Y-87605714D01*
X85291084Y-87600903D01*
X84941093Y-87556039D01*
X84601447Y-87471730D01*
X84275062Y-87350210D01*
X83964854Y-87193710D01*
X83673740Y-87004463D01*
X83404634Y-86784701D01*
X83160455Y-86536656D01*
X82944117Y-86262560D01*
X82758537Y-85964647D01*
X82606631Y-85645148D01*
X82553717Y-85505469D01*
X82498359Y-85338294D01*
X82456595Y-85186637D01*
X82426766Y-85039653D01*
X82407213Y-84886497D01*
X82396277Y-84716325D01*
X82393163Y-84561279D01*
X82703441Y-84561279D01*
X82710896Y-84728890D01*
X82726549Y-84870045D01*
X82727070Y-84873250D01*
X82803877Y-85220723D01*
X82916788Y-85546255D01*
X83066176Y-85850601D01*
X83252412Y-86134516D01*
X83475866Y-86398757D01*
X83476522Y-86399446D01*
X83719257Y-86626285D01*
X83986731Y-86824549D01*
X84273355Y-86991209D01*
X84573539Y-87123237D01*
X84881692Y-87217604D01*
X85049714Y-87251882D01*
X85198329Y-87269870D01*
X85373835Y-87280164D01*
X85561494Y-87282742D01*
X85746565Y-87277584D01*
X85914308Y-87264668D01*
X86000167Y-87253241D01*
X86320789Y-87180183D01*
X86633243Y-87067389D01*
X86932976Y-86917299D01*
X87215434Y-86732354D01*
X87476063Y-86514997D01*
X87592478Y-86399446D01*
X87815878Y-86134933D01*
X88002991Y-85848896D01*
X88154055Y-85540877D01*
X88269310Y-85210420D01*
X88321626Y-84999998D01*
X88341185Y-84874691D01*
X88354298Y-84719832D01*
X88360967Y-84547159D01*
X88361196Y-84368408D01*
X88354987Y-84195316D01*
X88342342Y-84039620D01*
X88323264Y-83913056D01*
X88321394Y-83904238D01*
X88226327Y-83562883D01*
X88095548Y-83241900D01*
X87931115Y-82943357D01*
X87735086Y-82669322D01*
X87509520Y-82421861D01*
X87256476Y-82203043D01*
X86978010Y-82014934D01*
X86676182Y-81859602D01*
X86353049Y-81739114D01*
X86100363Y-81673373D01*
X85916273Y-81644121D01*
X85706366Y-81627711D01*
X85485161Y-81624141D01*
X85267180Y-81633412D01*
X85066943Y-81655524D01*
X84968637Y-81673373D01*
X84631090Y-81766627D01*
X84313197Y-81896291D01*
X84017070Y-82060244D01*
X83744824Y-82256367D01*
X83498570Y-82482541D01*
X83280422Y-82736646D01*
X83092493Y-83016564D01*
X82936895Y-83320175D01*
X82815743Y-83645359D01*
X82749358Y-83899332D01*
X82727143Y-84036237D01*
X82711878Y-84201299D01*
X82703873Y-84380864D01*
X82703441Y-84561279D01*
X82393163Y-84561279D01*
X82392299Y-84518291D01*
X82392220Y-84449665D01*
X82393263Y-84290055D01*
X82396019Y-84163974D01*
X82401129Y-84062632D01*
X82409234Y-83977238D01*
X82420977Y-83899002D01*
X82436999Y-83819133D01*
X82438843Y-83810796D01*
X82539018Y-83453945D01*
X82675382Y-83116160D01*
X82846034Y-82799705D01*
X83049071Y-82506846D01*
X83282592Y-82239848D01*
X83544696Y-82000974D01*
X83833479Y-81792491D01*
X84147040Y-81616663D01*
X84360924Y-81521884D01*
X84701684Y-81408153D01*
X85052652Y-81334444D01*
X85409956Y-81300856D01*
X85769726Y-81307489D01*
G36*
X39676917Y-81303469D02*
G01*
X40016373Y-81335589D01*
X40334400Y-81398973D01*
X40640726Y-81496226D01*
X40945079Y-81629953D01*
X40999337Y-81657544D01*
X41240552Y-81795402D01*
X41459776Y-81949339D01*
X41669181Y-82128540D01*
X41816992Y-82274503D01*
X42046995Y-82539366D01*
X42241342Y-82820527D01*
X42402059Y-83121863D01*
X42531169Y-83447252D01*
X42630700Y-83800572D01*
X42643373Y-83856998D01*
X42663372Y-83983113D01*
X42676859Y-84140222D01*
X42683908Y-84317499D01*
X42684593Y-84504121D01*
X42678987Y-84689263D01*
X42667165Y-84862101D01*
X42649201Y-85011809D01*
X42634952Y-85088533D01*
X42533665Y-85451959D01*
X42397194Y-85793579D01*
X42227060Y-86111696D01*
X42024784Y-86404612D01*
X41791887Y-86670629D01*
X41529891Y-86908051D01*
X41240315Y-87115179D01*
X40924683Y-87290317D01*
X40584513Y-87431766D01*
X40513590Y-87455889D01*
X40203443Y-87540104D01*
X39886792Y-87590334D01*
X39555657Y-87607519D01*
X39295917Y-87599473D01*
X38952201Y-87557018D01*
X38614392Y-87474411D01*
X38286653Y-87353797D01*
X37973147Y-87197323D01*
X37678038Y-87007133D01*
X37405490Y-86785372D01*
X37159665Y-86534187D01*
X37106192Y-86471082D01*
X36891999Y-86180039D01*
X36714789Y-85871012D01*
X36573112Y-85541050D01*
X36465517Y-85187198D01*
X36456049Y-85148165D01*
X36420177Y-84952316D01*
X36397119Y-84729819D01*
X36388376Y-84521581D01*
X36708129Y-84521581D01*
X36713395Y-84688800D01*
X36726105Y-84833206D01*
X36731921Y-84873250D01*
X36808166Y-85213587D01*
X36921557Y-85537820D01*
X37070086Y-85843173D01*
X37251749Y-86126868D01*
X37464540Y-86386131D01*
X37706453Y-86618183D01*
X37975483Y-86820250D01*
X38255696Y-86982587D01*
X38437355Y-87065142D01*
X38635935Y-87140100D01*
X38835467Y-87202077D01*
X39019979Y-87245690D01*
X39054548Y-87251882D01*
X39203162Y-87269870D01*
X39378668Y-87280164D01*
X39566327Y-87282742D01*
X39751398Y-87277584D01*
X39919142Y-87264668D01*
X40005000Y-87253241D01*
X40329064Y-87179634D01*
X40641327Y-87067110D01*
X40938351Y-86918250D01*
X41216697Y-86735637D01*
X41472925Y-86521852D01*
X41703597Y-86279477D01*
X41905273Y-86011094D01*
X42074514Y-85719285D01*
X42090008Y-85687915D01*
X42203179Y-85426894D01*
X42284674Y-85170440D01*
X42337693Y-84905633D01*
X42365436Y-84619557D01*
X42367941Y-84566082D01*
X42365375Y-84248824D01*
X42329930Y-83949463D01*
X42259656Y-83658804D01*
X42152603Y-83367653D01*
X42080560Y-83210559D01*
X41909771Y-82907436D01*
X41707479Y-82631685D01*
X41475802Y-82384953D01*
X41216861Y-82168891D01*
X40932776Y-81985148D01*
X40625665Y-81835374D01*
X40297648Y-81721218D01*
X40105196Y-81673373D01*
X39921107Y-81644121D01*
X39711199Y-81627711D01*
X39489994Y-81624141D01*
X39272013Y-81633412D01*
X39071776Y-81655524D01*
X38973471Y-81673373D01*
X38635966Y-81766641D01*
X38317941Y-81896387D01*
X38021551Y-82060463D01*
X37748953Y-82256720D01*
X37502303Y-82483009D01*
X37283758Y-82737183D01*
X37095473Y-83017093D01*
X36939605Y-83320590D01*
X36818310Y-83645525D01*
X36755371Y-83883494D01*
X36733928Y-84012504D01*
X36718702Y-84170486D01*
X36710000Y-84344494D01*
X36708129Y-84521581D01*
X36388376Y-84521581D01*
X36387238Y-84494485D01*
X36390894Y-84260127D01*
X36408449Y-84040556D01*
X36424164Y-83931082D01*
X36505081Y-83578512D01*
X36622505Y-83243754D01*
X36773992Y-82928779D01*
X36957100Y-82635561D01*
X37169385Y-82366074D01*
X37408404Y-82122293D01*
X37671714Y-81906189D01*
X37956871Y-81719738D01*
X38261433Y-81564912D01*
X38582956Y-81443686D01*
X38918997Y-81358033D01*
X39267113Y-81309926D01*
X39624860Y-81301340D01*
X39676917Y-81303469D01*
G37*
X39676917Y-81303469D02*
X40016373Y-81335589D01*
X40334400Y-81398973D01*
X40640726Y-81496226D01*
X40945079Y-81629953D01*
X40999337Y-81657544D01*
X41240552Y-81795402D01*
X41459776Y-81949339D01*
X41669181Y-82128540D01*
X41816992Y-82274503D01*
X42046995Y-82539366D01*
X42241342Y-82820527D01*
X42402059Y-83121863D01*
X42531169Y-83447252D01*
X42630700Y-83800572D01*
X42643373Y-83856998D01*
X42663372Y-83983113D01*
X42676859Y-84140222D01*
X42683908Y-84317499D01*
X42684593Y-84504121D01*
X42678987Y-84689263D01*
X42667165Y-84862101D01*
X42649201Y-85011809D01*
X42634952Y-85088533D01*
X42533665Y-85451959D01*
X42397194Y-85793579D01*
X42227060Y-86111696D01*
X42024784Y-86404612D01*
X41791887Y-86670629D01*
X41529891Y-86908051D01*
X41240315Y-87115179D01*
X40924683Y-87290317D01*
X40584513Y-87431766D01*
X40513590Y-87455889D01*
X40203443Y-87540104D01*
X39886792Y-87590334D01*
X39555657Y-87607519D01*
X39295917Y-87599473D01*
X38952201Y-87557018D01*
X38614392Y-87474411D01*
X38286653Y-87353797D01*
X37973147Y-87197323D01*
X37678038Y-87007133D01*
X37405490Y-86785372D01*
X37159665Y-86534187D01*
X37106192Y-86471082D01*
X36891999Y-86180039D01*
X36714789Y-85871012D01*
X36573112Y-85541050D01*
X36465517Y-85187198D01*
X36456049Y-85148165D01*
X36420177Y-84952316D01*
X36397119Y-84729819D01*
X36388376Y-84521581D01*
X36708129Y-84521581D01*
X36713395Y-84688800D01*
X36726105Y-84833206D01*
X36731921Y-84873250D01*
X36808166Y-85213587D01*
X36921557Y-85537820D01*
X37070086Y-85843173D01*
X37251749Y-86126868D01*
X37464540Y-86386131D01*
X37706453Y-86618183D01*
X37975483Y-86820250D01*
X38255696Y-86982587D01*
X38437355Y-87065142D01*
X38635935Y-87140100D01*
X38835467Y-87202077D01*
X39019979Y-87245690D01*
X39054548Y-87251882D01*
X39203162Y-87269870D01*
X39378668Y-87280164D01*
X39566327Y-87282742D01*
X39751398Y-87277584D01*
X39919142Y-87264668D01*
X40005000Y-87253241D01*
X40329064Y-87179634D01*
X40641327Y-87067110D01*
X40938351Y-86918250D01*
X41216697Y-86735637D01*
X41472925Y-86521852D01*
X41703597Y-86279477D01*
X41905273Y-86011094D01*
X42074514Y-85719285D01*
X42090008Y-85687915D01*
X42203179Y-85426894D01*
X42284674Y-85170440D01*
X42337693Y-84905633D01*
X42365436Y-84619557D01*
X42367941Y-84566082D01*
X42365375Y-84248824D01*
X42329930Y-83949463D01*
X42259656Y-83658804D01*
X42152603Y-83367653D01*
X42080560Y-83210559D01*
X41909771Y-82907436D01*
X41707479Y-82631685D01*
X41475802Y-82384953D01*
X41216861Y-82168891D01*
X40932776Y-81985148D01*
X40625665Y-81835374D01*
X40297648Y-81721218D01*
X40105196Y-81673373D01*
X39921107Y-81644121D01*
X39711199Y-81627711D01*
X39489994Y-81624141D01*
X39272013Y-81633412D01*
X39071776Y-81655524D01*
X38973471Y-81673373D01*
X38635966Y-81766641D01*
X38317941Y-81896387D01*
X38021551Y-82060463D01*
X37748953Y-82256720D01*
X37502303Y-82483009D01*
X37283758Y-82737183D01*
X37095473Y-83017093D01*
X36939605Y-83320590D01*
X36818310Y-83645525D01*
X36755371Y-83883494D01*
X36733928Y-84012504D01*
X36718702Y-84170486D01*
X36710000Y-84344494D01*
X36708129Y-84521581D01*
X36388376Y-84521581D01*
X36387238Y-84494485D01*
X36390894Y-84260127D01*
X36408449Y-84040556D01*
X36424164Y-83931082D01*
X36505081Y-83578512D01*
X36622505Y-83243754D01*
X36773992Y-82928779D01*
X36957100Y-82635561D01*
X37169385Y-82366074D01*
X37408404Y-82122293D01*
X37671714Y-81906189D01*
X37956871Y-81719738D01*
X38261433Y-81564912D01*
X38582956Y-81443686D01*
X38918997Y-81358033D01*
X39267113Y-81309926D01*
X39624860Y-81301340D01*
X39676917Y-81303469D01*
D14*
X40640000Y-71755000D02*
X43180000Y-71755000D01*
X43180000Y-66675000D02*
X43180000Y-74295000D01*
X40640000Y-66675000D02*
X43180000Y-66675000D01*
X40640000Y-74295000D02*
X40640000Y-66675000D01*
X43180000Y-74295000D02*
X40640000Y-74295000D01*
D15*
X46990000Y-58420000D02*
X46990000Y-66040000D01*
X54610000Y-66040000D02*
X46990000Y-66040000D01*
X54610000Y-58420000D02*
X54610000Y-66040000D01*
X46990000Y-58420000D02*
X54610000Y-58420000D01*
X53340000Y-62230000D02*
G75*
G03*
X53340000Y-62230000I-2540000J0D01*
G01*
D16*
X60071000Y-73406000D02*
X60071000Y-68834000D01*
X58166000Y-73406000D02*
X60071000Y-73406000D01*
X58166000Y-68834000D02*
X58166000Y-73406000D01*
X60071000Y-68834000D02*
X58166000Y-68834000D01*
X59055000Y-73406000D02*
X59055000Y-73660000D01*
X59055000Y-68834000D02*
X59055000Y-68580000D01*
X60579000Y-68834000D02*
X60579000Y-73406000D01*
X62484000Y-68834000D02*
X60579000Y-68834000D01*
X62484000Y-73406000D02*
X62484000Y-68834000D01*
X60579000Y-73406000D02*
X62484000Y-73406000D01*
X61595000Y-68834000D02*
X61595000Y-68580000D01*
X61595000Y-73406000D02*
X61595000Y-73660000D01*
X55880000Y-63119000D02*
X55880000Y-67691000D01*
X57785000Y-63119000D02*
X55880000Y-63119000D01*
X57785000Y-67691000D02*
X57785000Y-63119000D01*
X55880000Y-67691000D02*
X57785000Y-67691000D01*
X56896000Y-63119000D02*
X56896000Y-62865000D01*
X56896000Y-67691000D02*
X56896000Y-67945000D01*
X65151000Y-73406000D02*
X65151000Y-68834000D01*
X63246000Y-73406000D02*
X65151000Y-73406000D01*
X63246000Y-68834000D02*
X63246000Y-73406000D01*
X65151000Y-68834000D02*
X63246000Y-68834000D01*
X64135000Y-73406000D02*
X64135000Y-73660000D01*
X64135000Y-68834000D02*
X64135000Y-68580000D01*
D17*
X46990000Y-66675000D02*
X52070000Y-66675000D01*
X46990000Y-76835000D02*
X46990000Y-66675000D01*
X52070000Y-76835000D02*
X46990000Y-76835000D01*
X52070000Y-66675000D02*
X52070000Y-76835000D01*
X48260000Y-67945000D02*
X48260000Y-66675000D01*
X50800000Y-67945000D02*
X48260000Y-67945000D01*
X50800000Y-66675000D02*
X50800000Y-67945000D01*
D16*
X59390000Y-63800000D02*
G75*
G03*
X59390000Y-63800000I-635000J0D01*
G01*
X59055000Y-58420000D02*
X66675000Y-58420000D01*
X66675000Y-58420000D02*
X66675000Y-63500000D01*
X66675000Y-63500000D02*
X59055000Y-63500000D01*
X59055000Y-63500000D02*
X59055000Y-58420000D01*
D14*
X71755000Y-58420000D02*
X67945000Y-62230000D01*
X67945000Y-62230000D02*
X67945000Y-63500000D01*
X67945000Y-63500000D02*
X69215000Y-64770000D01*
X69215000Y-64770000D02*
X71755000Y-64770000D01*
X71755000Y-64770000D02*
X74295000Y-62230000D01*
X74295000Y-62230000D02*
X74295000Y-59690000D01*
X74295000Y-59690000D02*
X73025000Y-58420000D01*
X73025000Y-58420000D02*
X71755000Y-58420000D01*
X76200000Y-65405000D02*
X72390000Y-69215000D01*
X72390000Y-69215000D02*
X72390000Y-70485000D01*
X72390000Y-70485000D02*
X73660000Y-71755000D01*
X73660000Y-71755000D02*
X76200000Y-71755000D01*
X76200000Y-71755000D02*
X78740000Y-69215000D01*
X78740000Y-69215000D02*
X78740000Y-66675000D01*
X78740000Y-66675000D02*
X77470000Y-65405000D01*
X77470000Y-65405000D02*
X76200000Y-65405000D01*
X76200000Y-72390000D02*
X72390000Y-76200000D01*
X72390000Y-76200000D02*
X72390000Y-77470000D01*
X72390000Y-77470000D02*
X73660000Y-78740000D01*
X73660000Y-78740000D02*
X76200000Y-78740000D01*
X76200000Y-78740000D02*
X78740000Y-76200000D01*
X78740000Y-76200000D02*
X78740000Y-73660000D01*
X78740000Y-73660000D02*
X77470000Y-72390000D01*
X77470000Y-72390000D02*
X76200000Y-72390000D01*
X71120000Y-79375000D02*
X67310000Y-83185000D01*
X67310000Y-83185000D02*
X67310000Y-84455000D01*
X67310000Y-84455000D02*
X68580000Y-85725000D01*
X68580000Y-85725000D02*
X71120000Y-85725000D01*
X71120000Y-85725000D02*
X73660000Y-83185000D01*
X73660000Y-83185000D02*
X73660000Y-80645000D01*
X73660000Y-80645000D02*
X72390000Y-79375000D01*
X72390000Y-79375000D02*
X71120000Y-79375000D01*
X67310000Y-71755000D02*
X68580000Y-71755000D01*
X66040000Y-70485000D02*
X67310000Y-71755000D01*
X66040000Y-67945000D02*
X66040000Y-70485000D01*
X68580000Y-65405000D02*
X66040000Y-67945000D01*
X71120000Y-65405000D02*
X68580000Y-65405000D01*
X72390000Y-66675000D02*
X71120000Y-65405000D01*
X72390000Y-67945000D02*
X72390000Y-66675000D01*
X68580000Y-71755000D02*
X72390000Y-67945000D01*
D16*
X67310000Y-72517000D02*
X70993000Y-72517000D01*
X67310000Y-72517000D02*
X67183000Y-72644000D01*
X66167000Y-74930000D02*
G75*
G03*
X69215000Y-77978000I3048000J0D01*
G01*
X69215000Y-77978000D02*
G75*
G03*
X72263000Y-74930000I0J3048000D01*
G01*
X67183000Y-72644000D02*
G75*
G03*
X66929000Y-76962000I2032000J-2286000D01*
G01*
X71628000Y-76835000D02*
G75*
G03*
X71120000Y-72517000I-2413000J1905000D01*
G01*
X76200000Y-79502000D02*
X79883000Y-79502000D01*
X76200000Y-79502000D02*
X76073000Y-79629000D01*
X75057000Y-81915000D02*
G75*
G03*
X78105000Y-84963000I3048000J0D01*
G01*
X78105000Y-84963000D02*
G75*
G03*
X81153000Y-81915000I0J3048000D01*
G01*
X76073000Y-79629000D02*
G75*
G03*
X75819000Y-83947000I2032000J-2286000D01*
G01*
X80518000Y-83820000D02*
G75*
G03*
X80010000Y-79502000I-2413000J1905000D01*
G01*
X80645000Y-73152000D02*
X84328000Y-73152000D01*
X80645000Y-73152000D02*
X80518000Y-73279000D01*
X79502000Y-75565000D02*
G75*
G03*
X82550000Y-78613000I3048000J0D01*
G01*
X82550000Y-78613000D02*
G75*
G03*
X85598000Y-75565000I0J3048000D01*
G01*
X80518000Y-73279000D02*
G75*
G03*
X80264000Y-77597000I2032000J-2286000D01*
G01*
X84963000Y-77470000D02*
G75*
G03*
X84455000Y-73152000I-2413000J1905000D01*
G01*
X80645000Y-65532000D02*
X84328000Y-65532000D01*
X80645000Y-65532000D02*
X80518000Y-65659000D01*
X79502000Y-67945000D02*
G75*
G03*
X82550000Y-70993000I3048000J0D01*
G01*
X82550000Y-70993000D02*
G75*
G03*
X85598000Y-67945000I0J3048000D01*
G01*
X80518000Y-65659000D02*
G75*
G03*
X80264000Y-69977000I2032000J-2286000D01*
G01*
X84963000Y-69850000D02*
G75*
G03*
X84455000Y-65532000I-2413000J1905000D01*
G01*
X76200000Y-59182000D02*
X79883000Y-59182000D01*
X76200000Y-59182000D02*
X76073000Y-59309000D01*
X75057000Y-61595000D02*
G75*
G03*
X78105000Y-64643000I3048000J0D01*
G01*
X78105000Y-64643000D02*
G75*
G03*
X81153000Y-61595000I0J3048000D01*
G01*
X76073000Y-59309000D02*
G75*
G03*
X75819000Y-63627000I2032000J-2286000D01*
G01*
X80518000Y-63500000D02*
G75*
G03*
X80010000Y-59182000I-2413000J1905000D01*
G01*
D15*
X59690000Y-81280000D02*
G75*
G03*
X59690000Y-81280000I-3175000J0D01*
G01*
D10*
X59309000Y-80010000D02*
X57785000Y-80010000D01*
X55245000Y-80010000D02*
X53721000Y-80010000D01*
X55245000Y-79756000D02*
X53848000Y-79756000D01*
X55245000Y-79502000D02*
X54102000Y-79502000D01*
X55245000Y-79248000D02*
X54229000Y-79248000D01*
X58166000Y-78740000D02*
X54737000Y-78740000D01*
X55245000Y-78994000D02*
X54483000Y-78994000D01*
X55245000Y-78486000D02*
X57658000Y-78486000D01*
X57150000Y-78359000D02*
X55753000Y-78359000D01*
X57785000Y-79756000D02*
X59055000Y-79756000D01*
X57785000Y-79502000D02*
X58928000Y-79502000D01*
X57785000Y-79248000D02*
X58674000Y-79248000D01*
X57785000Y-78994000D02*
X58547000Y-78994000D01*
X53975000Y-79629000D02*
X54737000Y-79629000D01*
X54737000Y-78867000D02*
X53975000Y-79629000D01*
X55372000Y-78486000D02*
X54737000Y-78867000D01*
X56134000Y-78232000D02*
X55372000Y-78486000D01*
X57277000Y-78359000D02*
X56134000Y-78232000D01*
X57785000Y-78486000D02*
X57277000Y-78359000D01*
X58674000Y-79121000D02*
X57785000Y-78486000D01*
X59182000Y-80010000D02*
X58674000Y-79121000D01*
X55245000Y-80010000D02*
X55245000Y-78994000D01*
X55245000Y-79248000D02*
X55245000Y-78613000D01*
X57785000Y-80010000D02*
X57785000Y-78740000D01*
X57785000Y-79248000D02*
X57277000Y-78740000D01*
X55753000Y-78740000D02*
X55372000Y-79121000D01*
D17*
X60325000Y-85090000D02*
X62865000Y-85090000D01*
X62865000Y-85090000D02*
X62865000Y-77470000D01*
X62865000Y-77470000D02*
X60325000Y-77470000D01*
X60325000Y-77470000D02*
X60325000Y-85090000D01*
D14*
X60960000Y-85090000D02*
X60325000Y-84455000D01*
D16*
X49530000Y-77470000D02*
X49530000Y-86360000D01*
X49530000Y-86360000D02*
X43180000Y-86360000D01*
X43180000Y-86360000D02*
X43180000Y-77470000D01*
X43180000Y-77470000D02*
X49530000Y-77470000D01*
D18*
X41867364Y-76077838D02*
X42720078Y-76077838D01*
X40929378Y-76436824D02*
X41867364Y-76077838D01*
X40929378Y-75718851D01*
X42720078Y-74795742D02*
X42720078Y-75411148D01*
X42720078Y-75103445D02*
X40929378Y-75103445D01*
X41185192Y-75206013D01*
X41355735Y-75308580D01*
X41441007Y-75411148D01*
D19*
X48810333Y-58196238D02*
X48955476Y-58244619D01*
X49197380Y-58244619D01*
X49294142Y-58196238D01*
X49342523Y-58147857D01*
X49390904Y-58051095D01*
X49390904Y-57954333D01*
X49342523Y-57857571D01*
X49294142Y-57809190D01*
X49197380Y-57760809D01*
X49003857Y-57712428D01*
X48907095Y-57664047D01*
X48858714Y-57615666D01*
X48810333Y-57518904D01*
X48810333Y-57422142D01*
X48858714Y-57325380D01*
X48907095Y-57277000D01*
X49003857Y-57228619D01*
X49245761Y-57228619D01*
X49390904Y-57277000D01*
X49729571Y-57228619D02*
X49971476Y-58244619D01*
X50165000Y-57518904D01*
X50358523Y-58244619D01*
X50600428Y-57228619D01*
X51519666Y-58244619D02*
X50939095Y-58244619D01*
X51229380Y-58244619D02*
X51229380Y-57228619D01*
X51132619Y-57373761D01*
X51035857Y-57470523D01*
X50939095Y-57518904D01*
D10*
X44935714Y-64601428D02*
X44992857Y-64430000D01*
X44992857Y-64144285D01*
X44935714Y-64030000D01*
X44878571Y-63972857D01*
X44764285Y-63915714D01*
X44650000Y-63915714D01*
X44535714Y-63972857D01*
X44478571Y-64030000D01*
X44421428Y-64144285D01*
X44364285Y-64372857D01*
X44307142Y-64487142D01*
X44250000Y-64544285D01*
X44135714Y-64601428D01*
X44021428Y-64601428D01*
X43907142Y-64544285D01*
X43850000Y-64487142D01*
X43792857Y-64372857D01*
X43792857Y-64087142D01*
X43850000Y-63915714D01*
X43792857Y-63572857D02*
X43792857Y-62887142D01*
X44992857Y-63230000D02*
X43792857Y-63230000D01*
X44650000Y-62544285D02*
X44650000Y-61972857D01*
X44992857Y-62658571D02*
X43792857Y-62258571D01*
X44992857Y-61858571D01*
X44992857Y-60772857D02*
X44421428Y-61172857D01*
X44992857Y-61458571D02*
X43792857Y-61458571D01*
X43792857Y-61001428D01*
X43850000Y-60887142D01*
X43907142Y-60830000D01*
X44021428Y-60772857D01*
X44192857Y-60772857D01*
X44307142Y-60830000D01*
X44364285Y-60887142D01*
X44421428Y-61001428D01*
X44421428Y-61458571D01*
X43792857Y-60430000D02*
X43792857Y-59744285D01*
X44992857Y-60087142D02*
X43792857Y-60087142D01*
D19*
X60702976Y-65108666D02*
X60037738Y-65532000D01*
X60702976Y-65834380D02*
X59305976Y-65834380D01*
X59305976Y-65350571D01*
X59372500Y-65229619D01*
X59439023Y-65169142D01*
X59572071Y-65108666D01*
X59771642Y-65108666D01*
X59904690Y-65169142D01*
X59971214Y-65229619D01*
X60037738Y-65350571D01*
X60037738Y-65834380D01*
X60702976Y-63899142D02*
X60702976Y-64624857D01*
X60702976Y-64262000D02*
X59305976Y-64262000D01*
X59505547Y-64382952D01*
X59638595Y-64503904D01*
X59705119Y-64624857D01*
X62861976Y-65108666D02*
X62196738Y-65532000D01*
X62861976Y-65834380D02*
X61464976Y-65834380D01*
X61464976Y-65350571D01*
X61531500Y-65229619D01*
X61598023Y-65169142D01*
X61731071Y-65108666D01*
X61930642Y-65108666D01*
X62063690Y-65169142D01*
X62130214Y-65229619D01*
X62196738Y-65350571D01*
X62196738Y-65834380D01*
X61598023Y-64624857D02*
X61531500Y-64564380D01*
X61464976Y-64443428D01*
X61464976Y-64141047D01*
X61531500Y-64020095D01*
X61598023Y-63959619D01*
X61731071Y-63899142D01*
X61864119Y-63899142D01*
X62063690Y-63959619D01*
X62861976Y-64685333D01*
X62861976Y-63899142D01*
X56765976Y-71839666D02*
X56100738Y-72263000D01*
X56765976Y-72565380D02*
X55368976Y-72565380D01*
X55368976Y-72081571D01*
X55435500Y-71960619D01*
X55502023Y-71900142D01*
X55635071Y-71839666D01*
X55834642Y-71839666D01*
X55967690Y-71900142D01*
X56034214Y-71960619D01*
X56100738Y-72081571D01*
X56100738Y-72565380D01*
X55368976Y-71416333D02*
X55368976Y-70630142D01*
X55901166Y-71053476D01*
X55901166Y-70872047D01*
X55967690Y-70751095D01*
X56034214Y-70690619D01*
X56167261Y-70630142D01*
X56499880Y-70630142D01*
X56632928Y-70690619D01*
X56699452Y-70751095D01*
X56765976Y-70872047D01*
X56765976Y-71234904D01*
X56699452Y-71355857D01*
X56632928Y-71416333D01*
X64893976Y-65108666D02*
X64228738Y-65532000D01*
X64893976Y-65834380D02*
X63496976Y-65834380D01*
X63496976Y-65350571D01*
X63563500Y-65229619D01*
X63630023Y-65169142D01*
X63763071Y-65108666D01*
X63962642Y-65108666D01*
X64095690Y-65169142D01*
X64162214Y-65229619D01*
X64228738Y-65350571D01*
X64228738Y-65834380D01*
X63962642Y-64020095D02*
X64893976Y-64020095D01*
X63430452Y-64322476D02*
X64428309Y-64624857D01*
X64428309Y-63838666D01*
D14*
X56696428Y-77179714D02*
X55172428Y-77179714D01*
X56551285Y-75583142D02*
X56623857Y-75655714D01*
X56696428Y-75873428D01*
X56696428Y-76018571D01*
X56623857Y-76236285D01*
X56478714Y-76381428D01*
X56333571Y-76454000D01*
X56043285Y-76526571D01*
X55825571Y-76526571D01*
X55535285Y-76454000D01*
X55390142Y-76381428D01*
X55245000Y-76236285D01*
X55172428Y-76018571D01*
X55172428Y-75873428D01*
X55245000Y-75655714D01*
X55317571Y-75583142D01*
X56696428Y-74131714D02*
X56696428Y-75002571D01*
X56696428Y-74567142D02*
X55172428Y-74567142D01*
X55390142Y-74712285D01*
X55535285Y-74857428D01*
X55607857Y-75002571D01*
D20*
X49953333Y-75329142D02*
X49953333Y-74845333D01*
X50461333Y-75425904D02*
X48683333Y-75087238D01*
X50461333Y-74748571D01*
X48683333Y-74555047D02*
X48683333Y-73974476D01*
X50461333Y-74264761D02*
X48683333Y-74264761D01*
X48683333Y-73780952D02*
X48683333Y-73200380D01*
X50461333Y-73490666D02*
X48683333Y-73490666D01*
X50461333Y-72861714D02*
X48683333Y-72861714D01*
X50461333Y-72377904D02*
X48683333Y-72377904D01*
X50461333Y-71797333D01*
X48683333Y-71797333D01*
X49614666Y-71120000D02*
X50461333Y-71120000D01*
X48683333Y-71458666D02*
X49614666Y-71120000D01*
X48683333Y-70781333D01*
X49445333Y-70297523D02*
X49360666Y-70394285D01*
X49276000Y-70442666D01*
X49106666Y-70491047D01*
X49022000Y-70491047D01*
X48852666Y-70442666D01*
X48768000Y-70394285D01*
X48683333Y-70297523D01*
X48683333Y-70104000D01*
X48768000Y-70007238D01*
X48852666Y-69958857D01*
X49022000Y-69910476D01*
X49106666Y-69910476D01*
X49276000Y-69958857D01*
X49360666Y-70007238D01*
X49445333Y-70104000D01*
X49445333Y-70297523D01*
X49530000Y-70394285D01*
X49614666Y-70442666D01*
X49784000Y-70491047D01*
X50122666Y-70491047D01*
X50292000Y-70442666D01*
X50376666Y-70394285D01*
X50461333Y-70297523D01*
X50461333Y-70104000D01*
X50376666Y-70007238D01*
X50292000Y-69958857D01*
X50122666Y-69910476D01*
X49784000Y-69910476D01*
X49614666Y-69958857D01*
X49530000Y-70007238D01*
X49445333Y-70104000D01*
X48683333Y-68991238D02*
X48683333Y-69475047D01*
X49530000Y-69523428D01*
X49445333Y-69475047D01*
X49360666Y-69378285D01*
X49360666Y-69136380D01*
X49445333Y-69039619D01*
X49530000Y-68991238D01*
X49699333Y-68942857D01*
X50122666Y-68942857D01*
X50292000Y-68991238D01*
X50376666Y-69039619D01*
X50461333Y-69136380D01*
X50461333Y-69378285D01*
X50376666Y-69475047D01*
X50292000Y-69523428D01*
D10*
X56772285Y-59851857D02*
X56772285Y-58651857D01*
X57229428Y-58651857D01*
X57343714Y-58709000D01*
X57400857Y-58766142D01*
X57458000Y-58880428D01*
X57458000Y-59051857D01*
X57400857Y-59166142D01*
X57343714Y-59223285D01*
X57229428Y-59280428D01*
X56772285Y-59280428D01*
X57915142Y-58766142D02*
X57972285Y-58709000D01*
X58086571Y-58651857D01*
X58372285Y-58651857D01*
X58486571Y-58709000D01*
X58543714Y-58766142D01*
X58600857Y-58880428D01*
X58600857Y-58994714D01*
X58543714Y-59166142D01*
X57858000Y-59851857D01*
X58600857Y-59851857D01*
D21*
X65698809Y-64714380D02*
X65698809Y-63714380D01*
X66127380Y-64666761D02*
X66270238Y-64714380D01*
X66508333Y-64714380D01*
X66603571Y-64666761D01*
X66651190Y-64619142D01*
X66698809Y-64523904D01*
X66698809Y-64428666D01*
X66651190Y-64333428D01*
X66603571Y-64285809D01*
X66508333Y-64238190D01*
X66317857Y-64190571D01*
X66222619Y-64142952D01*
X66175000Y-64095333D01*
X66127380Y-64000095D01*
X66127380Y-63904857D01*
X66175000Y-63809619D01*
X66222619Y-63762000D01*
X66317857Y-63714380D01*
X66555952Y-63714380D01*
X66698809Y-63762000D01*
X67127380Y-64714380D02*
X67127380Y-63714380D01*
X67508333Y-63714380D01*
X67603571Y-63762000D01*
X67651190Y-63809619D01*
X67698809Y-63904857D01*
X67698809Y-64047714D01*
X67651190Y-64142952D01*
X67603571Y-64190571D01*
X67508333Y-64238190D01*
X67127380Y-64238190D01*
D10*
X68465714Y-59839142D02*
X68351428Y-59782000D01*
X68237142Y-59667714D01*
X68065714Y-59496285D01*
X67951428Y-59439142D01*
X67837142Y-59439142D01*
X67894285Y-59724857D02*
X67780000Y-59667714D01*
X67665714Y-59553428D01*
X67608571Y-59324857D01*
X67608571Y-58924857D01*
X67665714Y-58696285D01*
X67780000Y-58582000D01*
X67894285Y-58524857D01*
X68122857Y-58524857D01*
X68237142Y-58582000D01*
X68351428Y-58696285D01*
X68408571Y-58924857D01*
X68408571Y-59324857D01*
X68351428Y-59553428D01*
X68237142Y-59667714D01*
X68122857Y-59724857D01*
X67894285Y-59724857D01*
X68865714Y-58639142D02*
X68922857Y-58582000D01*
X69037142Y-58524857D01*
X69322857Y-58524857D01*
X69437142Y-58582000D01*
X69494285Y-58639142D01*
X69551428Y-58753428D01*
X69551428Y-58867714D01*
X69494285Y-59039142D01*
X68808571Y-59724857D01*
X69551428Y-59724857D01*
D19*
X74053714Y-66062142D02*
X73939428Y-66005000D01*
X73825142Y-65890714D01*
X73653714Y-65719285D01*
X73539428Y-65662142D01*
X73425142Y-65662142D01*
X73482285Y-65947857D02*
X73368000Y-65890714D01*
X73253714Y-65776428D01*
X73196571Y-65547857D01*
X73196571Y-65147857D01*
X73253714Y-64919285D01*
X73368000Y-64805000D01*
X73482285Y-64747857D01*
X73710857Y-64747857D01*
X73825142Y-64805000D01*
X73939428Y-64919285D01*
X73996571Y-65147857D01*
X73996571Y-65547857D01*
X73939428Y-65776428D01*
X73825142Y-65890714D01*
X73710857Y-65947857D01*
X73482285Y-65947857D01*
X74396571Y-64747857D02*
X75139428Y-64747857D01*
X74739428Y-65205000D01*
X74910857Y-65205000D01*
X75025142Y-65262142D01*
X75082285Y-65319285D01*
X75139428Y-65433571D01*
X75139428Y-65719285D01*
X75082285Y-65833571D01*
X75025142Y-65890714D01*
X74910857Y-65947857D01*
X74568000Y-65947857D01*
X74453714Y-65890714D01*
X74396571Y-65833571D01*
X73418714Y-73936142D02*
X73304428Y-73879000D01*
X73190142Y-73764714D01*
X73018714Y-73593285D01*
X72904428Y-73536142D01*
X72790142Y-73536142D01*
X72847285Y-73821857D02*
X72733000Y-73764714D01*
X72618714Y-73650428D01*
X72561571Y-73421857D01*
X72561571Y-73021857D01*
X72618714Y-72793285D01*
X72733000Y-72679000D01*
X72847285Y-72621857D01*
X73075857Y-72621857D01*
X73190142Y-72679000D01*
X73304428Y-72793285D01*
X73361571Y-73021857D01*
X73361571Y-73421857D01*
X73304428Y-73650428D01*
X73190142Y-73764714D01*
X73075857Y-73821857D01*
X72847285Y-73821857D01*
X74390142Y-73021857D02*
X74390142Y-73821857D01*
X74104428Y-72564714D02*
X73818714Y-73421857D01*
X74561571Y-73421857D01*
X68453014Y-80743342D02*
X68338728Y-80686200D01*
X68224442Y-80571914D01*
X68053014Y-80400485D01*
X67938728Y-80343342D01*
X67824442Y-80343342D01*
X67881585Y-80629057D02*
X67767300Y-80571914D01*
X67653014Y-80457628D01*
X67595871Y-80229057D01*
X67595871Y-79829057D01*
X67653014Y-79600485D01*
X67767300Y-79486200D01*
X67881585Y-79429057D01*
X68110157Y-79429057D01*
X68224442Y-79486200D01*
X68338728Y-79600485D01*
X68395871Y-79829057D01*
X68395871Y-80229057D01*
X68338728Y-80457628D01*
X68224442Y-80571914D01*
X68110157Y-80629057D01*
X67881585Y-80629057D01*
X69481585Y-79429057D02*
X68910157Y-79429057D01*
X68853014Y-80000485D01*
X68910157Y-79943342D01*
X69024442Y-79886200D01*
X69310157Y-79886200D01*
X69424442Y-79943342D01*
X69481585Y-80000485D01*
X69538728Y-80114771D01*
X69538728Y-80400485D01*
X69481585Y-80514771D01*
X69424442Y-80571914D01*
X69310157Y-80629057D01*
X69024442Y-80629057D01*
X68910157Y-80571914D01*
X68853014Y-80514771D01*
X71005714Y-71777142D02*
X70891428Y-71720000D01*
X70777142Y-71605714D01*
X70605714Y-71434285D01*
X70491428Y-71377142D01*
X70377142Y-71377142D01*
X70434285Y-71662857D02*
X70320000Y-71605714D01*
X70205714Y-71491428D01*
X70148571Y-71262857D01*
X70148571Y-70862857D01*
X70205714Y-70634285D01*
X70320000Y-70520000D01*
X70434285Y-70462857D01*
X70662857Y-70462857D01*
X70777142Y-70520000D01*
X70891428Y-70634285D01*
X70948571Y-70862857D01*
X70948571Y-71262857D01*
X70891428Y-71491428D01*
X70777142Y-71605714D01*
X70662857Y-71662857D01*
X70434285Y-71662857D01*
X72091428Y-71662857D02*
X71405714Y-71662857D01*
X71748571Y-71662857D02*
X71748571Y-70462857D01*
X71634285Y-70634285D01*
X71520000Y-70748571D01*
X71405714Y-70805714D01*
D10*
X65027285Y-78393857D02*
X65027285Y-77193857D01*
X65313000Y-77193857D01*
X65484428Y-77251000D01*
X65598714Y-77365285D01*
X65655857Y-77479571D01*
X65713000Y-77708142D01*
X65713000Y-77879571D01*
X65655857Y-78108142D01*
X65598714Y-78222428D01*
X65484428Y-78336714D01*
X65313000Y-78393857D01*
X65027285Y-78393857D01*
X66798714Y-77193857D02*
X66227285Y-77193857D01*
X66170142Y-77765285D01*
X66227285Y-77708142D01*
X66341571Y-77651000D01*
X66627285Y-77651000D01*
X66741571Y-77708142D01*
X66798714Y-77765285D01*
X66855857Y-77879571D01*
X66855857Y-78165285D01*
X66798714Y-78279571D01*
X66741571Y-78336714D01*
X66627285Y-78393857D01*
X66341571Y-78393857D01*
X66227285Y-78336714D01*
X66170142Y-78279571D01*
D21*
X67635428Y-78612952D02*
X67635428Y-77851047D01*
X68016380Y-78232000D02*
X67254476Y-78232000D01*
D10*
X78997285Y-86394857D02*
X78997285Y-85194857D01*
X79283000Y-85194857D01*
X79454428Y-85252000D01*
X79568714Y-85366285D01*
X79625857Y-85480571D01*
X79683000Y-85709142D01*
X79683000Y-85880571D01*
X79625857Y-86109142D01*
X79568714Y-86223428D01*
X79454428Y-86337714D01*
X79283000Y-86394857D01*
X78997285Y-86394857D01*
X80711571Y-85594857D02*
X80711571Y-86394857D01*
X80425857Y-85137714D02*
X80140142Y-85994857D01*
X80883000Y-85994857D01*
D21*
X75382428Y-84708952D02*
X75382428Y-83947047D01*
X75763380Y-84328000D02*
X75001476Y-84328000D01*
D10*
X83315285Y-80298857D02*
X83315285Y-79098857D01*
X83601000Y-79098857D01*
X83772428Y-79156000D01*
X83886714Y-79270285D01*
X83943857Y-79384571D01*
X84001000Y-79613142D01*
X84001000Y-79784571D01*
X83943857Y-80013142D01*
X83886714Y-80127428D01*
X83772428Y-80241714D01*
X83601000Y-80298857D01*
X83315285Y-80298857D01*
X84401000Y-79098857D02*
X85143857Y-79098857D01*
X84743857Y-79556000D01*
X84915285Y-79556000D01*
X85029571Y-79613142D01*
X85086714Y-79670285D01*
X85143857Y-79784571D01*
X85143857Y-80070285D01*
X85086714Y-80184571D01*
X85029571Y-80241714D01*
X84915285Y-80298857D01*
X84572428Y-80298857D01*
X84458142Y-80241714D01*
X84401000Y-80184571D01*
D21*
X85161428Y-78485952D02*
X85161428Y-77724047D01*
X85542380Y-78105000D02*
X84780476Y-78105000D01*
D10*
X83061285Y-65058857D02*
X83061285Y-63858857D01*
X83347000Y-63858857D01*
X83518428Y-63916000D01*
X83632714Y-64030285D01*
X83689857Y-64144571D01*
X83747000Y-64373142D01*
X83747000Y-64544571D01*
X83689857Y-64773142D01*
X83632714Y-64887428D01*
X83518428Y-65001714D01*
X83347000Y-65058857D01*
X83061285Y-65058857D01*
X84204142Y-63973142D02*
X84261285Y-63916000D01*
X84375571Y-63858857D01*
X84661285Y-63858857D01*
X84775571Y-63916000D01*
X84832714Y-63973142D01*
X84889857Y-64087428D01*
X84889857Y-64201714D01*
X84832714Y-64373142D01*
X84147000Y-65058857D01*
X84889857Y-65058857D01*
D21*
X80716428Y-71500952D02*
X80716428Y-70739047D01*
X81097380Y-71120000D02*
X80335476Y-71120000D01*
D10*
X78616285Y-58708857D02*
X78616285Y-57508857D01*
X78902000Y-57508857D01*
X79073428Y-57566000D01*
X79187714Y-57680285D01*
X79244857Y-57794571D01*
X79302000Y-58023142D01*
X79302000Y-58194571D01*
X79244857Y-58423142D01*
X79187714Y-58537428D01*
X79073428Y-58651714D01*
X78902000Y-58708857D01*
X78616285Y-58708857D01*
X80444857Y-58708857D02*
X79759142Y-58708857D01*
X80102000Y-58708857D02*
X80102000Y-57508857D01*
X79987714Y-57680285D01*
X79873428Y-57794571D01*
X79759142Y-57851714D01*
D21*
X75636428Y-64515952D02*
X75636428Y-63754047D01*
X76017380Y-64135000D02*
X75255476Y-64135000D01*
D19*
X59209214Y-84857166D02*
X59263642Y-84899500D01*
X59318071Y-85026500D01*
X59318071Y-85111166D01*
X59263642Y-85238166D01*
X59154785Y-85322833D01*
X59045928Y-85365166D01*
X58828214Y-85407500D01*
X58664928Y-85407500D01*
X58447214Y-85365166D01*
X58338357Y-85322833D01*
X58229500Y-85238166D01*
X58175071Y-85111166D01*
X58175071Y-85026500D01*
X58229500Y-84899500D01*
X58283928Y-84857166D01*
X59318071Y-84010500D02*
X59318071Y-84518500D01*
X59318071Y-84264500D02*
X58175071Y-84264500D01*
X58338357Y-84349166D01*
X58447214Y-84433833D01*
X58501642Y-84518500D01*
D22*
X54056642Y-85144428D02*
X54056642Y-84273571D01*
X54492071Y-84709000D02*
X53621214Y-84709000D01*
D23*
D10*
X64690571Y-84528000D02*
X64747714Y-84585142D01*
X64804857Y-84756571D01*
X64804857Y-84870857D01*
X64747714Y-85042285D01*
X64633428Y-85156571D01*
X64519142Y-85213714D01*
X64290571Y-85270857D01*
X64119142Y-85270857D01*
X63890571Y-85213714D01*
X63776285Y-85156571D01*
X63662000Y-85042285D01*
X63604857Y-84870857D01*
X63604857Y-84756571D01*
X63662000Y-84585142D01*
X63719142Y-84528000D01*
X63719142Y-84070857D02*
X63662000Y-84013714D01*
X63604857Y-83899428D01*
X63604857Y-83613714D01*
X63662000Y-83499428D01*
X63719142Y-83442285D01*
X63833428Y-83385142D01*
X63947714Y-83385142D01*
X64119142Y-83442285D01*
X64804857Y-84128000D01*
X64804857Y-83385142D01*
D24*
X42692501Y-80812398D02*
X40962761Y-80812398D01*
X40962761Y-80398257D01*
X41045130Y-80294721D01*
X41127498Y-80242954D01*
X41292235Y-80191186D01*
X41539341Y-80191186D01*
X41704078Y-80242954D01*
X41786447Y-80294721D01*
X41868815Y-80398257D01*
X41868815Y-80812398D01*
X42692501Y-79155834D02*
X42692501Y-79777045D01*
X42692501Y-79466440D02*
X40962761Y-79466440D01*
X41209867Y-79569975D01*
X41374604Y-79673510D01*
X41456972Y-79777045D01*
D20*
X50945142Y-85344000D02*
X51017714Y-85198857D01*
X51090285Y-85150476D01*
X51235428Y-85102095D01*
X51453142Y-85102095D01*
X51598285Y-85150476D01*
X51670857Y-85198857D01*
X51743428Y-85295619D01*
X51743428Y-85682666D01*
X50219428Y-85682666D01*
X50219428Y-85344000D01*
X50292000Y-85247238D01*
X50364571Y-85198857D01*
X50509714Y-85150476D01*
X50654857Y-85150476D01*
X50800000Y-85198857D01*
X50872571Y-85247238D01*
X50945142Y-85344000D01*
X50945142Y-85682666D01*
X51308000Y-84715047D02*
X51308000Y-84231238D01*
X51743428Y-84811809D02*
X50219428Y-84473142D01*
X51743428Y-84134476D01*
X50219428Y-83940952D02*
X50219428Y-83360380D01*
X51743428Y-83650666D02*
X50219428Y-83650666D01*
X50219428Y-83166857D02*
X50219428Y-82586285D01*
X51743428Y-82876571D02*
X50219428Y-82876571D01*
X50945142Y-82247619D02*
X50945142Y-81908952D01*
X51743428Y-81763809D02*
X51743428Y-82247619D01*
X50219428Y-82247619D01*
X50219428Y-81763809D01*
X51743428Y-80747809D02*
X51017714Y-81086476D01*
X51743428Y-81328380D02*
X50219428Y-81328380D01*
X50219428Y-80941333D01*
X50292000Y-80844571D01*
X50364571Y-80796190D01*
X50509714Y-80747809D01*
X50727428Y-80747809D01*
X50872571Y-80796190D01*
X50945142Y-80844571D01*
X51017714Y-80941333D01*
X51017714Y-81328380D01*
X51017714Y-80118857D02*
X51743428Y-80118857D01*
X50219428Y-80457523D02*
X51017714Y-80118857D01*
X50219428Y-79780190D01*
D14*
X50654857Y-79193571D02*
X50654857Y-78032428D01*
X51235428Y-78613000D02*
X50074285Y-78613000D01*
M02*
