G04 #@! TF.FileFunction,Soldermask,Top*
%FSLAX46Y46*%
G04 Gerber Fmt 4.6, Leading zero omitted, Abs format (unit mm)*
G04 Created by KiCad (PCBNEW 4.0.5) date 12/30/18 13:47:52*
%MOMM*%
%LPD*%
G01*
G04 APERTURE LIST*
%ADD10C,0.150000*%
%ADD11R,2.540000X2.540000*%
%ADD12C,2.540000*%
%ADD13C,2.413000*%
%ADD14R,2.794000X2.082800*%
%ADD15O,2.794000X2.082800*%
%ADD16R,3.007360X3.007360*%
%ADD17C,3.007360*%
%ADD18C,2.506980*%
%ADD19R,2.108200X2.108200*%
%ADD20C,2.108200*%
%ADD21R,2.413000X2.413000*%
%ADD22C,3.758000*%
G04 APERTURE END LIST*
D10*
D11*
X56515000Y-82550000D03*
D12*
X56515000Y-80010000D03*
D13*
X61595000Y-83820000D03*
X61595000Y-78740000D03*
D12*
X69215000Y-76200000D03*
X69215000Y-73660000D03*
D14*
X45720000Y-67945000D03*
D15*
X45720000Y-70485000D03*
X45720000Y-73025000D03*
X45720000Y-75565000D03*
X53340000Y-75565000D03*
X53340000Y-73025000D03*
X53340000Y-70485000D03*
X53340000Y-67945000D03*
D16*
X50800000Y-80010000D03*
D17*
X47371000Y-80010000D03*
D18*
X50800000Y-83566000D03*
X47244000Y-83439000D03*
D19*
X60325000Y-62230000D03*
D20*
X60325000Y-59690000D03*
X62865000Y-62230000D03*
X62865000Y-59690000D03*
X65405000Y-62230000D03*
X65405000Y-59690000D03*
D21*
X68580000Y-70485000D03*
D13*
X71120000Y-67945000D03*
X68580000Y-67945000D03*
D21*
X69215000Y-62230000D03*
D13*
X71755000Y-62230000D03*
X71755000Y-59690000D03*
D21*
X73660000Y-69215000D03*
D13*
X76200000Y-69215000D03*
X76200000Y-66675000D03*
D21*
X73660000Y-76200000D03*
D13*
X76200000Y-76200000D03*
X76200000Y-73660000D03*
D21*
X68580000Y-83185000D03*
D13*
X71120000Y-83185000D03*
X71120000Y-80645000D03*
D12*
X59055000Y-67310000D03*
X59055000Y-74930000D03*
X61595000Y-74930000D03*
X61595000Y-67310000D03*
X56896000Y-69215000D03*
X56896000Y-61595000D03*
X64135000Y-67310000D03*
X64135000Y-74930000D03*
X54610000Y-59690000D03*
X54610000Y-64770000D03*
X46990000Y-59690000D03*
X46990000Y-64770000D03*
D11*
X41910000Y-73025000D03*
D12*
X41910000Y-70485000D03*
X41910000Y-67945000D03*
D22*
X42164000Y-60071000D03*
X84074000Y-60071000D03*
X42164000Y-82931000D03*
X84074000Y-82931000D03*
D12*
X78105000Y-83185000D03*
X78105000Y-80645000D03*
X82550000Y-76835000D03*
X82550000Y-74295000D03*
X82550000Y-69215000D03*
X82550000Y-66675000D03*
X78105000Y-62865000D03*
X78105000Y-60325000D03*
M02*
