G04 #@! TF.GenerationSoftware,KiCad,Pcbnew,(5.1.12)-1*
G04 #@! TF.CreationDate,2022-05-10T20:13:37+01:00*
G04 #@! TF.ProjectId,TV_B_Gone_ML_v1_3,54565f42-5f47-46f6-9e65-5f4d4c5f7631,rev?*
G04 #@! TF.SameCoordinates,Original*
G04 #@! TF.FileFunction,Copper,L1,Top*
G04 #@! TF.FilePolarity,Positive*
%FSLAX46Y46*%
G04 Gerber Fmt 4.6, Leading zero omitted, Abs format (unit mm)*
G04 Created by KiCad (PCBNEW (5.1.12)-1) date 2022-05-10 20:13:37*
%MOMM*%
%LPD*%
G01*
G04 APERTURE LIST*
G04 #@! TA.AperFunction,NonConductor*
%ADD10C,0.250000*%
G04 #@! TD*
G04 #@! TA.AperFunction,ComponentPad*
%ADD11C,2.032000*%
G04 #@! TD*
G04 #@! TA.AperFunction,ComponentPad*
%ADD12R,2.032000X2.032000*%
G04 #@! TD*
G04 #@! TA.AperFunction,ComponentPad*
%ADD13R,2.286000X1.574800*%
G04 #@! TD*
G04 #@! TA.AperFunction,ComponentPad*
%ADD14O,2.286000X1.574800*%
G04 #@! TD*
G04 #@! TA.AperFunction,ComponentPad*
%ADD15C,1.600200*%
G04 #@! TD*
G04 #@! TA.AperFunction,ComponentPad*
%ADD16R,1.600200X1.600200*%
G04 #@! TD*
G04 #@! TA.AperFunction,ComponentPad*
%ADD17C,1.905000*%
G04 #@! TD*
G04 #@! TA.AperFunction,ComponentPad*
%ADD18R,1.905000X1.905000*%
G04 #@! TD*
G04 #@! TA.AperFunction,ComponentPad*
%ADD19C,2.199640*%
G04 #@! TD*
G04 #@! TA.AperFunction,ViaPad*
%ADD20C,0.889000*%
G04 #@! TD*
G04 #@! TA.AperFunction,Conductor*
%ADD21C,0.635000*%
G04 #@! TD*
G04 #@! TA.AperFunction,Conductor*
%ADD22C,1.000000*%
G04 #@! TD*
G04 #@! TA.AperFunction,Conductor*
%ADD23C,0.254000*%
G04 #@! TD*
G04 #@! TA.AperFunction,Conductor*
%ADD24C,0.150000*%
G04 #@! TD*
G04 APERTURE END LIST*
D10*
X57674761Y-87399761D02*
X57579523Y-87447380D01*
X57389047Y-87447380D01*
X57293809Y-87399761D01*
X57246190Y-87352142D01*
X57198571Y-87256904D01*
X57198571Y-86971190D01*
X57246190Y-86875952D01*
X57293809Y-86828333D01*
X57389047Y-86780714D01*
X57579523Y-86780714D01*
X57674761Y-86828333D01*
X58531904Y-86780714D02*
X58531904Y-87447380D01*
X58103333Y-86780714D02*
X58103333Y-87304523D01*
X58150952Y-87399761D01*
X58246190Y-87447380D01*
X58389047Y-87447380D01*
X58484285Y-87399761D01*
X58531904Y-87352142D01*
X59008095Y-87447380D02*
X59008095Y-86780714D01*
X59008095Y-86971190D02*
X59055714Y-86875952D01*
X59103333Y-86828333D01*
X59198571Y-86780714D01*
X59293809Y-86780714D01*
X59627142Y-87447380D02*
X59627142Y-86780714D01*
X59627142Y-86447380D02*
X59579523Y-86495000D01*
X59627142Y-86542619D01*
X59674761Y-86495000D01*
X59627142Y-86447380D01*
X59627142Y-86542619D01*
X60246190Y-87447380D02*
X60150952Y-87399761D01*
X60103333Y-87352142D01*
X60055714Y-87256904D01*
X60055714Y-86971190D01*
X60103333Y-86875952D01*
X60150952Y-86828333D01*
X60246190Y-86780714D01*
X60389047Y-86780714D01*
X60484285Y-86828333D01*
X60531904Y-86875952D01*
X60579523Y-86971190D01*
X60579523Y-87256904D01*
X60531904Y-87352142D01*
X60484285Y-87399761D01*
X60389047Y-87447380D01*
X60246190Y-87447380D01*
X61436666Y-86780714D02*
X61436666Y-87447380D01*
X61008095Y-86780714D02*
X61008095Y-87304523D01*
X61055714Y-87399761D01*
X61150952Y-87447380D01*
X61293809Y-87447380D01*
X61389047Y-87399761D01*
X61436666Y-87352142D01*
X61865238Y-87399761D02*
X61960476Y-87447380D01*
X62150952Y-87447380D01*
X62246190Y-87399761D01*
X62293809Y-87304523D01*
X62293809Y-87256904D01*
X62246190Y-87161666D01*
X62150952Y-87114047D01*
X62008095Y-87114047D01*
X61912857Y-87066428D01*
X61865238Y-86971190D01*
X61865238Y-86923571D01*
X61912857Y-86828333D01*
X62008095Y-86780714D01*
X62150952Y-86780714D01*
X62246190Y-86828333D01*
X63103333Y-87399761D02*
X63008095Y-87447380D01*
X62817619Y-87447380D01*
X62722380Y-87399761D01*
X62674761Y-87304523D01*
X62674761Y-86923571D01*
X62722380Y-86828333D01*
X62817619Y-86780714D01*
X63008095Y-86780714D01*
X63103333Y-86828333D01*
X63150952Y-86923571D01*
X63150952Y-87018809D01*
X62674761Y-87114047D01*
X63722380Y-87447380D02*
X63627142Y-87399761D01*
X63579523Y-87304523D01*
X63579523Y-86447380D01*
X64484285Y-87399761D02*
X64389047Y-87447380D01*
X64198571Y-87447380D01*
X64103333Y-87399761D01*
X64055714Y-87304523D01*
X64055714Y-86923571D01*
X64103333Y-86828333D01*
X64198571Y-86780714D01*
X64389047Y-86780714D01*
X64484285Y-86828333D01*
X64531904Y-86923571D01*
X64531904Y-87018809D01*
X64055714Y-87114047D01*
X65389047Y-87399761D02*
X65293809Y-87447380D01*
X65103333Y-87447380D01*
X65008095Y-87399761D01*
X64960476Y-87352142D01*
X64912857Y-87256904D01*
X64912857Y-86971190D01*
X64960476Y-86875952D01*
X65008095Y-86828333D01*
X65103333Y-86780714D01*
X65293809Y-86780714D01*
X65389047Y-86828333D01*
X65674761Y-86780714D02*
X66055714Y-86780714D01*
X65817619Y-86447380D02*
X65817619Y-87304523D01*
X65865238Y-87399761D01*
X65960476Y-87447380D01*
X66055714Y-87447380D01*
X66389047Y-87447380D02*
X66389047Y-86780714D01*
X66389047Y-86971190D02*
X66436666Y-86875952D01*
X66484285Y-86828333D01*
X66579523Y-86780714D01*
X66674761Y-86780714D01*
X67008095Y-87447380D02*
X67008095Y-86780714D01*
X67008095Y-86447380D02*
X66960476Y-86495000D01*
X67008095Y-86542619D01*
X67055714Y-86495000D01*
X67008095Y-86447380D01*
X67008095Y-86542619D01*
X67912857Y-87399761D02*
X67817619Y-87447380D01*
X67627142Y-87447380D01*
X67531904Y-87399761D01*
X67484285Y-87352142D01*
X67436666Y-87256904D01*
X67436666Y-86971190D01*
X67484285Y-86875952D01*
X67531904Y-86828333D01*
X67627142Y-86780714D01*
X67817619Y-86780714D01*
X67912857Y-86828333D01*
X68341428Y-87352142D02*
X68389047Y-87399761D01*
X68341428Y-87447380D01*
X68293809Y-87399761D01*
X68341428Y-87352142D01*
X68341428Y-87447380D01*
X69246190Y-87399761D02*
X69150952Y-87447380D01*
X68960476Y-87447380D01*
X68865238Y-87399761D01*
X68817619Y-87352142D01*
X68770000Y-87256904D01*
X68770000Y-86971190D01*
X68817619Y-86875952D01*
X68865238Y-86828333D01*
X68960476Y-86780714D01*
X69150952Y-86780714D01*
X69246190Y-86828333D01*
X69817619Y-87447380D02*
X69722380Y-87399761D01*
X69674761Y-87352142D01*
X69627142Y-87256904D01*
X69627142Y-86971190D01*
X69674761Y-86875952D01*
X69722380Y-86828333D01*
X69817619Y-86780714D01*
X69960476Y-86780714D01*
X70055714Y-86828333D01*
X70103333Y-86875952D01*
X70150952Y-86971190D01*
X70150952Y-87256904D01*
X70103333Y-87352142D01*
X70055714Y-87399761D01*
X69960476Y-87447380D01*
X69817619Y-87447380D01*
X70579523Y-87352142D02*
X70627142Y-87399761D01*
X70579523Y-87447380D01*
X70531904Y-87399761D01*
X70579523Y-87352142D01*
X70579523Y-87447380D01*
X71484285Y-86780714D02*
X71484285Y-87447380D01*
X71055714Y-86780714D02*
X71055714Y-87304523D01*
X71103333Y-87399761D01*
X71198571Y-87447380D01*
X71341428Y-87447380D01*
X71436666Y-87399761D01*
X71484285Y-87352142D01*
X71960476Y-87447380D02*
X71960476Y-86447380D01*
X72055714Y-87066428D02*
X72341428Y-87447380D01*
X72341428Y-86780714D02*
X71960476Y-87161666D01*
D11*
X41910000Y-67945000D03*
X41910000Y-70485000D03*
D12*
X41910000Y-73025000D03*
D11*
X54610000Y-59690000D03*
X54610000Y-64770000D03*
X46990000Y-59690000D03*
X46990000Y-64770000D03*
X59055000Y-74930000D03*
X59055000Y-67310000D03*
X61595000Y-67310000D03*
X61595000Y-74930000D03*
X56896000Y-61595000D03*
X56896000Y-69215000D03*
X64135000Y-74930000D03*
X64135000Y-67310000D03*
D13*
X45720000Y-67945000D03*
D14*
X45720000Y-70485000D03*
X45720000Y-73025000D03*
X45720000Y-75565000D03*
X53340000Y-75565000D03*
X53340000Y-73025000D03*
X53340000Y-70485000D03*
X53340000Y-67945000D03*
D15*
X65405000Y-59690000D03*
X65405000Y-62230000D03*
X62865000Y-59690000D03*
X62865000Y-62230000D03*
X60325000Y-59690000D03*
D16*
X60325000Y-62230000D03*
D17*
X71755000Y-59690000D03*
X71755000Y-62230000D03*
D18*
X69215000Y-62230000D03*
D17*
X76200000Y-66675000D03*
X76200000Y-69215000D03*
D18*
X73660000Y-69215000D03*
D17*
X76200000Y-73660000D03*
X76200000Y-76200000D03*
D18*
X73660000Y-76200000D03*
D17*
X71120000Y-80645000D03*
X71120000Y-83185000D03*
D18*
X68580000Y-83185000D03*
X68580000Y-70485000D03*
D17*
X71120000Y-67945000D03*
X68580000Y-67945000D03*
D11*
X69215000Y-73660000D03*
X69215000Y-76200000D03*
X78105000Y-80645000D03*
X78105000Y-83185000D03*
X82550000Y-74295000D03*
X82550000Y-76835000D03*
X82550000Y-66675000D03*
X82550000Y-69215000D03*
X78105000Y-60325000D03*
X78105000Y-62865000D03*
D12*
X56515000Y-82550000D03*
D11*
X56515000Y-80010000D03*
D17*
X61595000Y-78740000D03*
X61595000Y-83820000D03*
D12*
X47625000Y-79375000D03*
D11*
X47625000Y-84455000D03*
D19*
X45085000Y-79375000D03*
X45085000Y-84455000D03*
D20*
X64516000Y-70485000D03*
D21*
X46990000Y-59690000D02*
X46990000Y-59817000D01*
X46990000Y-59817000D02*
X48768000Y-61595000D01*
X48768000Y-61595000D02*
X48768000Y-63119000D01*
X48768000Y-63119000D02*
X48768000Y-73787000D01*
X56896000Y-61595000D02*
X56515000Y-61595000D01*
X56515000Y-61595000D02*
X54610000Y-59690000D01*
X69215000Y-62230000D02*
X69215000Y-64262000D01*
X61595000Y-67310000D02*
X61595000Y-66548000D01*
X61595000Y-66548000D02*
X62738000Y-65405000D01*
X62738000Y-65405000D02*
X66675000Y-65405000D01*
X67818000Y-64262000D02*
X69215000Y-64262000D01*
X66675000Y-65405000D02*
X67818000Y-64262000D01*
X69215000Y-64262000D02*
X72517000Y-64262000D01*
X73660000Y-67056000D02*
X73660000Y-69215000D01*
X73660000Y-65405000D02*
X73660000Y-67056000D01*
X72517000Y-64262000D02*
X73660000Y-65405000D01*
X61595000Y-66548000D02*
X62738000Y-65405000D01*
X68453000Y-78867000D02*
X68453000Y-83058000D01*
X68453000Y-83058000D02*
X68580000Y-83185000D01*
X56515000Y-80010000D02*
X57150000Y-80010000D01*
X57150000Y-80010000D02*
X58420000Y-78740000D01*
X58420000Y-78740000D02*
X59309000Y-78740000D01*
X59309000Y-78740000D02*
X61595000Y-78740000D01*
X73660000Y-76200000D02*
X73660000Y-76708000D01*
X73660000Y-76708000D02*
X71501000Y-78867000D01*
X71501000Y-78867000D02*
X68453000Y-78867000D01*
X68453000Y-78867000D02*
X61722000Y-78867000D01*
X61722000Y-78867000D02*
X61595000Y-78740000D01*
X73660000Y-76200000D02*
X73533000Y-76200000D01*
X73660000Y-69215000D02*
X73660000Y-76200000D01*
X69215000Y-62230000D02*
X69215000Y-62611000D01*
X48641000Y-75565000D02*
X48768000Y-75438000D01*
X45720000Y-75565000D02*
X48641000Y-75565000D01*
X48768000Y-73787000D02*
X48768000Y-75438000D01*
X58166000Y-78740000D02*
X59309000Y-78740000D01*
X57023000Y-77597000D02*
X58166000Y-78740000D01*
X45720000Y-75565000D02*
X48895000Y-75565000D01*
X50927000Y-77597000D02*
X52197000Y-77597000D01*
X48895000Y-75565000D02*
X50927000Y-77597000D01*
X52197000Y-77597000D02*
X57023000Y-77597000D01*
X50927000Y-83185000D02*
X50927000Y-77597000D01*
X49657000Y-84455000D02*
X50927000Y-83185000D01*
X47625000Y-84455000D02*
X49657000Y-84455000D01*
X78105000Y-62865000D02*
X80137000Y-64897000D01*
X80264000Y-76835000D02*
X82550000Y-76835000D01*
X80137000Y-76708000D02*
X80264000Y-76835000D01*
X82550000Y-69215000D02*
X80137000Y-69215000D01*
X80137000Y-69215000D02*
X80137000Y-76708000D01*
X80137000Y-64897000D02*
X80137000Y-69215000D01*
X80137000Y-82550000D02*
X80137000Y-76708000D01*
X79502000Y-83185000D02*
X80137000Y-82550000D01*
D22*
X78105000Y-62865000D02*
X80391000Y-65151000D01*
X80391000Y-82296000D02*
X79502000Y-83185000D01*
X78105000Y-83185000D02*
X79502000Y-83185000D01*
X81026000Y-76835000D02*
X80391000Y-76200000D01*
X82550000Y-76835000D02*
X81026000Y-76835000D01*
X80391000Y-76200000D02*
X80391000Y-82296000D01*
X80518000Y-69215000D02*
X80391000Y-69342000D01*
X82550000Y-69215000D02*
X80518000Y-69215000D01*
X80391000Y-69342000D02*
X80391000Y-76200000D01*
X80391000Y-65151000D02*
X80391000Y-69342000D01*
D21*
X53975000Y-64770000D02*
X60706000Y-64770000D01*
X65405000Y-63627000D02*
X65405000Y-62230000D01*
X64770000Y-64262000D02*
X65405000Y-63627000D01*
X61214000Y-64262000D02*
X64770000Y-64262000D01*
X60706000Y-64770000D02*
X61214000Y-64262000D01*
X45720000Y-67945000D02*
X45720000Y-65405000D01*
X45720000Y-65405000D02*
X46355000Y-64770000D01*
X41910000Y-67945000D02*
X42164000Y-67945000D01*
X42164000Y-67945000D02*
X44704000Y-70485000D01*
X44704000Y-70485000D02*
X45720000Y-70485000D01*
X41910000Y-73025000D02*
X45720000Y-73025000D01*
X53340000Y-75565000D02*
X51689000Y-75565000D01*
X49784000Y-60452000D02*
X52197000Y-58039000D01*
X49784000Y-73660000D02*
X49784000Y-60452000D01*
X51689000Y-75565000D02*
X49784000Y-73660000D01*
X53340000Y-75565000D02*
X52451000Y-75565000D01*
X62865000Y-58420000D02*
X62865000Y-59690000D01*
X52197000Y-58039000D02*
X62484000Y-58039000D01*
X62484000Y-58039000D02*
X62865000Y-58420000D01*
X60325000Y-62230000D02*
X59690000Y-62230000D01*
X59690000Y-62230000D02*
X58293000Y-63627000D01*
X58293000Y-63627000D02*
X55880000Y-63627000D01*
X55880000Y-63627000D02*
X54991000Y-62738000D01*
X54991000Y-62738000D02*
X52959000Y-62738000D01*
X52959000Y-62738000D02*
X51054000Y-64643000D01*
X51054000Y-64643000D02*
X51054000Y-72390000D01*
X51054000Y-72390000D02*
X51689000Y-73025000D01*
X51689000Y-73025000D02*
X53340000Y-73025000D01*
X53340000Y-73025000D02*
X60833000Y-73025000D01*
X61595000Y-73787000D02*
X61595000Y-74930000D01*
X60833000Y-73025000D02*
X61595000Y-73787000D01*
X53340000Y-70485000D02*
X54991000Y-70485000D01*
X54991000Y-70485000D02*
X55626000Y-71120000D01*
X64135000Y-67310000D02*
X64135000Y-68580000D01*
X64135000Y-68580000D02*
X61595000Y-71120000D01*
X61595000Y-71120000D02*
X55626000Y-71120000D01*
X76200000Y-76200000D02*
X78613000Y-76200000D01*
X78613000Y-76200000D02*
X78613000Y-76073000D01*
X76200000Y-69215000D02*
X78613000Y-69215000D01*
X78613000Y-69215000D02*
X78486000Y-69215000D01*
X78486000Y-69215000D02*
X78613000Y-69215000D01*
X71120000Y-83185000D02*
X73914000Y-83185000D01*
X74549000Y-62230000D02*
X71755000Y-62230000D01*
X78613000Y-66294000D02*
X74549000Y-62230000D01*
X78613000Y-77089000D02*
X78613000Y-76073000D01*
X78613000Y-76073000D02*
X78613000Y-69215000D01*
X78613000Y-69215000D02*
X78613000Y-66294000D01*
X75946000Y-79756000D02*
X78613000Y-77089000D01*
X75946000Y-81153000D02*
X75946000Y-79756000D01*
X73914000Y-83185000D02*
X75946000Y-81153000D01*
X71120000Y-67945000D02*
X71120000Y-66802000D01*
X66548000Y-68453000D02*
X64516000Y-70485000D01*
X66548000Y-67183000D02*
X66548000Y-68453000D01*
X67691000Y-66040000D02*
X66548000Y-67183000D01*
X70358000Y-66040000D02*
X67691000Y-66040000D01*
X71120000Y-66802000D02*
X70358000Y-66040000D01*
D23*
X87374425Y-56152304D02*
X87593910Y-56185612D01*
X87804941Y-56239588D01*
X88006962Y-56313293D01*
X88199207Y-56405646D01*
X88380505Y-56515522D01*
X88549842Y-56642028D01*
X88706073Y-56783925D01*
X88847965Y-56940151D01*
X88974480Y-57109498D01*
X89084353Y-57290792D01*
X89176704Y-57483032D01*
X89250407Y-57685050D01*
X89304387Y-57896096D01*
X89337694Y-58115572D01*
X89350000Y-58360115D01*
X89350001Y-85549861D01*
X89337694Y-85794424D01*
X89304387Y-86013900D01*
X89250407Y-86224946D01*
X89176704Y-86426964D01*
X89084353Y-86619204D01*
X88974480Y-86800498D01*
X88847965Y-86969845D01*
X88706073Y-87126071D01*
X88549842Y-87267968D01*
X88380505Y-87394474D01*
X88199111Y-87504408D01*
X88006968Y-87596789D01*
X87805054Y-87670379D01*
X87593910Y-87724384D01*
X87374425Y-87757692D01*
X87129884Y-87769998D01*
X73291905Y-87769998D01*
X73291905Y-85577500D01*
X56248095Y-85577500D01*
X56248095Y-87769998D01*
X37940117Y-87769998D01*
X37695574Y-87757692D01*
X37476098Y-87724385D01*
X37264944Y-87670378D01*
X37063030Y-87596786D01*
X36870827Y-87504394D01*
X36689475Y-87394482D01*
X36520142Y-87267977D01*
X36363898Y-87126055D01*
X36221991Y-86969847D01*
X36095519Y-86800506D01*
X35985573Y-86619154D01*
X35893266Y-86427024D01*
X35819600Y-86224962D01*
X35765561Y-86013831D01*
X35732262Y-85794460D01*
X35719990Y-85549931D01*
X35719990Y-84234872D01*
X37299997Y-84234872D01*
X37299997Y-84675128D01*
X37385887Y-85106925D01*
X37554366Y-85513669D01*
X37798959Y-85879729D01*
X38110268Y-86191038D01*
X38476328Y-86435631D01*
X38883072Y-86604110D01*
X39314869Y-86690000D01*
X39755125Y-86690000D01*
X40186922Y-86604110D01*
X40593666Y-86435631D01*
X40959726Y-86191038D01*
X41271035Y-85879729D01*
X41515628Y-85513669D01*
X41684107Y-85106925D01*
X41769997Y-84675128D01*
X41769997Y-84284135D01*
X43350180Y-84284135D01*
X43350180Y-84625865D01*
X43416848Y-84961028D01*
X43547623Y-85276745D01*
X43737477Y-85560883D01*
X43979117Y-85802523D01*
X44263255Y-85992377D01*
X44578972Y-86123152D01*
X44914135Y-86189820D01*
X45255865Y-86189820D01*
X45591028Y-86123152D01*
X45906745Y-85992377D01*
X46190883Y-85802523D01*
X46391583Y-85601823D01*
X46657782Y-85601823D01*
X46755478Y-85867860D01*
X47047821Y-86010348D01*
X47362344Y-86093064D01*
X47686962Y-86112831D01*
X48009198Y-86068888D01*
X48316670Y-85962924D01*
X48494522Y-85867860D01*
X48592218Y-85601823D01*
X47625000Y-84634605D01*
X46657782Y-85601823D01*
X46391583Y-85601823D01*
X46432523Y-85560883D01*
X46619814Y-85280581D01*
X47445395Y-84455000D01*
X47804605Y-84455000D01*
X48771823Y-85422218D01*
X49037860Y-85324522D01*
X49180348Y-85032179D01*
X49263064Y-84717656D01*
X49282831Y-84393038D01*
X49238888Y-84070802D01*
X49132924Y-83763330D01*
X49037860Y-83585478D01*
X48771823Y-83487782D01*
X47804605Y-84455000D01*
X47445395Y-84455000D01*
X46619814Y-83629419D01*
X46432523Y-83349117D01*
X46391583Y-83308177D01*
X46657782Y-83308177D01*
X47625000Y-84275395D01*
X48592218Y-83308177D01*
X48494522Y-83042140D01*
X48202179Y-82899652D01*
X47887656Y-82816936D01*
X47563038Y-82797169D01*
X47240802Y-82841112D01*
X46933330Y-82947076D01*
X46755478Y-83042140D01*
X46657782Y-83308177D01*
X46391583Y-83308177D01*
X46190883Y-83107477D01*
X45906745Y-82917623D01*
X45591028Y-82786848D01*
X45255865Y-82720180D01*
X44914135Y-82720180D01*
X44578972Y-82786848D01*
X44263255Y-82917623D01*
X43979117Y-83107477D01*
X43737477Y-83349117D01*
X43547623Y-83633255D01*
X43416848Y-83948972D01*
X43350180Y-84284135D01*
X41769997Y-84284135D01*
X41769997Y-84234872D01*
X41684107Y-83803075D01*
X41515628Y-83396331D01*
X41271035Y-83030271D01*
X40959726Y-82718962D01*
X40593666Y-82474369D01*
X40186922Y-82305890D01*
X39755125Y-82220000D01*
X39314869Y-82220000D01*
X38883072Y-82305890D01*
X38476328Y-82474369D01*
X38110268Y-82718962D01*
X37798959Y-83030271D01*
X37554366Y-83396331D01*
X37385887Y-83803075D01*
X37299997Y-84234872D01*
X35719990Y-84234872D01*
X35719990Y-79204135D01*
X43350180Y-79204135D01*
X43350180Y-79545865D01*
X43416848Y-79881028D01*
X43547623Y-80196745D01*
X43737477Y-80480883D01*
X43979117Y-80722523D01*
X44263255Y-80912377D01*
X44578972Y-81043152D01*
X44914135Y-81109820D01*
X45255865Y-81109820D01*
X45591028Y-81043152D01*
X45906745Y-80912377D01*
X46106102Y-80779172D01*
X46157815Y-80842185D01*
X46254506Y-80921537D01*
X46364820Y-80980502D01*
X46484518Y-81016812D01*
X46609000Y-81029072D01*
X48641000Y-81029072D01*
X48765482Y-81016812D01*
X48885180Y-80980502D01*
X48995494Y-80921537D01*
X49092185Y-80842185D01*
X49171537Y-80745494D01*
X49230502Y-80635180D01*
X49266812Y-80515482D01*
X49279072Y-80391000D01*
X49279072Y-80071962D01*
X54857169Y-80071962D01*
X54901112Y-80394198D01*
X55007076Y-80701670D01*
X55102140Y-80879522D01*
X55268104Y-80940468D01*
X55254820Y-80944498D01*
X55144506Y-81003463D01*
X55047815Y-81082815D01*
X54968463Y-81179506D01*
X54909498Y-81289820D01*
X54873188Y-81409518D01*
X54860928Y-81534000D01*
X54860928Y-83566000D01*
X54873188Y-83690482D01*
X54909498Y-83810180D01*
X54968463Y-83920494D01*
X55047815Y-84017185D01*
X55144506Y-84096537D01*
X55254820Y-84155502D01*
X55374518Y-84191812D01*
X55499000Y-84204072D01*
X57531000Y-84204072D01*
X57655482Y-84191812D01*
X57775180Y-84155502D01*
X57885494Y-84096537D01*
X57982185Y-84017185D01*
X58061537Y-83920494D01*
X58120502Y-83810180D01*
X58156812Y-83690482D01*
X58159455Y-83663645D01*
X60007500Y-83663645D01*
X60007500Y-83976355D01*
X60068507Y-84283057D01*
X60188176Y-84571963D01*
X60361908Y-84831972D01*
X60583028Y-85053092D01*
X60843037Y-85226824D01*
X61131943Y-85346493D01*
X61438645Y-85407500D01*
X61751355Y-85407500D01*
X62058057Y-85346493D01*
X62346963Y-85226824D01*
X62606972Y-85053092D01*
X62828092Y-84831972D01*
X63001824Y-84571963D01*
X63121493Y-84283057D01*
X63150446Y-84137500D01*
X66989428Y-84137500D01*
X67001688Y-84261982D01*
X67037998Y-84381680D01*
X67096963Y-84491994D01*
X67176315Y-84588685D01*
X67273006Y-84668037D01*
X67383320Y-84727002D01*
X67503018Y-84763312D01*
X67627500Y-84775572D01*
X68294250Y-84772500D01*
X68453000Y-84613750D01*
X68453000Y-83312000D01*
X67151250Y-83312000D01*
X66992500Y-83470750D01*
X66989428Y-84137500D01*
X63150446Y-84137500D01*
X63182500Y-83976355D01*
X63182500Y-83663645D01*
X63121493Y-83356943D01*
X63001824Y-83068037D01*
X62828092Y-82808028D01*
X62606972Y-82586908D01*
X62346963Y-82413176D01*
X62058057Y-82293507D01*
X61751355Y-82232500D01*
X66989428Y-82232500D01*
X66992500Y-82899250D01*
X67151250Y-83058000D01*
X68453000Y-83058000D01*
X68453000Y-81756250D01*
X68707000Y-81756250D01*
X68707000Y-83058000D01*
X68727000Y-83058000D01*
X68727000Y-83312000D01*
X68707000Y-83312000D01*
X68707000Y-84613750D01*
X68865750Y-84772500D01*
X69532500Y-84775572D01*
X69656982Y-84763312D01*
X69776680Y-84727002D01*
X69886994Y-84668037D01*
X69983685Y-84588685D01*
X70063037Y-84491994D01*
X70104451Y-84414515D01*
X70108028Y-84418092D01*
X70368037Y-84591824D01*
X70656943Y-84711493D01*
X70963645Y-84772500D01*
X71276355Y-84772500D01*
X71583057Y-84711493D01*
X71871963Y-84591824D01*
X72131972Y-84418092D01*
X72353092Y-84196972D01*
X72392830Y-84137500D01*
X73867215Y-84137500D01*
X73914000Y-84142108D01*
X73960785Y-84137500D01*
X74100723Y-84123717D01*
X74280269Y-84069252D01*
X74445741Y-83980806D01*
X74590778Y-83861778D01*
X74620607Y-83825431D01*
X76586436Y-81859603D01*
X76622778Y-81829778D01*
X76741806Y-81684741D01*
X76773932Y-81624637D01*
X76822585Y-81697451D01*
X77040134Y-81915000D01*
X76822585Y-82132549D01*
X76641903Y-82402958D01*
X76517447Y-82703421D01*
X76454000Y-83022391D01*
X76454000Y-83347609D01*
X76517447Y-83666579D01*
X76641903Y-83967042D01*
X76822585Y-84237451D01*
X77052549Y-84467415D01*
X77322958Y-84648097D01*
X77623421Y-84772553D01*
X77942391Y-84836000D01*
X78267609Y-84836000D01*
X78586579Y-84772553D01*
X78887042Y-84648097D01*
X79157451Y-84467415D01*
X79304866Y-84320000D01*
X79446249Y-84320000D01*
X79502000Y-84325491D01*
X79557751Y-84320000D01*
X79557752Y-84320000D01*
X79724499Y-84303577D01*
X79938447Y-84238676D01*
X79945563Y-84234872D01*
X83299997Y-84234872D01*
X83299997Y-84675128D01*
X83385887Y-85106925D01*
X83554366Y-85513669D01*
X83798959Y-85879729D01*
X84110268Y-86191038D01*
X84476328Y-86435631D01*
X84883072Y-86604110D01*
X85314869Y-86690000D01*
X85755125Y-86690000D01*
X86186922Y-86604110D01*
X86593666Y-86435631D01*
X86959726Y-86191038D01*
X87271035Y-85879729D01*
X87515628Y-85513669D01*
X87684107Y-85106925D01*
X87769997Y-84675128D01*
X87769997Y-84234872D01*
X87684107Y-83803075D01*
X87515628Y-83396331D01*
X87271035Y-83030271D01*
X86959726Y-82718962D01*
X86593666Y-82474369D01*
X86186922Y-82305890D01*
X85755125Y-82220000D01*
X85314869Y-82220000D01*
X84883072Y-82305890D01*
X84476328Y-82474369D01*
X84110268Y-82718962D01*
X83798959Y-83030271D01*
X83554366Y-83396331D01*
X83385887Y-83803075D01*
X83299997Y-84234872D01*
X79945563Y-84234872D01*
X80135623Y-84133284D01*
X80308449Y-83991449D01*
X80343995Y-83948136D01*
X81154140Y-83137992D01*
X81197449Y-83102449D01*
X81339284Y-82929623D01*
X81444676Y-82732447D01*
X81509577Y-82518499D01*
X81526000Y-82351752D01*
X81531491Y-82296000D01*
X81526000Y-82240248D01*
X81526000Y-78136425D01*
X81767958Y-78298097D01*
X82068421Y-78422553D01*
X82387391Y-78486000D01*
X82712609Y-78486000D01*
X83031579Y-78422553D01*
X83332042Y-78298097D01*
X83602451Y-78117415D01*
X83832415Y-77887451D01*
X84013097Y-77617042D01*
X84137553Y-77316579D01*
X84201000Y-76997609D01*
X84201000Y-76672391D01*
X84137553Y-76353421D01*
X84013097Y-76052958D01*
X83832415Y-75782549D01*
X83614866Y-75565000D01*
X83832415Y-75347451D01*
X84013097Y-75077042D01*
X84137553Y-74776579D01*
X84201000Y-74457609D01*
X84201000Y-74132391D01*
X84137553Y-73813421D01*
X84013097Y-73512958D01*
X83832415Y-73242549D01*
X83602451Y-73012585D01*
X83332042Y-72831903D01*
X83031579Y-72707447D01*
X82712609Y-72644000D01*
X82387391Y-72644000D01*
X82068421Y-72707447D01*
X81767958Y-72831903D01*
X81526000Y-72993575D01*
X81526000Y-70516425D01*
X81767958Y-70678097D01*
X82068421Y-70802553D01*
X82387391Y-70866000D01*
X82712609Y-70866000D01*
X83031579Y-70802553D01*
X83332042Y-70678097D01*
X83602451Y-70497415D01*
X83832415Y-70267451D01*
X84013097Y-69997042D01*
X84137553Y-69696579D01*
X84201000Y-69377609D01*
X84201000Y-69052391D01*
X84137553Y-68733421D01*
X84013097Y-68432958D01*
X83832415Y-68162549D01*
X83614866Y-67945000D01*
X83832415Y-67727451D01*
X84013097Y-67457042D01*
X84137553Y-67156579D01*
X84201000Y-66837609D01*
X84201000Y-66512391D01*
X84137553Y-66193421D01*
X84013097Y-65892958D01*
X83832415Y-65622549D01*
X83602451Y-65392585D01*
X83332042Y-65211903D01*
X83031579Y-65087447D01*
X82712609Y-65024000D01*
X82387391Y-65024000D01*
X82068421Y-65087447D01*
X81767958Y-65211903D01*
X81526000Y-65373575D01*
X81526000Y-65206743D01*
X81531490Y-65150999D01*
X81526000Y-65095255D01*
X81526000Y-65095248D01*
X81509577Y-64928501D01*
X81444676Y-64714553D01*
X81339284Y-64517377D01*
X81197449Y-64344551D01*
X81154141Y-64309009D01*
X79756000Y-62910869D01*
X79756000Y-62702391D01*
X79692553Y-62383421D01*
X79568097Y-62082958D01*
X79387415Y-61812549D01*
X79169866Y-61595000D01*
X79387415Y-61377451D01*
X79568097Y-61107042D01*
X79692553Y-60806579D01*
X79756000Y-60487609D01*
X79756000Y-60162391D01*
X79692553Y-59843421D01*
X79568097Y-59542958D01*
X79387415Y-59272549D01*
X79349738Y-59234872D01*
X83299997Y-59234872D01*
X83299997Y-59675128D01*
X83385887Y-60106925D01*
X83554366Y-60513669D01*
X83798959Y-60879729D01*
X84110268Y-61191038D01*
X84476328Y-61435631D01*
X84883072Y-61604110D01*
X85314869Y-61690000D01*
X85755125Y-61690000D01*
X86186922Y-61604110D01*
X86593666Y-61435631D01*
X86959726Y-61191038D01*
X87271035Y-60879729D01*
X87515628Y-60513669D01*
X87684107Y-60106925D01*
X87769997Y-59675128D01*
X87769997Y-59234872D01*
X87684107Y-58803075D01*
X87515628Y-58396331D01*
X87271035Y-58030271D01*
X86959726Y-57718962D01*
X86593666Y-57474369D01*
X86186922Y-57305890D01*
X85755125Y-57220000D01*
X85314869Y-57220000D01*
X84883072Y-57305890D01*
X84476328Y-57474369D01*
X84110268Y-57718962D01*
X83798959Y-58030271D01*
X83554366Y-58396331D01*
X83385887Y-58803075D01*
X83299997Y-59234872D01*
X79349738Y-59234872D01*
X79157451Y-59042585D01*
X78887042Y-58861903D01*
X78586579Y-58737447D01*
X78267609Y-58674000D01*
X77942391Y-58674000D01*
X77623421Y-58737447D01*
X77322958Y-58861903D01*
X77052549Y-59042585D01*
X76822585Y-59272549D01*
X76641903Y-59542958D01*
X76517447Y-59843421D01*
X76454000Y-60162391D01*
X76454000Y-60487609D01*
X76517447Y-60806579D01*
X76641903Y-61107042D01*
X76822585Y-61377451D01*
X77040134Y-61595000D01*
X76822585Y-61812549D01*
X76641903Y-62082958D01*
X76517447Y-62383421D01*
X76454000Y-62702391D01*
X76454000Y-62787962D01*
X75255607Y-61589569D01*
X75225778Y-61553222D01*
X75080741Y-61434194D01*
X74915269Y-61345748D01*
X74735723Y-61291283D01*
X74595785Y-61277500D01*
X74549000Y-61272892D01*
X74502215Y-61277500D01*
X73027830Y-61277500D01*
X72988092Y-61218028D01*
X72766972Y-60996908D01*
X72711735Y-60960000D01*
X72766972Y-60923092D01*
X72988092Y-60701972D01*
X73161824Y-60441963D01*
X73281493Y-60153057D01*
X73342500Y-59846355D01*
X73342500Y-59533645D01*
X73281493Y-59226943D01*
X73161824Y-58938037D01*
X72988092Y-58678028D01*
X72766972Y-58456908D01*
X72506963Y-58283176D01*
X72218057Y-58163507D01*
X71911355Y-58102500D01*
X71598645Y-58102500D01*
X71291943Y-58163507D01*
X71003037Y-58283176D01*
X70743028Y-58456908D01*
X70521908Y-58678028D01*
X70348176Y-58938037D01*
X70228507Y-59226943D01*
X70167500Y-59533645D01*
X70167500Y-59846355D01*
X70228507Y-60153057D01*
X70348176Y-60441963D01*
X70521908Y-60701972D01*
X70743028Y-60923092D01*
X70798265Y-60960000D01*
X70743028Y-60996908D01*
X70739451Y-61000485D01*
X70698037Y-60923006D01*
X70618685Y-60826315D01*
X70521994Y-60746963D01*
X70411680Y-60687998D01*
X70291982Y-60651688D01*
X70167500Y-60639428D01*
X69500750Y-60642500D01*
X69342000Y-60801250D01*
X69342000Y-62103000D01*
X69362000Y-62103000D01*
X69362000Y-62357000D01*
X69342000Y-62357000D01*
X69342000Y-63658750D01*
X69500750Y-63817500D01*
X70167500Y-63820572D01*
X70291982Y-63808312D01*
X70411680Y-63772002D01*
X70521994Y-63713037D01*
X70618685Y-63633685D01*
X70698037Y-63536994D01*
X70739451Y-63459515D01*
X70743028Y-63463092D01*
X71003037Y-63636824D01*
X71291943Y-63756493D01*
X71598645Y-63817500D01*
X71911355Y-63817500D01*
X72218057Y-63756493D01*
X72506963Y-63636824D01*
X72766972Y-63463092D01*
X72988092Y-63241972D01*
X73027830Y-63182500D01*
X74154462Y-63182500D01*
X76059461Y-65087500D01*
X76043645Y-65087500D01*
X75736943Y-65148507D01*
X75448037Y-65268176D01*
X75188028Y-65441908D01*
X74966908Y-65663028D01*
X74793176Y-65923037D01*
X74673507Y-66211943D01*
X74612500Y-66518645D01*
X74612500Y-66831355D01*
X74673507Y-67138057D01*
X74793176Y-67426963D01*
X74966908Y-67686972D01*
X75188028Y-67908092D01*
X75243265Y-67945000D01*
X75188028Y-67981908D01*
X75184451Y-67985485D01*
X75143037Y-67908006D01*
X75063685Y-67811315D01*
X74966994Y-67731963D01*
X74856680Y-67672998D01*
X74736982Y-67636688D01*
X74612500Y-67624428D01*
X73945750Y-67627500D01*
X73787000Y-67786250D01*
X73787000Y-69088000D01*
X73807000Y-69088000D01*
X73807000Y-69342000D01*
X73787000Y-69342000D01*
X73787000Y-70643750D01*
X73945750Y-70802500D01*
X74612500Y-70805572D01*
X74736982Y-70793312D01*
X74856680Y-70757002D01*
X74966994Y-70698037D01*
X75063685Y-70618685D01*
X75143037Y-70521994D01*
X75184451Y-70444515D01*
X75188028Y-70448092D01*
X75448037Y-70621824D01*
X75736943Y-70741493D01*
X76043645Y-70802500D01*
X76356355Y-70802500D01*
X76663057Y-70741493D01*
X76951963Y-70621824D01*
X77211972Y-70448092D01*
X77433092Y-70226972D01*
X77472830Y-70167500D01*
X77660501Y-70167500D01*
X77660500Y-73037623D01*
X77606824Y-72908037D01*
X77433092Y-72648028D01*
X77211972Y-72426908D01*
X76951963Y-72253176D01*
X76663057Y-72133507D01*
X76356355Y-72072500D01*
X76043645Y-72072500D01*
X75736943Y-72133507D01*
X75448037Y-72253176D01*
X75188028Y-72426908D01*
X74966908Y-72648028D01*
X74793176Y-72908037D01*
X74673507Y-73196943D01*
X74612500Y-73503645D01*
X74612500Y-73816355D01*
X74673507Y-74123057D01*
X74793176Y-74411963D01*
X74966908Y-74671972D01*
X75188028Y-74893092D01*
X75243265Y-74930000D01*
X75188028Y-74966908D01*
X75184451Y-74970485D01*
X75143037Y-74893006D01*
X75063685Y-74796315D01*
X74966994Y-74716963D01*
X74856680Y-74657998D01*
X74736982Y-74621688D01*
X74612500Y-74609428D01*
X73945750Y-74612500D01*
X73787000Y-74771250D01*
X73787000Y-76073000D01*
X73807000Y-76073000D01*
X73807000Y-76327000D01*
X73787000Y-76327000D01*
X73787000Y-77628750D01*
X73945750Y-77787500D01*
X74612500Y-77790572D01*
X74736982Y-77778312D01*
X74856680Y-77742002D01*
X74966994Y-77683037D01*
X75063685Y-77603685D01*
X75143037Y-77506994D01*
X75184451Y-77429515D01*
X75188028Y-77433092D01*
X75448037Y-77606824D01*
X75736943Y-77726493D01*
X76043645Y-77787500D01*
X76356355Y-77787500D01*
X76619881Y-77735081D01*
X75305565Y-79049397D01*
X75269223Y-79079222D01*
X75239399Y-79115563D01*
X75150194Y-79224260D01*
X75061749Y-79389731D01*
X75007283Y-79569278D01*
X74988892Y-79756000D01*
X74993501Y-79802794D01*
X74993500Y-80758461D01*
X73519462Y-82232500D01*
X72392830Y-82232500D01*
X72353092Y-82173028D01*
X72131972Y-81951908D01*
X72076735Y-81915000D01*
X72131972Y-81878092D01*
X72353092Y-81656972D01*
X72526824Y-81396963D01*
X72646493Y-81108057D01*
X72707500Y-80801355D01*
X72707500Y-80488645D01*
X72646493Y-80181943D01*
X72526824Y-79893037D01*
X72353092Y-79633028D01*
X72131972Y-79411908D01*
X71871963Y-79238176D01*
X71583057Y-79118507D01*
X71276355Y-79057500D01*
X70963645Y-79057500D01*
X70656943Y-79118507D01*
X70368037Y-79238176D01*
X70108028Y-79411908D01*
X69886908Y-79633028D01*
X69713176Y-79893037D01*
X69593507Y-80181943D01*
X69532500Y-80488645D01*
X69532500Y-80801355D01*
X69593507Y-81108057D01*
X69713176Y-81396963D01*
X69886908Y-81656972D01*
X70108028Y-81878092D01*
X70163265Y-81915000D01*
X70108028Y-81951908D01*
X70104451Y-81955485D01*
X70063037Y-81878006D01*
X69983685Y-81781315D01*
X69886994Y-81701963D01*
X69776680Y-81642998D01*
X69656982Y-81606688D01*
X69532500Y-81594428D01*
X68865750Y-81597500D01*
X68707000Y-81756250D01*
X68453000Y-81756250D01*
X68294250Y-81597500D01*
X67627500Y-81594428D01*
X67503018Y-81606688D01*
X67383320Y-81642998D01*
X67273006Y-81701963D01*
X67176315Y-81781315D01*
X67096963Y-81878006D01*
X67037998Y-81988320D01*
X67001688Y-82108018D01*
X66989428Y-82232500D01*
X61751355Y-82232500D01*
X61438645Y-82232500D01*
X61131943Y-82293507D01*
X60843037Y-82413176D01*
X60583028Y-82586908D01*
X60361908Y-82808028D01*
X60188176Y-83068037D01*
X60068507Y-83356943D01*
X60007500Y-83663645D01*
X58159455Y-83663645D01*
X58169072Y-83566000D01*
X58169072Y-81534000D01*
X58156812Y-81409518D01*
X58120502Y-81289820D01*
X58061537Y-81179506D01*
X57982185Y-81082815D01*
X57885494Y-81003463D01*
X57775180Y-80944498D01*
X57761896Y-80940468D01*
X57927860Y-80879522D01*
X58070348Y-80587179D01*
X58153064Y-80272656D01*
X58172831Y-79948038D01*
X58158308Y-79841535D01*
X60673070Y-79841535D01*
X60763098Y-80101081D01*
X61044616Y-80237224D01*
X61347286Y-80315829D01*
X61659474Y-80333877D01*
X61969185Y-80290672D01*
X62264516Y-80187877D01*
X62426902Y-80101081D01*
X62516930Y-79841535D01*
X61595000Y-78919605D01*
X60673070Y-79841535D01*
X58158308Y-79841535D01*
X58128888Y-79625802D01*
X58022924Y-79318330D01*
X57927860Y-79140478D01*
X57661823Y-79042782D01*
X56694605Y-80010000D01*
X56708748Y-80024143D01*
X56529143Y-80203748D01*
X56515000Y-80189605D01*
X56500858Y-80203748D01*
X56321253Y-80024143D01*
X56335395Y-80010000D01*
X55368177Y-79042782D01*
X55102140Y-79140478D01*
X54959652Y-79432821D01*
X54876936Y-79747344D01*
X54857169Y-80071962D01*
X49279072Y-80071962D01*
X49279072Y-78863177D01*
X55547782Y-78863177D01*
X56515000Y-79830395D01*
X57482218Y-78863177D01*
X57460661Y-78804474D01*
X60001123Y-78804474D01*
X60044328Y-79114185D01*
X60147123Y-79409516D01*
X60233919Y-79571902D01*
X60493465Y-79661930D01*
X61415395Y-78740000D01*
X61774605Y-78740000D01*
X62696535Y-79661930D01*
X62956081Y-79571902D01*
X63092224Y-79290384D01*
X63170829Y-78987714D01*
X63188877Y-78675526D01*
X63145672Y-78365815D01*
X63042877Y-78070484D01*
X62956081Y-77908098D01*
X62696535Y-77818070D01*
X61774605Y-78740000D01*
X61415395Y-78740000D01*
X60493465Y-77818070D01*
X60233919Y-77908098D01*
X60097776Y-78189616D01*
X60019171Y-78492286D01*
X60001123Y-78804474D01*
X57460661Y-78804474D01*
X57384522Y-78597140D01*
X57092179Y-78454652D01*
X56777656Y-78371936D01*
X56453038Y-78352169D01*
X56130802Y-78396112D01*
X55823330Y-78502076D01*
X55645478Y-78597140D01*
X55547782Y-78863177D01*
X49279072Y-78863177D01*
X49279072Y-78359000D01*
X49266812Y-78234518D01*
X49230502Y-78114820D01*
X49171537Y-78004506D01*
X49092185Y-77907815D01*
X48995494Y-77828463D01*
X48885180Y-77769498D01*
X48765482Y-77733188D01*
X48641000Y-77720928D01*
X46609000Y-77720928D01*
X46484518Y-77733188D01*
X46364820Y-77769498D01*
X46254506Y-77828463D01*
X46157815Y-77907815D01*
X46106102Y-77970828D01*
X45906745Y-77837623D01*
X45591028Y-77706848D01*
X45255865Y-77640180D01*
X44914135Y-77640180D01*
X44578972Y-77706848D01*
X44263255Y-77837623D01*
X43979117Y-78027477D01*
X43737477Y-78269117D01*
X43547623Y-78553255D01*
X43416848Y-78868972D01*
X43350180Y-79204135D01*
X35719990Y-79204135D01*
X35719990Y-77638465D01*
X60673070Y-77638465D01*
X61595000Y-78560395D01*
X62516930Y-77638465D01*
X62426902Y-77378919D01*
X62145384Y-77242776D01*
X61842714Y-77164171D01*
X61530526Y-77146123D01*
X61220815Y-77189328D01*
X60925484Y-77292123D01*
X60763098Y-77378919D01*
X60673070Y-77638465D01*
X35719990Y-77638465D01*
X35719990Y-75912060D01*
X43984990Y-75912060D01*
X44001672Y-75991996D01*
X44111159Y-76249646D01*
X44268808Y-76480986D01*
X44468560Y-76677125D01*
X44702738Y-76830526D01*
X44962344Y-76935293D01*
X45237400Y-76987400D01*
X45593000Y-76987400D01*
X45593000Y-75692000D01*
X45847000Y-75692000D01*
X45847000Y-76987400D01*
X46202600Y-76987400D01*
X46477656Y-76935293D01*
X46737262Y-76830526D01*
X46971440Y-76677125D01*
X47171192Y-76480986D01*
X47328841Y-76249646D01*
X47438328Y-75991996D01*
X47455010Y-75912060D01*
X47332852Y-75692000D01*
X45847000Y-75692000D01*
X45593000Y-75692000D01*
X44107148Y-75692000D01*
X43984990Y-75912060D01*
X35719990Y-75912060D01*
X35719990Y-70546962D01*
X40252169Y-70546962D01*
X40296112Y-70869198D01*
X40402076Y-71176670D01*
X40497140Y-71354522D01*
X40663104Y-71415468D01*
X40649820Y-71419498D01*
X40539506Y-71478463D01*
X40442815Y-71557815D01*
X40363463Y-71654506D01*
X40304498Y-71764820D01*
X40268188Y-71884518D01*
X40255928Y-72009000D01*
X40255928Y-74041000D01*
X40268188Y-74165482D01*
X40304498Y-74285180D01*
X40363463Y-74395494D01*
X40442815Y-74492185D01*
X40539506Y-74571537D01*
X40649820Y-74630502D01*
X40769518Y-74666812D01*
X40894000Y-74679072D01*
X42926000Y-74679072D01*
X43050482Y-74666812D01*
X43170180Y-74630502D01*
X43280494Y-74571537D01*
X43377185Y-74492185D01*
X43456537Y-74395494D01*
X43515502Y-74285180D01*
X43551812Y-74165482D01*
X43564072Y-74041000D01*
X43564072Y-73977500D01*
X44306018Y-73977500D01*
X44353745Y-74035655D01*
X44570333Y-74213405D01*
X44719045Y-74292893D01*
X44702738Y-74299474D01*
X44468560Y-74452875D01*
X44268808Y-74649014D01*
X44111159Y-74880354D01*
X44001672Y-75138004D01*
X43984990Y-75217940D01*
X44107148Y-75438000D01*
X45593000Y-75438000D01*
X45593000Y-75418000D01*
X45847000Y-75418000D01*
X45847000Y-75438000D01*
X47332852Y-75438000D01*
X47455010Y-75217940D01*
X47438328Y-75138004D01*
X47328841Y-74880354D01*
X47171192Y-74649014D01*
X46971440Y-74452875D01*
X46737262Y-74299474D01*
X46720955Y-74292893D01*
X46869667Y-74213405D01*
X47086255Y-74035655D01*
X47264005Y-73819067D01*
X47396084Y-73571963D01*
X47477419Y-73303839D01*
X47504882Y-73025000D01*
X47477419Y-72746161D01*
X47396084Y-72478037D01*
X47264005Y-72230933D01*
X47086255Y-72014345D01*
X46869667Y-71836595D01*
X46717013Y-71755000D01*
X46869667Y-71673405D01*
X47086255Y-71495655D01*
X47264005Y-71279067D01*
X47396084Y-71031963D01*
X47477419Y-70763839D01*
X47504882Y-70485000D01*
X47477419Y-70206161D01*
X47396084Y-69938037D01*
X47264005Y-69690933D01*
X47086255Y-69474345D01*
X46949326Y-69361970D01*
X46987482Y-69358212D01*
X47107180Y-69321902D01*
X47217494Y-69262937D01*
X47314185Y-69183585D01*
X47393537Y-69086894D01*
X47452502Y-68976580D01*
X47488812Y-68856882D01*
X47501072Y-68732400D01*
X47501072Y-67157600D01*
X47488812Y-67033118D01*
X47452502Y-66913420D01*
X47393537Y-66803106D01*
X47314185Y-66706415D01*
X47217494Y-66627063D01*
X47107180Y-66568098D01*
X46987482Y-66531788D01*
X46863000Y-66519528D01*
X46672500Y-66519528D01*
X46672500Y-66390190D01*
X46827391Y-66421000D01*
X47152609Y-66421000D01*
X47471579Y-66357553D01*
X47772042Y-66233097D01*
X48042451Y-66052415D01*
X48272415Y-65822451D01*
X48453097Y-65552042D01*
X48577553Y-65251579D01*
X48641000Y-64932609D01*
X48641000Y-64607391D01*
X48577553Y-64288421D01*
X48453097Y-63987958D01*
X48272415Y-63717549D01*
X48042451Y-63487585D01*
X47772042Y-63306903D01*
X47471579Y-63182447D01*
X47152609Y-63119000D01*
X46827391Y-63119000D01*
X46508421Y-63182447D01*
X46207958Y-63306903D01*
X45937549Y-63487585D01*
X45707585Y-63717549D01*
X45526903Y-63987958D01*
X45402447Y-64288421D01*
X45380821Y-64397141D01*
X45079565Y-64698397D01*
X45043223Y-64728222D01*
X45013399Y-64764563D01*
X44924194Y-64873260D01*
X44835749Y-65038731D01*
X44781283Y-65218278D01*
X44762892Y-65405000D01*
X44767501Y-65451794D01*
X44767501Y-66519528D01*
X44577000Y-66519528D01*
X44452518Y-66531788D01*
X44332820Y-66568098D01*
X44222506Y-66627063D01*
X44125815Y-66706415D01*
X44046463Y-66803106D01*
X43987498Y-66913420D01*
X43951188Y-67033118D01*
X43938928Y-67157600D01*
X43938928Y-68372890D01*
X43561000Y-67994962D01*
X43561000Y-67782391D01*
X43497553Y-67463421D01*
X43373097Y-67162958D01*
X43192415Y-66892549D01*
X42962451Y-66662585D01*
X42692042Y-66481903D01*
X42391579Y-66357447D01*
X42072609Y-66294000D01*
X41747391Y-66294000D01*
X41428421Y-66357447D01*
X41127958Y-66481903D01*
X40857549Y-66662585D01*
X40627585Y-66892549D01*
X40446903Y-67162958D01*
X40322447Y-67463421D01*
X40259000Y-67782391D01*
X40259000Y-68107609D01*
X40322447Y-68426579D01*
X40446903Y-68727042D01*
X40627585Y-68997451D01*
X40857549Y-69227415D01*
X40958649Y-69294968D01*
X40942782Y-69338177D01*
X41910000Y-70305395D01*
X41924143Y-70291253D01*
X42103748Y-70470858D01*
X42089605Y-70485000D01*
X42103748Y-70499143D01*
X41924143Y-70678748D01*
X41910000Y-70664605D01*
X41895858Y-70678748D01*
X41716253Y-70499143D01*
X41730395Y-70485000D01*
X40763177Y-69517782D01*
X40497140Y-69615478D01*
X40354652Y-69907821D01*
X40271936Y-70222344D01*
X40252169Y-70546962D01*
X35719990Y-70546962D01*
X35719990Y-59234873D01*
X37299997Y-59234873D01*
X37299997Y-59675129D01*
X37385887Y-60106926D01*
X37554366Y-60513670D01*
X37798959Y-60879730D01*
X38110268Y-61191039D01*
X38476328Y-61435632D01*
X38883072Y-61604111D01*
X39314869Y-61690001D01*
X39755125Y-61690001D01*
X40186922Y-61604111D01*
X40593666Y-61435632D01*
X40959726Y-61191039D01*
X41271035Y-60879730D01*
X41299704Y-60836823D01*
X46022782Y-60836823D01*
X46120478Y-61102860D01*
X46412821Y-61245348D01*
X46727344Y-61328064D01*
X47051962Y-61347831D01*
X47374198Y-61303888D01*
X47681670Y-61197924D01*
X47859522Y-61102860D01*
X47957218Y-60836823D01*
X46990000Y-59869605D01*
X46022782Y-60836823D01*
X41299704Y-60836823D01*
X41515628Y-60513670D01*
X41684107Y-60106926D01*
X41754713Y-59751962D01*
X45332169Y-59751962D01*
X45376112Y-60074198D01*
X45482076Y-60381670D01*
X45577140Y-60559522D01*
X45843177Y-60657218D01*
X46810395Y-59690000D01*
X47169605Y-59690000D01*
X48136823Y-60657218D01*
X48402860Y-60559522D01*
X48455266Y-60452000D01*
X48826892Y-60452000D01*
X48831501Y-60498795D01*
X48831500Y-73613215D01*
X48826892Y-73660000D01*
X48831500Y-73706784D01*
X48845283Y-73846722D01*
X48899748Y-74026268D01*
X48988194Y-74191741D01*
X49107222Y-74336778D01*
X49143569Y-74366607D01*
X50982397Y-76205436D01*
X51012222Y-76241778D01*
X51157259Y-76360806D01*
X51322731Y-76449252D01*
X51502277Y-76503717D01*
X51689000Y-76522108D01*
X51735785Y-76517500D01*
X51926018Y-76517500D01*
X51973745Y-76575655D01*
X52190333Y-76753405D01*
X52437437Y-76885484D01*
X52705561Y-76966819D01*
X52914525Y-76987400D01*
X53765475Y-76987400D01*
X53974439Y-76966819D01*
X54242563Y-76885484D01*
X54489667Y-76753405D01*
X54706255Y-76575655D01*
X54884005Y-76359067D01*
X55016084Y-76111963D01*
X55097419Y-75843839D01*
X55124882Y-75565000D01*
X55097419Y-75286161D01*
X55016084Y-75018037D01*
X54884005Y-74770933D01*
X54706255Y-74554345D01*
X54489667Y-74376595D01*
X54337013Y-74295000D01*
X54489667Y-74213405D01*
X54706255Y-74035655D01*
X54753982Y-73977500D01*
X57705800Y-73977500D01*
X57591903Y-74147958D01*
X57467447Y-74448421D01*
X57404000Y-74767391D01*
X57404000Y-75092609D01*
X57467447Y-75411579D01*
X57591903Y-75712042D01*
X57772585Y-75982451D01*
X58002549Y-76212415D01*
X58272958Y-76393097D01*
X58573421Y-76517553D01*
X58892391Y-76581000D01*
X59217609Y-76581000D01*
X59536579Y-76517553D01*
X59837042Y-76393097D01*
X60107451Y-76212415D01*
X60325000Y-75994866D01*
X60542549Y-76212415D01*
X60812958Y-76393097D01*
X61113421Y-76517553D01*
X61432391Y-76581000D01*
X61757609Y-76581000D01*
X62076579Y-76517553D01*
X62377042Y-76393097D01*
X62647451Y-76212415D01*
X62865000Y-75994866D01*
X63082549Y-76212415D01*
X63352958Y-76393097D01*
X63653421Y-76517553D01*
X63972391Y-76581000D01*
X64297609Y-76581000D01*
X64616579Y-76517553D01*
X64917042Y-76393097D01*
X65187451Y-76212415D01*
X65417415Y-75982451D01*
X65598097Y-75712042D01*
X65722553Y-75411579D01*
X65786000Y-75092609D01*
X65786000Y-74767391D01*
X65722553Y-74448421D01*
X65598097Y-74147958D01*
X65417415Y-73877549D01*
X65187451Y-73647585D01*
X64917042Y-73466903D01*
X64616579Y-73342447D01*
X64297609Y-73279000D01*
X63972391Y-73279000D01*
X63653421Y-73342447D01*
X63352958Y-73466903D01*
X63082549Y-73647585D01*
X62865000Y-73865134D01*
X62647451Y-73647585D01*
X62522803Y-73564297D01*
X62493258Y-73466903D01*
X62479252Y-73420730D01*
X62416772Y-73303839D01*
X62390806Y-73255259D01*
X62271778Y-73110222D01*
X62235436Y-73080397D01*
X61539607Y-72384569D01*
X61509778Y-72348222D01*
X61364741Y-72229194D01*
X61199269Y-72140748D01*
X61019723Y-72086283D01*
X60879785Y-72072500D01*
X61548215Y-72072500D01*
X61595000Y-72077108D01*
X61641785Y-72072500D01*
X61781723Y-72058717D01*
X61961269Y-72004252D01*
X62126741Y-71915806D01*
X62271778Y-71796778D01*
X62301607Y-71760431D01*
X63442177Y-70619861D01*
X63477985Y-70799878D01*
X63559360Y-70996335D01*
X63677498Y-71173141D01*
X63827859Y-71323502D01*
X64004665Y-71441640D01*
X64201122Y-71523015D01*
X64409679Y-71564500D01*
X64622321Y-71564500D01*
X64830878Y-71523015D01*
X65027335Y-71441640D01*
X65204141Y-71323502D01*
X65354502Y-71173141D01*
X65472640Y-70996335D01*
X65554015Y-70799878D01*
X65555469Y-70792569D01*
X67028540Y-69319499D01*
X67001688Y-69408018D01*
X66989428Y-69532500D01*
X66989428Y-71437500D01*
X67001688Y-71561982D01*
X67037998Y-71681680D01*
X67096963Y-71791994D01*
X67176315Y-71888685D01*
X67273006Y-71968037D01*
X67383320Y-72027002D01*
X67503018Y-72063312D01*
X67627500Y-72075572D01*
X68725877Y-72075572D01*
X68432958Y-72196903D01*
X68162549Y-72377585D01*
X67932585Y-72607549D01*
X67751903Y-72877958D01*
X67627447Y-73178421D01*
X67564000Y-73497391D01*
X67564000Y-73822609D01*
X67627447Y-74141579D01*
X67751903Y-74442042D01*
X67932585Y-74712451D01*
X68150134Y-74930000D01*
X67932585Y-75147549D01*
X67751903Y-75417958D01*
X67627447Y-75718421D01*
X67564000Y-76037391D01*
X67564000Y-76362609D01*
X67627447Y-76681579D01*
X67751903Y-76982042D01*
X67932585Y-77252451D01*
X68162549Y-77482415D01*
X68432958Y-77663097D01*
X68733421Y-77787553D01*
X69052391Y-77851000D01*
X69377609Y-77851000D01*
X69696579Y-77787553D01*
X69997042Y-77663097D01*
X70267451Y-77482415D01*
X70497415Y-77252451D01*
X70564200Y-77152500D01*
X72069428Y-77152500D01*
X72081688Y-77276982D01*
X72117998Y-77396680D01*
X72176963Y-77506994D01*
X72256315Y-77603685D01*
X72353006Y-77683037D01*
X72463320Y-77742002D01*
X72583018Y-77778312D01*
X72707500Y-77790572D01*
X73374250Y-77787500D01*
X73533000Y-77628750D01*
X73533000Y-76327000D01*
X72231250Y-76327000D01*
X72072500Y-76485750D01*
X72069428Y-77152500D01*
X70564200Y-77152500D01*
X70678097Y-76982042D01*
X70802553Y-76681579D01*
X70866000Y-76362609D01*
X70866000Y-76037391D01*
X70802553Y-75718421D01*
X70678097Y-75417958D01*
X70564201Y-75247500D01*
X72069428Y-75247500D01*
X72072500Y-75914250D01*
X72231250Y-76073000D01*
X73533000Y-76073000D01*
X73533000Y-74771250D01*
X73374250Y-74612500D01*
X72707500Y-74609428D01*
X72583018Y-74621688D01*
X72463320Y-74657998D01*
X72353006Y-74716963D01*
X72256315Y-74796315D01*
X72176963Y-74893006D01*
X72117998Y-75003320D01*
X72081688Y-75123018D01*
X72069428Y-75247500D01*
X70564201Y-75247500D01*
X70497415Y-75147549D01*
X70279866Y-74930000D01*
X70497415Y-74712451D01*
X70678097Y-74442042D01*
X70802553Y-74141579D01*
X70866000Y-73822609D01*
X70866000Y-73497391D01*
X70802553Y-73178421D01*
X70678097Y-72877958D01*
X70497415Y-72607549D01*
X70267451Y-72377585D01*
X69997042Y-72196903D01*
X69696579Y-72072447D01*
X69652750Y-72063729D01*
X69656982Y-72063312D01*
X69776680Y-72027002D01*
X69886994Y-71968037D01*
X69983685Y-71888685D01*
X70063037Y-71791994D01*
X70122002Y-71681680D01*
X70158312Y-71561982D01*
X70170572Y-71437500D01*
X70170572Y-69532500D01*
X70158312Y-69408018D01*
X70122002Y-69288320D01*
X70063037Y-69178006D01*
X69983685Y-69081315D01*
X69886994Y-69001963D01*
X69809515Y-68960549D01*
X69813092Y-68956972D01*
X69850000Y-68901735D01*
X69886908Y-68956972D01*
X70108028Y-69178092D01*
X70368037Y-69351824D01*
X70656943Y-69471493D01*
X70963645Y-69532500D01*
X71276355Y-69532500D01*
X71583057Y-69471493D01*
X71871963Y-69351824D01*
X72072500Y-69217830D01*
X72072500Y-69342002D01*
X72231248Y-69342002D01*
X72072500Y-69500750D01*
X72069428Y-70167500D01*
X72081688Y-70291982D01*
X72117998Y-70411680D01*
X72176963Y-70521994D01*
X72256315Y-70618685D01*
X72353006Y-70698037D01*
X72463320Y-70757002D01*
X72583018Y-70793312D01*
X72707500Y-70805572D01*
X73374250Y-70802500D01*
X73533000Y-70643750D01*
X73533000Y-69342000D01*
X73513000Y-69342000D01*
X73513000Y-69088000D01*
X73533000Y-69088000D01*
X73533000Y-67786250D01*
X73374250Y-67627500D01*
X72707500Y-67624428D01*
X72675463Y-67627583D01*
X72646493Y-67481943D01*
X72526824Y-67193037D01*
X72353092Y-66933028D01*
X72131972Y-66711908D01*
X72063744Y-66666320D01*
X72058717Y-66615277D01*
X72004252Y-66435731D01*
X72004252Y-66435730D01*
X71954570Y-66342782D01*
X71915806Y-66270259D01*
X71796778Y-66125222D01*
X71760436Y-66095397D01*
X71064607Y-65399569D01*
X71034778Y-65363222D01*
X70889741Y-65244194D01*
X70724269Y-65155748D01*
X70544723Y-65101283D01*
X70404785Y-65087500D01*
X70358000Y-65082892D01*
X70311215Y-65087500D01*
X67737784Y-65087500D01*
X67690999Y-65082892D01*
X67565550Y-65095248D01*
X67504277Y-65101283D01*
X67324731Y-65155748D01*
X67159259Y-65244194D01*
X67014222Y-65363222D01*
X66984397Y-65399564D01*
X65907569Y-66476393D01*
X65871222Y-66506222D01*
X65752194Y-66651259D01*
X65694151Y-66759852D01*
X65598097Y-66527958D01*
X65417415Y-66257549D01*
X65187451Y-66027585D01*
X64917042Y-65846903D01*
X64616579Y-65722447D01*
X64297609Y-65659000D01*
X63972391Y-65659000D01*
X63653421Y-65722447D01*
X63352958Y-65846903D01*
X63082549Y-66027585D01*
X62852585Y-66257549D01*
X62785032Y-66358649D01*
X62741823Y-66342782D01*
X61774605Y-67310000D01*
X62741823Y-68277218D01*
X62785032Y-68261351D01*
X62852585Y-68362451D01*
X62929048Y-68438914D01*
X61200462Y-70167500D01*
X58245200Y-70167500D01*
X58359097Y-69997042D01*
X58483553Y-69696579D01*
X58547000Y-69377609D01*
X58547000Y-69052391D01*
X58511063Y-68871723D01*
X58573421Y-68897553D01*
X58892391Y-68961000D01*
X59217609Y-68961000D01*
X59536579Y-68897553D01*
X59837042Y-68773097D01*
X60107451Y-68592415D01*
X60243043Y-68456823D01*
X60627782Y-68456823D01*
X60725478Y-68722860D01*
X61017821Y-68865348D01*
X61332344Y-68948064D01*
X61656962Y-68967831D01*
X61979198Y-68923888D01*
X62286670Y-68817924D01*
X62464522Y-68722860D01*
X62562218Y-68456823D01*
X61595000Y-67489605D01*
X60627782Y-68456823D01*
X60243043Y-68456823D01*
X60337415Y-68362451D01*
X60404968Y-68261351D01*
X60448177Y-68277218D01*
X61415395Y-67310000D01*
X60448177Y-66342782D01*
X60404968Y-66358649D01*
X60337415Y-66257549D01*
X60243043Y-66163177D01*
X60627782Y-66163177D01*
X61595000Y-67130395D01*
X62562218Y-66163177D01*
X62464522Y-65897140D01*
X62172179Y-65754652D01*
X61857656Y-65671936D01*
X61533038Y-65652169D01*
X61210802Y-65696112D01*
X60903330Y-65802076D01*
X60725478Y-65897140D01*
X60627782Y-66163177D01*
X60243043Y-66163177D01*
X60107451Y-66027585D01*
X59837042Y-65846903D01*
X59536707Y-65722500D01*
X60659215Y-65722500D01*
X60706000Y-65727108D01*
X60752785Y-65722500D01*
X60892723Y-65708717D01*
X61072269Y-65654252D01*
X61237741Y-65565806D01*
X61382778Y-65446778D01*
X61412608Y-65410430D01*
X61608538Y-65214500D01*
X64723215Y-65214500D01*
X64770000Y-65219108D01*
X64816785Y-65214500D01*
X64956723Y-65200717D01*
X65136269Y-65146252D01*
X65301741Y-65057806D01*
X65446778Y-64938778D01*
X65476608Y-64902430D01*
X66045426Y-64333611D01*
X66081778Y-64303778D01*
X66200806Y-64158741D01*
X66268324Y-64032423D01*
X66289252Y-63993270D01*
X66321868Y-63885748D01*
X66343717Y-63813723D01*
X66357500Y-63673785D01*
X66357500Y-63673784D01*
X66362108Y-63627000D01*
X66357500Y-63580215D01*
X66357500Y-63307038D01*
X66482038Y-63182500D01*
X67624428Y-63182500D01*
X67636688Y-63306982D01*
X67672998Y-63426680D01*
X67731963Y-63536994D01*
X67811315Y-63633685D01*
X67908006Y-63713037D01*
X68018320Y-63772002D01*
X68138018Y-63808312D01*
X68262500Y-63820572D01*
X68929250Y-63817500D01*
X69088000Y-63658750D01*
X69088000Y-62357000D01*
X67786250Y-62357000D01*
X67627500Y-62515750D01*
X67624428Y-63182500D01*
X66482038Y-63182500D01*
X66519715Y-63144823D01*
X66676769Y-62909775D01*
X66784950Y-62648603D01*
X66840100Y-62371345D01*
X66840100Y-62088655D01*
X66784950Y-61811397D01*
X66676769Y-61550225D01*
X66519715Y-61315177D01*
X66482038Y-61277500D01*
X67624428Y-61277500D01*
X67627500Y-61944250D01*
X67786250Y-62103000D01*
X69088000Y-62103000D01*
X69088000Y-60801250D01*
X68929250Y-60642500D01*
X68262500Y-60639428D01*
X68138018Y-60651688D01*
X68018320Y-60687998D01*
X67908006Y-60746963D01*
X67811315Y-60826315D01*
X67731963Y-60923006D01*
X67672998Y-61033320D01*
X67636688Y-61153018D01*
X67624428Y-61277500D01*
X66482038Y-61277500D01*
X66319823Y-61115285D01*
X66086068Y-60959095D01*
X66146574Y-60926754D01*
X66218169Y-60682774D01*
X65405000Y-59869605D01*
X64591831Y-60682774D01*
X64663426Y-60926754D01*
X64727744Y-60957188D01*
X64725225Y-60958231D01*
X64490177Y-61115285D01*
X64290285Y-61315177D01*
X64135000Y-61547578D01*
X63979715Y-61315177D01*
X63779823Y-61115285D01*
X63547422Y-60960000D01*
X63779823Y-60804715D01*
X63979715Y-60604823D01*
X64135905Y-60371068D01*
X64168246Y-60431574D01*
X64412226Y-60503169D01*
X65225395Y-59690000D01*
X65584605Y-59690000D01*
X66397774Y-60503169D01*
X66641754Y-60431574D01*
X66762664Y-60176046D01*
X66831400Y-59901839D01*
X66845320Y-59619492D01*
X66803889Y-59339853D01*
X66708700Y-59073672D01*
X66641754Y-58948426D01*
X66397774Y-58876831D01*
X65584605Y-59690000D01*
X65225395Y-59690000D01*
X64412226Y-58876831D01*
X64168246Y-58948426D01*
X64137812Y-59012744D01*
X64136769Y-59010225D01*
X63979715Y-58775177D01*
X63901764Y-58697226D01*
X64591831Y-58697226D01*
X65405000Y-59510395D01*
X66218169Y-58697226D01*
X66146574Y-58453246D01*
X65891046Y-58332336D01*
X65616839Y-58263600D01*
X65334492Y-58249680D01*
X65054853Y-58291111D01*
X64788672Y-58386300D01*
X64663426Y-58453246D01*
X64591831Y-58697226D01*
X63901764Y-58697226D01*
X63817500Y-58612962D01*
X63817500Y-58466784D01*
X63822108Y-58419999D01*
X63803717Y-58233277D01*
X63749252Y-58053731D01*
X63660806Y-57888259D01*
X63541778Y-57743222D01*
X63505426Y-57713389D01*
X63190608Y-57398570D01*
X63160778Y-57362222D01*
X63015741Y-57243194D01*
X62850269Y-57154748D01*
X62670723Y-57100283D01*
X62530785Y-57086500D01*
X62484000Y-57081892D01*
X62437215Y-57086500D01*
X52243784Y-57086500D01*
X52196999Y-57081892D01*
X52074941Y-57093914D01*
X52010277Y-57100283D01*
X51830731Y-57154748D01*
X51665259Y-57243194D01*
X51520222Y-57362222D01*
X51490393Y-57398569D01*
X49143565Y-59745397D01*
X49107223Y-59775222D01*
X49077399Y-59811563D01*
X48988194Y-59920260D01*
X48899749Y-60085731D01*
X48845283Y-60265278D01*
X48826892Y-60452000D01*
X48455266Y-60452000D01*
X48545348Y-60267179D01*
X48628064Y-59952656D01*
X48647831Y-59628038D01*
X48603888Y-59305802D01*
X48497924Y-58998330D01*
X48402860Y-58820478D01*
X48136823Y-58722782D01*
X47169605Y-59690000D01*
X46810395Y-59690000D01*
X45843177Y-58722782D01*
X45577140Y-58820478D01*
X45434652Y-59112821D01*
X45351936Y-59427344D01*
X45332169Y-59751962D01*
X41754713Y-59751962D01*
X41769997Y-59675129D01*
X41769997Y-59234873D01*
X41684107Y-58803076D01*
X41576454Y-58543177D01*
X46022782Y-58543177D01*
X46990000Y-59510395D01*
X47957218Y-58543177D01*
X47859522Y-58277140D01*
X47567179Y-58134652D01*
X47252656Y-58051936D01*
X46928038Y-58032169D01*
X46605802Y-58076112D01*
X46298330Y-58182076D01*
X46120478Y-58277140D01*
X46022782Y-58543177D01*
X41576454Y-58543177D01*
X41515628Y-58396332D01*
X41271035Y-58030272D01*
X40959726Y-57718963D01*
X40593666Y-57474370D01*
X40186922Y-57305891D01*
X39755125Y-57220001D01*
X39314869Y-57220001D01*
X38883072Y-57305891D01*
X38476328Y-57474370D01*
X38110268Y-57718963D01*
X37798959Y-58030272D01*
X37554366Y-58396332D01*
X37385887Y-58803076D01*
X37299997Y-59234873D01*
X35719990Y-59234873D01*
X35719990Y-58360065D01*
X35732262Y-58115536D01*
X35765561Y-57896165D01*
X35819600Y-57685034D01*
X35893266Y-57482972D01*
X35985573Y-57290842D01*
X36095519Y-57109490D01*
X36221991Y-56940149D01*
X36363898Y-56783941D01*
X36520142Y-56642019D01*
X36689475Y-56515514D01*
X36870733Y-56405659D01*
X37063023Y-56313302D01*
X37265059Y-56239589D01*
X37476098Y-56185611D01*
X37695574Y-56152304D01*
X37940117Y-56139998D01*
X87129884Y-56139998D01*
X87374425Y-56152304D01*
G04 #@! TA.AperFunction,Conductor*
D24*
G36*
X87374425Y-56152304D02*
G01*
X87593910Y-56185612D01*
X87804941Y-56239588D01*
X88006962Y-56313293D01*
X88199207Y-56405646D01*
X88380505Y-56515522D01*
X88549842Y-56642028D01*
X88706073Y-56783925D01*
X88847965Y-56940151D01*
X88974480Y-57109498D01*
X89084353Y-57290792D01*
X89176704Y-57483032D01*
X89250407Y-57685050D01*
X89304387Y-57896096D01*
X89337694Y-58115572D01*
X89350000Y-58360115D01*
X89350001Y-85549861D01*
X89337694Y-85794424D01*
X89304387Y-86013900D01*
X89250407Y-86224946D01*
X89176704Y-86426964D01*
X89084353Y-86619204D01*
X88974480Y-86800498D01*
X88847965Y-86969845D01*
X88706073Y-87126071D01*
X88549842Y-87267968D01*
X88380505Y-87394474D01*
X88199111Y-87504408D01*
X88006968Y-87596789D01*
X87805054Y-87670379D01*
X87593910Y-87724384D01*
X87374425Y-87757692D01*
X87129884Y-87769998D01*
X73291905Y-87769998D01*
X73291905Y-85577500D01*
X56248095Y-85577500D01*
X56248095Y-87769998D01*
X37940117Y-87769998D01*
X37695574Y-87757692D01*
X37476098Y-87724385D01*
X37264944Y-87670378D01*
X37063030Y-87596786D01*
X36870827Y-87504394D01*
X36689475Y-87394482D01*
X36520142Y-87267977D01*
X36363898Y-87126055D01*
X36221991Y-86969847D01*
X36095519Y-86800506D01*
X35985573Y-86619154D01*
X35893266Y-86427024D01*
X35819600Y-86224962D01*
X35765561Y-86013831D01*
X35732262Y-85794460D01*
X35719990Y-85549931D01*
X35719990Y-84234872D01*
X37299997Y-84234872D01*
X37299997Y-84675128D01*
X37385887Y-85106925D01*
X37554366Y-85513669D01*
X37798959Y-85879729D01*
X38110268Y-86191038D01*
X38476328Y-86435631D01*
X38883072Y-86604110D01*
X39314869Y-86690000D01*
X39755125Y-86690000D01*
X40186922Y-86604110D01*
X40593666Y-86435631D01*
X40959726Y-86191038D01*
X41271035Y-85879729D01*
X41515628Y-85513669D01*
X41684107Y-85106925D01*
X41769997Y-84675128D01*
X41769997Y-84284135D01*
X43350180Y-84284135D01*
X43350180Y-84625865D01*
X43416848Y-84961028D01*
X43547623Y-85276745D01*
X43737477Y-85560883D01*
X43979117Y-85802523D01*
X44263255Y-85992377D01*
X44578972Y-86123152D01*
X44914135Y-86189820D01*
X45255865Y-86189820D01*
X45591028Y-86123152D01*
X45906745Y-85992377D01*
X46190883Y-85802523D01*
X46391583Y-85601823D01*
X46657782Y-85601823D01*
X46755478Y-85867860D01*
X47047821Y-86010348D01*
X47362344Y-86093064D01*
X47686962Y-86112831D01*
X48009198Y-86068888D01*
X48316670Y-85962924D01*
X48494522Y-85867860D01*
X48592218Y-85601823D01*
X47625000Y-84634605D01*
X46657782Y-85601823D01*
X46391583Y-85601823D01*
X46432523Y-85560883D01*
X46619814Y-85280581D01*
X47445395Y-84455000D01*
X47804605Y-84455000D01*
X48771823Y-85422218D01*
X49037860Y-85324522D01*
X49180348Y-85032179D01*
X49263064Y-84717656D01*
X49282831Y-84393038D01*
X49238888Y-84070802D01*
X49132924Y-83763330D01*
X49037860Y-83585478D01*
X48771823Y-83487782D01*
X47804605Y-84455000D01*
X47445395Y-84455000D01*
X46619814Y-83629419D01*
X46432523Y-83349117D01*
X46391583Y-83308177D01*
X46657782Y-83308177D01*
X47625000Y-84275395D01*
X48592218Y-83308177D01*
X48494522Y-83042140D01*
X48202179Y-82899652D01*
X47887656Y-82816936D01*
X47563038Y-82797169D01*
X47240802Y-82841112D01*
X46933330Y-82947076D01*
X46755478Y-83042140D01*
X46657782Y-83308177D01*
X46391583Y-83308177D01*
X46190883Y-83107477D01*
X45906745Y-82917623D01*
X45591028Y-82786848D01*
X45255865Y-82720180D01*
X44914135Y-82720180D01*
X44578972Y-82786848D01*
X44263255Y-82917623D01*
X43979117Y-83107477D01*
X43737477Y-83349117D01*
X43547623Y-83633255D01*
X43416848Y-83948972D01*
X43350180Y-84284135D01*
X41769997Y-84284135D01*
X41769997Y-84234872D01*
X41684107Y-83803075D01*
X41515628Y-83396331D01*
X41271035Y-83030271D01*
X40959726Y-82718962D01*
X40593666Y-82474369D01*
X40186922Y-82305890D01*
X39755125Y-82220000D01*
X39314869Y-82220000D01*
X38883072Y-82305890D01*
X38476328Y-82474369D01*
X38110268Y-82718962D01*
X37798959Y-83030271D01*
X37554366Y-83396331D01*
X37385887Y-83803075D01*
X37299997Y-84234872D01*
X35719990Y-84234872D01*
X35719990Y-79204135D01*
X43350180Y-79204135D01*
X43350180Y-79545865D01*
X43416848Y-79881028D01*
X43547623Y-80196745D01*
X43737477Y-80480883D01*
X43979117Y-80722523D01*
X44263255Y-80912377D01*
X44578972Y-81043152D01*
X44914135Y-81109820D01*
X45255865Y-81109820D01*
X45591028Y-81043152D01*
X45906745Y-80912377D01*
X46106102Y-80779172D01*
X46157815Y-80842185D01*
X46254506Y-80921537D01*
X46364820Y-80980502D01*
X46484518Y-81016812D01*
X46609000Y-81029072D01*
X48641000Y-81029072D01*
X48765482Y-81016812D01*
X48885180Y-80980502D01*
X48995494Y-80921537D01*
X49092185Y-80842185D01*
X49171537Y-80745494D01*
X49230502Y-80635180D01*
X49266812Y-80515482D01*
X49279072Y-80391000D01*
X49279072Y-80071962D01*
X54857169Y-80071962D01*
X54901112Y-80394198D01*
X55007076Y-80701670D01*
X55102140Y-80879522D01*
X55268104Y-80940468D01*
X55254820Y-80944498D01*
X55144506Y-81003463D01*
X55047815Y-81082815D01*
X54968463Y-81179506D01*
X54909498Y-81289820D01*
X54873188Y-81409518D01*
X54860928Y-81534000D01*
X54860928Y-83566000D01*
X54873188Y-83690482D01*
X54909498Y-83810180D01*
X54968463Y-83920494D01*
X55047815Y-84017185D01*
X55144506Y-84096537D01*
X55254820Y-84155502D01*
X55374518Y-84191812D01*
X55499000Y-84204072D01*
X57531000Y-84204072D01*
X57655482Y-84191812D01*
X57775180Y-84155502D01*
X57885494Y-84096537D01*
X57982185Y-84017185D01*
X58061537Y-83920494D01*
X58120502Y-83810180D01*
X58156812Y-83690482D01*
X58159455Y-83663645D01*
X60007500Y-83663645D01*
X60007500Y-83976355D01*
X60068507Y-84283057D01*
X60188176Y-84571963D01*
X60361908Y-84831972D01*
X60583028Y-85053092D01*
X60843037Y-85226824D01*
X61131943Y-85346493D01*
X61438645Y-85407500D01*
X61751355Y-85407500D01*
X62058057Y-85346493D01*
X62346963Y-85226824D01*
X62606972Y-85053092D01*
X62828092Y-84831972D01*
X63001824Y-84571963D01*
X63121493Y-84283057D01*
X63150446Y-84137500D01*
X66989428Y-84137500D01*
X67001688Y-84261982D01*
X67037998Y-84381680D01*
X67096963Y-84491994D01*
X67176315Y-84588685D01*
X67273006Y-84668037D01*
X67383320Y-84727002D01*
X67503018Y-84763312D01*
X67627500Y-84775572D01*
X68294250Y-84772500D01*
X68453000Y-84613750D01*
X68453000Y-83312000D01*
X67151250Y-83312000D01*
X66992500Y-83470750D01*
X66989428Y-84137500D01*
X63150446Y-84137500D01*
X63182500Y-83976355D01*
X63182500Y-83663645D01*
X63121493Y-83356943D01*
X63001824Y-83068037D01*
X62828092Y-82808028D01*
X62606972Y-82586908D01*
X62346963Y-82413176D01*
X62058057Y-82293507D01*
X61751355Y-82232500D01*
X66989428Y-82232500D01*
X66992500Y-82899250D01*
X67151250Y-83058000D01*
X68453000Y-83058000D01*
X68453000Y-81756250D01*
X68707000Y-81756250D01*
X68707000Y-83058000D01*
X68727000Y-83058000D01*
X68727000Y-83312000D01*
X68707000Y-83312000D01*
X68707000Y-84613750D01*
X68865750Y-84772500D01*
X69532500Y-84775572D01*
X69656982Y-84763312D01*
X69776680Y-84727002D01*
X69886994Y-84668037D01*
X69983685Y-84588685D01*
X70063037Y-84491994D01*
X70104451Y-84414515D01*
X70108028Y-84418092D01*
X70368037Y-84591824D01*
X70656943Y-84711493D01*
X70963645Y-84772500D01*
X71276355Y-84772500D01*
X71583057Y-84711493D01*
X71871963Y-84591824D01*
X72131972Y-84418092D01*
X72353092Y-84196972D01*
X72392830Y-84137500D01*
X73867215Y-84137500D01*
X73914000Y-84142108D01*
X73960785Y-84137500D01*
X74100723Y-84123717D01*
X74280269Y-84069252D01*
X74445741Y-83980806D01*
X74590778Y-83861778D01*
X74620607Y-83825431D01*
X76586436Y-81859603D01*
X76622778Y-81829778D01*
X76741806Y-81684741D01*
X76773932Y-81624637D01*
X76822585Y-81697451D01*
X77040134Y-81915000D01*
X76822585Y-82132549D01*
X76641903Y-82402958D01*
X76517447Y-82703421D01*
X76454000Y-83022391D01*
X76454000Y-83347609D01*
X76517447Y-83666579D01*
X76641903Y-83967042D01*
X76822585Y-84237451D01*
X77052549Y-84467415D01*
X77322958Y-84648097D01*
X77623421Y-84772553D01*
X77942391Y-84836000D01*
X78267609Y-84836000D01*
X78586579Y-84772553D01*
X78887042Y-84648097D01*
X79157451Y-84467415D01*
X79304866Y-84320000D01*
X79446249Y-84320000D01*
X79502000Y-84325491D01*
X79557751Y-84320000D01*
X79557752Y-84320000D01*
X79724499Y-84303577D01*
X79938447Y-84238676D01*
X79945563Y-84234872D01*
X83299997Y-84234872D01*
X83299997Y-84675128D01*
X83385887Y-85106925D01*
X83554366Y-85513669D01*
X83798959Y-85879729D01*
X84110268Y-86191038D01*
X84476328Y-86435631D01*
X84883072Y-86604110D01*
X85314869Y-86690000D01*
X85755125Y-86690000D01*
X86186922Y-86604110D01*
X86593666Y-86435631D01*
X86959726Y-86191038D01*
X87271035Y-85879729D01*
X87515628Y-85513669D01*
X87684107Y-85106925D01*
X87769997Y-84675128D01*
X87769997Y-84234872D01*
X87684107Y-83803075D01*
X87515628Y-83396331D01*
X87271035Y-83030271D01*
X86959726Y-82718962D01*
X86593666Y-82474369D01*
X86186922Y-82305890D01*
X85755125Y-82220000D01*
X85314869Y-82220000D01*
X84883072Y-82305890D01*
X84476328Y-82474369D01*
X84110268Y-82718962D01*
X83798959Y-83030271D01*
X83554366Y-83396331D01*
X83385887Y-83803075D01*
X83299997Y-84234872D01*
X79945563Y-84234872D01*
X80135623Y-84133284D01*
X80308449Y-83991449D01*
X80343995Y-83948136D01*
X81154140Y-83137992D01*
X81197449Y-83102449D01*
X81339284Y-82929623D01*
X81444676Y-82732447D01*
X81509577Y-82518499D01*
X81526000Y-82351752D01*
X81531491Y-82296000D01*
X81526000Y-82240248D01*
X81526000Y-78136425D01*
X81767958Y-78298097D01*
X82068421Y-78422553D01*
X82387391Y-78486000D01*
X82712609Y-78486000D01*
X83031579Y-78422553D01*
X83332042Y-78298097D01*
X83602451Y-78117415D01*
X83832415Y-77887451D01*
X84013097Y-77617042D01*
X84137553Y-77316579D01*
X84201000Y-76997609D01*
X84201000Y-76672391D01*
X84137553Y-76353421D01*
X84013097Y-76052958D01*
X83832415Y-75782549D01*
X83614866Y-75565000D01*
X83832415Y-75347451D01*
X84013097Y-75077042D01*
X84137553Y-74776579D01*
X84201000Y-74457609D01*
X84201000Y-74132391D01*
X84137553Y-73813421D01*
X84013097Y-73512958D01*
X83832415Y-73242549D01*
X83602451Y-73012585D01*
X83332042Y-72831903D01*
X83031579Y-72707447D01*
X82712609Y-72644000D01*
X82387391Y-72644000D01*
X82068421Y-72707447D01*
X81767958Y-72831903D01*
X81526000Y-72993575D01*
X81526000Y-70516425D01*
X81767958Y-70678097D01*
X82068421Y-70802553D01*
X82387391Y-70866000D01*
X82712609Y-70866000D01*
X83031579Y-70802553D01*
X83332042Y-70678097D01*
X83602451Y-70497415D01*
X83832415Y-70267451D01*
X84013097Y-69997042D01*
X84137553Y-69696579D01*
X84201000Y-69377609D01*
X84201000Y-69052391D01*
X84137553Y-68733421D01*
X84013097Y-68432958D01*
X83832415Y-68162549D01*
X83614866Y-67945000D01*
X83832415Y-67727451D01*
X84013097Y-67457042D01*
X84137553Y-67156579D01*
X84201000Y-66837609D01*
X84201000Y-66512391D01*
X84137553Y-66193421D01*
X84013097Y-65892958D01*
X83832415Y-65622549D01*
X83602451Y-65392585D01*
X83332042Y-65211903D01*
X83031579Y-65087447D01*
X82712609Y-65024000D01*
X82387391Y-65024000D01*
X82068421Y-65087447D01*
X81767958Y-65211903D01*
X81526000Y-65373575D01*
X81526000Y-65206743D01*
X81531490Y-65150999D01*
X81526000Y-65095255D01*
X81526000Y-65095248D01*
X81509577Y-64928501D01*
X81444676Y-64714553D01*
X81339284Y-64517377D01*
X81197449Y-64344551D01*
X81154141Y-64309009D01*
X79756000Y-62910869D01*
X79756000Y-62702391D01*
X79692553Y-62383421D01*
X79568097Y-62082958D01*
X79387415Y-61812549D01*
X79169866Y-61595000D01*
X79387415Y-61377451D01*
X79568097Y-61107042D01*
X79692553Y-60806579D01*
X79756000Y-60487609D01*
X79756000Y-60162391D01*
X79692553Y-59843421D01*
X79568097Y-59542958D01*
X79387415Y-59272549D01*
X79349738Y-59234872D01*
X83299997Y-59234872D01*
X83299997Y-59675128D01*
X83385887Y-60106925D01*
X83554366Y-60513669D01*
X83798959Y-60879729D01*
X84110268Y-61191038D01*
X84476328Y-61435631D01*
X84883072Y-61604110D01*
X85314869Y-61690000D01*
X85755125Y-61690000D01*
X86186922Y-61604110D01*
X86593666Y-61435631D01*
X86959726Y-61191038D01*
X87271035Y-60879729D01*
X87515628Y-60513669D01*
X87684107Y-60106925D01*
X87769997Y-59675128D01*
X87769997Y-59234872D01*
X87684107Y-58803075D01*
X87515628Y-58396331D01*
X87271035Y-58030271D01*
X86959726Y-57718962D01*
X86593666Y-57474369D01*
X86186922Y-57305890D01*
X85755125Y-57220000D01*
X85314869Y-57220000D01*
X84883072Y-57305890D01*
X84476328Y-57474369D01*
X84110268Y-57718962D01*
X83798959Y-58030271D01*
X83554366Y-58396331D01*
X83385887Y-58803075D01*
X83299997Y-59234872D01*
X79349738Y-59234872D01*
X79157451Y-59042585D01*
X78887042Y-58861903D01*
X78586579Y-58737447D01*
X78267609Y-58674000D01*
X77942391Y-58674000D01*
X77623421Y-58737447D01*
X77322958Y-58861903D01*
X77052549Y-59042585D01*
X76822585Y-59272549D01*
X76641903Y-59542958D01*
X76517447Y-59843421D01*
X76454000Y-60162391D01*
X76454000Y-60487609D01*
X76517447Y-60806579D01*
X76641903Y-61107042D01*
X76822585Y-61377451D01*
X77040134Y-61595000D01*
X76822585Y-61812549D01*
X76641903Y-62082958D01*
X76517447Y-62383421D01*
X76454000Y-62702391D01*
X76454000Y-62787962D01*
X75255607Y-61589569D01*
X75225778Y-61553222D01*
X75080741Y-61434194D01*
X74915269Y-61345748D01*
X74735723Y-61291283D01*
X74595785Y-61277500D01*
X74549000Y-61272892D01*
X74502215Y-61277500D01*
X73027830Y-61277500D01*
X72988092Y-61218028D01*
X72766972Y-60996908D01*
X72711735Y-60960000D01*
X72766972Y-60923092D01*
X72988092Y-60701972D01*
X73161824Y-60441963D01*
X73281493Y-60153057D01*
X73342500Y-59846355D01*
X73342500Y-59533645D01*
X73281493Y-59226943D01*
X73161824Y-58938037D01*
X72988092Y-58678028D01*
X72766972Y-58456908D01*
X72506963Y-58283176D01*
X72218057Y-58163507D01*
X71911355Y-58102500D01*
X71598645Y-58102500D01*
X71291943Y-58163507D01*
X71003037Y-58283176D01*
X70743028Y-58456908D01*
X70521908Y-58678028D01*
X70348176Y-58938037D01*
X70228507Y-59226943D01*
X70167500Y-59533645D01*
X70167500Y-59846355D01*
X70228507Y-60153057D01*
X70348176Y-60441963D01*
X70521908Y-60701972D01*
X70743028Y-60923092D01*
X70798265Y-60960000D01*
X70743028Y-60996908D01*
X70739451Y-61000485D01*
X70698037Y-60923006D01*
X70618685Y-60826315D01*
X70521994Y-60746963D01*
X70411680Y-60687998D01*
X70291982Y-60651688D01*
X70167500Y-60639428D01*
X69500750Y-60642500D01*
X69342000Y-60801250D01*
X69342000Y-62103000D01*
X69362000Y-62103000D01*
X69362000Y-62357000D01*
X69342000Y-62357000D01*
X69342000Y-63658750D01*
X69500750Y-63817500D01*
X70167500Y-63820572D01*
X70291982Y-63808312D01*
X70411680Y-63772002D01*
X70521994Y-63713037D01*
X70618685Y-63633685D01*
X70698037Y-63536994D01*
X70739451Y-63459515D01*
X70743028Y-63463092D01*
X71003037Y-63636824D01*
X71291943Y-63756493D01*
X71598645Y-63817500D01*
X71911355Y-63817500D01*
X72218057Y-63756493D01*
X72506963Y-63636824D01*
X72766972Y-63463092D01*
X72988092Y-63241972D01*
X73027830Y-63182500D01*
X74154462Y-63182500D01*
X76059461Y-65087500D01*
X76043645Y-65087500D01*
X75736943Y-65148507D01*
X75448037Y-65268176D01*
X75188028Y-65441908D01*
X74966908Y-65663028D01*
X74793176Y-65923037D01*
X74673507Y-66211943D01*
X74612500Y-66518645D01*
X74612500Y-66831355D01*
X74673507Y-67138057D01*
X74793176Y-67426963D01*
X74966908Y-67686972D01*
X75188028Y-67908092D01*
X75243265Y-67945000D01*
X75188028Y-67981908D01*
X75184451Y-67985485D01*
X75143037Y-67908006D01*
X75063685Y-67811315D01*
X74966994Y-67731963D01*
X74856680Y-67672998D01*
X74736982Y-67636688D01*
X74612500Y-67624428D01*
X73945750Y-67627500D01*
X73787000Y-67786250D01*
X73787000Y-69088000D01*
X73807000Y-69088000D01*
X73807000Y-69342000D01*
X73787000Y-69342000D01*
X73787000Y-70643750D01*
X73945750Y-70802500D01*
X74612500Y-70805572D01*
X74736982Y-70793312D01*
X74856680Y-70757002D01*
X74966994Y-70698037D01*
X75063685Y-70618685D01*
X75143037Y-70521994D01*
X75184451Y-70444515D01*
X75188028Y-70448092D01*
X75448037Y-70621824D01*
X75736943Y-70741493D01*
X76043645Y-70802500D01*
X76356355Y-70802500D01*
X76663057Y-70741493D01*
X76951963Y-70621824D01*
X77211972Y-70448092D01*
X77433092Y-70226972D01*
X77472830Y-70167500D01*
X77660501Y-70167500D01*
X77660500Y-73037623D01*
X77606824Y-72908037D01*
X77433092Y-72648028D01*
X77211972Y-72426908D01*
X76951963Y-72253176D01*
X76663057Y-72133507D01*
X76356355Y-72072500D01*
X76043645Y-72072500D01*
X75736943Y-72133507D01*
X75448037Y-72253176D01*
X75188028Y-72426908D01*
X74966908Y-72648028D01*
X74793176Y-72908037D01*
X74673507Y-73196943D01*
X74612500Y-73503645D01*
X74612500Y-73816355D01*
X74673507Y-74123057D01*
X74793176Y-74411963D01*
X74966908Y-74671972D01*
X75188028Y-74893092D01*
X75243265Y-74930000D01*
X75188028Y-74966908D01*
X75184451Y-74970485D01*
X75143037Y-74893006D01*
X75063685Y-74796315D01*
X74966994Y-74716963D01*
X74856680Y-74657998D01*
X74736982Y-74621688D01*
X74612500Y-74609428D01*
X73945750Y-74612500D01*
X73787000Y-74771250D01*
X73787000Y-76073000D01*
X73807000Y-76073000D01*
X73807000Y-76327000D01*
X73787000Y-76327000D01*
X73787000Y-77628750D01*
X73945750Y-77787500D01*
X74612500Y-77790572D01*
X74736982Y-77778312D01*
X74856680Y-77742002D01*
X74966994Y-77683037D01*
X75063685Y-77603685D01*
X75143037Y-77506994D01*
X75184451Y-77429515D01*
X75188028Y-77433092D01*
X75448037Y-77606824D01*
X75736943Y-77726493D01*
X76043645Y-77787500D01*
X76356355Y-77787500D01*
X76619881Y-77735081D01*
X75305565Y-79049397D01*
X75269223Y-79079222D01*
X75239399Y-79115563D01*
X75150194Y-79224260D01*
X75061749Y-79389731D01*
X75007283Y-79569278D01*
X74988892Y-79756000D01*
X74993501Y-79802794D01*
X74993500Y-80758461D01*
X73519462Y-82232500D01*
X72392830Y-82232500D01*
X72353092Y-82173028D01*
X72131972Y-81951908D01*
X72076735Y-81915000D01*
X72131972Y-81878092D01*
X72353092Y-81656972D01*
X72526824Y-81396963D01*
X72646493Y-81108057D01*
X72707500Y-80801355D01*
X72707500Y-80488645D01*
X72646493Y-80181943D01*
X72526824Y-79893037D01*
X72353092Y-79633028D01*
X72131972Y-79411908D01*
X71871963Y-79238176D01*
X71583057Y-79118507D01*
X71276355Y-79057500D01*
X70963645Y-79057500D01*
X70656943Y-79118507D01*
X70368037Y-79238176D01*
X70108028Y-79411908D01*
X69886908Y-79633028D01*
X69713176Y-79893037D01*
X69593507Y-80181943D01*
X69532500Y-80488645D01*
X69532500Y-80801355D01*
X69593507Y-81108057D01*
X69713176Y-81396963D01*
X69886908Y-81656972D01*
X70108028Y-81878092D01*
X70163265Y-81915000D01*
X70108028Y-81951908D01*
X70104451Y-81955485D01*
X70063037Y-81878006D01*
X69983685Y-81781315D01*
X69886994Y-81701963D01*
X69776680Y-81642998D01*
X69656982Y-81606688D01*
X69532500Y-81594428D01*
X68865750Y-81597500D01*
X68707000Y-81756250D01*
X68453000Y-81756250D01*
X68294250Y-81597500D01*
X67627500Y-81594428D01*
X67503018Y-81606688D01*
X67383320Y-81642998D01*
X67273006Y-81701963D01*
X67176315Y-81781315D01*
X67096963Y-81878006D01*
X67037998Y-81988320D01*
X67001688Y-82108018D01*
X66989428Y-82232500D01*
X61751355Y-82232500D01*
X61438645Y-82232500D01*
X61131943Y-82293507D01*
X60843037Y-82413176D01*
X60583028Y-82586908D01*
X60361908Y-82808028D01*
X60188176Y-83068037D01*
X60068507Y-83356943D01*
X60007500Y-83663645D01*
X58159455Y-83663645D01*
X58169072Y-83566000D01*
X58169072Y-81534000D01*
X58156812Y-81409518D01*
X58120502Y-81289820D01*
X58061537Y-81179506D01*
X57982185Y-81082815D01*
X57885494Y-81003463D01*
X57775180Y-80944498D01*
X57761896Y-80940468D01*
X57927860Y-80879522D01*
X58070348Y-80587179D01*
X58153064Y-80272656D01*
X58172831Y-79948038D01*
X58158308Y-79841535D01*
X60673070Y-79841535D01*
X60763098Y-80101081D01*
X61044616Y-80237224D01*
X61347286Y-80315829D01*
X61659474Y-80333877D01*
X61969185Y-80290672D01*
X62264516Y-80187877D01*
X62426902Y-80101081D01*
X62516930Y-79841535D01*
X61595000Y-78919605D01*
X60673070Y-79841535D01*
X58158308Y-79841535D01*
X58128888Y-79625802D01*
X58022924Y-79318330D01*
X57927860Y-79140478D01*
X57661823Y-79042782D01*
X56694605Y-80010000D01*
X56708748Y-80024143D01*
X56529143Y-80203748D01*
X56515000Y-80189605D01*
X56500858Y-80203748D01*
X56321253Y-80024143D01*
X56335395Y-80010000D01*
X55368177Y-79042782D01*
X55102140Y-79140478D01*
X54959652Y-79432821D01*
X54876936Y-79747344D01*
X54857169Y-80071962D01*
X49279072Y-80071962D01*
X49279072Y-78863177D01*
X55547782Y-78863177D01*
X56515000Y-79830395D01*
X57482218Y-78863177D01*
X57460661Y-78804474D01*
X60001123Y-78804474D01*
X60044328Y-79114185D01*
X60147123Y-79409516D01*
X60233919Y-79571902D01*
X60493465Y-79661930D01*
X61415395Y-78740000D01*
X61774605Y-78740000D01*
X62696535Y-79661930D01*
X62956081Y-79571902D01*
X63092224Y-79290384D01*
X63170829Y-78987714D01*
X63188877Y-78675526D01*
X63145672Y-78365815D01*
X63042877Y-78070484D01*
X62956081Y-77908098D01*
X62696535Y-77818070D01*
X61774605Y-78740000D01*
X61415395Y-78740000D01*
X60493465Y-77818070D01*
X60233919Y-77908098D01*
X60097776Y-78189616D01*
X60019171Y-78492286D01*
X60001123Y-78804474D01*
X57460661Y-78804474D01*
X57384522Y-78597140D01*
X57092179Y-78454652D01*
X56777656Y-78371936D01*
X56453038Y-78352169D01*
X56130802Y-78396112D01*
X55823330Y-78502076D01*
X55645478Y-78597140D01*
X55547782Y-78863177D01*
X49279072Y-78863177D01*
X49279072Y-78359000D01*
X49266812Y-78234518D01*
X49230502Y-78114820D01*
X49171537Y-78004506D01*
X49092185Y-77907815D01*
X48995494Y-77828463D01*
X48885180Y-77769498D01*
X48765482Y-77733188D01*
X48641000Y-77720928D01*
X46609000Y-77720928D01*
X46484518Y-77733188D01*
X46364820Y-77769498D01*
X46254506Y-77828463D01*
X46157815Y-77907815D01*
X46106102Y-77970828D01*
X45906745Y-77837623D01*
X45591028Y-77706848D01*
X45255865Y-77640180D01*
X44914135Y-77640180D01*
X44578972Y-77706848D01*
X44263255Y-77837623D01*
X43979117Y-78027477D01*
X43737477Y-78269117D01*
X43547623Y-78553255D01*
X43416848Y-78868972D01*
X43350180Y-79204135D01*
X35719990Y-79204135D01*
X35719990Y-77638465D01*
X60673070Y-77638465D01*
X61595000Y-78560395D01*
X62516930Y-77638465D01*
X62426902Y-77378919D01*
X62145384Y-77242776D01*
X61842714Y-77164171D01*
X61530526Y-77146123D01*
X61220815Y-77189328D01*
X60925484Y-77292123D01*
X60763098Y-77378919D01*
X60673070Y-77638465D01*
X35719990Y-77638465D01*
X35719990Y-75912060D01*
X43984990Y-75912060D01*
X44001672Y-75991996D01*
X44111159Y-76249646D01*
X44268808Y-76480986D01*
X44468560Y-76677125D01*
X44702738Y-76830526D01*
X44962344Y-76935293D01*
X45237400Y-76987400D01*
X45593000Y-76987400D01*
X45593000Y-75692000D01*
X45847000Y-75692000D01*
X45847000Y-76987400D01*
X46202600Y-76987400D01*
X46477656Y-76935293D01*
X46737262Y-76830526D01*
X46971440Y-76677125D01*
X47171192Y-76480986D01*
X47328841Y-76249646D01*
X47438328Y-75991996D01*
X47455010Y-75912060D01*
X47332852Y-75692000D01*
X45847000Y-75692000D01*
X45593000Y-75692000D01*
X44107148Y-75692000D01*
X43984990Y-75912060D01*
X35719990Y-75912060D01*
X35719990Y-70546962D01*
X40252169Y-70546962D01*
X40296112Y-70869198D01*
X40402076Y-71176670D01*
X40497140Y-71354522D01*
X40663104Y-71415468D01*
X40649820Y-71419498D01*
X40539506Y-71478463D01*
X40442815Y-71557815D01*
X40363463Y-71654506D01*
X40304498Y-71764820D01*
X40268188Y-71884518D01*
X40255928Y-72009000D01*
X40255928Y-74041000D01*
X40268188Y-74165482D01*
X40304498Y-74285180D01*
X40363463Y-74395494D01*
X40442815Y-74492185D01*
X40539506Y-74571537D01*
X40649820Y-74630502D01*
X40769518Y-74666812D01*
X40894000Y-74679072D01*
X42926000Y-74679072D01*
X43050482Y-74666812D01*
X43170180Y-74630502D01*
X43280494Y-74571537D01*
X43377185Y-74492185D01*
X43456537Y-74395494D01*
X43515502Y-74285180D01*
X43551812Y-74165482D01*
X43564072Y-74041000D01*
X43564072Y-73977500D01*
X44306018Y-73977500D01*
X44353745Y-74035655D01*
X44570333Y-74213405D01*
X44719045Y-74292893D01*
X44702738Y-74299474D01*
X44468560Y-74452875D01*
X44268808Y-74649014D01*
X44111159Y-74880354D01*
X44001672Y-75138004D01*
X43984990Y-75217940D01*
X44107148Y-75438000D01*
X45593000Y-75438000D01*
X45593000Y-75418000D01*
X45847000Y-75418000D01*
X45847000Y-75438000D01*
X47332852Y-75438000D01*
X47455010Y-75217940D01*
X47438328Y-75138004D01*
X47328841Y-74880354D01*
X47171192Y-74649014D01*
X46971440Y-74452875D01*
X46737262Y-74299474D01*
X46720955Y-74292893D01*
X46869667Y-74213405D01*
X47086255Y-74035655D01*
X47264005Y-73819067D01*
X47396084Y-73571963D01*
X47477419Y-73303839D01*
X47504882Y-73025000D01*
X47477419Y-72746161D01*
X47396084Y-72478037D01*
X47264005Y-72230933D01*
X47086255Y-72014345D01*
X46869667Y-71836595D01*
X46717013Y-71755000D01*
X46869667Y-71673405D01*
X47086255Y-71495655D01*
X47264005Y-71279067D01*
X47396084Y-71031963D01*
X47477419Y-70763839D01*
X47504882Y-70485000D01*
X47477419Y-70206161D01*
X47396084Y-69938037D01*
X47264005Y-69690933D01*
X47086255Y-69474345D01*
X46949326Y-69361970D01*
X46987482Y-69358212D01*
X47107180Y-69321902D01*
X47217494Y-69262937D01*
X47314185Y-69183585D01*
X47393537Y-69086894D01*
X47452502Y-68976580D01*
X47488812Y-68856882D01*
X47501072Y-68732400D01*
X47501072Y-67157600D01*
X47488812Y-67033118D01*
X47452502Y-66913420D01*
X47393537Y-66803106D01*
X47314185Y-66706415D01*
X47217494Y-66627063D01*
X47107180Y-66568098D01*
X46987482Y-66531788D01*
X46863000Y-66519528D01*
X46672500Y-66519528D01*
X46672500Y-66390190D01*
X46827391Y-66421000D01*
X47152609Y-66421000D01*
X47471579Y-66357553D01*
X47772042Y-66233097D01*
X48042451Y-66052415D01*
X48272415Y-65822451D01*
X48453097Y-65552042D01*
X48577553Y-65251579D01*
X48641000Y-64932609D01*
X48641000Y-64607391D01*
X48577553Y-64288421D01*
X48453097Y-63987958D01*
X48272415Y-63717549D01*
X48042451Y-63487585D01*
X47772042Y-63306903D01*
X47471579Y-63182447D01*
X47152609Y-63119000D01*
X46827391Y-63119000D01*
X46508421Y-63182447D01*
X46207958Y-63306903D01*
X45937549Y-63487585D01*
X45707585Y-63717549D01*
X45526903Y-63987958D01*
X45402447Y-64288421D01*
X45380821Y-64397141D01*
X45079565Y-64698397D01*
X45043223Y-64728222D01*
X45013399Y-64764563D01*
X44924194Y-64873260D01*
X44835749Y-65038731D01*
X44781283Y-65218278D01*
X44762892Y-65405000D01*
X44767501Y-65451794D01*
X44767501Y-66519528D01*
X44577000Y-66519528D01*
X44452518Y-66531788D01*
X44332820Y-66568098D01*
X44222506Y-66627063D01*
X44125815Y-66706415D01*
X44046463Y-66803106D01*
X43987498Y-66913420D01*
X43951188Y-67033118D01*
X43938928Y-67157600D01*
X43938928Y-68372890D01*
X43561000Y-67994962D01*
X43561000Y-67782391D01*
X43497553Y-67463421D01*
X43373097Y-67162958D01*
X43192415Y-66892549D01*
X42962451Y-66662585D01*
X42692042Y-66481903D01*
X42391579Y-66357447D01*
X42072609Y-66294000D01*
X41747391Y-66294000D01*
X41428421Y-66357447D01*
X41127958Y-66481903D01*
X40857549Y-66662585D01*
X40627585Y-66892549D01*
X40446903Y-67162958D01*
X40322447Y-67463421D01*
X40259000Y-67782391D01*
X40259000Y-68107609D01*
X40322447Y-68426579D01*
X40446903Y-68727042D01*
X40627585Y-68997451D01*
X40857549Y-69227415D01*
X40958649Y-69294968D01*
X40942782Y-69338177D01*
X41910000Y-70305395D01*
X41924143Y-70291253D01*
X42103748Y-70470858D01*
X42089605Y-70485000D01*
X42103748Y-70499143D01*
X41924143Y-70678748D01*
X41910000Y-70664605D01*
X41895858Y-70678748D01*
X41716253Y-70499143D01*
X41730395Y-70485000D01*
X40763177Y-69517782D01*
X40497140Y-69615478D01*
X40354652Y-69907821D01*
X40271936Y-70222344D01*
X40252169Y-70546962D01*
X35719990Y-70546962D01*
X35719990Y-59234873D01*
X37299997Y-59234873D01*
X37299997Y-59675129D01*
X37385887Y-60106926D01*
X37554366Y-60513670D01*
X37798959Y-60879730D01*
X38110268Y-61191039D01*
X38476328Y-61435632D01*
X38883072Y-61604111D01*
X39314869Y-61690001D01*
X39755125Y-61690001D01*
X40186922Y-61604111D01*
X40593666Y-61435632D01*
X40959726Y-61191039D01*
X41271035Y-60879730D01*
X41299704Y-60836823D01*
X46022782Y-60836823D01*
X46120478Y-61102860D01*
X46412821Y-61245348D01*
X46727344Y-61328064D01*
X47051962Y-61347831D01*
X47374198Y-61303888D01*
X47681670Y-61197924D01*
X47859522Y-61102860D01*
X47957218Y-60836823D01*
X46990000Y-59869605D01*
X46022782Y-60836823D01*
X41299704Y-60836823D01*
X41515628Y-60513670D01*
X41684107Y-60106926D01*
X41754713Y-59751962D01*
X45332169Y-59751962D01*
X45376112Y-60074198D01*
X45482076Y-60381670D01*
X45577140Y-60559522D01*
X45843177Y-60657218D01*
X46810395Y-59690000D01*
X47169605Y-59690000D01*
X48136823Y-60657218D01*
X48402860Y-60559522D01*
X48455266Y-60452000D01*
X48826892Y-60452000D01*
X48831501Y-60498795D01*
X48831500Y-73613215D01*
X48826892Y-73660000D01*
X48831500Y-73706784D01*
X48845283Y-73846722D01*
X48899748Y-74026268D01*
X48988194Y-74191741D01*
X49107222Y-74336778D01*
X49143569Y-74366607D01*
X50982397Y-76205436D01*
X51012222Y-76241778D01*
X51157259Y-76360806D01*
X51322731Y-76449252D01*
X51502277Y-76503717D01*
X51689000Y-76522108D01*
X51735785Y-76517500D01*
X51926018Y-76517500D01*
X51973745Y-76575655D01*
X52190333Y-76753405D01*
X52437437Y-76885484D01*
X52705561Y-76966819D01*
X52914525Y-76987400D01*
X53765475Y-76987400D01*
X53974439Y-76966819D01*
X54242563Y-76885484D01*
X54489667Y-76753405D01*
X54706255Y-76575655D01*
X54884005Y-76359067D01*
X55016084Y-76111963D01*
X55097419Y-75843839D01*
X55124882Y-75565000D01*
X55097419Y-75286161D01*
X55016084Y-75018037D01*
X54884005Y-74770933D01*
X54706255Y-74554345D01*
X54489667Y-74376595D01*
X54337013Y-74295000D01*
X54489667Y-74213405D01*
X54706255Y-74035655D01*
X54753982Y-73977500D01*
X57705800Y-73977500D01*
X57591903Y-74147958D01*
X57467447Y-74448421D01*
X57404000Y-74767391D01*
X57404000Y-75092609D01*
X57467447Y-75411579D01*
X57591903Y-75712042D01*
X57772585Y-75982451D01*
X58002549Y-76212415D01*
X58272958Y-76393097D01*
X58573421Y-76517553D01*
X58892391Y-76581000D01*
X59217609Y-76581000D01*
X59536579Y-76517553D01*
X59837042Y-76393097D01*
X60107451Y-76212415D01*
X60325000Y-75994866D01*
X60542549Y-76212415D01*
X60812958Y-76393097D01*
X61113421Y-76517553D01*
X61432391Y-76581000D01*
X61757609Y-76581000D01*
X62076579Y-76517553D01*
X62377042Y-76393097D01*
X62647451Y-76212415D01*
X62865000Y-75994866D01*
X63082549Y-76212415D01*
X63352958Y-76393097D01*
X63653421Y-76517553D01*
X63972391Y-76581000D01*
X64297609Y-76581000D01*
X64616579Y-76517553D01*
X64917042Y-76393097D01*
X65187451Y-76212415D01*
X65417415Y-75982451D01*
X65598097Y-75712042D01*
X65722553Y-75411579D01*
X65786000Y-75092609D01*
X65786000Y-74767391D01*
X65722553Y-74448421D01*
X65598097Y-74147958D01*
X65417415Y-73877549D01*
X65187451Y-73647585D01*
X64917042Y-73466903D01*
X64616579Y-73342447D01*
X64297609Y-73279000D01*
X63972391Y-73279000D01*
X63653421Y-73342447D01*
X63352958Y-73466903D01*
X63082549Y-73647585D01*
X62865000Y-73865134D01*
X62647451Y-73647585D01*
X62522803Y-73564297D01*
X62493258Y-73466903D01*
X62479252Y-73420730D01*
X62416772Y-73303839D01*
X62390806Y-73255259D01*
X62271778Y-73110222D01*
X62235436Y-73080397D01*
X61539607Y-72384569D01*
X61509778Y-72348222D01*
X61364741Y-72229194D01*
X61199269Y-72140748D01*
X61019723Y-72086283D01*
X60879785Y-72072500D01*
X61548215Y-72072500D01*
X61595000Y-72077108D01*
X61641785Y-72072500D01*
X61781723Y-72058717D01*
X61961269Y-72004252D01*
X62126741Y-71915806D01*
X62271778Y-71796778D01*
X62301607Y-71760431D01*
X63442177Y-70619861D01*
X63477985Y-70799878D01*
X63559360Y-70996335D01*
X63677498Y-71173141D01*
X63827859Y-71323502D01*
X64004665Y-71441640D01*
X64201122Y-71523015D01*
X64409679Y-71564500D01*
X64622321Y-71564500D01*
X64830878Y-71523015D01*
X65027335Y-71441640D01*
X65204141Y-71323502D01*
X65354502Y-71173141D01*
X65472640Y-70996335D01*
X65554015Y-70799878D01*
X65555469Y-70792569D01*
X67028540Y-69319499D01*
X67001688Y-69408018D01*
X66989428Y-69532500D01*
X66989428Y-71437500D01*
X67001688Y-71561982D01*
X67037998Y-71681680D01*
X67096963Y-71791994D01*
X67176315Y-71888685D01*
X67273006Y-71968037D01*
X67383320Y-72027002D01*
X67503018Y-72063312D01*
X67627500Y-72075572D01*
X68725877Y-72075572D01*
X68432958Y-72196903D01*
X68162549Y-72377585D01*
X67932585Y-72607549D01*
X67751903Y-72877958D01*
X67627447Y-73178421D01*
X67564000Y-73497391D01*
X67564000Y-73822609D01*
X67627447Y-74141579D01*
X67751903Y-74442042D01*
X67932585Y-74712451D01*
X68150134Y-74930000D01*
X67932585Y-75147549D01*
X67751903Y-75417958D01*
X67627447Y-75718421D01*
X67564000Y-76037391D01*
X67564000Y-76362609D01*
X67627447Y-76681579D01*
X67751903Y-76982042D01*
X67932585Y-77252451D01*
X68162549Y-77482415D01*
X68432958Y-77663097D01*
X68733421Y-77787553D01*
X69052391Y-77851000D01*
X69377609Y-77851000D01*
X69696579Y-77787553D01*
X69997042Y-77663097D01*
X70267451Y-77482415D01*
X70497415Y-77252451D01*
X70564200Y-77152500D01*
X72069428Y-77152500D01*
X72081688Y-77276982D01*
X72117998Y-77396680D01*
X72176963Y-77506994D01*
X72256315Y-77603685D01*
X72353006Y-77683037D01*
X72463320Y-77742002D01*
X72583018Y-77778312D01*
X72707500Y-77790572D01*
X73374250Y-77787500D01*
X73533000Y-77628750D01*
X73533000Y-76327000D01*
X72231250Y-76327000D01*
X72072500Y-76485750D01*
X72069428Y-77152500D01*
X70564200Y-77152500D01*
X70678097Y-76982042D01*
X70802553Y-76681579D01*
X70866000Y-76362609D01*
X70866000Y-76037391D01*
X70802553Y-75718421D01*
X70678097Y-75417958D01*
X70564201Y-75247500D01*
X72069428Y-75247500D01*
X72072500Y-75914250D01*
X72231250Y-76073000D01*
X73533000Y-76073000D01*
X73533000Y-74771250D01*
X73374250Y-74612500D01*
X72707500Y-74609428D01*
X72583018Y-74621688D01*
X72463320Y-74657998D01*
X72353006Y-74716963D01*
X72256315Y-74796315D01*
X72176963Y-74893006D01*
X72117998Y-75003320D01*
X72081688Y-75123018D01*
X72069428Y-75247500D01*
X70564201Y-75247500D01*
X70497415Y-75147549D01*
X70279866Y-74930000D01*
X70497415Y-74712451D01*
X70678097Y-74442042D01*
X70802553Y-74141579D01*
X70866000Y-73822609D01*
X70866000Y-73497391D01*
X70802553Y-73178421D01*
X70678097Y-72877958D01*
X70497415Y-72607549D01*
X70267451Y-72377585D01*
X69997042Y-72196903D01*
X69696579Y-72072447D01*
X69652750Y-72063729D01*
X69656982Y-72063312D01*
X69776680Y-72027002D01*
X69886994Y-71968037D01*
X69983685Y-71888685D01*
X70063037Y-71791994D01*
X70122002Y-71681680D01*
X70158312Y-71561982D01*
X70170572Y-71437500D01*
X70170572Y-69532500D01*
X70158312Y-69408018D01*
X70122002Y-69288320D01*
X70063037Y-69178006D01*
X69983685Y-69081315D01*
X69886994Y-69001963D01*
X69809515Y-68960549D01*
X69813092Y-68956972D01*
X69850000Y-68901735D01*
X69886908Y-68956972D01*
X70108028Y-69178092D01*
X70368037Y-69351824D01*
X70656943Y-69471493D01*
X70963645Y-69532500D01*
X71276355Y-69532500D01*
X71583057Y-69471493D01*
X71871963Y-69351824D01*
X72072500Y-69217830D01*
X72072500Y-69342002D01*
X72231248Y-69342002D01*
X72072500Y-69500750D01*
X72069428Y-70167500D01*
X72081688Y-70291982D01*
X72117998Y-70411680D01*
X72176963Y-70521994D01*
X72256315Y-70618685D01*
X72353006Y-70698037D01*
X72463320Y-70757002D01*
X72583018Y-70793312D01*
X72707500Y-70805572D01*
X73374250Y-70802500D01*
X73533000Y-70643750D01*
X73533000Y-69342000D01*
X73513000Y-69342000D01*
X73513000Y-69088000D01*
X73533000Y-69088000D01*
X73533000Y-67786250D01*
X73374250Y-67627500D01*
X72707500Y-67624428D01*
X72675463Y-67627583D01*
X72646493Y-67481943D01*
X72526824Y-67193037D01*
X72353092Y-66933028D01*
X72131972Y-66711908D01*
X72063744Y-66666320D01*
X72058717Y-66615277D01*
X72004252Y-66435731D01*
X72004252Y-66435730D01*
X71954570Y-66342782D01*
X71915806Y-66270259D01*
X71796778Y-66125222D01*
X71760436Y-66095397D01*
X71064607Y-65399569D01*
X71034778Y-65363222D01*
X70889741Y-65244194D01*
X70724269Y-65155748D01*
X70544723Y-65101283D01*
X70404785Y-65087500D01*
X70358000Y-65082892D01*
X70311215Y-65087500D01*
X67737784Y-65087500D01*
X67690999Y-65082892D01*
X67565550Y-65095248D01*
X67504277Y-65101283D01*
X67324731Y-65155748D01*
X67159259Y-65244194D01*
X67014222Y-65363222D01*
X66984397Y-65399564D01*
X65907569Y-66476393D01*
X65871222Y-66506222D01*
X65752194Y-66651259D01*
X65694151Y-66759852D01*
X65598097Y-66527958D01*
X65417415Y-66257549D01*
X65187451Y-66027585D01*
X64917042Y-65846903D01*
X64616579Y-65722447D01*
X64297609Y-65659000D01*
X63972391Y-65659000D01*
X63653421Y-65722447D01*
X63352958Y-65846903D01*
X63082549Y-66027585D01*
X62852585Y-66257549D01*
X62785032Y-66358649D01*
X62741823Y-66342782D01*
X61774605Y-67310000D01*
X62741823Y-68277218D01*
X62785032Y-68261351D01*
X62852585Y-68362451D01*
X62929048Y-68438914D01*
X61200462Y-70167500D01*
X58245200Y-70167500D01*
X58359097Y-69997042D01*
X58483553Y-69696579D01*
X58547000Y-69377609D01*
X58547000Y-69052391D01*
X58511063Y-68871723D01*
X58573421Y-68897553D01*
X58892391Y-68961000D01*
X59217609Y-68961000D01*
X59536579Y-68897553D01*
X59837042Y-68773097D01*
X60107451Y-68592415D01*
X60243043Y-68456823D01*
X60627782Y-68456823D01*
X60725478Y-68722860D01*
X61017821Y-68865348D01*
X61332344Y-68948064D01*
X61656962Y-68967831D01*
X61979198Y-68923888D01*
X62286670Y-68817924D01*
X62464522Y-68722860D01*
X62562218Y-68456823D01*
X61595000Y-67489605D01*
X60627782Y-68456823D01*
X60243043Y-68456823D01*
X60337415Y-68362451D01*
X60404968Y-68261351D01*
X60448177Y-68277218D01*
X61415395Y-67310000D01*
X60448177Y-66342782D01*
X60404968Y-66358649D01*
X60337415Y-66257549D01*
X60243043Y-66163177D01*
X60627782Y-66163177D01*
X61595000Y-67130395D01*
X62562218Y-66163177D01*
X62464522Y-65897140D01*
X62172179Y-65754652D01*
X61857656Y-65671936D01*
X61533038Y-65652169D01*
X61210802Y-65696112D01*
X60903330Y-65802076D01*
X60725478Y-65897140D01*
X60627782Y-66163177D01*
X60243043Y-66163177D01*
X60107451Y-66027585D01*
X59837042Y-65846903D01*
X59536707Y-65722500D01*
X60659215Y-65722500D01*
X60706000Y-65727108D01*
X60752785Y-65722500D01*
X60892723Y-65708717D01*
X61072269Y-65654252D01*
X61237741Y-65565806D01*
X61382778Y-65446778D01*
X61412608Y-65410430D01*
X61608538Y-65214500D01*
X64723215Y-65214500D01*
X64770000Y-65219108D01*
X64816785Y-65214500D01*
X64956723Y-65200717D01*
X65136269Y-65146252D01*
X65301741Y-65057806D01*
X65446778Y-64938778D01*
X65476608Y-64902430D01*
X66045426Y-64333611D01*
X66081778Y-64303778D01*
X66200806Y-64158741D01*
X66268324Y-64032423D01*
X66289252Y-63993270D01*
X66321868Y-63885748D01*
X66343717Y-63813723D01*
X66357500Y-63673785D01*
X66357500Y-63673784D01*
X66362108Y-63627000D01*
X66357500Y-63580215D01*
X66357500Y-63307038D01*
X66482038Y-63182500D01*
X67624428Y-63182500D01*
X67636688Y-63306982D01*
X67672998Y-63426680D01*
X67731963Y-63536994D01*
X67811315Y-63633685D01*
X67908006Y-63713037D01*
X68018320Y-63772002D01*
X68138018Y-63808312D01*
X68262500Y-63820572D01*
X68929250Y-63817500D01*
X69088000Y-63658750D01*
X69088000Y-62357000D01*
X67786250Y-62357000D01*
X67627500Y-62515750D01*
X67624428Y-63182500D01*
X66482038Y-63182500D01*
X66519715Y-63144823D01*
X66676769Y-62909775D01*
X66784950Y-62648603D01*
X66840100Y-62371345D01*
X66840100Y-62088655D01*
X66784950Y-61811397D01*
X66676769Y-61550225D01*
X66519715Y-61315177D01*
X66482038Y-61277500D01*
X67624428Y-61277500D01*
X67627500Y-61944250D01*
X67786250Y-62103000D01*
X69088000Y-62103000D01*
X69088000Y-60801250D01*
X68929250Y-60642500D01*
X68262500Y-60639428D01*
X68138018Y-60651688D01*
X68018320Y-60687998D01*
X67908006Y-60746963D01*
X67811315Y-60826315D01*
X67731963Y-60923006D01*
X67672998Y-61033320D01*
X67636688Y-61153018D01*
X67624428Y-61277500D01*
X66482038Y-61277500D01*
X66319823Y-61115285D01*
X66086068Y-60959095D01*
X66146574Y-60926754D01*
X66218169Y-60682774D01*
X65405000Y-59869605D01*
X64591831Y-60682774D01*
X64663426Y-60926754D01*
X64727744Y-60957188D01*
X64725225Y-60958231D01*
X64490177Y-61115285D01*
X64290285Y-61315177D01*
X64135000Y-61547578D01*
X63979715Y-61315177D01*
X63779823Y-61115285D01*
X63547422Y-60960000D01*
X63779823Y-60804715D01*
X63979715Y-60604823D01*
X64135905Y-60371068D01*
X64168246Y-60431574D01*
X64412226Y-60503169D01*
X65225395Y-59690000D01*
X65584605Y-59690000D01*
X66397774Y-60503169D01*
X66641754Y-60431574D01*
X66762664Y-60176046D01*
X66831400Y-59901839D01*
X66845320Y-59619492D01*
X66803889Y-59339853D01*
X66708700Y-59073672D01*
X66641754Y-58948426D01*
X66397774Y-58876831D01*
X65584605Y-59690000D01*
X65225395Y-59690000D01*
X64412226Y-58876831D01*
X64168246Y-58948426D01*
X64137812Y-59012744D01*
X64136769Y-59010225D01*
X63979715Y-58775177D01*
X63901764Y-58697226D01*
X64591831Y-58697226D01*
X65405000Y-59510395D01*
X66218169Y-58697226D01*
X66146574Y-58453246D01*
X65891046Y-58332336D01*
X65616839Y-58263600D01*
X65334492Y-58249680D01*
X65054853Y-58291111D01*
X64788672Y-58386300D01*
X64663426Y-58453246D01*
X64591831Y-58697226D01*
X63901764Y-58697226D01*
X63817500Y-58612962D01*
X63817500Y-58466784D01*
X63822108Y-58419999D01*
X63803717Y-58233277D01*
X63749252Y-58053731D01*
X63660806Y-57888259D01*
X63541778Y-57743222D01*
X63505426Y-57713389D01*
X63190608Y-57398570D01*
X63160778Y-57362222D01*
X63015741Y-57243194D01*
X62850269Y-57154748D01*
X62670723Y-57100283D01*
X62530785Y-57086500D01*
X62484000Y-57081892D01*
X62437215Y-57086500D01*
X52243784Y-57086500D01*
X52196999Y-57081892D01*
X52074941Y-57093914D01*
X52010277Y-57100283D01*
X51830731Y-57154748D01*
X51665259Y-57243194D01*
X51520222Y-57362222D01*
X51490393Y-57398569D01*
X49143565Y-59745397D01*
X49107223Y-59775222D01*
X49077399Y-59811563D01*
X48988194Y-59920260D01*
X48899749Y-60085731D01*
X48845283Y-60265278D01*
X48826892Y-60452000D01*
X48455266Y-60452000D01*
X48545348Y-60267179D01*
X48628064Y-59952656D01*
X48647831Y-59628038D01*
X48603888Y-59305802D01*
X48497924Y-58998330D01*
X48402860Y-58820478D01*
X48136823Y-58722782D01*
X47169605Y-59690000D01*
X46810395Y-59690000D01*
X45843177Y-58722782D01*
X45577140Y-58820478D01*
X45434652Y-59112821D01*
X45351936Y-59427344D01*
X45332169Y-59751962D01*
X41754713Y-59751962D01*
X41769997Y-59675129D01*
X41769997Y-59234873D01*
X41684107Y-58803076D01*
X41576454Y-58543177D01*
X46022782Y-58543177D01*
X46990000Y-59510395D01*
X47957218Y-58543177D01*
X47859522Y-58277140D01*
X47567179Y-58134652D01*
X47252656Y-58051936D01*
X46928038Y-58032169D01*
X46605802Y-58076112D01*
X46298330Y-58182076D01*
X46120478Y-58277140D01*
X46022782Y-58543177D01*
X41576454Y-58543177D01*
X41515628Y-58396332D01*
X41271035Y-58030272D01*
X40959726Y-57718963D01*
X40593666Y-57474370D01*
X40186922Y-57305891D01*
X39755125Y-57220001D01*
X39314869Y-57220001D01*
X38883072Y-57305891D01*
X38476328Y-57474370D01*
X38110268Y-57718963D01*
X37798959Y-58030272D01*
X37554366Y-58396332D01*
X37385887Y-58803076D01*
X37299997Y-59234873D01*
X35719990Y-59234873D01*
X35719990Y-58360065D01*
X35732262Y-58115536D01*
X35765561Y-57896165D01*
X35819600Y-57685034D01*
X35893266Y-57482972D01*
X35985573Y-57290842D01*
X36095519Y-57109490D01*
X36221991Y-56940149D01*
X36363898Y-56783941D01*
X36520142Y-56642019D01*
X36689475Y-56515514D01*
X36870733Y-56405659D01*
X37063023Y-56313302D01*
X37265059Y-56239589D01*
X37476098Y-56185611D01*
X37695574Y-56152304D01*
X37940117Y-56139998D01*
X87129884Y-56139998D01*
X87374425Y-56152304D01*
G37*
G04 #@! TD.AperFunction*
D23*
X53054652Y-59112821D02*
X52971936Y-59427344D01*
X52952169Y-59751962D01*
X52996112Y-60074198D01*
X53102076Y-60381670D01*
X53197140Y-60559522D01*
X53463177Y-60657218D01*
X54430395Y-59690000D01*
X54416253Y-59675858D01*
X54595858Y-59496253D01*
X54610000Y-59510395D01*
X54624143Y-59496253D01*
X54803748Y-59675858D01*
X54789605Y-59690000D01*
X54803748Y-59704143D01*
X54624143Y-59883748D01*
X54610000Y-59869605D01*
X53642782Y-60836823D01*
X53740478Y-61102860D01*
X54032821Y-61245348D01*
X54347344Y-61328064D01*
X54671962Y-61347831D01*
X54994198Y-61303888D01*
X55292451Y-61201101D01*
X55257936Y-61332344D01*
X55238169Y-61656962D01*
X55261023Y-61824552D01*
X55177723Y-61799283D01*
X55037785Y-61785500D01*
X54991000Y-61780892D01*
X54944215Y-61785500D01*
X53005785Y-61785500D01*
X52959000Y-61780892D01*
X52912215Y-61785500D01*
X52772277Y-61799283D01*
X52592731Y-61853748D01*
X52427259Y-61942194D01*
X52282222Y-62061222D01*
X52252397Y-62097564D01*
X50736500Y-63613462D01*
X50736500Y-60846538D01*
X52591538Y-58991500D01*
X53113784Y-58991500D01*
X53054652Y-59112821D01*
G04 #@! TA.AperFunction,Conductor*
D24*
G36*
X53054652Y-59112821D02*
G01*
X52971936Y-59427344D01*
X52952169Y-59751962D01*
X52996112Y-60074198D01*
X53102076Y-60381670D01*
X53197140Y-60559522D01*
X53463177Y-60657218D01*
X54430395Y-59690000D01*
X54416253Y-59675858D01*
X54595858Y-59496253D01*
X54610000Y-59510395D01*
X54624143Y-59496253D01*
X54803748Y-59675858D01*
X54789605Y-59690000D01*
X54803748Y-59704143D01*
X54624143Y-59883748D01*
X54610000Y-59869605D01*
X53642782Y-60836823D01*
X53740478Y-61102860D01*
X54032821Y-61245348D01*
X54347344Y-61328064D01*
X54671962Y-61347831D01*
X54994198Y-61303888D01*
X55292451Y-61201101D01*
X55257936Y-61332344D01*
X55238169Y-61656962D01*
X55261023Y-61824552D01*
X55177723Y-61799283D01*
X55037785Y-61785500D01*
X54991000Y-61780892D01*
X54944215Y-61785500D01*
X53005785Y-61785500D01*
X52959000Y-61780892D01*
X52912215Y-61785500D01*
X52772277Y-61799283D01*
X52592731Y-61853748D01*
X52427259Y-61942194D01*
X52282222Y-62061222D01*
X52252397Y-62097564D01*
X50736500Y-63613462D01*
X50736500Y-60846538D01*
X52591538Y-58991500D01*
X53113784Y-58991500D01*
X53054652Y-59112821D01*
G37*
G04 #@! TD.AperFunction*
D23*
X59053231Y-59010225D02*
X58945050Y-59271397D01*
X58889900Y-59548655D01*
X58889900Y-59831345D01*
X58945050Y-60108603D01*
X59053231Y-60369775D01*
X59210285Y-60604823D01*
X59408731Y-60803269D01*
X59400418Y-60804088D01*
X59280720Y-60840398D01*
X59170406Y-60899363D01*
X59073715Y-60978715D01*
X58994363Y-61075406D01*
X58935398Y-61185720D01*
X58899088Y-61305418D01*
X58886828Y-61429900D01*
X58886828Y-61686134D01*
X58469391Y-62103571D01*
X58534064Y-61857656D01*
X58553831Y-61533038D01*
X58509888Y-61210802D01*
X58403924Y-60903330D01*
X58308860Y-60725478D01*
X58042823Y-60627782D01*
X57075605Y-61595000D01*
X57089748Y-61609143D01*
X56910143Y-61788748D01*
X56896000Y-61774605D01*
X56881858Y-61788748D01*
X56702253Y-61609143D01*
X56716395Y-61595000D01*
X56702253Y-61580858D01*
X56881858Y-61401253D01*
X56896000Y-61415395D01*
X57863218Y-60448177D01*
X57765522Y-60182140D01*
X57473179Y-60039652D01*
X57158656Y-59956936D01*
X56834038Y-59937169D01*
X56511802Y-59981112D01*
X56213549Y-60083899D01*
X56248064Y-59952656D01*
X56267831Y-59628038D01*
X56223888Y-59305802D01*
X56117924Y-58998330D01*
X56114273Y-58991500D01*
X59065743Y-58991500D01*
X59053231Y-59010225D01*
G04 #@! TA.AperFunction,Conductor*
D24*
G36*
X59053231Y-59010225D02*
G01*
X58945050Y-59271397D01*
X58889900Y-59548655D01*
X58889900Y-59831345D01*
X58945050Y-60108603D01*
X59053231Y-60369775D01*
X59210285Y-60604823D01*
X59408731Y-60803269D01*
X59400418Y-60804088D01*
X59280720Y-60840398D01*
X59170406Y-60899363D01*
X59073715Y-60978715D01*
X58994363Y-61075406D01*
X58935398Y-61185720D01*
X58899088Y-61305418D01*
X58886828Y-61429900D01*
X58886828Y-61686134D01*
X58469391Y-62103571D01*
X58534064Y-61857656D01*
X58553831Y-61533038D01*
X58509888Y-61210802D01*
X58403924Y-60903330D01*
X58308860Y-60725478D01*
X58042823Y-60627782D01*
X57075605Y-61595000D01*
X57089748Y-61609143D01*
X56910143Y-61788748D01*
X56896000Y-61774605D01*
X56881858Y-61788748D01*
X56702253Y-61609143D01*
X56716395Y-61595000D01*
X56702253Y-61580858D01*
X56881858Y-61401253D01*
X56896000Y-61415395D01*
X57863218Y-60448177D01*
X57765522Y-60182140D01*
X57473179Y-60039652D01*
X57158656Y-59956936D01*
X56834038Y-59937169D01*
X56511802Y-59981112D01*
X56213549Y-60083899D01*
X56248064Y-59952656D01*
X56267831Y-59628038D01*
X56223888Y-59305802D01*
X56117924Y-58998330D01*
X56114273Y-58991500D01*
X59065743Y-58991500D01*
X59053231Y-59010225D01*
G37*
G04 #@! TD.AperFunction*
M02*
