M48
; DRILL file {KiCad (5.1.0)-1} date 07/04/2020 09:07:49
; FORMAT={-:-/ absolute / inch / decimal}
; #@! TF.CreationDate,2020-04-07T09:07:49+01:00
; #@! TF.GenerationSoftware,Kicad,Pcbnew,(5.1.0)-1
FMAT,2
INCH
T1C0.0250
T2C0.0315
T3C0.0320
T4C0.0394
T5C0.0394
T6C0.0591
T7C0.1280
%
G90
G05
T1
X2.54Y-2.775
T2
X2.525Y-2.65
X2.525Y-2.95
X2.425Y-3.1
X2.425Y-3.3
X2.9Y-2.725
X3.0Y-2.625
X3.0Y-2.725
X2.325Y-2.65
X2.325Y-2.95
X2.24Y-2.425
X2.24Y-2.725
X2.225Y-3.15
X2.225Y-3.25
X2.725Y-2.45
X2.825Y-2.35
X2.825Y-2.45
X2.7Y-3.275
X2.8Y-3.175
X2.8Y-3.275
X2.425Y-2.65
X2.425Y-2.95
X2.7Y-2.675
X2.7Y-2.775
X2.8Y-2.675
X2.9Y-3.0
X3.0Y-2.9
X3.0Y-3.0
T3
X1.8Y-2.675
X1.8Y-2.775
X1.8Y-2.875
X1.8Y-2.975
X2.1Y-2.675
X2.1Y-2.775
X2.1Y-2.875
X2.1Y-2.975
X3.075Y-3.175
X3.075Y-3.275
X2.725Y-2.9
X2.725Y-3.0
X3.075Y-2.375
X3.075Y-2.475
X3.25Y-2.625
X3.25Y-2.725
X1.65Y-2.675
X1.65Y-2.775
X1.65Y-2.875
X3.25Y-2.925
X3.25Y-3.025
T4
X2.375Y-2.35
X2.375Y-2.45
X2.475Y-2.35
X2.475Y-2.45
X2.575Y-2.35
X2.575Y-2.45
T5
X1.865Y-3.15
X2.0Y-3.15
X1.85Y-2.35
X1.85Y-2.55
X2.15Y-2.35
X2.15Y-2.55
T6
X1.86Y-3.285
X2.0Y-3.29
T7
X3.31Y-2.365
X1.66Y-2.365
X3.31Y-3.265
X1.66Y-3.265
T0
M30
