G04 #@! TF.GenerationSoftware,KiCad,Pcbnew,(5.1.0)-1*
G04 #@! TF.CreationDate,2020-04-07T09:07:39+01:00*
G04 #@! TF.ProjectId,TV_B_Gone_ML_v1_2,54565f42-5f47-46f6-9e65-5f4d4c5f7631,rev?*
G04 #@! TF.SameCoordinates,Original*
G04 #@! TF.FileFunction,Legend,Top*
G04 #@! TF.FilePolarity,Positive*
%FSLAX46Y46*%
G04 Gerber Fmt 4.6, Leading zero omitted, Abs format (unit mm)*
G04 Created by KiCad (PCBNEW (5.1.0)-1) date 2020-04-07 09:07:39*
%MOMM*%
%LPD*%
G04 APERTURE LIST*
%ADD10C,0.304800*%
%ADD11C,0.300000*%
%ADD12C,0.250190*%
%ADD13C,0.251460*%
%ADD14C,0.127000*%
%ADD15C,0.381000*%
%ADD16C,0.200000*%
%ADD17C,0.285750*%
%ADD18C,0.287020*%
%ADD19C,0.254000*%
%ADD20C,0.150000*%
%ADD21C,0.203200*%
%ADD22C,0.269240*%
G04 APERTURE END LIST*
D10*
X52759428Y-77869142D02*
X53920571Y-77869142D01*
X53340000Y-78643238D02*
X53340000Y-77095047D01*
D11*
X58287714Y-57924619D02*
X58173428Y-58000809D01*
X57944857Y-58000809D01*
X57830571Y-57924619D01*
X57773428Y-57848428D01*
X57716285Y-57696047D01*
X57716285Y-57238904D01*
X57773428Y-57086523D01*
X57830571Y-57010333D01*
X57944857Y-56934142D01*
X58173428Y-56934142D01*
X58287714Y-57010333D01*
X59316285Y-56934142D02*
X59316285Y-58000809D01*
X58802000Y-56934142D02*
X58802000Y-57772238D01*
X58859142Y-57924619D01*
X58973428Y-58000809D01*
X59144857Y-58000809D01*
X59259142Y-57924619D01*
X59316285Y-57848428D01*
X59887714Y-58000809D02*
X59887714Y-56934142D01*
X59887714Y-57238904D02*
X59944857Y-57086523D01*
X60002000Y-57010333D01*
X60116285Y-56934142D01*
X60230571Y-56934142D01*
X60630571Y-58000809D02*
X60630571Y-56934142D01*
X60630571Y-56400809D02*
X60573428Y-56477000D01*
X60630571Y-56553190D01*
X60687714Y-56477000D01*
X60630571Y-56400809D01*
X60630571Y-56553190D01*
X61373428Y-58000809D02*
X61259142Y-57924619D01*
X61202000Y-57848428D01*
X61144857Y-57696047D01*
X61144857Y-57238904D01*
X61202000Y-57086523D01*
X61259142Y-57010333D01*
X61373428Y-56934142D01*
X61544857Y-56934142D01*
X61659142Y-57010333D01*
X61716285Y-57086523D01*
X61773428Y-57238904D01*
X61773428Y-57696047D01*
X61716285Y-57848428D01*
X61659142Y-57924619D01*
X61544857Y-58000809D01*
X61373428Y-58000809D01*
X62802000Y-56934142D02*
X62802000Y-58000809D01*
X62287714Y-56934142D02*
X62287714Y-57772238D01*
X62344857Y-57924619D01*
X62459142Y-58000809D01*
X62630571Y-58000809D01*
X62744857Y-57924619D01*
X62802000Y-57848428D01*
X63316285Y-57924619D02*
X63430571Y-58000809D01*
X63659142Y-58000809D01*
X63773428Y-57924619D01*
X63830571Y-57772238D01*
X63830571Y-57696047D01*
X63773428Y-57543666D01*
X63659142Y-57467476D01*
X63487714Y-57467476D01*
X63373428Y-57391285D01*
X63316285Y-57238904D01*
X63316285Y-57162714D01*
X63373428Y-57010333D01*
X63487714Y-56934142D01*
X63659142Y-56934142D01*
X63773428Y-57010333D01*
X64802000Y-57924619D02*
X64687714Y-58000809D01*
X64459142Y-58000809D01*
X64344857Y-57924619D01*
X64287714Y-57772238D01*
X64287714Y-57162714D01*
X64344857Y-57010333D01*
X64459142Y-56934142D01*
X64687714Y-56934142D01*
X64802000Y-57010333D01*
X64859142Y-57162714D01*
X64859142Y-57315095D01*
X64287714Y-57467476D01*
X65544857Y-58000809D02*
X65430571Y-57924619D01*
X65373428Y-57772238D01*
X65373428Y-56400809D01*
X66459142Y-57924619D02*
X66344857Y-58000809D01*
X66116285Y-58000809D01*
X66002000Y-57924619D01*
X65944857Y-57772238D01*
X65944857Y-57162714D01*
X66002000Y-57010333D01*
X66116285Y-56934142D01*
X66344857Y-56934142D01*
X66459142Y-57010333D01*
X66516285Y-57162714D01*
X66516285Y-57315095D01*
X65944857Y-57467476D01*
X67544857Y-57924619D02*
X67430571Y-58000809D01*
X67202000Y-58000809D01*
X67087714Y-57924619D01*
X67030571Y-57848428D01*
X66973428Y-57696047D01*
X66973428Y-57238904D01*
X67030571Y-57086523D01*
X67087714Y-57010333D01*
X67202000Y-56934142D01*
X67430571Y-56934142D01*
X67544857Y-57010333D01*
X67887714Y-56934142D02*
X68344857Y-56934142D01*
X68059142Y-56400809D02*
X68059142Y-57772238D01*
X68116285Y-57924619D01*
X68230571Y-58000809D01*
X68344857Y-58000809D01*
X68744857Y-58000809D02*
X68744857Y-56934142D01*
X68744857Y-57238904D02*
X68802000Y-57086523D01*
X68859142Y-57010333D01*
X68973428Y-56934142D01*
X69087714Y-56934142D01*
X69487714Y-58000809D02*
X69487714Y-56934142D01*
X69487714Y-56400809D02*
X69430571Y-56477000D01*
X69487714Y-56553190D01*
X69544857Y-56477000D01*
X69487714Y-56400809D01*
X69487714Y-56553190D01*
X70573428Y-57924619D02*
X70459142Y-58000809D01*
X70230571Y-58000809D01*
X70116285Y-57924619D01*
X70059142Y-57848428D01*
X70002000Y-57696047D01*
X70002000Y-57238904D01*
X70059142Y-57086523D01*
X70116285Y-57010333D01*
X70230571Y-56934142D01*
X70459142Y-56934142D01*
X70573428Y-57010333D01*
X71087714Y-57848428D02*
X71144857Y-57924619D01*
X71087714Y-58000809D01*
X71030571Y-57924619D01*
X71087714Y-57848428D01*
X71087714Y-58000809D01*
X72173428Y-57924619D02*
X72059142Y-58000809D01*
X71830571Y-58000809D01*
X71716285Y-57924619D01*
X71659142Y-57848428D01*
X71602000Y-57696047D01*
X71602000Y-57238904D01*
X71659142Y-57086523D01*
X71716285Y-57010333D01*
X71830571Y-56934142D01*
X72059142Y-56934142D01*
X72173428Y-57010333D01*
X72859142Y-58000809D02*
X72744857Y-57924619D01*
X72687714Y-57848428D01*
X72630571Y-57696047D01*
X72630571Y-57238904D01*
X72687714Y-57086523D01*
X72744857Y-57010333D01*
X72859142Y-56934142D01*
X73030571Y-56934142D01*
X73144857Y-57010333D01*
X73202000Y-57086523D01*
X73259142Y-57238904D01*
X73259142Y-57696047D01*
X73202000Y-57848428D01*
X73144857Y-57924619D01*
X73030571Y-58000809D01*
X72859142Y-58000809D01*
X73773428Y-57848428D02*
X73830571Y-57924619D01*
X73773428Y-58000809D01*
X73716285Y-57924619D01*
X73773428Y-57848428D01*
X73773428Y-58000809D01*
X74859142Y-56934142D02*
X74859142Y-58000809D01*
X74344857Y-56934142D02*
X74344857Y-57772238D01*
X74402000Y-57924619D01*
X74516285Y-58000809D01*
X74687714Y-58000809D01*
X74802000Y-57924619D01*
X74859142Y-57848428D01*
X75430571Y-58000809D02*
X75430571Y-56400809D01*
X75544857Y-57391285D02*
X75887714Y-58000809D01*
X75887714Y-56934142D02*
X75430571Y-57543666D01*
D12*
X86045947Y-74900971D02*
X86045947Y-74329108D01*
X87547087Y-74615040D02*
X86045947Y-74615040D01*
X86045947Y-74138487D02*
X87547087Y-73804900D01*
X86045947Y-73471314D01*
X86975224Y-73137727D02*
X86975224Y-72375243D01*
X86760775Y-71565104D02*
X86832258Y-71422139D01*
X86903741Y-71374483D01*
X87046707Y-71326828D01*
X87261155Y-71326828D01*
X87404121Y-71374483D01*
X87475604Y-71422139D01*
X87547087Y-71517449D01*
X87547087Y-71898691D01*
X86045947Y-71898691D01*
X86045947Y-71565104D01*
X86117430Y-71469794D01*
X86188912Y-71422139D01*
X86331878Y-71374483D01*
X86474844Y-71374483D01*
X86617810Y-71422139D01*
X86689292Y-71469794D01*
X86760775Y-71565104D01*
X86760775Y-71898691D01*
X86975224Y-70897931D02*
X86975224Y-70135447D01*
X86117430Y-69134687D02*
X86045947Y-69229998D01*
X86045947Y-69372963D01*
X86117430Y-69515929D01*
X86260395Y-69611240D01*
X86403361Y-69658895D01*
X86689292Y-69706550D01*
X86903741Y-69706550D01*
X87189672Y-69658895D01*
X87332638Y-69611240D01*
X87475604Y-69515929D01*
X87547087Y-69372963D01*
X87547087Y-69277653D01*
X87475604Y-69134687D01*
X87404121Y-69087032D01*
X86903741Y-69087032D01*
X86903741Y-69277653D01*
X87547087Y-68515169D02*
X87475604Y-68610480D01*
X87404121Y-68658135D01*
X87261155Y-68705790D01*
X86832258Y-68705790D01*
X86689292Y-68658135D01*
X86617810Y-68610480D01*
X86546327Y-68515169D01*
X86546327Y-68372203D01*
X86617810Y-68276893D01*
X86689292Y-68229238D01*
X86832258Y-68181582D01*
X87261155Y-68181582D01*
X87404121Y-68229238D01*
X87475604Y-68276893D01*
X87547087Y-68372203D01*
X87547087Y-68515169D01*
X86546327Y-67752685D02*
X87547087Y-67752685D01*
X86689292Y-67752685D02*
X86617810Y-67705030D01*
X86546327Y-67609720D01*
X86546327Y-67466754D01*
X86617810Y-67371443D01*
X86760775Y-67323788D01*
X87547087Y-67323788D01*
X87475604Y-66465994D02*
X87547087Y-66561304D01*
X87547087Y-66751925D01*
X87475604Y-66847236D01*
X87332638Y-66894891D01*
X86760775Y-66894891D01*
X86617810Y-66847236D01*
X86546327Y-66751925D01*
X86546327Y-66561304D01*
X86617810Y-66465994D01*
X86760775Y-66418339D01*
X86903741Y-66418339D01*
X87046707Y-66894891D01*
D13*
D14*
X59690000Y-81280000D02*
G75*
G03X59690000Y-81280000I-3175000J0D01*
G01*
D15*
X60325000Y-85090000D02*
X62865000Y-85090000D01*
X62865000Y-85090000D02*
X62865000Y-77470000D01*
X62865000Y-77470000D02*
X60325000Y-77470000D01*
X60325000Y-77470000D02*
X60325000Y-85090000D01*
D10*
X60960000Y-85090000D02*
X60325000Y-84455000D01*
D16*
X67310000Y-72517000D02*
X67183000Y-72644000D01*
X67310000Y-72517000D02*
X70993000Y-72517000D01*
X71628000Y-76835000D02*
G75*
G03X71120000Y-72517000I-2413000J1905000D01*
G01*
X67183000Y-72644000D02*
G75*
G03X66929000Y-76962000I2032000J-2286000D01*
G01*
X69215000Y-77978000D02*
G75*
G03X72263000Y-74930000I0J3048000D01*
G01*
X66167000Y-74930000D02*
G75*
G03X69215000Y-77978000I3048000J0D01*
G01*
D15*
X50800000Y-66675000D02*
X50800000Y-67945000D01*
X50800000Y-67945000D02*
X48260000Y-67945000D01*
X48260000Y-67945000D02*
X48260000Y-66675000D01*
X52070000Y-66675000D02*
X52070000Y-76835000D01*
X52070000Y-76835000D02*
X46990000Y-76835000D01*
X46990000Y-76835000D02*
X46990000Y-66675000D01*
X46990000Y-66675000D02*
X52070000Y-66675000D01*
X52451000Y-78359000D02*
X45720000Y-78359000D01*
X45720000Y-78359000D02*
X45720000Y-81661000D01*
X45720000Y-81661000D02*
X52451000Y-81661000D01*
X52451000Y-81661000D02*
X52451000Y-78359000D01*
X45720000Y-81661000D02*
X45720000Y-78359000D01*
X52451000Y-78359000D02*
X52451000Y-81661000D01*
D16*
X59390000Y-63800000D02*
G75*
G03X59390000Y-63800000I-635000J0D01*
G01*
X59055000Y-58420000D02*
X66675000Y-58420000D01*
X66675000Y-58420000D02*
X66675000Y-63500000D01*
X66675000Y-63500000D02*
X59055000Y-63500000D01*
X59055000Y-63500000D02*
X59055000Y-58420000D01*
D10*
X68580000Y-71755000D02*
X72390000Y-67945000D01*
X72390000Y-67945000D02*
X72390000Y-66675000D01*
X72390000Y-66675000D02*
X71120000Y-65405000D01*
X71120000Y-65405000D02*
X68580000Y-65405000D01*
X68580000Y-65405000D02*
X66040000Y-67945000D01*
X66040000Y-67945000D02*
X66040000Y-70485000D01*
X66040000Y-70485000D02*
X67310000Y-71755000D01*
X67310000Y-71755000D02*
X68580000Y-71755000D01*
X71755000Y-58420000D02*
X67945000Y-62230000D01*
X67945000Y-62230000D02*
X67945000Y-63500000D01*
X67945000Y-63500000D02*
X69215000Y-64770000D01*
X69215000Y-64770000D02*
X71755000Y-64770000D01*
X71755000Y-64770000D02*
X74295000Y-62230000D01*
X74295000Y-62230000D02*
X74295000Y-59690000D01*
X74295000Y-59690000D02*
X73025000Y-58420000D01*
X73025000Y-58420000D02*
X71755000Y-58420000D01*
X76200000Y-65405000D02*
X72390000Y-69215000D01*
X72390000Y-69215000D02*
X72390000Y-70485000D01*
X72390000Y-70485000D02*
X73660000Y-71755000D01*
X73660000Y-71755000D02*
X76200000Y-71755000D01*
X76200000Y-71755000D02*
X78740000Y-69215000D01*
X78740000Y-69215000D02*
X78740000Y-66675000D01*
X78740000Y-66675000D02*
X77470000Y-65405000D01*
X77470000Y-65405000D02*
X76200000Y-65405000D01*
X76200000Y-72390000D02*
X72390000Y-76200000D01*
X72390000Y-76200000D02*
X72390000Y-77470000D01*
X72390000Y-77470000D02*
X73660000Y-78740000D01*
X73660000Y-78740000D02*
X76200000Y-78740000D01*
X76200000Y-78740000D02*
X78740000Y-76200000D01*
X78740000Y-76200000D02*
X78740000Y-73660000D01*
X78740000Y-73660000D02*
X77470000Y-72390000D01*
X77470000Y-72390000D02*
X76200000Y-72390000D01*
X71120000Y-79375000D02*
X67310000Y-83185000D01*
X67310000Y-83185000D02*
X67310000Y-84455000D01*
X67310000Y-84455000D02*
X68580000Y-85725000D01*
X68580000Y-85725000D02*
X71120000Y-85725000D01*
X71120000Y-85725000D02*
X73660000Y-83185000D01*
X73660000Y-83185000D02*
X73660000Y-80645000D01*
X73660000Y-80645000D02*
X72390000Y-79375000D01*
X72390000Y-79375000D02*
X71120000Y-79375000D01*
D16*
X59055000Y-68834000D02*
X59055000Y-68580000D01*
X59055000Y-73406000D02*
X59055000Y-73660000D01*
X60071000Y-68834000D02*
X58166000Y-68834000D01*
X58166000Y-68834000D02*
X58166000Y-73406000D01*
X58166000Y-73406000D02*
X60071000Y-73406000D01*
X60071000Y-73406000D02*
X60071000Y-68834000D01*
X61595000Y-73406000D02*
X61595000Y-73660000D01*
X61595000Y-68834000D02*
X61595000Y-68580000D01*
X60579000Y-73406000D02*
X62484000Y-73406000D01*
X62484000Y-73406000D02*
X62484000Y-68834000D01*
X62484000Y-68834000D02*
X60579000Y-68834000D01*
X60579000Y-68834000D02*
X60579000Y-73406000D01*
X56896000Y-67691000D02*
X56896000Y-67945000D01*
X56896000Y-63119000D02*
X56896000Y-62865000D01*
X55880000Y-67691000D02*
X57785000Y-67691000D01*
X57785000Y-67691000D02*
X57785000Y-63119000D01*
X57785000Y-63119000D02*
X55880000Y-63119000D01*
X55880000Y-63119000D02*
X55880000Y-67691000D01*
X64135000Y-68834000D02*
X64135000Y-68580000D01*
X64135000Y-73406000D02*
X64135000Y-73660000D01*
X65151000Y-68834000D02*
X63246000Y-68834000D01*
X63246000Y-68834000D02*
X63246000Y-73406000D01*
X63246000Y-73406000D02*
X65151000Y-73406000D01*
X65151000Y-73406000D02*
X65151000Y-68834000D01*
D14*
X53340000Y-62230000D02*
G75*
G03X53340000Y-62230000I-2540000J0D01*
G01*
X46990000Y-58420000D02*
X54610000Y-58420000D01*
X54610000Y-58420000D02*
X54610000Y-66040000D01*
X54610000Y-66040000D02*
X46990000Y-66040000D01*
X46990000Y-58420000D02*
X46990000Y-66040000D01*
D10*
X43180000Y-74295000D02*
X40640000Y-74295000D01*
X40640000Y-74295000D02*
X40640000Y-66675000D01*
X40640000Y-66675000D02*
X43180000Y-66675000D01*
X43180000Y-66675000D02*
X43180000Y-74295000D01*
X40640000Y-71755000D02*
X43180000Y-71755000D01*
D16*
X76200000Y-79502000D02*
X76073000Y-79629000D01*
X76200000Y-79502000D02*
X79883000Y-79502000D01*
X80518000Y-83820000D02*
G75*
G03X80010000Y-79502000I-2413000J1905000D01*
G01*
X76073000Y-79629000D02*
G75*
G03X75819000Y-83947000I2032000J-2286000D01*
G01*
X78105000Y-84963000D02*
G75*
G03X81153000Y-81915000I0J3048000D01*
G01*
X75057000Y-81915000D02*
G75*
G03X78105000Y-84963000I3048000J0D01*
G01*
X80645000Y-73152000D02*
X80518000Y-73279000D01*
X80645000Y-73152000D02*
X84328000Y-73152000D01*
X84963000Y-77470000D02*
G75*
G03X84455000Y-73152000I-2413000J1905000D01*
G01*
X80518000Y-73279000D02*
G75*
G03X80264000Y-77597000I2032000J-2286000D01*
G01*
X82550000Y-78613000D02*
G75*
G03X85598000Y-75565000I0J3048000D01*
G01*
X79502000Y-75565000D02*
G75*
G03X82550000Y-78613000I3048000J0D01*
G01*
X80645000Y-65532000D02*
X80518000Y-65659000D01*
X80645000Y-65532000D02*
X84328000Y-65532000D01*
X84963000Y-69850000D02*
G75*
G03X84455000Y-65532000I-2413000J1905000D01*
G01*
X80518000Y-65659000D02*
G75*
G03X80264000Y-69977000I2032000J-2286000D01*
G01*
X82550000Y-70993000D02*
G75*
G03X85598000Y-67945000I0J3048000D01*
G01*
X79502000Y-67945000D02*
G75*
G03X82550000Y-70993000I3048000J0D01*
G01*
X76200000Y-59182000D02*
X76073000Y-59309000D01*
X76200000Y-59182000D02*
X79883000Y-59182000D01*
X80518000Y-63500000D02*
G75*
G03X80010000Y-59182000I-2413000J1905000D01*
G01*
X76073000Y-59309000D02*
G75*
G03X75819000Y-63627000I2032000J-2286000D01*
G01*
X78105000Y-64643000D02*
G75*
G03X81153000Y-61595000I0J3048000D01*
G01*
X75057000Y-61595000D02*
G75*
G03X78105000Y-64643000I3048000J0D01*
G01*
D11*
X58347000Y-78025571D02*
X58289857Y-78082714D01*
X58118428Y-78139857D01*
X58004142Y-78139857D01*
X57832714Y-78082714D01*
X57718428Y-77968428D01*
X57661285Y-77854142D01*
X57604142Y-77625571D01*
X57604142Y-77454142D01*
X57661285Y-77225571D01*
X57718428Y-77111285D01*
X57832714Y-76997000D01*
X58004142Y-76939857D01*
X58118428Y-76939857D01*
X58289857Y-76997000D01*
X58347000Y-77054142D01*
X59489857Y-78139857D02*
X58804142Y-78139857D01*
X59147000Y-78139857D02*
X59147000Y-76939857D01*
X59032714Y-77111285D01*
X58918428Y-77225571D01*
X58804142Y-77282714D01*
D17*
X58247642Y-85144428D02*
X58247642Y-84273571D01*
X58683071Y-84709000D02*
X57812214Y-84709000D01*
D18*
D11*
X64563571Y-83893000D02*
X64620714Y-83950142D01*
X64677857Y-84121571D01*
X64677857Y-84235857D01*
X64620714Y-84407285D01*
X64506428Y-84521571D01*
X64392142Y-84578714D01*
X64163571Y-84635857D01*
X63992142Y-84635857D01*
X63763571Y-84578714D01*
X63649285Y-84521571D01*
X63535000Y-84407285D01*
X63477857Y-84235857D01*
X63477857Y-84121571D01*
X63535000Y-83950142D01*
X63592142Y-83893000D01*
X63592142Y-83435857D02*
X63535000Y-83378714D01*
X63477857Y-83264428D01*
X63477857Y-82978714D01*
X63535000Y-82864428D01*
X63592142Y-82807285D01*
X63706428Y-82750142D01*
X63820714Y-82750142D01*
X63992142Y-82807285D01*
X64677857Y-83493000D01*
X64677857Y-82750142D01*
X65154285Y-78647857D02*
X65154285Y-77447857D01*
X65440000Y-77447857D01*
X65611428Y-77505000D01*
X65725714Y-77619285D01*
X65782857Y-77733571D01*
X65840000Y-77962142D01*
X65840000Y-78133571D01*
X65782857Y-78362142D01*
X65725714Y-78476428D01*
X65611428Y-78590714D01*
X65440000Y-78647857D01*
X65154285Y-78647857D01*
X66925714Y-77447857D02*
X66354285Y-77447857D01*
X66297142Y-78019285D01*
X66354285Y-77962142D01*
X66468571Y-77905000D01*
X66754285Y-77905000D01*
X66868571Y-77962142D01*
X66925714Y-78019285D01*
X66982857Y-78133571D01*
X66982857Y-78419285D01*
X66925714Y-78533571D01*
X66868571Y-78590714D01*
X66754285Y-78647857D01*
X66468571Y-78647857D01*
X66354285Y-78590714D01*
X66297142Y-78533571D01*
D10*
X56696428Y-77179714D02*
X55172428Y-77179714D01*
X56551285Y-75583142D02*
X56623857Y-75655714D01*
X56696428Y-75873428D01*
X56696428Y-76018571D01*
X56623857Y-76236285D01*
X56478714Y-76381428D01*
X56333571Y-76454000D01*
X56043285Y-76526571D01*
X55825571Y-76526571D01*
X55535285Y-76454000D01*
X55390142Y-76381428D01*
X55245000Y-76236285D01*
X55172428Y-76018571D01*
X55172428Y-75873428D01*
X55245000Y-75655714D01*
X55317571Y-75583142D01*
X56696428Y-74131714D02*
X56696428Y-75002571D01*
X56696428Y-74567142D02*
X55172428Y-74567142D01*
X55390142Y-74712285D01*
X55535285Y-74857428D01*
X55607857Y-75002571D01*
D19*
X49699333Y-75837142D02*
X49699333Y-75353333D01*
X50207333Y-75933904D02*
X48429333Y-75595238D01*
X50207333Y-75256571D01*
X48429333Y-75063047D02*
X48429333Y-74482476D01*
X50207333Y-74772761D02*
X48429333Y-74772761D01*
X48429333Y-74288952D02*
X48429333Y-73708380D01*
X50207333Y-73998666D02*
X48429333Y-73998666D01*
X50207333Y-73369714D02*
X48429333Y-73369714D01*
X50207333Y-72885904D02*
X48429333Y-72885904D01*
X50207333Y-72305333D01*
X48429333Y-72305333D01*
X49360666Y-71628000D02*
X50207333Y-71628000D01*
X48429333Y-71966666D02*
X49360666Y-71628000D01*
X48429333Y-71289333D01*
X49191333Y-70805523D02*
X49106666Y-70902285D01*
X49022000Y-70950666D01*
X48852666Y-70999047D01*
X48768000Y-70999047D01*
X48598666Y-70950666D01*
X48514000Y-70902285D01*
X48429333Y-70805523D01*
X48429333Y-70612000D01*
X48514000Y-70515238D01*
X48598666Y-70466857D01*
X48768000Y-70418476D01*
X48852666Y-70418476D01*
X49022000Y-70466857D01*
X49106666Y-70515238D01*
X49191333Y-70612000D01*
X49191333Y-70805523D01*
X49276000Y-70902285D01*
X49360666Y-70950666D01*
X49530000Y-70999047D01*
X49868666Y-70999047D01*
X50038000Y-70950666D01*
X50122666Y-70902285D01*
X50207333Y-70805523D01*
X50207333Y-70612000D01*
X50122666Y-70515238D01*
X50038000Y-70466857D01*
X49868666Y-70418476D01*
X49530000Y-70418476D01*
X49360666Y-70466857D01*
X49276000Y-70515238D01*
X49191333Y-70612000D01*
X48429333Y-69499238D02*
X48429333Y-69983047D01*
X49276000Y-70031428D01*
X49191333Y-69983047D01*
X49106666Y-69886285D01*
X49106666Y-69644380D01*
X49191333Y-69547619D01*
X49276000Y-69499238D01*
X49445333Y-69450857D01*
X49868666Y-69450857D01*
X50038000Y-69499238D01*
X50122666Y-69547619D01*
X50207333Y-69644380D01*
X50207333Y-69886285D01*
X50122666Y-69983047D01*
X50038000Y-70031428D01*
X43700095Y-79199619D02*
X43700095Y-78183619D01*
X44087142Y-78183619D01*
X44183904Y-78232000D01*
X44232285Y-78280380D01*
X44280666Y-78377142D01*
X44280666Y-78522285D01*
X44232285Y-78619047D01*
X44183904Y-78667428D01*
X44087142Y-78715809D01*
X43700095Y-78715809D01*
X45248285Y-79199619D02*
X44667714Y-79199619D01*
X44958000Y-79199619D02*
X44958000Y-78183619D01*
X44861238Y-78328761D01*
X44764476Y-78425523D01*
X44667714Y-78473904D01*
X46609000Y-85652428D02*
X46754142Y-85700809D01*
X46802523Y-85749190D01*
X46850904Y-85845952D01*
X46850904Y-85991095D01*
X46802523Y-86087857D01*
X46754142Y-86136238D01*
X46657380Y-86184619D01*
X46270333Y-86184619D01*
X46270333Y-85168619D01*
X46609000Y-85168619D01*
X46705761Y-85217000D01*
X46754142Y-85265380D01*
X46802523Y-85362142D01*
X46802523Y-85458904D01*
X46754142Y-85555666D01*
X46705761Y-85604047D01*
X46609000Y-85652428D01*
X46270333Y-85652428D01*
X47237952Y-85894333D02*
X47721761Y-85894333D01*
X47141190Y-86184619D02*
X47479857Y-85168619D01*
X47818523Y-86184619D01*
X48012047Y-85168619D02*
X48592619Y-85168619D01*
X48302333Y-86184619D02*
X48302333Y-85168619D01*
X48786142Y-85168619D02*
X49366714Y-85168619D01*
X49076428Y-86184619D02*
X49076428Y-85168619D01*
X49705380Y-85652428D02*
X50044047Y-85652428D01*
X50189190Y-86184619D02*
X49705380Y-86184619D01*
X49705380Y-85168619D01*
X50189190Y-85168619D01*
X51205190Y-86184619D02*
X50866523Y-85700809D01*
X50624619Y-86184619D02*
X50624619Y-85168619D01*
X51011666Y-85168619D01*
X51108428Y-85217000D01*
X51156809Y-85265380D01*
X51205190Y-85362142D01*
X51205190Y-85507285D01*
X51156809Y-85604047D01*
X51108428Y-85652428D01*
X51011666Y-85700809D01*
X50624619Y-85700809D01*
X51834142Y-85700809D02*
X51834142Y-86184619D01*
X51495476Y-85168619D02*
X51834142Y-85700809D01*
X52172809Y-85168619D01*
D11*
X56772285Y-59851857D02*
X56772285Y-58651857D01*
X57229428Y-58651857D01*
X57343714Y-58709000D01*
X57400857Y-58766142D01*
X57458000Y-58880428D01*
X57458000Y-59051857D01*
X57400857Y-59166142D01*
X57343714Y-59223285D01*
X57229428Y-59280428D01*
X56772285Y-59280428D01*
X57915142Y-58766142D02*
X57972285Y-58709000D01*
X58086571Y-58651857D01*
X58372285Y-58651857D01*
X58486571Y-58709000D01*
X58543714Y-58766142D01*
X58600857Y-58880428D01*
X58600857Y-58994714D01*
X58543714Y-59166142D01*
X57858000Y-59851857D01*
X58600857Y-59851857D01*
D20*
X65698809Y-64714380D02*
X65698809Y-63714380D01*
X66127380Y-64666761D02*
X66270238Y-64714380D01*
X66508333Y-64714380D01*
X66603571Y-64666761D01*
X66651190Y-64619142D01*
X66698809Y-64523904D01*
X66698809Y-64428666D01*
X66651190Y-64333428D01*
X66603571Y-64285809D01*
X66508333Y-64238190D01*
X66317857Y-64190571D01*
X66222619Y-64142952D01*
X66175000Y-64095333D01*
X66127380Y-64000095D01*
X66127380Y-63904857D01*
X66175000Y-63809619D01*
X66222619Y-63762000D01*
X66317857Y-63714380D01*
X66555952Y-63714380D01*
X66698809Y-63762000D01*
X67127380Y-64714380D02*
X67127380Y-63714380D01*
X67508333Y-63714380D01*
X67603571Y-63762000D01*
X67651190Y-63809619D01*
X67698809Y-63904857D01*
X67698809Y-64047714D01*
X67651190Y-64142952D01*
X67603571Y-64190571D01*
X67508333Y-64238190D01*
X67127380Y-64238190D01*
D21*
X71005714Y-71777142D02*
X70891428Y-71720000D01*
X70777142Y-71605714D01*
X70605714Y-71434285D01*
X70491428Y-71377142D01*
X70377142Y-71377142D01*
X70434285Y-71662857D02*
X70320000Y-71605714D01*
X70205714Y-71491428D01*
X70148571Y-71262857D01*
X70148571Y-70862857D01*
X70205714Y-70634285D01*
X70320000Y-70520000D01*
X70434285Y-70462857D01*
X70662857Y-70462857D01*
X70777142Y-70520000D01*
X70891428Y-70634285D01*
X70948571Y-70862857D01*
X70948571Y-71262857D01*
X70891428Y-71491428D01*
X70777142Y-71605714D01*
X70662857Y-71662857D01*
X70434285Y-71662857D01*
X72091428Y-71662857D02*
X71405714Y-71662857D01*
X71748571Y-71662857D02*
X71748571Y-70462857D01*
X71634285Y-70634285D01*
X71520000Y-70748571D01*
X71405714Y-70805714D01*
D11*
X68465714Y-59839142D02*
X68351428Y-59782000D01*
X68237142Y-59667714D01*
X68065714Y-59496285D01*
X67951428Y-59439142D01*
X67837142Y-59439142D01*
X67894285Y-59724857D02*
X67780000Y-59667714D01*
X67665714Y-59553428D01*
X67608571Y-59324857D01*
X67608571Y-58924857D01*
X67665714Y-58696285D01*
X67780000Y-58582000D01*
X67894285Y-58524857D01*
X68122857Y-58524857D01*
X68237142Y-58582000D01*
X68351428Y-58696285D01*
X68408571Y-58924857D01*
X68408571Y-59324857D01*
X68351428Y-59553428D01*
X68237142Y-59667714D01*
X68122857Y-59724857D01*
X67894285Y-59724857D01*
X68865714Y-58639142D02*
X68922857Y-58582000D01*
X69037142Y-58524857D01*
X69322857Y-58524857D01*
X69437142Y-58582000D01*
X69494285Y-58639142D01*
X69551428Y-58753428D01*
X69551428Y-58867714D01*
X69494285Y-59039142D01*
X68808571Y-59724857D01*
X69551428Y-59724857D01*
D21*
X73926714Y-65935142D02*
X73812428Y-65878000D01*
X73698142Y-65763714D01*
X73526714Y-65592285D01*
X73412428Y-65535142D01*
X73298142Y-65535142D01*
X73355285Y-65820857D02*
X73241000Y-65763714D01*
X73126714Y-65649428D01*
X73069571Y-65420857D01*
X73069571Y-65020857D01*
X73126714Y-64792285D01*
X73241000Y-64678000D01*
X73355285Y-64620857D01*
X73583857Y-64620857D01*
X73698142Y-64678000D01*
X73812428Y-64792285D01*
X73869571Y-65020857D01*
X73869571Y-65420857D01*
X73812428Y-65649428D01*
X73698142Y-65763714D01*
X73583857Y-65820857D01*
X73355285Y-65820857D01*
X74269571Y-64620857D02*
X75012428Y-64620857D01*
X74612428Y-65078000D01*
X74783857Y-65078000D01*
X74898142Y-65135142D01*
X74955285Y-65192285D01*
X75012428Y-65306571D01*
X75012428Y-65592285D01*
X74955285Y-65706571D01*
X74898142Y-65763714D01*
X74783857Y-65820857D01*
X74441000Y-65820857D01*
X74326714Y-65763714D01*
X74269571Y-65706571D01*
X73418714Y-73936142D02*
X73304428Y-73879000D01*
X73190142Y-73764714D01*
X73018714Y-73593285D01*
X72904428Y-73536142D01*
X72790142Y-73536142D01*
X72847285Y-73821857D02*
X72733000Y-73764714D01*
X72618714Y-73650428D01*
X72561571Y-73421857D01*
X72561571Y-73021857D01*
X72618714Y-72793285D01*
X72733000Y-72679000D01*
X72847285Y-72621857D01*
X73075857Y-72621857D01*
X73190142Y-72679000D01*
X73304428Y-72793285D01*
X73361571Y-73021857D01*
X73361571Y-73421857D01*
X73304428Y-73650428D01*
X73190142Y-73764714D01*
X73075857Y-73821857D01*
X72847285Y-73821857D01*
X74390142Y-73021857D02*
X74390142Y-73821857D01*
X74104428Y-72564714D02*
X73818714Y-73421857D01*
X74561571Y-73421857D01*
X68453014Y-80743342D02*
X68338728Y-80686200D01*
X68224442Y-80571914D01*
X68053014Y-80400485D01*
X67938728Y-80343342D01*
X67824442Y-80343342D01*
X67881585Y-80629057D02*
X67767300Y-80571914D01*
X67653014Y-80457628D01*
X67595871Y-80229057D01*
X67595871Y-79829057D01*
X67653014Y-79600485D01*
X67767300Y-79486200D01*
X67881585Y-79429057D01*
X68110157Y-79429057D01*
X68224442Y-79486200D01*
X68338728Y-79600485D01*
X68395871Y-79829057D01*
X68395871Y-80229057D01*
X68338728Y-80457628D01*
X68224442Y-80571914D01*
X68110157Y-80629057D01*
X67881585Y-80629057D01*
X69481585Y-79429057D02*
X68910157Y-79429057D01*
X68853014Y-80000485D01*
X68910157Y-79943342D01*
X69024442Y-79886200D01*
X69310157Y-79886200D01*
X69424442Y-79943342D01*
X69481585Y-80000485D01*
X69538728Y-80114771D01*
X69538728Y-80400485D01*
X69481585Y-80514771D01*
X69424442Y-80571914D01*
X69310157Y-80629057D01*
X69024442Y-80629057D01*
X68910157Y-80571914D01*
X68853014Y-80514771D01*
X60702976Y-65108666D02*
X60037738Y-65532000D01*
X60702976Y-65834380D02*
X59305976Y-65834380D01*
X59305976Y-65350571D01*
X59372500Y-65229619D01*
X59439023Y-65169142D01*
X59572071Y-65108666D01*
X59771642Y-65108666D01*
X59904690Y-65169142D01*
X59971214Y-65229619D01*
X60037738Y-65350571D01*
X60037738Y-65834380D01*
X60702976Y-63899142D02*
X60702976Y-64624857D01*
X60702976Y-64262000D02*
X59305976Y-64262000D01*
X59505547Y-64382952D01*
X59638595Y-64503904D01*
X59705119Y-64624857D01*
X62861976Y-65108666D02*
X62196738Y-65532000D01*
X62861976Y-65834380D02*
X61464976Y-65834380D01*
X61464976Y-65350571D01*
X61531500Y-65229619D01*
X61598023Y-65169142D01*
X61731071Y-65108666D01*
X61930642Y-65108666D01*
X62063690Y-65169142D01*
X62130214Y-65229619D01*
X62196738Y-65350571D01*
X62196738Y-65834380D01*
X61598023Y-64624857D02*
X61531500Y-64564380D01*
X61464976Y-64443428D01*
X61464976Y-64141047D01*
X61531500Y-64020095D01*
X61598023Y-63959619D01*
X61731071Y-63899142D01*
X61864119Y-63899142D01*
X62063690Y-63959619D01*
X62861976Y-64685333D01*
X62861976Y-63899142D01*
X56511976Y-71712666D02*
X55846738Y-72136000D01*
X56511976Y-72438380D02*
X55114976Y-72438380D01*
X55114976Y-71954571D01*
X55181500Y-71833619D01*
X55248023Y-71773142D01*
X55381071Y-71712666D01*
X55580642Y-71712666D01*
X55713690Y-71773142D01*
X55780214Y-71833619D01*
X55846738Y-71954571D01*
X55846738Y-72438380D01*
X55114976Y-71289333D02*
X55114976Y-70503142D01*
X55647166Y-70926476D01*
X55647166Y-70745047D01*
X55713690Y-70624095D01*
X55780214Y-70563619D01*
X55913261Y-70503142D01*
X56245880Y-70503142D01*
X56378928Y-70563619D01*
X56445452Y-70624095D01*
X56511976Y-70745047D01*
X56511976Y-71107904D01*
X56445452Y-71228857D01*
X56378928Y-71289333D01*
X64893976Y-65108666D02*
X64228738Y-65532000D01*
X64893976Y-65834380D02*
X63496976Y-65834380D01*
X63496976Y-65350571D01*
X63563500Y-65229619D01*
X63630023Y-65169142D01*
X63763071Y-65108666D01*
X63962642Y-65108666D01*
X64095690Y-65169142D01*
X64162214Y-65229619D01*
X64228738Y-65350571D01*
X64228738Y-65834380D01*
X63962642Y-64020095D02*
X64893976Y-64020095D01*
X63430452Y-64322476D02*
X64428309Y-64624857D01*
X64428309Y-63838666D01*
X44988238Y-65997666D02*
X45036619Y-65852523D01*
X45036619Y-65610619D01*
X44988238Y-65513857D01*
X44939857Y-65465476D01*
X44843095Y-65417095D01*
X44746333Y-65417095D01*
X44649571Y-65465476D01*
X44601190Y-65513857D01*
X44552809Y-65610619D01*
X44504428Y-65804142D01*
X44456047Y-65900904D01*
X44407666Y-65949285D01*
X44310904Y-65997666D01*
X44214142Y-65997666D01*
X44117380Y-65949285D01*
X44069000Y-65900904D01*
X44020619Y-65804142D01*
X44020619Y-65562238D01*
X44069000Y-65417095D01*
X44020619Y-65078428D02*
X45036619Y-64836523D01*
X44310904Y-64643000D01*
X45036619Y-64449476D01*
X44020619Y-64207571D01*
X45036619Y-63288333D02*
X45036619Y-63868904D01*
X45036619Y-63578619D02*
X44020619Y-63578619D01*
X44165761Y-63675380D01*
X44262523Y-63772142D01*
X44310904Y-63868904D01*
D11*
X48428571Y-57889714D02*
X48600000Y-57946857D01*
X48885714Y-57946857D01*
X49000000Y-57889714D01*
X49057142Y-57832571D01*
X49114285Y-57718285D01*
X49114285Y-57604000D01*
X49057142Y-57489714D01*
X49000000Y-57432571D01*
X48885714Y-57375428D01*
X48657142Y-57318285D01*
X48542857Y-57261142D01*
X48485714Y-57204000D01*
X48428571Y-57089714D01*
X48428571Y-56975428D01*
X48485714Y-56861142D01*
X48542857Y-56804000D01*
X48657142Y-56746857D01*
X48942857Y-56746857D01*
X49114285Y-56804000D01*
X49457142Y-56746857D02*
X50142857Y-56746857D01*
X49800000Y-57946857D02*
X49800000Y-56746857D01*
X50485714Y-57604000D02*
X51057142Y-57604000D01*
X50371428Y-57946857D02*
X50771428Y-56746857D01*
X51171428Y-57946857D01*
X52257142Y-57946857D02*
X51857142Y-57375428D01*
X51571428Y-57946857D02*
X51571428Y-56746857D01*
X52028571Y-56746857D01*
X52142857Y-56804000D01*
X52200000Y-56861142D01*
X52257142Y-56975428D01*
X52257142Y-57146857D01*
X52200000Y-57261142D01*
X52142857Y-57318285D01*
X52028571Y-57375428D01*
X51571428Y-57375428D01*
X52600000Y-56746857D02*
X53285714Y-56746857D01*
X52942857Y-57946857D02*
X52942857Y-56746857D01*
D22*
X41867364Y-65790838D02*
X42720078Y-65790838D01*
X40929378Y-66149824D02*
X41867364Y-65790838D01*
X40929378Y-65431851D01*
X42720078Y-64508742D02*
X42720078Y-65124148D01*
X42720078Y-64816445D02*
X40929378Y-64816445D01*
X41185192Y-64919013D01*
X41355735Y-65021580D01*
X41441007Y-65124148D01*
D11*
X78616285Y-79028857D02*
X78616285Y-77828857D01*
X78902000Y-77828857D01*
X79073428Y-77886000D01*
X79187714Y-78000285D01*
X79244857Y-78114571D01*
X79302000Y-78343142D01*
X79302000Y-78514571D01*
X79244857Y-78743142D01*
X79187714Y-78857428D01*
X79073428Y-78971714D01*
X78902000Y-79028857D01*
X78616285Y-79028857D01*
X80330571Y-78228857D02*
X80330571Y-79028857D01*
X80044857Y-77771714D02*
X79759142Y-78628857D01*
X80502000Y-78628857D01*
D20*
X76271428Y-85470952D02*
X76271428Y-84709047D01*
X76652380Y-85090000D02*
X75890476Y-85090000D01*
D11*
X83061285Y-72678857D02*
X83061285Y-71478857D01*
X83347000Y-71478857D01*
X83518428Y-71536000D01*
X83632714Y-71650285D01*
X83689857Y-71764571D01*
X83747000Y-71993142D01*
X83747000Y-72164571D01*
X83689857Y-72393142D01*
X83632714Y-72507428D01*
X83518428Y-72621714D01*
X83347000Y-72678857D01*
X83061285Y-72678857D01*
X84147000Y-71478857D02*
X84889857Y-71478857D01*
X84489857Y-71936000D01*
X84661285Y-71936000D01*
X84775571Y-71993142D01*
X84832714Y-72050285D01*
X84889857Y-72164571D01*
X84889857Y-72450285D01*
X84832714Y-72564571D01*
X84775571Y-72621714D01*
X84661285Y-72678857D01*
X84318428Y-72678857D01*
X84204142Y-72621714D01*
X84147000Y-72564571D01*
D20*
X85161428Y-78485952D02*
X85161428Y-77724047D01*
X85542380Y-78105000D02*
X84780476Y-78105000D01*
D11*
X83061285Y-65058857D02*
X83061285Y-63858857D01*
X83347000Y-63858857D01*
X83518428Y-63916000D01*
X83632714Y-64030285D01*
X83689857Y-64144571D01*
X83747000Y-64373142D01*
X83747000Y-64544571D01*
X83689857Y-64773142D01*
X83632714Y-64887428D01*
X83518428Y-65001714D01*
X83347000Y-65058857D01*
X83061285Y-65058857D01*
X84204142Y-63973142D02*
X84261285Y-63916000D01*
X84375571Y-63858857D01*
X84661285Y-63858857D01*
X84775571Y-63916000D01*
X84832714Y-63973142D01*
X84889857Y-64087428D01*
X84889857Y-64201714D01*
X84832714Y-64373142D01*
X84147000Y-65058857D01*
X84889857Y-65058857D01*
D20*
X80716428Y-71500952D02*
X80716428Y-70739047D01*
X81097380Y-71120000D02*
X80335476Y-71120000D01*
D11*
X78616285Y-58708857D02*
X78616285Y-57508857D01*
X78902000Y-57508857D01*
X79073428Y-57566000D01*
X79187714Y-57680285D01*
X79244857Y-57794571D01*
X79302000Y-58023142D01*
X79302000Y-58194571D01*
X79244857Y-58423142D01*
X79187714Y-58537428D01*
X79073428Y-58651714D01*
X78902000Y-58708857D01*
X78616285Y-58708857D01*
X80444857Y-58708857D02*
X79759142Y-58708857D01*
X80102000Y-58708857D02*
X80102000Y-57508857D01*
X79987714Y-57680285D01*
X79873428Y-57794571D01*
X79759142Y-57851714D01*
D20*
X75636428Y-64515952D02*
X75636428Y-63754047D01*
X76017380Y-64135000D02*
X75255476Y-64135000D01*
M02*
