G04 (created by PCBNEW-RS274X (2011-12-21 BZR 3253)-stable) date 29/03/2012 15:53:19*
G01*
G70*
G90*
%MOIN*%
G04 Gerber Fmt 3.4, Leading zero omitted, Abs format*
%FSLAX34Y34*%
G04 APERTURE LIST*
%ADD10C,0.006000*%
%ADD11R,0.075000X0.075000*%
%ADD12C,0.075000*%
%ADD13R,0.098400X0.098400*%
%ADD14C,0.098400*%
%ADD15C,0.078700*%
%ADD16C,0.080000*%
%ADD17R,0.090000X0.062000*%
%ADD18O,0.090000X0.062000*%
%ADD19R,0.080000X0.080000*%
%ADD20C,0.025000*%
%ADD21C,0.030000*%
%ADD22C,0.020000*%
%ADD23C,0.010000*%
G04 APERTURE END LIST*
G54D10*
G54D11*
X46510Y-24950D03*
G54D12*
X47510Y-23950D03*
X46510Y-23950D03*
G54D13*
X40250Y-31700D03*
G54D14*
X40250Y-30350D03*
G54D15*
X38850Y-31700D03*
X38900Y-30300D03*
G54D16*
X43385Y-22565D03*
X43385Y-24565D03*
X40385Y-22565D03*
X40385Y-24565D03*
G54D11*
X49200Y-32100D03*
G54D12*
X50200Y-32100D03*
X50200Y-31100D03*
X52700Y-26100D03*
X52700Y-25100D03*
G54D17*
X41500Y-26150D03*
G54D18*
X41500Y-27150D03*
X41500Y-28150D03*
X41500Y-29150D03*
X44500Y-29150D03*
X44500Y-28150D03*
X44500Y-27150D03*
X44500Y-26150D03*
G54D19*
X42550Y-31700D03*
G54D16*
X42550Y-30700D03*
G54D12*
X52675Y-29100D03*
X52675Y-28100D03*
X52700Y-32095D03*
X52700Y-31095D03*
X46900Y-32200D03*
X46900Y-31200D03*
G54D16*
X48150Y-26900D03*
X48150Y-29900D03*
X45120Y-22230D03*
X48120Y-22230D03*
X46850Y-29900D03*
X46850Y-26900D03*
X45800Y-26900D03*
X45800Y-29900D03*
G54D11*
X49170Y-23080D03*
G54D12*
X50170Y-23080D03*
X50170Y-22080D03*
G54D11*
X49200Y-26100D03*
G54D12*
X50200Y-26100D03*
X50200Y-25100D03*
G54D11*
X49200Y-29100D03*
G54D12*
X50200Y-29100D03*
X50200Y-28100D03*
X52695Y-23090D03*
X52695Y-22090D03*
X44520Y-32455D03*
X44520Y-30455D03*
G54D19*
X40100Y-28700D03*
G54D16*
X40100Y-27700D03*
X40100Y-26700D03*
G54D20*
X44550Y-30700D02*
X44580Y-30700D01*
X39800Y-27700D02*
X40100Y-27700D01*
X39465Y-28035D02*
X39465Y-24410D01*
X44720Y-30560D02*
X47160Y-30560D01*
G54D21*
X49200Y-29100D02*
X49200Y-32100D01*
X49200Y-26100D02*
X49200Y-29100D01*
G54D20*
X39465Y-24410D02*
X39465Y-23485D01*
X39465Y-23485D02*
X40385Y-22565D01*
X47490Y-30230D02*
X47490Y-29450D01*
X44520Y-30455D02*
X44405Y-30455D01*
X39450Y-29208D02*
X39450Y-28050D01*
G54D21*
X42550Y-30700D02*
X44160Y-30700D01*
G54D20*
X48320Y-22230D02*
X49170Y-23080D01*
G54D21*
X41500Y-30350D02*
X42200Y-30350D01*
G54D20*
X39465Y-28035D02*
X39800Y-27700D01*
X47490Y-29450D02*
X47840Y-29100D01*
X39450Y-28050D02*
X39465Y-28035D01*
X47080Y-26900D02*
X47880Y-26100D01*
G54D21*
X42200Y-30350D02*
X42550Y-30700D01*
G54D20*
X39940Y-29460D02*
X39702Y-29460D01*
G54D21*
X49170Y-23080D02*
X49170Y-26070D01*
G54D20*
X39702Y-29460D02*
X39450Y-29208D01*
X39450Y-29208D02*
X39442Y-29208D01*
X39442Y-29208D02*
X39450Y-29208D01*
X40250Y-30350D02*
X40250Y-29640D01*
X40070Y-29460D02*
X39940Y-29460D01*
X40250Y-29640D02*
X40070Y-29460D01*
X47160Y-30560D02*
X47490Y-30230D01*
X44580Y-30700D02*
X44720Y-30560D01*
G54D21*
X41500Y-29150D02*
X41500Y-30350D01*
G54D20*
X47840Y-29100D02*
X49200Y-29100D01*
X40385Y-22565D02*
X43385Y-22565D01*
G54D21*
X49170Y-26070D02*
X49200Y-26100D01*
G54D20*
X44405Y-30455D02*
X44160Y-30700D01*
G54D21*
X47880Y-26100D02*
X49200Y-26100D01*
X40250Y-30350D02*
X41500Y-30350D01*
G54D20*
X46850Y-26900D02*
X47080Y-26900D01*
G54D21*
X44160Y-30700D02*
X44550Y-30700D01*
G54D20*
X48120Y-22230D02*
X48320Y-22230D01*
G54D21*
X47350Y-27700D02*
X48150Y-26900D01*
X45300Y-27700D02*
X46850Y-27700D01*
X46850Y-27700D02*
X47350Y-27700D01*
X44500Y-27150D02*
X44750Y-27150D01*
X44750Y-27150D02*
X45300Y-27700D01*
X45800Y-29400D02*
X45800Y-29900D01*
X44500Y-29150D02*
X45550Y-29150D01*
X45550Y-29150D02*
X45800Y-29400D01*
X50200Y-28100D02*
X52675Y-28100D01*
X50170Y-22080D02*
X52685Y-22080D01*
X52685Y-22080D02*
X52695Y-22090D01*
G54D20*
X48015Y-25110D02*
X48015Y-24455D01*
X48015Y-24455D02*
X47510Y-23950D01*
X47040Y-26085D02*
X48015Y-25110D01*
X45800Y-26575D02*
X46290Y-26085D01*
X46290Y-26085D02*
X47040Y-26085D01*
X45800Y-26900D02*
X45800Y-26575D01*
G54D21*
X48150Y-30800D02*
X48150Y-29900D01*
X46900Y-31200D02*
X47750Y-31200D01*
X47750Y-31200D02*
X48150Y-30800D01*
X40100Y-26700D02*
X40500Y-26700D01*
X40500Y-26700D02*
X40950Y-27150D01*
X40950Y-27150D02*
X41500Y-27150D01*
X40600Y-28700D02*
X41150Y-28150D01*
X40100Y-28700D02*
X40600Y-28700D01*
X41150Y-28150D02*
X41500Y-28150D01*
X52700Y-31095D02*
X50205Y-31095D01*
X50205Y-31095D02*
X50200Y-31100D01*
G54D22*
X50170Y-23020D02*
X50170Y-23080D01*
X50200Y-28990D02*
X49590Y-28380D01*
X49590Y-28380D02*
X49590Y-27310D01*
X50070Y-26830D02*
X50200Y-26700D01*
X50200Y-29800D02*
X50200Y-29100D01*
X49610Y-25430D02*
X49610Y-24160D01*
X50170Y-23660D02*
X50170Y-23080D01*
G54D20*
X46695Y-22230D02*
X47415Y-21510D01*
X47415Y-21510D02*
X48660Y-21510D01*
X48660Y-21510D02*
X49410Y-22260D01*
X45120Y-22230D02*
X46695Y-22230D01*
X46355Y-24950D02*
X45120Y-23715D01*
X45120Y-23715D02*
X45120Y-22230D01*
X46510Y-24950D02*
X46355Y-24950D01*
G54D22*
X50170Y-23020D02*
X49410Y-22260D01*
X49600Y-31440D02*
X49600Y-30400D01*
X50200Y-32040D02*
X49600Y-31440D01*
X50200Y-29100D02*
X50200Y-28990D01*
X50200Y-26100D02*
X50200Y-26020D01*
X49600Y-30400D02*
X50070Y-29930D01*
X49610Y-24160D02*
X49855Y-23915D01*
X50200Y-32100D02*
X50200Y-32040D01*
X50200Y-26020D02*
X49610Y-25430D01*
X50070Y-29930D02*
X50200Y-29800D01*
X50200Y-26700D02*
X50200Y-26100D01*
X49855Y-23915D02*
X49915Y-23915D01*
X49915Y-23915D02*
X50170Y-23660D01*
X49590Y-27310D02*
X50070Y-26830D01*
G54D21*
X50200Y-25100D02*
X52700Y-25100D01*
G54D20*
X41500Y-26150D02*
X41500Y-24580D01*
X41500Y-24580D02*
X41515Y-24565D01*
X40385Y-24565D02*
X41515Y-24565D01*
X41515Y-24565D02*
X43385Y-24565D01*
G54D21*
X46850Y-29100D02*
X46850Y-29900D01*
X45900Y-28150D02*
X46850Y-29100D01*
X44500Y-28150D02*
X45900Y-28150D01*
G54D20*
X43765Y-31700D02*
X44520Y-32455D01*
G54D21*
X47550Y-32200D02*
X48200Y-32850D01*
G54D20*
X44500Y-26150D02*
X44890Y-26150D01*
X39090Y-29550D02*
X39090Y-22700D01*
X44520Y-32430D02*
X44750Y-32200D01*
X44520Y-32455D02*
X44520Y-32430D01*
X47475Y-24810D02*
X46615Y-23950D01*
G54D21*
X48200Y-32850D02*
X50380Y-32850D01*
X40250Y-31700D02*
X42550Y-31700D01*
G54D20*
X44890Y-26150D02*
X45345Y-25695D01*
G54D21*
X52985Y-23090D02*
X53550Y-23655D01*
X53550Y-23655D02*
X53550Y-26100D01*
X52695Y-23090D02*
X52985Y-23090D01*
X46900Y-32200D02*
X47550Y-32200D01*
G54D20*
X46845Y-25695D02*
X47475Y-25065D01*
X45345Y-25695D02*
X46845Y-25695D01*
X44160Y-25810D02*
X44500Y-26150D01*
X47475Y-25065D02*
X47475Y-24810D01*
X46615Y-23950D02*
X46510Y-23950D01*
X39090Y-22700D02*
X40040Y-21750D01*
G54D21*
X53570Y-31285D02*
X53570Y-29085D01*
G54D20*
X40250Y-31700D02*
X40250Y-31500D01*
X39520Y-29980D02*
X39090Y-29550D01*
X39520Y-30770D02*
X39520Y-29980D01*
X40250Y-31500D02*
X39520Y-30770D01*
X40040Y-21750D02*
X43650Y-21750D01*
G54D21*
X52675Y-29100D02*
X53570Y-29100D01*
X52700Y-26100D02*
X53550Y-26100D01*
X53550Y-26100D02*
X53570Y-26100D01*
G54D20*
X42550Y-31700D02*
X43765Y-31700D01*
G54D21*
X51945Y-32850D02*
X52700Y-32095D01*
X53570Y-29085D02*
X53570Y-26310D01*
X52700Y-32095D02*
X52760Y-32095D01*
X53570Y-29100D02*
X53570Y-29085D01*
G54D20*
X44750Y-32200D02*
X46900Y-32200D01*
G54D21*
X52760Y-32095D02*
X53570Y-31285D01*
G54D20*
X43650Y-21750D02*
X44160Y-22260D01*
G54D21*
X53570Y-26310D02*
X53570Y-26100D01*
G54D20*
X44160Y-22260D02*
X44160Y-25810D01*
G54D21*
X50380Y-32850D02*
X51945Y-32850D01*
G54D10*
G36*
X39599Y-28059D02*
X39578Y-28081D01*
X39559Y-28089D01*
X39489Y-28159D01*
X39465Y-28216D01*
X39465Y-27749D01*
X39469Y-27851D01*
X39546Y-28040D01*
X39599Y-28059D01*
X39599Y-28059D01*
G37*
G54D23*
X39599Y-28059D02*
X39578Y-28081D01*
X39559Y-28089D01*
X39489Y-28159D01*
X39465Y-28216D01*
X39465Y-27749D01*
X39469Y-27851D01*
X39546Y-28040D01*
X39599Y-28059D01*
G54D10*
G36*
X40171Y-27700D02*
X40100Y-27771D01*
X40029Y-27700D01*
X39994Y-27665D01*
X39651Y-27322D01*
X39546Y-27360D01*
X39465Y-27580D01*
X39465Y-26862D01*
X39550Y-27068D01*
X39724Y-27242D01*
X39722Y-27251D01*
X40065Y-27594D01*
X40100Y-27629D01*
X40171Y-27700D01*
X40171Y-27700D01*
G37*
G54D23*
X40171Y-27700D02*
X40100Y-27771D01*
X40029Y-27700D01*
X39994Y-27665D01*
X39651Y-27322D01*
X39546Y-27360D01*
X39465Y-27580D01*
X39465Y-26862D01*
X39550Y-27068D01*
X39724Y-27242D01*
X39722Y-27251D01*
X40065Y-27594D01*
X40100Y-27629D01*
X40171Y-27700D01*
G54D10*
G36*
X43785Y-24047D02*
X43763Y-24025D01*
X43753Y-24015D01*
X43514Y-23916D01*
X43256Y-23916D01*
X43017Y-24015D01*
X42842Y-24190D01*
X41515Y-24190D01*
X41026Y-24190D01*
X40928Y-24190D01*
X40763Y-24025D01*
X40763Y-23014D01*
X40385Y-22636D01*
X40007Y-23014D01*
X40045Y-23119D01*
X40282Y-23206D01*
X40536Y-23196D01*
X40725Y-23119D01*
X40763Y-23014D01*
X40763Y-24025D01*
X40753Y-24015D01*
X40514Y-23916D01*
X40256Y-23916D01*
X40017Y-24015D01*
X39835Y-24197D01*
X39736Y-24436D01*
X39736Y-24694D01*
X39835Y-24933D01*
X40017Y-25115D01*
X40256Y-25214D01*
X40514Y-25214D01*
X40753Y-25115D01*
X40928Y-24940D01*
X41125Y-24940D01*
X41125Y-25591D01*
X41001Y-25591D01*
X40909Y-25629D01*
X40839Y-25699D01*
X40801Y-25790D01*
X40801Y-25889D01*
X40801Y-26435D01*
X40783Y-26417D01*
X40653Y-26330D01*
X40646Y-26328D01*
X40468Y-26150D01*
X40229Y-26051D01*
X39971Y-26051D01*
X39732Y-26150D01*
X39550Y-26332D01*
X39465Y-26537D01*
X39465Y-22855D01*
X39748Y-22572D01*
X39754Y-22716D01*
X39831Y-22905D01*
X39936Y-22943D01*
X40279Y-22600D01*
X40314Y-22565D01*
X40385Y-22494D01*
X40456Y-22565D01*
X40491Y-22600D01*
X40834Y-22943D01*
X40939Y-22905D01*
X41026Y-22668D01*
X41016Y-22414D01*
X40939Y-22225D01*
X40885Y-22205D01*
X40923Y-22168D01*
X40880Y-22125D01*
X42890Y-22125D01*
X42847Y-22168D01*
X42884Y-22205D01*
X42831Y-22225D01*
X42744Y-22462D01*
X42754Y-22716D01*
X42831Y-22905D01*
X42936Y-22943D01*
X43279Y-22600D01*
X43314Y-22565D01*
X43385Y-22494D01*
X43456Y-22565D01*
X43385Y-22636D01*
X43350Y-22671D01*
X43314Y-22707D01*
X43007Y-23014D01*
X43045Y-23119D01*
X43282Y-23206D01*
X43536Y-23196D01*
X43725Y-23119D01*
X43744Y-23065D01*
X43763Y-23084D01*
X43782Y-23103D01*
X43785Y-23100D01*
X43785Y-24047D01*
X43785Y-24047D01*
G37*
G54D23*
X43785Y-24047D02*
X43763Y-24025D01*
X43753Y-24015D01*
X43514Y-23916D01*
X43256Y-23916D01*
X43017Y-24015D01*
X42842Y-24190D01*
X41515Y-24190D01*
X41026Y-24190D01*
X40928Y-24190D01*
X40763Y-24025D01*
X40763Y-23014D01*
X40385Y-22636D01*
X40007Y-23014D01*
X40045Y-23119D01*
X40282Y-23206D01*
X40536Y-23196D01*
X40725Y-23119D01*
X40763Y-23014D01*
X40763Y-24025D01*
X40753Y-24015D01*
X40514Y-23916D01*
X40256Y-23916D01*
X40017Y-24015D01*
X39835Y-24197D01*
X39736Y-24436D01*
X39736Y-24694D01*
X39835Y-24933D01*
X40017Y-25115D01*
X40256Y-25214D01*
X40514Y-25214D01*
X40753Y-25115D01*
X40928Y-24940D01*
X41125Y-24940D01*
X41125Y-25591D01*
X41001Y-25591D01*
X40909Y-25629D01*
X40839Y-25699D01*
X40801Y-25790D01*
X40801Y-25889D01*
X40801Y-26435D01*
X40783Y-26417D01*
X40653Y-26330D01*
X40646Y-26328D01*
X40468Y-26150D01*
X40229Y-26051D01*
X39971Y-26051D01*
X39732Y-26150D01*
X39550Y-26332D01*
X39465Y-26537D01*
X39465Y-22855D01*
X39748Y-22572D01*
X39754Y-22716D01*
X39831Y-22905D01*
X39936Y-22943D01*
X40279Y-22600D01*
X40314Y-22565D01*
X40385Y-22494D01*
X40456Y-22565D01*
X40491Y-22600D01*
X40834Y-22943D01*
X40939Y-22905D01*
X41026Y-22668D01*
X41016Y-22414D01*
X40939Y-22225D01*
X40885Y-22205D01*
X40923Y-22168D01*
X40880Y-22125D01*
X42890Y-22125D01*
X42847Y-22168D01*
X42884Y-22205D01*
X42831Y-22225D01*
X42744Y-22462D01*
X42754Y-22716D01*
X42831Y-22905D01*
X42936Y-22943D01*
X43279Y-22600D01*
X43314Y-22565D01*
X43385Y-22494D01*
X43456Y-22565D01*
X43385Y-22636D01*
X43350Y-22671D01*
X43314Y-22707D01*
X43007Y-23014D01*
X43045Y-23119D01*
X43282Y-23206D01*
X43536Y-23196D01*
X43725Y-23119D01*
X43744Y-23065D01*
X43763Y-23084D01*
X43782Y-23103D01*
X43785Y-23100D01*
X43785Y-24047D01*
G54D10*
G36*
X49850Y-29655D02*
X49824Y-29681D01*
X49822Y-29683D01*
X49353Y-30153D01*
X49277Y-30266D01*
X49250Y-30400D01*
X49250Y-31440D01*
X49266Y-31520D01*
X49250Y-31537D01*
X49250Y-32000D01*
X49250Y-32050D01*
X49250Y-32150D01*
X49150Y-32150D01*
X49150Y-32050D01*
X49150Y-31537D01*
X49088Y-31475D01*
X48776Y-31476D01*
X48684Y-31514D01*
X48614Y-31584D01*
X48576Y-31675D01*
X48576Y-31774D01*
X48575Y-31988D01*
X48637Y-32050D01*
X49150Y-32050D01*
X49150Y-32150D01*
X49100Y-32150D01*
X48637Y-32150D01*
X48575Y-32212D01*
X48576Y-32426D01*
X48576Y-32450D01*
X48366Y-32450D01*
X47833Y-31917D01*
X47703Y-31830D01*
X47550Y-31800D01*
X47384Y-31800D01*
X47284Y-31700D01*
X47384Y-31600D01*
X47750Y-31600D01*
X47903Y-31570D01*
X48033Y-31483D01*
X48429Y-31085D01*
X48432Y-31083D01*
X48433Y-31083D01*
X48519Y-30954D01*
X48520Y-30953D01*
X48550Y-30800D01*
X48550Y-30418D01*
X48700Y-30268D01*
X48799Y-30029D01*
X48799Y-29771D01*
X48779Y-29724D01*
X49088Y-29725D01*
X49150Y-29663D01*
X49150Y-29150D01*
X49150Y-29050D01*
X49150Y-28537D01*
X49088Y-28475D01*
X48776Y-28476D01*
X48684Y-28514D01*
X48614Y-28584D01*
X48576Y-28675D01*
X48576Y-28774D01*
X48575Y-28988D01*
X48637Y-29050D01*
X49150Y-29050D01*
X49150Y-29150D01*
X48637Y-29150D01*
X48575Y-29212D01*
X48575Y-29407D01*
X48518Y-29350D01*
X48279Y-29251D01*
X48021Y-29251D01*
X47782Y-29350D01*
X47600Y-29532D01*
X47501Y-29771D01*
X47501Y-30029D01*
X47600Y-30268D01*
X47750Y-30418D01*
X47750Y-30634D01*
X47584Y-30800D01*
X47384Y-30800D01*
X47254Y-30670D01*
X47025Y-30575D01*
X46776Y-30575D01*
X46546Y-30670D01*
X46370Y-30846D01*
X46275Y-31075D01*
X46275Y-31324D01*
X46370Y-31554D01*
X46516Y-31700D01*
X46391Y-31825D01*
X45137Y-31825D01*
X45137Y-30552D01*
X45127Y-30309D01*
X45053Y-30130D01*
X44951Y-30094D01*
X44881Y-30164D01*
X44881Y-30024D01*
X44845Y-29922D01*
X44617Y-29838D01*
X44374Y-29848D01*
X44195Y-29922D01*
X44159Y-30024D01*
X44520Y-30384D01*
X44881Y-30024D01*
X44881Y-30164D01*
X44591Y-30455D01*
X44951Y-30816D01*
X45053Y-30780D01*
X45137Y-30552D01*
X45137Y-31825D01*
X44881Y-31825D01*
X44881Y-30886D01*
X44520Y-30526D01*
X44449Y-30596D01*
X44449Y-30455D01*
X44089Y-30094D01*
X43987Y-30130D01*
X43903Y-30358D01*
X43913Y-30601D01*
X43987Y-30780D01*
X44089Y-30816D01*
X44449Y-30455D01*
X44449Y-30596D01*
X44159Y-30886D01*
X44195Y-30988D01*
X44423Y-31072D01*
X44666Y-31062D01*
X44845Y-30988D01*
X44881Y-30886D01*
X44881Y-31825D01*
X44750Y-31825D01*
X44671Y-31840D01*
X44645Y-31830D01*
X44425Y-31830D01*
X44030Y-31435D01*
X43909Y-31354D01*
X43765Y-31325D01*
X43199Y-31325D01*
X43199Y-31251D01*
X43161Y-31159D01*
X43091Y-31089D01*
X43072Y-31081D01*
X43050Y-31059D01*
X43104Y-31040D01*
X43191Y-30803D01*
X43181Y-30549D01*
X43104Y-30360D01*
X42999Y-30322D01*
X42928Y-30393D01*
X42928Y-30251D01*
X42890Y-30146D01*
X42653Y-30059D01*
X42399Y-30069D01*
X42210Y-30146D01*
X42182Y-30223D01*
X42182Y-29287D01*
X42135Y-29200D01*
X41550Y-29200D01*
X41550Y-29710D01*
X41660Y-29710D01*
X41873Y-29660D01*
X42050Y-29532D01*
X42165Y-29346D01*
X42182Y-29287D01*
X42182Y-30223D01*
X42172Y-30251D01*
X42550Y-30629D01*
X42928Y-30251D01*
X42928Y-30393D01*
X42656Y-30665D01*
X42621Y-30700D01*
X42550Y-30771D01*
X42479Y-30700D01*
X42444Y-30665D01*
X42101Y-30322D01*
X41996Y-30360D01*
X41909Y-30597D01*
X41919Y-30851D01*
X41996Y-31040D01*
X42049Y-31059D01*
X42028Y-31081D01*
X42009Y-31089D01*
X41939Y-31159D01*
X41901Y-31250D01*
X41901Y-31300D01*
X41450Y-31300D01*
X41450Y-29710D01*
X41450Y-29200D01*
X40865Y-29200D01*
X40818Y-29287D01*
X40835Y-29346D01*
X40950Y-29532D01*
X41127Y-29660D01*
X41340Y-29710D01*
X41450Y-29710D01*
X41450Y-31300D01*
X40991Y-31300D01*
X40991Y-31159D01*
X40981Y-31134D01*
X40981Y-30474D01*
X40973Y-30185D01*
X40878Y-29955D01*
X40765Y-29906D01*
X40321Y-30350D01*
X40765Y-30794D01*
X40878Y-30745D01*
X40981Y-30474D01*
X40981Y-31134D01*
X40953Y-31067D01*
X40883Y-30997D01*
X40792Y-30959D01*
X40693Y-30959D01*
X40653Y-30959D01*
X40694Y-30865D01*
X40285Y-30456D01*
X40250Y-30421D01*
X40179Y-30350D01*
X40250Y-30279D01*
X40285Y-30244D01*
X40694Y-29835D01*
X40645Y-29722D01*
X40374Y-29619D01*
X40085Y-29627D01*
X39855Y-29722D01*
X39829Y-29781D01*
X39785Y-29715D01*
X39465Y-29395D01*
X39465Y-29182D01*
X39489Y-29241D01*
X39559Y-29311D01*
X39650Y-29349D01*
X39749Y-29349D01*
X40549Y-29349D01*
X40641Y-29311D01*
X40711Y-29241D01*
X40749Y-29150D01*
X40749Y-29070D01*
X40753Y-29070D01*
X40823Y-29022D01*
X40865Y-29100D01*
X41400Y-29100D01*
X41450Y-29100D01*
X41550Y-29100D01*
X41600Y-29100D01*
X42135Y-29100D01*
X42182Y-29013D01*
X42165Y-28954D01*
X42050Y-28768D01*
X41884Y-28648D01*
X41964Y-28615D01*
X42118Y-28461D01*
X42202Y-28259D01*
X42202Y-28041D01*
X42118Y-27839D01*
X41964Y-27685D01*
X41879Y-27650D01*
X41964Y-27615D01*
X42118Y-27461D01*
X42202Y-27259D01*
X42202Y-27041D01*
X42118Y-26839D01*
X41988Y-26709D01*
X41999Y-26709D01*
X42091Y-26671D01*
X42161Y-26601D01*
X42199Y-26510D01*
X42199Y-26411D01*
X42199Y-25791D01*
X42161Y-25699D01*
X42091Y-25629D01*
X42000Y-25591D01*
X41901Y-25591D01*
X41875Y-25591D01*
X41875Y-24940D01*
X42842Y-24940D01*
X43017Y-25115D01*
X43256Y-25214D01*
X43514Y-25214D01*
X43753Y-25115D01*
X43785Y-25083D01*
X43785Y-25810D01*
X43814Y-25954D01*
X43826Y-25972D01*
X43798Y-26041D01*
X43798Y-26259D01*
X43882Y-26461D01*
X44036Y-26615D01*
X44120Y-26650D01*
X44036Y-26685D01*
X43882Y-26839D01*
X43798Y-27041D01*
X43798Y-27259D01*
X43882Y-27461D01*
X44036Y-27615D01*
X44120Y-27650D01*
X44036Y-27685D01*
X43882Y-27839D01*
X43798Y-28041D01*
X43798Y-28259D01*
X43882Y-28461D01*
X44036Y-28615D01*
X44120Y-28650D01*
X44036Y-28685D01*
X43882Y-28839D01*
X43798Y-29041D01*
X43798Y-29259D01*
X43882Y-29461D01*
X44036Y-29615D01*
X44238Y-29699D01*
X44456Y-29699D01*
X44762Y-29699D01*
X44964Y-29615D01*
X45029Y-29550D01*
X45242Y-29550D01*
X45151Y-29771D01*
X45151Y-30029D01*
X45250Y-30268D01*
X45432Y-30450D01*
X45671Y-30549D01*
X45929Y-30549D01*
X46168Y-30450D01*
X46325Y-30293D01*
X46482Y-30450D01*
X46721Y-30549D01*
X46979Y-30549D01*
X47218Y-30450D01*
X47400Y-30268D01*
X47499Y-30029D01*
X47499Y-29771D01*
X47400Y-29532D01*
X47250Y-29382D01*
X47250Y-29100D01*
X47220Y-28947D01*
X47219Y-28946D01*
X47133Y-28817D01*
X47129Y-28814D01*
X46415Y-28100D01*
X46850Y-28100D01*
X47350Y-28100D01*
X47503Y-28070D01*
X47633Y-27983D01*
X48067Y-27549D01*
X48279Y-27549D01*
X48518Y-27450D01*
X48700Y-27268D01*
X48799Y-27029D01*
X48799Y-26771D01*
X48779Y-26724D01*
X49088Y-26725D01*
X49150Y-26663D01*
X49150Y-26150D01*
X49150Y-26050D01*
X49150Y-25537D01*
X49120Y-25507D01*
X49120Y-23643D01*
X49120Y-23130D01*
X48607Y-23130D01*
X48545Y-23192D01*
X48546Y-23406D01*
X48546Y-23505D01*
X48584Y-23596D01*
X48654Y-23666D01*
X48746Y-23704D01*
X49058Y-23705D01*
X49120Y-23643D01*
X49120Y-25507D01*
X49088Y-25475D01*
X48776Y-25476D01*
X48684Y-25514D01*
X48614Y-25584D01*
X48576Y-25675D01*
X48576Y-25774D01*
X48575Y-25988D01*
X48637Y-26050D01*
X49150Y-26050D01*
X49150Y-26150D01*
X48637Y-26150D01*
X48575Y-26212D01*
X48575Y-26407D01*
X48518Y-26350D01*
X48498Y-26341D01*
X48279Y-26251D01*
X48021Y-26251D01*
X47782Y-26350D01*
X47600Y-26532D01*
X47501Y-26771D01*
X47501Y-26983D01*
X47490Y-26993D01*
X47481Y-26749D01*
X47404Y-26560D01*
X47299Y-26522D01*
X46956Y-26865D01*
X46921Y-26900D01*
X46850Y-26971D01*
X46779Y-26900D01*
X46850Y-26829D01*
X46885Y-26794D01*
X47228Y-26451D01*
X47213Y-26411D01*
X47213Y-26410D01*
X47305Y-26350D01*
X48280Y-25376D01*
X48280Y-25375D01*
X48320Y-25314D01*
X48361Y-25254D01*
X48361Y-25253D01*
X48389Y-25111D01*
X48390Y-25110D01*
X48390Y-24455D01*
X48361Y-24312D01*
X48361Y-24311D01*
X48280Y-24190D01*
X48135Y-24045D01*
X48135Y-23826D01*
X48040Y-23596D01*
X47864Y-23420D01*
X47635Y-23325D01*
X47386Y-23325D01*
X47156Y-23420D01*
X47010Y-23566D01*
X46864Y-23420D01*
X46635Y-23325D01*
X46386Y-23325D01*
X46156Y-23420D01*
X45980Y-23596D01*
X45885Y-23825D01*
X45885Y-23949D01*
X45495Y-23559D01*
X45495Y-22773D01*
X45663Y-22605D01*
X46695Y-22605D01*
X46838Y-22576D01*
X46839Y-22576D01*
X46960Y-22495D01*
X47570Y-21885D01*
X47579Y-21885D01*
X47566Y-21890D01*
X47479Y-22127D01*
X47489Y-22381D01*
X47566Y-22570D01*
X47671Y-22608D01*
X48014Y-22265D01*
X48049Y-22230D01*
X48120Y-22159D01*
X48191Y-22230D01*
X48120Y-22301D01*
X48085Y-22336D01*
X47742Y-22679D01*
X47780Y-22784D01*
X48017Y-22871D01*
X48271Y-22861D01*
X48460Y-22784D01*
X48479Y-22730D01*
X48498Y-22749D01*
X48517Y-22768D01*
X48546Y-22739D01*
X48546Y-22754D01*
X48545Y-22968D01*
X48607Y-23030D01*
X49070Y-23030D01*
X49120Y-23030D01*
X49220Y-23030D01*
X49220Y-23130D01*
X49220Y-23180D01*
X49220Y-23643D01*
X49282Y-23705D01*
X49571Y-23704D01*
X49363Y-23913D01*
X49287Y-24026D01*
X49260Y-24160D01*
X49260Y-25430D01*
X49276Y-25510D01*
X49250Y-25537D01*
X49250Y-26000D01*
X49250Y-26050D01*
X49250Y-26150D01*
X49250Y-26200D01*
X49250Y-26663D01*
X49312Y-26725D01*
X49624Y-26724D01*
X49716Y-26686D01*
X49786Y-26616D01*
X49799Y-26583D01*
X49810Y-26594D01*
X49343Y-27063D01*
X49267Y-27176D01*
X49240Y-27310D01*
X49240Y-28380D01*
X49267Y-28514D01*
X49269Y-28517D01*
X49250Y-28537D01*
X49250Y-29000D01*
X49250Y-29050D01*
X49250Y-29150D01*
X49250Y-29200D01*
X49250Y-29663D01*
X49312Y-29725D01*
X49624Y-29724D01*
X49716Y-29686D01*
X49786Y-29616D01*
X49799Y-29583D01*
X49846Y-29630D01*
X49850Y-29631D01*
X49850Y-29655D01*
X49850Y-29655D01*
G37*
G54D23*
X49850Y-29655D02*
X49824Y-29681D01*
X49822Y-29683D01*
X49353Y-30153D01*
X49277Y-30266D01*
X49250Y-30400D01*
X49250Y-31440D01*
X49266Y-31520D01*
X49250Y-31537D01*
X49250Y-32000D01*
X49250Y-32050D01*
X49250Y-32150D01*
X49150Y-32150D01*
X49150Y-32050D01*
X49150Y-31537D01*
X49088Y-31475D01*
X48776Y-31476D01*
X48684Y-31514D01*
X48614Y-31584D01*
X48576Y-31675D01*
X48576Y-31774D01*
X48575Y-31988D01*
X48637Y-32050D01*
X49150Y-32050D01*
X49150Y-32150D01*
X49100Y-32150D01*
X48637Y-32150D01*
X48575Y-32212D01*
X48576Y-32426D01*
X48576Y-32450D01*
X48366Y-32450D01*
X47833Y-31917D01*
X47703Y-31830D01*
X47550Y-31800D01*
X47384Y-31800D01*
X47284Y-31700D01*
X47384Y-31600D01*
X47750Y-31600D01*
X47903Y-31570D01*
X48033Y-31483D01*
X48429Y-31085D01*
X48432Y-31083D01*
X48433Y-31083D01*
X48519Y-30954D01*
X48520Y-30953D01*
X48550Y-30800D01*
X48550Y-30418D01*
X48700Y-30268D01*
X48799Y-30029D01*
X48799Y-29771D01*
X48779Y-29724D01*
X49088Y-29725D01*
X49150Y-29663D01*
X49150Y-29150D01*
X49150Y-29050D01*
X49150Y-28537D01*
X49088Y-28475D01*
X48776Y-28476D01*
X48684Y-28514D01*
X48614Y-28584D01*
X48576Y-28675D01*
X48576Y-28774D01*
X48575Y-28988D01*
X48637Y-29050D01*
X49150Y-29050D01*
X49150Y-29150D01*
X48637Y-29150D01*
X48575Y-29212D01*
X48575Y-29407D01*
X48518Y-29350D01*
X48279Y-29251D01*
X48021Y-29251D01*
X47782Y-29350D01*
X47600Y-29532D01*
X47501Y-29771D01*
X47501Y-30029D01*
X47600Y-30268D01*
X47750Y-30418D01*
X47750Y-30634D01*
X47584Y-30800D01*
X47384Y-30800D01*
X47254Y-30670D01*
X47025Y-30575D01*
X46776Y-30575D01*
X46546Y-30670D01*
X46370Y-30846D01*
X46275Y-31075D01*
X46275Y-31324D01*
X46370Y-31554D01*
X46516Y-31700D01*
X46391Y-31825D01*
X45137Y-31825D01*
X45137Y-30552D01*
X45127Y-30309D01*
X45053Y-30130D01*
X44951Y-30094D01*
X44881Y-30164D01*
X44881Y-30024D01*
X44845Y-29922D01*
X44617Y-29838D01*
X44374Y-29848D01*
X44195Y-29922D01*
X44159Y-30024D01*
X44520Y-30384D01*
X44881Y-30024D01*
X44881Y-30164D01*
X44591Y-30455D01*
X44951Y-30816D01*
X45053Y-30780D01*
X45137Y-30552D01*
X45137Y-31825D01*
X44881Y-31825D01*
X44881Y-30886D01*
X44520Y-30526D01*
X44449Y-30596D01*
X44449Y-30455D01*
X44089Y-30094D01*
X43987Y-30130D01*
X43903Y-30358D01*
X43913Y-30601D01*
X43987Y-30780D01*
X44089Y-30816D01*
X44449Y-30455D01*
X44449Y-30596D01*
X44159Y-30886D01*
X44195Y-30988D01*
X44423Y-31072D01*
X44666Y-31062D01*
X44845Y-30988D01*
X44881Y-30886D01*
X44881Y-31825D01*
X44750Y-31825D01*
X44671Y-31840D01*
X44645Y-31830D01*
X44425Y-31830D01*
X44030Y-31435D01*
X43909Y-31354D01*
X43765Y-31325D01*
X43199Y-31325D01*
X43199Y-31251D01*
X43161Y-31159D01*
X43091Y-31089D01*
X43072Y-31081D01*
X43050Y-31059D01*
X43104Y-31040D01*
X43191Y-30803D01*
X43181Y-30549D01*
X43104Y-30360D01*
X42999Y-30322D01*
X42928Y-30393D01*
X42928Y-30251D01*
X42890Y-30146D01*
X42653Y-30059D01*
X42399Y-30069D01*
X42210Y-30146D01*
X42182Y-30223D01*
X42182Y-29287D01*
X42135Y-29200D01*
X41550Y-29200D01*
X41550Y-29710D01*
X41660Y-29710D01*
X41873Y-29660D01*
X42050Y-29532D01*
X42165Y-29346D01*
X42182Y-29287D01*
X42182Y-30223D01*
X42172Y-30251D01*
X42550Y-30629D01*
X42928Y-30251D01*
X42928Y-30393D01*
X42656Y-30665D01*
X42621Y-30700D01*
X42550Y-30771D01*
X42479Y-30700D01*
X42444Y-30665D01*
X42101Y-30322D01*
X41996Y-30360D01*
X41909Y-30597D01*
X41919Y-30851D01*
X41996Y-31040D01*
X42049Y-31059D01*
X42028Y-31081D01*
X42009Y-31089D01*
X41939Y-31159D01*
X41901Y-31250D01*
X41901Y-31300D01*
X41450Y-31300D01*
X41450Y-29710D01*
X41450Y-29200D01*
X40865Y-29200D01*
X40818Y-29287D01*
X40835Y-29346D01*
X40950Y-29532D01*
X41127Y-29660D01*
X41340Y-29710D01*
X41450Y-29710D01*
X41450Y-31300D01*
X40991Y-31300D01*
X40991Y-31159D01*
X40981Y-31134D01*
X40981Y-30474D01*
X40973Y-30185D01*
X40878Y-29955D01*
X40765Y-29906D01*
X40321Y-30350D01*
X40765Y-30794D01*
X40878Y-30745D01*
X40981Y-30474D01*
X40981Y-31134D01*
X40953Y-31067D01*
X40883Y-30997D01*
X40792Y-30959D01*
X40693Y-30959D01*
X40653Y-30959D01*
X40694Y-30865D01*
X40285Y-30456D01*
X40250Y-30421D01*
X40179Y-30350D01*
X40250Y-30279D01*
X40285Y-30244D01*
X40694Y-29835D01*
X40645Y-29722D01*
X40374Y-29619D01*
X40085Y-29627D01*
X39855Y-29722D01*
X39829Y-29781D01*
X39785Y-29715D01*
X39465Y-29395D01*
X39465Y-29182D01*
X39489Y-29241D01*
X39559Y-29311D01*
X39650Y-29349D01*
X39749Y-29349D01*
X40549Y-29349D01*
X40641Y-29311D01*
X40711Y-29241D01*
X40749Y-29150D01*
X40749Y-29070D01*
X40753Y-29070D01*
X40823Y-29022D01*
X40865Y-29100D01*
X41400Y-29100D01*
X41450Y-29100D01*
X41550Y-29100D01*
X41600Y-29100D01*
X42135Y-29100D01*
X42182Y-29013D01*
X42165Y-28954D01*
X42050Y-28768D01*
X41884Y-28648D01*
X41964Y-28615D01*
X42118Y-28461D01*
X42202Y-28259D01*
X42202Y-28041D01*
X42118Y-27839D01*
X41964Y-27685D01*
X41879Y-27650D01*
X41964Y-27615D01*
X42118Y-27461D01*
X42202Y-27259D01*
X42202Y-27041D01*
X42118Y-26839D01*
X41988Y-26709D01*
X41999Y-26709D01*
X42091Y-26671D01*
X42161Y-26601D01*
X42199Y-26510D01*
X42199Y-26411D01*
X42199Y-25791D01*
X42161Y-25699D01*
X42091Y-25629D01*
X42000Y-25591D01*
X41901Y-25591D01*
X41875Y-25591D01*
X41875Y-24940D01*
X42842Y-24940D01*
X43017Y-25115D01*
X43256Y-25214D01*
X43514Y-25214D01*
X43753Y-25115D01*
X43785Y-25083D01*
X43785Y-25810D01*
X43814Y-25954D01*
X43826Y-25972D01*
X43798Y-26041D01*
X43798Y-26259D01*
X43882Y-26461D01*
X44036Y-26615D01*
X44120Y-26650D01*
X44036Y-26685D01*
X43882Y-26839D01*
X43798Y-27041D01*
X43798Y-27259D01*
X43882Y-27461D01*
X44036Y-27615D01*
X44120Y-27650D01*
X44036Y-27685D01*
X43882Y-27839D01*
X43798Y-28041D01*
X43798Y-28259D01*
X43882Y-28461D01*
X44036Y-28615D01*
X44120Y-28650D01*
X44036Y-28685D01*
X43882Y-28839D01*
X43798Y-29041D01*
X43798Y-29259D01*
X43882Y-29461D01*
X44036Y-29615D01*
X44238Y-29699D01*
X44456Y-29699D01*
X44762Y-29699D01*
X44964Y-29615D01*
X45029Y-29550D01*
X45242Y-29550D01*
X45151Y-29771D01*
X45151Y-30029D01*
X45250Y-30268D01*
X45432Y-30450D01*
X45671Y-30549D01*
X45929Y-30549D01*
X46168Y-30450D01*
X46325Y-30293D01*
X46482Y-30450D01*
X46721Y-30549D01*
X46979Y-30549D01*
X47218Y-30450D01*
X47400Y-30268D01*
X47499Y-30029D01*
X47499Y-29771D01*
X47400Y-29532D01*
X47250Y-29382D01*
X47250Y-29100D01*
X47220Y-28947D01*
X47219Y-28946D01*
X47133Y-28817D01*
X47129Y-28814D01*
X46415Y-28100D01*
X46850Y-28100D01*
X47350Y-28100D01*
X47503Y-28070D01*
X47633Y-27983D01*
X48067Y-27549D01*
X48279Y-27549D01*
X48518Y-27450D01*
X48700Y-27268D01*
X48799Y-27029D01*
X48799Y-26771D01*
X48779Y-26724D01*
X49088Y-26725D01*
X49150Y-26663D01*
X49150Y-26150D01*
X49150Y-26050D01*
X49150Y-25537D01*
X49120Y-25507D01*
X49120Y-23643D01*
X49120Y-23130D01*
X48607Y-23130D01*
X48545Y-23192D01*
X48546Y-23406D01*
X48546Y-23505D01*
X48584Y-23596D01*
X48654Y-23666D01*
X48746Y-23704D01*
X49058Y-23705D01*
X49120Y-23643D01*
X49120Y-25507D01*
X49088Y-25475D01*
X48776Y-25476D01*
X48684Y-25514D01*
X48614Y-25584D01*
X48576Y-25675D01*
X48576Y-25774D01*
X48575Y-25988D01*
X48637Y-26050D01*
X49150Y-26050D01*
X49150Y-26150D01*
X48637Y-26150D01*
X48575Y-26212D01*
X48575Y-26407D01*
X48518Y-26350D01*
X48498Y-26341D01*
X48279Y-26251D01*
X48021Y-26251D01*
X47782Y-26350D01*
X47600Y-26532D01*
X47501Y-26771D01*
X47501Y-26983D01*
X47490Y-26993D01*
X47481Y-26749D01*
X47404Y-26560D01*
X47299Y-26522D01*
X46956Y-26865D01*
X46921Y-26900D01*
X46850Y-26971D01*
X46779Y-26900D01*
X46850Y-26829D01*
X46885Y-26794D01*
X47228Y-26451D01*
X47213Y-26411D01*
X47213Y-26410D01*
X47305Y-26350D01*
X48280Y-25376D01*
X48280Y-25375D01*
X48320Y-25314D01*
X48361Y-25254D01*
X48361Y-25253D01*
X48389Y-25111D01*
X48390Y-25110D01*
X48390Y-24455D01*
X48361Y-24312D01*
X48361Y-24311D01*
X48280Y-24190D01*
X48135Y-24045D01*
X48135Y-23826D01*
X48040Y-23596D01*
X47864Y-23420D01*
X47635Y-23325D01*
X47386Y-23325D01*
X47156Y-23420D01*
X47010Y-23566D01*
X46864Y-23420D01*
X46635Y-23325D01*
X46386Y-23325D01*
X46156Y-23420D01*
X45980Y-23596D01*
X45885Y-23825D01*
X45885Y-23949D01*
X45495Y-23559D01*
X45495Y-22773D01*
X45663Y-22605D01*
X46695Y-22605D01*
X46838Y-22576D01*
X46839Y-22576D01*
X46960Y-22495D01*
X47570Y-21885D01*
X47579Y-21885D01*
X47566Y-21890D01*
X47479Y-22127D01*
X47489Y-22381D01*
X47566Y-22570D01*
X47671Y-22608D01*
X48014Y-22265D01*
X48049Y-22230D01*
X48120Y-22159D01*
X48191Y-22230D01*
X48120Y-22301D01*
X48085Y-22336D01*
X47742Y-22679D01*
X47780Y-22784D01*
X48017Y-22871D01*
X48271Y-22861D01*
X48460Y-22784D01*
X48479Y-22730D01*
X48498Y-22749D01*
X48517Y-22768D01*
X48546Y-22739D01*
X48546Y-22754D01*
X48545Y-22968D01*
X48607Y-23030D01*
X49070Y-23030D01*
X49120Y-23030D01*
X49220Y-23030D01*
X49220Y-23130D01*
X49220Y-23180D01*
X49220Y-23643D01*
X49282Y-23705D01*
X49571Y-23704D01*
X49363Y-23913D01*
X49287Y-24026D01*
X49260Y-24160D01*
X49260Y-25430D01*
X49276Y-25510D01*
X49250Y-25537D01*
X49250Y-26000D01*
X49250Y-26050D01*
X49250Y-26150D01*
X49250Y-26200D01*
X49250Y-26663D01*
X49312Y-26725D01*
X49624Y-26724D01*
X49716Y-26686D01*
X49786Y-26616D01*
X49799Y-26583D01*
X49810Y-26594D01*
X49343Y-27063D01*
X49267Y-27176D01*
X49240Y-27310D01*
X49240Y-28380D01*
X49267Y-28514D01*
X49269Y-28517D01*
X49250Y-28537D01*
X49250Y-29000D01*
X49250Y-29050D01*
X49250Y-29150D01*
X49250Y-29200D01*
X49250Y-29663D01*
X49312Y-29725D01*
X49624Y-29724D01*
X49716Y-29686D01*
X49786Y-29616D01*
X49799Y-29583D01*
X49846Y-29630D01*
X49850Y-29631D01*
X49850Y-29655D01*
M02*
